  0
SECTION
  2
HEADER
  9
$ANGBASE
  50
0.0
  9
$ANGDIR
  70
1
  9
$MEASUREMENT
  70
1
  0
ENDSEC
  0
SECTION
  2
TABLES
  0
TABLE
  2
LTYPE
  70
4
  0
LTYPE
  5
40F
  2
CONTINUOUS
  70
0
  3
Solid line
  72
65
  73
0
  40
0.0
  0
LTYPE
  5
410
  2
DASHDOT
 70
0
  3
Dash Dot ____ _ ____ _
 72
65
 73
4
 40
2.0
 49
1.25
 49
-0.25
 49
0.25
 49
-0.25
  0
LTYPE
  5
411
  2
DASHED
 70
0
  3
Dashed __ __ __ __ __
 72
65
 73
2
 40
0.75
 49
0.5
 49
-0.25
  0
LTYPE
  5
43B
  2
DOTTED
 70
0
  3
Dotted .  .  .  .
 72
65
 73
2
 40
0.2
 49
0.0
 49
-0.2
  0
ENDTAB
  0
TABLE
  2
STYLE
  70
4
  0
STYLE
  2
KICAD
  70
0
  40
0
  41
1
  42
1
  50
0
  71
0
  3
isocp.shx
  0
STYLE
  2
KICADB
  70
0
  40
0
  41
1
  42
1
  50
0
  71
0
  3
isocp.shx
  0
STYLE
  2
KICADI
  70
0
  40
0
  41
1
  42
1
  50
15
  71
0
  3
isocp.shx
  0
STYLE
  2
KICADBI
  70
0
  40
0
  41
1
  42
1
  50
15
  71
0
  3
isocp.shx
  0
ENDTAB
  0
TABLE
  2
LAYER
  70
1
  0
LAYER
  2
BLACK
  70
0
  62
7
  6
CONTINUOUS
  0
ENDTAB
  0
ENDSEC
  0
SECTION
  2
ENTITIES
0
LINE
8
BLACK
6
CONTINUOUS
10
170.816
20
-57.125
11
170.816
21
-57.125
0
LINE
8
BLACK
6
CONTINUOUS
10
170.816
20
-57.125
11
170.82
21
-57.1254
0
LINE
8
BLACK
6
CONTINUOUS
10
170.82
20
-57.1254
11
170.825
21
-57.1268
0
LINE
8
BLACK
6
CONTINUOUS
10
170.825
20
-57.1268
11
170.829
21
-57.1291
0
LINE
8
BLACK
6
CONTINUOUS
10
170.829
20
-57.1291
11
170.833
21
-57.1322
0
LINE
8
BLACK
6
CONTINUOUS
10
170.833
20
-57.1322
11
170.836
21
-57.136
0
LINE
8
BLACK
6
CONTINUOUS
10
170.836
20
-57.136
11
170.838
21
-57.1404
0
LINE
8
BLACK
6
CONTINUOUS
10
170.838
20
-57.1404
11
170.84
21
-57.1451
0
LINE
8
BLACK
6
CONTINUOUS
10
170.84
20
-57.1451
11
170.84
21
-57.15
0
LINE
8
BLACK
6
CONTINUOUS
10
170.84
20
-57.15
11
170.84
21
-57.1512
0
LINE
8
BLACK
6
CONTINUOUS
10
170.84
20
-57.1512
11
170.84
21
-120.649
0
LINE
8
BLACK
6
CONTINUOUS
10
170.84
20
-120.649
11
170.84
21
-120.65
0
LINE
8
BLACK
6
CONTINUOUS
10
170.84
20
-120.65
11
170.84
21
-120.651
0
LINE
8
BLACK
6
CONTINUOUS
10
170.84
20
-120.651
11
170.84
21
-120.651
0
LINE
8
BLACK
6
CONTINUOUS
10
170.84
20
-120.651
11
170.84
21
-120.655
0
LINE
8
BLACK
6
CONTINUOUS
10
170.84
20
-120.655
11
170.838
21
-120.66
0
LINE
8
BLACK
6
CONTINUOUS
10
170.838
20
-120.66
11
170.836
21
-120.664
0
LINE
8
BLACK
6
CONTINUOUS
10
170.836
20
-120.664
11
170.833
21
-120.668
0
LINE
8
BLACK
6
CONTINUOUS
10
170.833
20
-120.668
11
170.829
21
-120.671
0
LINE
8
BLACK
6
CONTINUOUS
10
170.829
20
-120.671
11
170.825
21
-120.673
0
LINE
8
BLACK
6
CONTINUOUS
10
170.825
20
-120.673
11
170.82
21
-120.675
0
LINE
8
BLACK
6
CONTINUOUS
10
170.82
20
-120.675
11
170.815
21
-120.675
0
LINE
8
BLACK
6
CONTINUOUS
10
170.815
20
-120.675
11
170.814
21
-120.675
0
LINE
8
BLACK
6
CONTINUOUS
10
170.814
20
-120.675
11
114.301
21
-120.675
0
LINE
8
BLACK
6
CONTINUOUS
10
114.301
20
-120.675
11
114.3
21
-120.675
0
LINE
8
BLACK
6
CONTINUOUS
10
114.3
20
-120.675
11
114.295
21
-120.675
0
LINE
8
BLACK
6
CONTINUOUS
10
114.295
20
-120.675
11
114.29
21
-120.673
0
LINE
8
BLACK
6
CONTINUOUS
10
114.29
20
-120.673
11
114.286
21
-120.671
0
LINE
8
BLACK
6
CONTINUOUS
10
114.286
20
-120.671
11
114.282
21
-120.668
0
LINE
8
BLACK
6
CONTINUOUS
10
114.282
20
-120.668
11
114.279
21
-120.664
0
LINE
8
BLACK
6
CONTINUOUS
10
114.279
20
-120.664
11
114.277
21
-120.66
0
LINE
8
BLACK
6
CONTINUOUS
10
114.277
20
-120.66
11
114.275
21
-120.655
0
LINE
8
BLACK
6
CONTINUOUS
10
114.275
20
-120.655
11
114.275
21
-120.65
0
LINE
8
BLACK
6
CONTINUOUS
10
114.275
20
-120.65
11
114.275
21
-120.649
0
LINE
8
BLACK
6
CONTINUOUS
10
114.275
20
-120.649
11
114.275
21
-57.1512
0
LINE
8
BLACK
6
CONTINUOUS
10
114.275
20
-57.1512
11
114.275
21
-57.15
0
LINE
8
BLACK
6
CONTINUOUS
10
114.275
20
-57.15
11
114.275
21
-57.1451
0
LINE
8
BLACK
6
CONTINUOUS
10
114.275
20
-57.1451
11
114.277
21
-57.1404
0
LINE
8
BLACK
6
CONTINUOUS
10
114.277
20
-57.1404
11
114.279
21
-57.136
0
LINE
8
BLACK
6
CONTINUOUS
10
114.279
20
-57.136
11
114.282
21
-57.1322
0
LINE
8
BLACK
6
CONTINUOUS
10
114.282
20
-57.1322
11
114.286
21
-57.1291
0
LINE
8
BLACK
6
CONTINUOUS
10
114.286
20
-57.1291
11
114.29
21
-57.1268
0
LINE
8
BLACK
6
CONTINUOUS
10
114.29
20
-57.1268
11
114.295
21
-57.1254
0
LINE
8
BLACK
6
CONTINUOUS
10
114.295
20
-57.1254
11
114.299
21
-57.125
0
LINE
8
BLACK
6
CONTINUOUS
10
114.299
20
-57.125
11
114.299
21
-57.125
0
LINE
8
BLACK
6
CONTINUOUS
10
114.299
20
-57.125
11
114.3
21
-57.1249
0
LINE
8
BLACK
6
CONTINUOUS
10
114.3
20
-57.1249
11
114.301
21
-57.125
0
LINE
8
BLACK
6
CONTINUOUS
10
114.301
20
-57.125
11
170.814
21
-57.125
0
LINE
8
BLACK
6
CONTINUOUS
10
170.814
20
-57.125
11
170.815
21
-57.1249
0
LINE
8
BLACK
6
CONTINUOUS
10
170.815
20
-57.1249
11
170.816
21
-57.125
0
LINE
8
BLACK
6
CONTINUOUS
10
114.325
20
-57.175
11
114.325
21
-120.625
0
LINE
8
BLACK
6
CONTINUOUS
10
114.325
20
-120.625
11
170.79
21
-120.625
0
LINE
8
BLACK
6
CONTINUOUS
10
170.79
20
-120.625
11
170.79
21
-57.175
0
LINE
8
BLACK
6
CONTINUOUS
10
170.79
20
-57.175
11
114.325
21
-57.175
  0
ENDSEC
  0
EOF
