  0
SECTION
  2
HEADER
  9
$ANGBASE
  50
0.0
  9
$ANGDIR
  70
1
  9
$MEASUREMENT
  70
1
  0
ENDSEC
  0
SECTION
  2
TABLES
  0
TABLE
  2
LTYPE
  70
4
  0
LTYPE
  5
40F
  2
CONTINUOUS
  70
0
  3
Solid line
  72
65
  73
0
  40
0.0
  0
LTYPE
  5
410
  2
DASHDOT
 70
0
  3
Dash Dot ____ _ ____ _
 72
65
 73
4
 40
2.0
 49
1.25
 49
-0.25
 49
0.25
 49
-0.25
  0
LTYPE
  5
411
  2
DASHED
 70
0
  3
Dashed __ __ __ __ __
 72
65
 73
2
 40
0.75
 49
0.5
 49
-0.25
  0
LTYPE
  5
43B
  2
DOTTED
 70
0
  3
Dotted .  .  .  .
 72
65
 73
2
 40
0.2
 49
0.0
 49
-0.2
  0
ENDTAB
  0
TABLE
  2
STYLE
  70
4
  0
STYLE
  2
KICAD
  70
0
  40
0
  41
1
  42
1
  50
0
  71
0
  3
isocp.shx
  0
STYLE
  2
KICADB
  70
0
  40
0
  41
1
  42
1
  50
0
  71
0
  3
isocp.shx
  0
STYLE
  2
KICADI
  70
0
  40
0
  41
1
  42
1
  50
15
  71
0
  3
isocp.shx
  0
STYLE
  2
KICADBI
  70
0
  40
0
  41
1
  42
1
  50
15
  71
0
  3
isocp.shx
  0
ENDTAB
  0
TABLE
  2
LAYER
  70
1
  0
LAYER
  2
BLACK
  70
0
  62
7
  6
CONTINUOUS
  0
ENDTAB
  0
ENDSEC
  0
SECTION
  2
ENTITIES
0
LINE
8
BLACK
6
CONTINUOUS
10
138.678
20
-74.1127
11
138.833
21
-74.1767
0
LINE
8
BLACK
6
CONTINUOUS
10
138.833
20
-74.1767
11
138.972
21
-74.2698
0
LINE
8
BLACK
6
CONTINUOUS
10
138.972
20
-74.2698
11
139.09
21
-74.3882
0
LINE
8
BLACK
6
CONTINUOUS
10
139.09
20
-74.3882
11
139.118
21
-74.43
0
LINE
8
BLACK
6
CONTINUOUS
10
139.118
20
-74.43
11
142.822
21
-74.43
0
LINE
8
BLACK
6
CONTINUOUS
10
142.822
20
-74.43
11
142.85
21
-74.3882
0
LINE
8
BLACK
6
CONTINUOUS
10
142.85
20
-74.3882
11
142.968
21
-74.2698
0
LINE
8
BLACK
6
CONTINUOUS
10
142.968
20
-74.2698
11
143.107
21
-74.1767
0
LINE
8
BLACK
6
CONTINUOUS
10
143.107
20
-74.1767
11
143.262
21
-74.1127
0
LINE
8
BLACK
6
CONTINUOUS
10
143.262
20
-74.1127
11
143.426
21
-74.08
0
LINE
8
BLACK
6
CONTINUOUS
10
143.426
20
-74.08
11
143.594
21
-74.08
0
LINE
8
BLACK
6
CONTINUOUS
10
143.594
20
-74.08
11
143.758
21
-74.1127
0
LINE
8
BLACK
6
CONTINUOUS
10
143.758
20
-74.1127
11
143.913
21
-74.1767
0
LINE
8
BLACK
6
CONTINUOUS
10
143.913
20
-74.1767
11
144.052
21
-74.2698
0
LINE
8
BLACK
6
CONTINUOUS
10
144.052
20
-74.2698
11
144.17
21
-74.3882
0
LINE
8
BLACK
6
CONTINUOUS
10
144.17
20
-74.3882
11
144.198
21
-74.43
0
LINE
8
BLACK
6
CONTINUOUS
10
144.198
20
-74.43
11
150.442
21
-74.43
0
LINE
8
BLACK
6
CONTINUOUS
10
150.442
20
-74.43
11
150.47
21
-74.3882
0
LINE
8
BLACK
6
CONTINUOUS
10
150.47
20
-74.3882
11
150.588
21
-74.2698
0
LINE
8
BLACK
6
CONTINUOUS
10
150.588
20
-74.2698
11
150.727
21
-74.1767
0
LINE
8
BLACK
6
CONTINUOUS
10
150.727
20
-74.1767
11
150.882
21
-74.1127
0
LINE
8
BLACK
6
CONTINUOUS
10
150.882
20
-74.1127
11
151.046
21
-74.08
0
LINE
8
BLACK
6
CONTINUOUS
10
151.046
20
-74.08
11
151.214
21
-74.08
0
LINE
8
BLACK
6
CONTINUOUS
10
151.214
20
-74.08
11
151.378
21
-74.1127
0
LINE
8
BLACK
6
CONTINUOUS
10
151.378
20
-74.1127
11
151.533
21
-74.1767
0
LINE
8
BLACK
6
CONTINUOUS
10
151.533
20
-74.1767
11
151.672
21
-74.2698
0
LINE
8
BLACK
6
CONTINUOUS
10
151.672
20
-74.2698
11
151.79
21
-74.3882
0
LINE
8
BLACK
6
CONTINUOUS
10
151.79
20
-74.3882
11
151.818
21
-74.43
0
LINE
8
BLACK
6
CONTINUOUS
10
151.818
20
-74.43
11
155.522
21
-74.43
0
LINE
8
BLACK
6
CONTINUOUS
10
155.522
20
-74.43
11
155.55
21
-74.3882
0
LINE
8
BLACK
6
CONTINUOUS
10
155.55
20
-74.3882
11
155.668
21
-74.2698
0
LINE
8
BLACK
6
CONTINUOUS
10
155.668
20
-74.2698
11
155.807
21
-74.1767
0
LINE
8
BLACK
6
CONTINUOUS
10
155.807
20
-74.1767
11
155.962
21
-74.1127
0
LINE
8
BLACK
6
CONTINUOUS
10
155.962
20
-74.1127
11
156.126
21
-74.08
0
LINE
8
BLACK
6
CONTINUOUS
10
156.126
20
-74.08
11
156.294
21
-74.08
0
LINE
8
BLACK
6
CONTINUOUS
10
156.294
20
-74.08
11
156.458
21
-74.1127
0
LINE
8
BLACK
6
CONTINUOUS
10
156.458
20
-74.1127
11
156.613
21
-74.1767
0
LINE
8
BLACK
6
CONTINUOUS
10
156.613
20
-74.1767
11
156.752
21
-74.2698
0
LINE
8
BLACK
6
CONTINUOUS
10
156.752
20
-74.2698
11
156.87
21
-74.3882
0
LINE
8
BLACK
6
CONTINUOUS
10
156.87
20
-74.3882
11
156.898
21
-74.43
0
LINE
8
BLACK
6
CONTINUOUS
10
156.898
20
-74.43
11
163.805
21
-74.43
0
LINE
8
BLACK
6
CONTINUOUS
10
163.805
20
-74.43
11
163.83
21
-74.4276
0
LINE
8
BLACK
6
CONTINUOUS
10
163.83
20
-74.4276
11
163.855
21
-74.43
0
LINE
8
BLACK
6
CONTINUOUS
10
163.855
20
-74.43
11
163.928
21
-74.4372
0
LINE
8
BLACK
6
CONTINUOUS
10
163.928
20
-74.4372
11
164.022
21
-74.4658
0
LINE
8
BLACK
6
CONTINUOUS
10
164.022
20
-74.4658
11
164.109
21
-74.5123
0
LINE
8
BLACK
6
CONTINUOUS
10
164.109
20
-74.5123
11
164.185
21
-74.5747
0
LINE
8
BLACK
6
CONTINUOUS
10
164.185
20
-74.5747
11
164.201
21
-74.5938
0
LINE
8
BLACK
6
CONTINUOUS
10
164.201
20
-74.5938
11
166.706
21
-77.0991
0
LINE
8
BLACK
6
CONTINUOUS
10
166.706
20
-77.0991
11
166.725
21
-77.1147
0
LINE
8
BLACK
6
CONTINUOUS
10
166.725
20
-77.1147
11
166.788
21
-77.1909
0
LINE
8
BLACK
6
CONTINUOUS
10
166.788
20
-77.1909
11
166.834
21
-77.2777
0
LINE
8
BLACK
6
CONTINUOUS
10
166.834
20
-77.2777
11
166.863
21
-77.372
0
LINE
8
BLACK
6
CONTINUOUS
10
166.863
20
-77.372
11
166.87
21
-77.4454
0
LINE
8
BLACK
6
CONTINUOUS
10
166.87
20
-77.4454
11
166.87
21
-77.4454
0
LINE
8
BLACK
6
CONTINUOUS
10
166.87
20
-77.4454
11
166.872
21
-77.47
0
LINE
8
BLACK
6
CONTINUOUS
10
166.872
20
-77.47
11
166.87
21
-77.4945
0
LINE
8
BLACK
6
CONTINUOUS
10
166.87
20
-77.4945
11
166.87
21
-92.6854
0
LINE
8
BLACK
6
CONTINUOUS
10
166.87
20
-92.6854
11
166.872
21
-92.71
0
LINE
8
BLACK
6
CONTINUOUS
10
166.872
20
-92.71
11
166.87
21
-92.7346
0
LINE
8
BLACK
6
CONTINUOUS
10
166.87
20
-92.7346
11
166.87
21
-92.7346
0
LINE
8
BLACK
6
CONTINUOUS
10
166.87
20
-92.7346
11
166.863
21
-92.808
0
LINE
8
BLACK
6
CONTINUOUS
10
166.863
20
-92.808
11
166.834
21
-92.9023
0
LINE
8
BLACK
6
CONTINUOUS
10
166.834
20
-92.9023
11
166.788
21
-92.9891
0
LINE
8
BLACK
6
CONTINUOUS
10
166.788
20
-92.9891
11
166.725
21
-93.0653
0
LINE
8
BLACK
6
CONTINUOUS
10
166.725
20
-93.0653
11
166.706
21
-93.0809
0
LINE
8
BLACK
6
CONTINUOUS
10
166.706
20
-93.0809
11
165.471
21
-94.3162
0
LINE
8
BLACK
6
CONTINUOUS
10
165.471
20
-94.3162
11
165.455
21
-94.3353
0
LINE
8
BLACK
6
CONTINUOUS
10
165.455
20
-94.3353
11
165.379
21
-94.3977
0
LINE
8
BLACK
6
CONTINUOUS
10
165.379
20
-94.3977
11
165.292
21
-94.4442
0
LINE
8
BLACK
6
CONTINUOUS
10
165.292
20
-94.4442
11
165.198
21
-94.4728
0
LINE
8
BLACK
6
CONTINUOUS
10
165.198
20
-94.4728
11
165.125
21
-94.48
0
LINE
8
BLACK
6
CONTINUOUS
10
165.125
20
-94.48
11
165.1
21
-94.4824
0
LINE
8
BLACK
6
CONTINUOUS
10
165.1
20
-94.4824
11
165.075
21
-94.48
0
LINE
8
BLACK
6
CONTINUOUS
10
165.075
20
-94.48
11
164.06
21
-94.48
0
LINE
8
BLACK
6
CONTINUOUS
10
164.06
20
-94.48
11
164.06
21
-95.48
0
LINE
8
BLACK
6
CONTINUOUS
10
164.06
20
-95.48
11
163.06
21
-95.48
0
LINE
8
BLACK
6
CONTINUOUS
10
163.06
20
-95.48
11
163.06
21
-96.2729
0
LINE
8
BLACK
6
CONTINUOUS
10
163.06
20
-96.2729
11
166.706
21
-99.9191
0
LINE
8
BLACK
6
CONTINUOUS
10
166.706
20
-99.9191
11
166.725
21
-99.9347
0
LINE
8
BLACK
6
CONTINUOUS
10
166.725
20
-99.9347
11
166.788
21
-100.011
0
LINE
8
BLACK
6
CONTINUOUS
10
166.788
20
-100.011
11
166.834
21
-100.098
0
LINE
8
BLACK
6
CONTINUOUS
10
166.834
20
-100.098
11
166.846
21
-100.138
0
LINE
8
BLACK
6
CONTINUOUS
10
166.846
20
-100.138
11
166.863
21
-100.192
0
LINE
8
BLACK
6
CONTINUOUS
10
166.863
20
-100.192
11
166.872
21
-100.29
0
LINE
8
BLACK
6
CONTINUOUS
10
166.872
20
-100.29
11
166.87
21
-100.315
0
LINE
8
BLACK
6
CONTINUOUS
10
166.87
20
-100.315
11
166.87
21
-115.545
0
LINE
8
BLACK
6
CONTINUOUS
10
166.87
20
-115.545
11
166.872
21
-115.57
0
LINE
8
BLACK
6
CONTINUOUS
10
166.872
20
-115.57
11
166.863
21
-115.668
0
LINE
8
BLACK
6
CONTINUOUS
10
166.863
20
-115.668
11
166.834
21
-115.762
0
LINE
8
BLACK
6
CONTINUOUS
10
166.834
20
-115.762
11
166.788
21
-115.849
0
LINE
8
BLACK
6
CONTINUOUS
10
166.788
20
-115.849
11
166.725
21
-115.925
0
LINE
8
BLACK
6
CONTINUOUS
10
166.725
20
-115.925
11
166.649
21
-115.988
0
LINE
8
BLACK
6
CONTINUOUS
10
166.649
20
-115.988
11
166.562
21
-116.034
0
LINE
8
BLACK
6
CONTINUOUS
10
166.562
20
-116.034
11
166.468
21
-116.063
0
LINE
8
BLACK
6
CONTINUOUS
10
166.468
20
-116.063
11
166.395
21
-116.07
0
LINE
8
BLACK
6
CONTINUOUS
10
166.395
20
-116.07
11
166.37
21
-116.072
0
LINE
8
BLACK
6
CONTINUOUS
10
166.37
20
-116.072
11
166.345
21
-116.07
0
LINE
8
BLACK
6
CONTINUOUS
10
166.345
20
-116.07
11
147.345
21
-116.07
0
LINE
8
BLACK
6
CONTINUOUS
10
147.345
20
-116.07
11
147.32
21
-116.072
0
LINE
8
BLACK
6
CONTINUOUS
10
147.32
20
-116.072
11
147.222
21
-116.063
0
LINE
8
BLACK
6
CONTINUOUS
10
147.222
20
-116.063
11
147.128
21
-116.034
0
LINE
8
BLACK
6
CONTINUOUS
10
147.128
20
-116.034
11
147.041
21
-115.988
0
LINE
8
BLACK
6
CONTINUOUS
10
147.041
20
-115.988
11
146.965
21
-115.925
0
LINE
8
BLACK
6
CONTINUOUS
10
146.965
20
-115.925
11
146.949
21
-115.906
0
LINE
8
BLACK
6
CONTINUOUS
10
146.949
20
-115.906
11
143.601
21
-112.558
0
LINE
8
BLACK
6
CONTINUOUS
10
143.601
20
-112.558
11
143.589
21
-112.56
0
LINE
8
BLACK
6
CONTINUOUS
10
143.589
20
-112.56
11
143.431
21
-112.56
0
LINE
8
BLACK
6
CONTINUOUS
10
143.431
20
-112.56
11
143.277
21
-112.529
0
LINE
8
BLACK
6
CONTINUOUS
10
143.277
20
-112.529
11
143.131
21
-112.469
0
LINE
8
BLACK
6
CONTINUOUS
10
143.131
20
-112.469
11
143
21
-112.381
0
LINE
8
BLACK
6
CONTINUOUS
10
143
20
-112.381
11
142.889
21
-112.27
0
LINE
8
BLACK
6
CONTINUOUS
10
142.889
20
-112.27
11
142.801
21
-112.139
0
LINE
8
BLACK
6
CONTINUOUS
10
142.801
20
-112.139
11
142.741
21
-111.993
0
LINE
8
BLACK
6
CONTINUOUS
10
142.741
20
-111.993
11
142.71
21
-111.839
0
LINE
8
BLACK
6
CONTINUOUS
10
142.71
20
-111.839
11
142.71
21
-111.681
0
LINE
8
BLACK
6
CONTINUOUS
10
142.71
20
-111.681
11
142.741
21
-111.527
0
LINE
8
BLACK
6
CONTINUOUS
10
142.741
20
-111.527
11
142.801
21
-111.381
0
LINE
8
BLACK
6
CONTINUOUS
10
142.801
20
-111.381
11
142.889
21
-111.25
0
LINE
8
BLACK
6
CONTINUOUS
10
142.889
20
-111.25
11
143
21
-111.139
0
LINE
8
BLACK
6
CONTINUOUS
10
143
20
-111.139
11
143.131
21
-111.051
0
LINE
8
BLACK
6
CONTINUOUS
10
143.131
20
-111.051
11
143.277
21
-110.991
0
LINE
8
BLACK
6
CONTINUOUS
10
143.277
20
-110.991
11
143.431
21
-110.96
0
LINE
8
BLACK
6
CONTINUOUS
10
143.431
20
-110.96
11
143.589
21
-110.96
0
LINE
8
BLACK
6
CONTINUOUS
10
143.589
20
-110.96
11
143.743
21
-110.991
0
LINE
8
BLACK
6
CONTINUOUS
10
143.743
20
-110.991
11
143.889
21
-111.051
0
LINE
8
BLACK
6
CONTINUOUS
10
143.889
20
-111.051
11
144.02
21
-111.139
0
LINE
8
BLACK
6
CONTINUOUS
10
144.02
20
-111.139
11
144.131
21
-111.25
0
LINE
8
BLACK
6
CONTINUOUS
10
144.131
20
-111.25
11
144.219
21
-111.381
0
LINE
8
BLACK
6
CONTINUOUS
10
144.219
20
-111.381
11
144.279
21
-111.527
0
LINE
8
BLACK
6
CONTINUOUS
10
144.279
20
-111.527
11
144.31
21
-111.681
0
LINE
8
BLACK
6
CONTINUOUS
10
144.31
20
-111.681
11
144.31
21
-111.839
0
LINE
8
BLACK
6
CONTINUOUS
10
144.31
20
-111.839
11
144.308
21
-111.851
0
LINE
8
BLACK
6
CONTINUOUS
10
144.308
20
-111.851
11
147.527
21
-115.07
0
LINE
8
BLACK
6
CONTINUOUS
10
147.527
20
-115.07
11
165.87
21
-115.07
0
LINE
8
BLACK
6
CONTINUOUS
10
165.87
20
-115.07
11
165.87
21
-100.497
0
LINE
8
BLACK
6
CONTINUOUS
10
165.87
20
-100.497
11
162.224
21
-96.8509
0
LINE
8
BLACK
6
CONTINUOUS
10
162.224
20
-96.8509
11
162.205
21
-96.8353
0
LINE
8
BLACK
6
CONTINUOUS
10
162.205
20
-96.8353
11
162.142
21
-96.7591
0
LINE
8
BLACK
6
CONTINUOUS
10
162.142
20
-96.7591
11
162.096
21
-96.6723
0
LINE
8
BLACK
6
CONTINUOUS
10
162.096
20
-96.6723
11
162.067
21
-96.578
0
LINE
8
BLACK
6
CONTINUOUS
10
162.067
20
-96.578
11
162.058
21
-96.48
0
LINE
8
BLACK
6
CONTINUOUS
10
162.058
20
-96.48
11
162.06
21
-96.4554
0
LINE
8
BLACK
6
CONTINUOUS
10
162.06
20
-96.4554
11
162.06
21
-95.48
0
LINE
8
BLACK
6
CONTINUOUS
10
162.06
20
-95.48
11
161.06
21
-95.48
0
LINE
8
BLACK
6
CONTINUOUS
10
161.06
20
-95.48
11
161.06
21
-92.48
0
LINE
8
BLACK
6
CONTINUOUS
10
161.06
20
-92.48
11
164.06
21
-92.48
0
LINE
8
BLACK
6
CONTINUOUS
10
164.06
20
-92.48
11
164.06
21
-93.48
0
LINE
8
BLACK
6
CONTINUOUS
10
164.06
20
-93.48
11
164.893
21
-93.48
0
LINE
8
BLACK
6
CONTINUOUS
10
164.893
20
-93.48
11
165.87
21
-92.5029
0
LINE
8
BLACK
6
CONTINUOUS
10
165.87
20
-92.5029
11
165.87
21
-77.6771
0
LINE
8
BLACK
6
CONTINUOUS
10
165.87
20
-77.6771
11
163.623
21
-75.43
0
LINE
8
BLACK
6
CONTINUOUS
10
163.623
20
-75.43
11
156.898
21
-75.43
0
LINE
8
BLACK
6
CONTINUOUS
10
156.898
20
-75.43
11
156.87
21
-75.4718
0
LINE
8
BLACK
6
CONTINUOUS
10
156.87
20
-75.4718
11
156.752
21
-75.5902
0
LINE
8
BLACK
6
CONTINUOUS
10
156.752
20
-75.5902
11
156.613
21
-75.6833
0
LINE
8
BLACK
6
CONTINUOUS
10
156.613
20
-75.6833
11
156.458
21
-75.7473
0
LINE
8
BLACK
6
CONTINUOUS
10
156.458
20
-75.7473
11
156.294
21
-75.78
0
LINE
8
BLACK
6
CONTINUOUS
10
156.294
20
-75.78
11
156.126
21
-75.78
0
LINE
8
BLACK
6
CONTINUOUS
10
156.126
20
-75.78
11
155.962
21
-75.7473
0
LINE
8
BLACK
6
CONTINUOUS
10
155.962
20
-75.7473
11
155.807
21
-75.6833
0
LINE
8
BLACK
6
CONTINUOUS
10
155.807
20
-75.6833
11
155.668
21
-75.5902
0
LINE
8
BLACK
6
CONTINUOUS
10
155.668
20
-75.5902
11
155.55
21
-75.4718
0
LINE
8
BLACK
6
CONTINUOUS
10
155.55
20
-75.4718
11
155.522
21
-75.43
0
LINE
8
BLACK
6
CONTINUOUS
10
155.522
20
-75.43
11
151.818
21
-75.43
0
LINE
8
BLACK
6
CONTINUOUS
10
151.818
20
-75.43
11
151.79
21
-75.4718
0
LINE
8
BLACK
6
CONTINUOUS
10
151.79
20
-75.4718
11
151.672
21
-75.5902
0
LINE
8
BLACK
6
CONTINUOUS
10
151.672
20
-75.5902
11
151.533
21
-75.6833
0
LINE
8
BLACK
6
CONTINUOUS
10
151.533
20
-75.6833
11
151.378
21
-75.7473
0
LINE
8
BLACK
6
CONTINUOUS
10
151.378
20
-75.7473
11
151.214
21
-75.78
0
LINE
8
BLACK
6
CONTINUOUS
10
151.214
20
-75.78
11
151.046
21
-75.78
0
LINE
8
BLACK
6
CONTINUOUS
10
151.046
20
-75.78
11
150.882
21
-75.7473
0
LINE
8
BLACK
6
CONTINUOUS
10
150.882
20
-75.7473
11
150.727
21
-75.6833
0
LINE
8
BLACK
6
CONTINUOUS
10
150.727
20
-75.6833
11
150.588
21
-75.5902
0
LINE
8
BLACK
6
CONTINUOUS
10
150.588
20
-75.5902
11
150.47
21
-75.4718
0
LINE
8
BLACK
6
CONTINUOUS
10
150.47
20
-75.4718
11
150.442
21
-75.43
0
LINE
8
BLACK
6
CONTINUOUS
10
150.442
20
-75.43
11
144.198
21
-75.43
0
LINE
8
BLACK
6
CONTINUOUS
10
144.198
20
-75.43
11
144.17
21
-75.4718
0
LINE
8
BLACK
6
CONTINUOUS
10
144.17
20
-75.4718
11
144.052
21
-75.5902
0
LINE
8
BLACK
6
CONTINUOUS
10
144.052
20
-75.5902
11
143.913
21
-75.6833
0
LINE
8
BLACK
6
CONTINUOUS
10
143.913
20
-75.6833
11
143.758
21
-75.7473
0
LINE
8
BLACK
6
CONTINUOUS
10
143.758
20
-75.7473
11
143.594
21
-75.78
0
LINE
8
BLACK
6
CONTINUOUS
10
143.594
20
-75.78
11
143.426
21
-75.78
0
LINE
8
BLACK
6
CONTINUOUS
10
143.426
20
-75.78
11
143.262
21
-75.7473
0
LINE
8
BLACK
6
CONTINUOUS
10
143.262
20
-75.7473
11
143.107
21
-75.6833
0
LINE
8
BLACK
6
CONTINUOUS
10
143.107
20
-75.6833
11
142.968
21
-75.5902
0
LINE
8
BLACK
6
CONTINUOUS
10
142.968
20
-75.5902
11
142.85
21
-75.4718
0
LINE
8
BLACK
6
CONTINUOUS
10
142.85
20
-75.4718
11
142.822
21
-75.43
0
LINE
8
BLACK
6
CONTINUOUS
10
142.822
20
-75.43
11
139.118
21
-75.43
0
LINE
8
BLACK
6
CONTINUOUS
10
139.118
20
-75.43
11
139.09
21
-75.4718
0
LINE
8
BLACK
6
CONTINUOUS
10
139.09
20
-75.4718
11
138.972
21
-75.5902
0
LINE
8
BLACK
6
CONTINUOUS
10
138.972
20
-75.5902
11
138.833
21
-75.6833
0
LINE
8
BLACK
6
CONTINUOUS
10
138.833
20
-75.6833
11
138.678
21
-75.7473
0
LINE
8
BLACK
6
CONTINUOUS
10
138.678
20
-75.7473
11
138.514
21
-75.78
0
LINE
8
BLACK
6
CONTINUOUS
10
138.514
20
-75.78
11
138.346
21
-75.78
0
LINE
8
BLACK
6
CONTINUOUS
10
138.346
20
-75.78
11
138.182
21
-75.7473
0
LINE
8
BLACK
6
CONTINUOUS
10
138.182
20
-75.7473
11
138.027
21
-75.6833
0
LINE
8
BLACK
6
CONTINUOUS
10
138.027
20
-75.6833
11
137.888
21
-75.5902
0
LINE
8
BLACK
6
CONTINUOUS
10
137.888
20
-75.5902
11
137.77
21
-75.4718
0
LINE
8
BLACK
6
CONTINUOUS
10
137.77
20
-75.4718
11
137.677
21
-75.3326
0
LINE
8
BLACK
6
CONTINUOUS
10
137.677
20
-75.3326
11
137.613
21
-75.1779
0
LINE
8
BLACK
6
CONTINUOUS
10
137.613
20
-75.1779
11
137.58
21
-75.0137
0
LINE
8
BLACK
6
CONTINUOUS
10
137.58
20
-75.0137
11
137.58
21
-74.8463
0
LINE
8
BLACK
6
CONTINUOUS
10
137.58
20
-74.8463
11
137.613
21
-74.6821
0
LINE
8
BLACK
6
CONTINUOUS
10
137.613
20
-74.6821
11
137.677
21
-74.5274
0
LINE
8
BLACK
6
CONTINUOUS
10
137.677
20
-74.5274
11
137.77
21
-74.3882
0
LINE
8
BLACK
6
CONTINUOUS
10
137.77
20
-74.3882
11
137.888
21
-74.2698
0
LINE
8
BLACK
6
CONTINUOUS
10
137.888
20
-74.2698
11
138.027
21
-74.1767
0
LINE
8
BLACK
6
CONTINUOUS
10
138.027
20
-74.1767
11
138.182
21
-74.1127
0
LINE
8
BLACK
6
CONTINUOUS
10
138.182
20
-74.1127
11
138.346
21
-74.08
0
LINE
8
BLACK
6
CONTINUOUS
10
138.346
20
-74.08
11
138.514
21
-74.08
0
LINE
8
BLACK
6
CONTINUOUS
10
138.514
20
-74.08
11
138.678
21
-74.1127
0
LINE
8
BLACK
6
CONTINUOUS
10
124.443
20
-62.7307
11
124.589
21
-62.791
0
LINE
8
BLACK
6
CONTINUOUS
10
124.589
20
-62.791
11
124.72
21
-62.8786
0
LINE
8
BLACK
6
CONTINUOUS
10
124.72
20
-62.8786
11
124.831
21
-62.99
0
LINE
8
BLACK
6
CONTINUOUS
10
124.831
20
-62.99
11
124.919
21
-63.1211
0
LINE
8
BLACK
6
CONTINUOUS
10
124.919
20
-63.1211
11
124.979
21
-63.2666
0
LINE
8
BLACK
6
CONTINUOUS
10
124.979
20
-63.2666
11
125.01
21
-63.4212
0
LINE
8
BLACK
6
CONTINUOUS
10
125.01
20
-63.4212
11
125.01
21
-63.5788
0
LINE
8
BLACK
6
CONTINUOUS
10
125.01
20
-63.5788
11
124.979
21
-63.7334
0
LINE
8
BLACK
6
CONTINUOUS
10
124.979
20
-63.7334
11
124.919
21
-63.8789
0
LINE
8
BLACK
6
CONTINUOUS
10
124.919
20
-63.8789
11
124.831
21
-64.01
0
LINE
8
BLACK
6
CONTINUOUS
10
124.831
20
-64.01
11
124.72
21
-64.1214
0
LINE
8
BLACK
6
CONTINUOUS
10
124.72
20
-64.1214
11
124.71
21
-64.1281
0
LINE
8
BLACK
6
CONTINUOUS
10
124.71
20
-64.1281
11
124.71
21
-64.8929
0
LINE
8
BLACK
6
CONTINUOUS
10
124.71
20
-64.8929
11
136.787
21
-76.97
0
LINE
8
BLACK
6
CONTINUOUS
10
136.787
20
-76.97
11
137.58
21
-76.97
0
LINE
8
BLACK
6
CONTINUOUS
10
137.58
20
-76.97
11
137.58
21
-76.62
0
LINE
8
BLACK
6
CONTINUOUS
10
137.58
20
-76.62
11
139.28
21
-76.62
0
LINE
8
BLACK
6
CONTINUOUS
10
139.28
20
-76.62
11
139.28
21
-76.97
0
LINE
8
BLACK
6
CONTINUOUS
10
139.28
20
-76.97
11
142.66
21
-76.97
0
LINE
8
BLACK
6
CONTINUOUS
10
142.66
20
-76.97
11
142.66
21
-76.62
0
LINE
8
BLACK
6
CONTINUOUS
10
142.66
20
-76.62
11
144.36
21
-76.62
0
LINE
8
BLACK
6
CONTINUOUS
10
144.36
20
-76.62
11
144.36
21
-76.97
0
LINE
8
BLACK
6
CONTINUOUS
10
144.36
20
-76.97
11
150.28
21
-76.97
0
LINE
8
BLACK
6
CONTINUOUS
10
150.28
20
-76.97
11
150.28
21
-76.62
0
LINE
8
BLACK
6
CONTINUOUS
10
150.28
20
-76.62
11
151.98
21
-76.62
0
LINE
8
BLACK
6
CONTINUOUS
10
151.98
20
-76.62
11
151.98
21
-76.97
0
LINE
8
BLACK
6
CONTINUOUS
10
151.98
20
-76.97
11
155.36
21
-76.97
0
LINE
8
BLACK
6
CONTINUOUS
10
155.36
20
-76.97
11
155.36
21
-76.62
0
LINE
8
BLACK
6
CONTINUOUS
10
155.36
20
-76.62
11
157.06
21
-76.62
0
LINE
8
BLACK
6
CONTINUOUS
10
157.06
20
-76.62
11
157.06
21
-78.32
0
LINE
8
BLACK
6
CONTINUOUS
10
157.06
20
-78.32
11
156.71
21
-78.32
0
LINE
8
BLACK
6
CONTINUOUS
10
156.71
20
-78.32
11
156.71
21
-87.4229
0
LINE
8
BLACK
6
CONTINUOUS
10
156.71
20
-87.4229
11
157.687
21
-88.4
0
LINE
8
BLACK
6
CONTINUOUS
10
157.687
20
-88.4
11
161.144
21
-88.4
0
LINE
8
BLACK
6
CONTINUOUS
10
161.144
20
-88.4
11
161.231
21
-88.1895
0
LINE
8
BLACK
6
CONTINUOUS
10
161.231
20
-88.1895
11
161.395
21
-87.9438
0
LINE
8
BLACK
6
CONTINUOUS
10
161.395
20
-87.9438
11
161.604
21
-87.7349
0
LINE
8
BLACK
6
CONTINUOUS
10
161.604
20
-87.7349
11
161.849
21
-87.5707
0
LINE
8
BLACK
6
CONTINUOUS
10
161.849
20
-87.5707
11
162.122
21
-87.4576
0
LINE
8
BLACK
6
CONTINUOUS
10
162.122
20
-87.4576
11
162.412
21
-87.4
0
LINE
8
BLACK
6
CONTINUOUS
10
162.412
20
-87.4
11
162.708
21
-87.4
0
LINE
8
BLACK
6
CONTINUOUS
10
162.708
20
-87.4
11
162.998
21
-87.4576
0
LINE
8
BLACK
6
CONTINUOUS
10
162.998
20
-87.4576
11
163.271
21
-87.5707
0
LINE
8
BLACK
6
CONTINUOUS
10
163.271
20
-87.5707
11
163.516
21
-87.7349
0
LINE
8
BLACK
6
CONTINUOUS
10
163.516
20
-87.7349
11
163.725
21
-87.9438
0
LINE
8
BLACK
6
CONTINUOUS
10
163.725
20
-87.9438
11
163.889
21
-88.1895
0
LINE
8
BLACK
6
CONTINUOUS
10
163.889
20
-88.1895
11
164.002
21
-88.4625
0
LINE
8
BLACK
6
CONTINUOUS
10
164.002
20
-88.4625
11
164.06
21
-88.7523
0
LINE
8
BLACK
6
CONTINUOUS
10
164.06
20
-88.7523
11
164.06
21
-89.0477
0
LINE
8
BLACK
6
CONTINUOUS
10
164.06
20
-89.0477
11
164.002
21
-89.3375
0
LINE
8
BLACK
6
CONTINUOUS
10
164.002
20
-89.3375
11
163.889
21
-89.6105
0
LINE
8
BLACK
6
CONTINUOUS
10
163.889
20
-89.6105
11
163.725
21
-89.8562
0
LINE
8
BLACK
6
CONTINUOUS
10
163.725
20
-89.8562
11
163.516
21
-90.0651
0
LINE
8
BLACK
6
CONTINUOUS
10
163.516
20
-90.0651
11
163.271
21
-90.2293
0
LINE
8
BLACK
6
CONTINUOUS
10
163.271
20
-90.2293
11
162.998
21
-90.3424
0
LINE
8
BLACK
6
CONTINUOUS
10
162.998
20
-90.3424
11
162.708
21
-90.4
0
LINE
8
BLACK
6
CONTINUOUS
10
162.708
20
-90.4
11
162.412
21
-90.4
0
LINE
8
BLACK
6
CONTINUOUS
10
162.412
20
-90.4
11
162.122
21
-90.3424
0
LINE
8
BLACK
6
CONTINUOUS
10
162.122
20
-90.3424
11
161.849
21
-90.2293
0
LINE
8
BLACK
6
CONTINUOUS
10
161.849
20
-90.2293
11
161.604
21
-90.0651
0
LINE
8
BLACK
6
CONTINUOUS
10
161.604
20
-90.0651
11
161.395
21
-89.8562
0
LINE
8
BLACK
6
CONTINUOUS
10
161.395
20
-89.8562
11
161.231
21
-89.6105
0
LINE
8
BLACK
6
CONTINUOUS
10
161.231
20
-89.6105
11
161.144
21
-89.4
0
LINE
8
BLACK
6
CONTINUOUS
10
161.144
20
-89.4
11
157.505
21
-89.4
0
LINE
8
BLACK
6
CONTINUOUS
10
157.505
20
-89.4
11
157.48
21
-89.4024
0
LINE
8
BLACK
6
CONTINUOUS
10
157.48
20
-89.4024
11
157.455
21
-89.4
0
LINE
8
BLACK
6
CONTINUOUS
10
157.455
20
-89.4
11
157.455
21
-89.4
0
LINE
8
BLACK
6
CONTINUOUS
10
157.455
20
-89.4
11
157.382
21
-89.3928
0
LINE
8
BLACK
6
CONTINUOUS
10
157.382
20
-89.3928
11
157.288
21
-89.3642
0
LINE
8
BLACK
6
CONTINUOUS
10
157.288
20
-89.3642
11
157.201
21
-89.3177
0
LINE
8
BLACK
6
CONTINUOUS
10
157.201
20
-89.3177
11
157.125
21
-89.2553
0
LINE
8
BLACK
6
CONTINUOUS
10
157.125
20
-89.2553
11
157.109
21
-89.2362
0
LINE
8
BLACK
6
CONTINUOUS
10
157.109
20
-89.2362
11
156.21
21
-88.3371
0
LINE
8
BLACK
6
CONTINUOUS
10
156.21
20
-88.3371
11
155.44
21
-89.1071
0
LINE
8
BLACK
6
CONTINUOUS
10
155.44
20
-89.1071
11
155.44
21
-94.1582
0
LINE
8
BLACK
6
CONTINUOUS
10
155.44
20
-94.1582
11
155.508
21
-94.1866
0
LINE
8
BLACK
6
CONTINUOUS
10
155.508
20
-94.1866
11
155.705
21
-94.3179
0
LINE
8
BLACK
6
CONTINUOUS
10
155.705
20
-94.3179
11
155.872
21
-94.485
0
LINE
8
BLACK
6
CONTINUOUS
10
155.872
20
-94.485
11
156.003
21
-94.6816
0
LINE
8
BLACK
6
CONTINUOUS
10
156.003
20
-94.6816
11
156.094
21
-94.9
0
LINE
8
BLACK
6
CONTINUOUS
10
156.094
20
-94.9
11
156.14
21
-95.1318
0
LINE
8
BLACK
6
CONTINUOUS
10
156.14
20
-95.1318
11
156.14
21
-95.3682
0
LINE
8
BLACK
6
CONTINUOUS
10
156.14
20
-95.3682
11
156.094
21
-95.6
0
LINE
8
BLACK
6
CONTINUOUS
10
156.094
20
-95.6
11
156.003
21
-95.8184
0
LINE
8
BLACK
6
CONTINUOUS
10
156.003
20
-95.8184
11
155.872
21
-96.015
0
LINE
8
BLACK
6
CONTINUOUS
10
155.872
20
-96.015
11
155.705
21
-96.1821
0
LINE
8
BLACK
6
CONTINUOUS
10
155.705
20
-96.1821
11
155.508
21
-96.3134
0
LINE
8
BLACK
6
CONTINUOUS
10
155.508
20
-96.3134
11
155.29
21
-96.4039
0
LINE
8
BLACK
6
CONTINUOUS
10
155.29
20
-96.4039
11
155.058
21
-96.45
0
LINE
8
BLACK
6
CONTINUOUS
10
155.058
20
-96.45
11
154.822
21
-96.45
0
LINE
8
BLACK
6
CONTINUOUS
10
154.822
20
-96.45
11
154.59
21
-96.4039
0
LINE
8
BLACK
6
CONTINUOUS
10
154.59
20
-96.4039
11
154.372
21
-96.3134
0
LINE
8
BLACK
6
CONTINUOUS
10
154.372
20
-96.3134
11
154.175
21
-96.1821
0
LINE
8
BLACK
6
CONTINUOUS
10
154.175
20
-96.1821
11
154.008
21
-96.015
0
LINE
8
BLACK
6
CONTINUOUS
10
154.008
20
-96.015
11
153.877
21
-95.8184
0
LINE
8
BLACK
6
CONTINUOUS
10
153.877
20
-95.8184
11
153.786
21
-95.6
0
LINE
8
BLACK
6
CONTINUOUS
10
153.786
20
-95.6
11
153.74
21
-95.3682
0
LINE
8
BLACK
6
CONTINUOUS
10
153.74
20
-95.3682
11
153.74
21
-95.1318
0
LINE
8
BLACK
6
CONTINUOUS
10
153.74
20
-95.1318
11
153.786
21
-94.9
0
LINE
8
BLACK
6
CONTINUOUS
10
153.786
20
-94.9
11
153.877
21
-94.6816
0
LINE
8
BLACK
6
CONTINUOUS
10
153.877
20
-94.6816
11
154.008
21
-94.485
0
LINE
8
BLACK
6
CONTINUOUS
10
154.008
20
-94.485
11
154.175
21
-94.3179
0
LINE
8
BLACK
6
CONTINUOUS
10
154.175
20
-94.3179
11
154.372
21
-94.1866
0
LINE
8
BLACK
6
CONTINUOUS
10
154.372
20
-94.1866
11
154.44
21
-94.1582
0
LINE
8
BLACK
6
CONTINUOUS
10
154.44
20
-94.1582
11
154.44
21
-88.9246
0
LINE
8
BLACK
6
CONTINUOUS
10
154.44
20
-88.9246
11
154.438
21
-88.9
0
LINE
8
BLACK
6
CONTINUOUS
10
154.438
20
-88.9
11
154.447
21
-88.802
0
LINE
8
BLACK
6
CONTINUOUS
10
154.447
20
-88.802
11
154.456
21
-88.7734
0
LINE
8
BLACK
6
CONTINUOUS
10
154.456
20
-88.7734
11
154.476
21
-88.7077
0
LINE
8
BLACK
6
CONTINUOUS
10
154.476
20
-88.7077
11
154.522
21
-88.6209
0
LINE
8
BLACK
6
CONTINUOUS
10
154.522
20
-88.6209
11
154.585
21
-88.5447
0
LINE
8
BLACK
6
CONTINUOUS
10
154.585
20
-88.5447
11
154.604
21
-88.5291
0
LINE
8
BLACK
6
CONTINUOUS
10
154.604
20
-88.5291
11
155.71
21
-87.4229
0
LINE
8
BLACK
6
CONTINUOUS
10
155.71
20
-87.4229
11
155.71
21
-78.32
0
LINE
8
BLACK
6
CONTINUOUS
10
155.71
20
-78.32
11
155.36
21
-78.32
0
LINE
8
BLACK
6
CONTINUOUS
10
155.36
20
-78.32
11
155.36
21
-77.97
0
LINE
8
BLACK
6
CONTINUOUS
10
155.36
20
-77.97
11
151.98
21
-77.97
0
LINE
8
BLACK
6
CONTINUOUS
10
151.98
20
-77.97
11
151.98
21
-78.32
0
LINE
8
BLACK
6
CONTINUOUS
10
151.98
20
-78.32
11
150.28
21
-78.32
0
LINE
8
BLACK
6
CONTINUOUS
10
150.28
20
-78.32
11
150.28
21
-77.97
0
LINE
8
BLACK
6
CONTINUOUS
10
150.28
20
-77.97
11
144.36
21
-77.97
0
LINE
8
BLACK
6
CONTINUOUS
10
144.36
20
-77.97
11
144.36
21
-78.32
0
LINE
8
BLACK
6
CONTINUOUS
10
144.36
20
-78.32
11
142.66
21
-78.32
0
LINE
8
BLACK
6
CONTINUOUS
10
142.66
20
-78.32
11
142.66
21
-77.97
0
LINE
8
BLACK
6
CONTINUOUS
10
142.66
20
-77.97
11
139.28
21
-77.97
0
LINE
8
BLACK
6
CONTINUOUS
10
139.28
20
-77.97
11
139.28
21
-78.32
0
LINE
8
BLACK
6
CONTINUOUS
10
139.28
20
-78.32
11
138.93
21
-78.32
0
LINE
8
BLACK
6
CONTINUOUS
10
138.93
20
-78.32
11
138.93
21
-84.2214
0
LINE
8
BLACK
6
CONTINUOUS
10
138.93
20
-84.2214
11
139.067
21
-84.3132
0
LINE
8
BLACK
6
CONTINUOUS
10
139.067
20
-84.3132
11
139.207
21
-84.4525
0
LINE
8
BLACK
6
CONTINUOUS
10
139.207
20
-84.4525
11
139.316
21
-84.6163
0
LINE
8
BLACK
6
CONTINUOUS
10
139.316
20
-84.6163
11
139.392
21
-84.7983
0
LINE
8
BLACK
6
CONTINUOUS
10
139.392
20
-84.7983
11
139.43
21
-84.9915
0
LINE
8
BLACK
6
CONTINUOUS
10
139.43
20
-84.9915
11
139.43
21
-85.1885
0
LINE
8
BLACK
6
CONTINUOUS
10
139.43
20
-85.1885
11
139.392
21
-85.3817
0
LINE
8
BLACK
6
CONTINUOUS
10
139.392
20
-85.3817
11
139.316
21
-85.5637
0
LINE
8
BLACK
6
CONTINUOUS
10
139.316
20
-85.5637
11
139.207
21
-85.7275
0
LINE
8
BLACK
6
CONTINUOUS
10
139.207
20
-85.7275
11
139.067
21
-85.8668
0
LINE
8
BLACK
6
CONTINUOUS
10
139.067
20
-85.8668
11
138.904
21
-85.9762
0
LINE
8
BLACK
6
CONTINUOUS
10
138.904
20
-85.9762
11
138.722
21
-86.0516
0
LINE
8
BLACK
6
CONTINUOUS
10
138.722
20
-86.0516
11
138.528
21
-86.09
0
LINE
8
BLACK
6
CONTINUOUS
10
138.528
20
-86.09
11
138.332
21
-86.09
0
LINE
8
BLACK
6
CONTINUOUS
10
138.332
20
-86.09
11
138.138
21
-86.0516
0
LINE
8
BLACK
6
CONTINUOUS
10
138.138
20
-86.0516
11
137.956
21
-85.9762
0
LINE
8
BLACK
6
CONTINUOUS
10
137.956
20
-85.9762
11
137.793
21
-85.8668
0
LINE
8
BLACK
6
CONTINUOUS
10
137.793
20
-85.8668
11
137.653
21
-85.7275
0
LINE
8
BLACK
6
CONTINUOUS
10
137.653
20
-85.7275
11
137.561
21
-85.59
0
LINE
8
BLACK
6
CONTINUOUS
10
137.561
20
-85.59
11
120.857
21
-85.59
0
LINE
8
BLACK
6
CONTINUOUS
10
120.857
20
-85.59
11
119.88
21
-86.5671
0
LINE
8
BLACK
6
CONTINUOUS
10
119.88
20
-86.5671
11
119.88
21
-111.553
0
LINE
8
BLACK
6
CONTINUOUS
10
119.88
20
-111.553
11
123.397
21
-115.07
0
LINE
8
BLACK
6
CONTINUOUS
10
123.397
20
-115.07
11
137.93
21
-115.07
0
LINE
8
BLACK
6
CONTINUOUS
10
137.93
20
-115.07
11
137.93
21
-112.388
0
LINE
8
BLACK
6
CONTINUOUS
10
137.93
20
-112.388
11
137.92
21
-112.381
0
LINE
8
BLACK
6
CONTINUOUS
10
137.92
20
-112.381
11
137.809
21
-112.27
0
LINE
8
BLACK
6
CONTINUOUS
10
137.809
20
-112.27
11
137.721
21
-112.139
0
LINE
8
BLACK
6
CONTINUOUS
10
137.721
20
-112.139
11
137.661
21
-111.993
0
LINE
8
BLACK
6
CONTINUOUS
10
137.661
20
-111.993
11
137.63
21
-111.839
0
LINE
8
BLACK
6
CONTINUOUS
10
137.63
20
-111.839
11
137.63
21
-111.681
0
LINE
8
BLACK
6
CONTINUOUS
10
137.63
20
-111.681
11
137.661
21
-111.527
0
LINE
8
BLACK
6
CONTINUOUS
10
137.661
20
-111.527
11
137.721
21
-111.381
0
LINE
8
BLACK
6
CONTINUOUS
10
137.721
20
-111.381
11
137.809
21
-111.25
0
LINE
8
BLACK
6
CONTINUOUS
10
137.809
20
-111.25
11
137.92
21
-111.139
0
LINE
8
BLACK
6
CONTINUOUS
10
137.92
20
-111.139
11
138.051
21
-111.051
0
LINE
8
BLACK
6
CONTINUOUS
10
138.051
20
-111.051
11
138.197
21
-110.991
0
LINE
8
BLACK
6
CONTINUOUS
10
138.197
20
-110.991
11
138.351
21
-110.96
0
LINE
8
BLACK
6
CONTINUOUS
10
138.351
20
-110.96
11
138.509
21
-110.96
0
LINE
8
BLACK
6
CONTINUOUS
10
138.509
20
-110.96
11
138.663
21
-110.991
0
LINE
8
BLACK
6
CONTINUOUS
10
138.663
20
-110.991
11
138.809
21
-111.051
0
LINE
8
BLACK
6
CONTINUOUS
10
138.809
20
-111.051
11
138.94
21
-111.139
0
LINE
8
BLACK
6
CONTINUOUS
10
138.94
20
-111.139
11
139.051
21
-111.25
0
LINE
8
BLACK
6
CONTINUOUS
10
139.051
20
-111.25
11
139.058
21
-111.26
0
LINE
8
BLACK
6
CONTINUOUS
10
139.058
20
-111.26
11
140.342
21
-111.26
0
LINE
8
BLACK
6
CONTINUOUS
10
140.342
20
-111.26
11
140.349
21
-111.25
0
LINE
8
BLACK
6
CONTINUOUS
10
140.349
20
-111.25
11
140.46
21
-111.139
0
LINE
8
BLACK
6
CONTINUOUS
10
140.46
20
-111.139
11
140.591
21
-111.051
0
LINE
8
BLACK
6
CONTINUOUS
10
140.591
20
-111.051
11
140.737
21
-110.991
0
LINE
8
BLACK
6
CONTINUOUS
10
140.737
20
-110.991
11
140.891
21
-110.96
0
LINE
8
BLACK
6
CONTINUOUS
10
140.891
20
-110.96
11
141.049
21
-110.96
0
LINE
8
BLACK
6
CONTINUOUS
10
141.049
20
-110.96
11
141.203
21
-110.991
0
LINE
8
BLACK
6
CONTINUOUS
10
141.203
20
-110.991
11
141.349
21
-111.051
0
LINE
8
BLACK
6
CONTINUOUS
10
141.349
20
-111.051
11
141.48
21
-111.139
0
LINE
8
BLACK
6
CONTINUOUS
10
141.48
20
-111.139
11
141.591
21
-111.25
0
LINE
8
BLACK
6
CONTINUOUS
10
141.591
20
-111.25
11
141.679
21
-111.381
0
LINE
8
BLACK
6
CONTINUOUS
10
141.679
20
-111.381
11
141.739
21
-111.527
0
LINE
8
BLACK
6
CONTINUOUS
10
141.739
20
-111.527
11
141.77
21
-111.681
0
LINE
8
BLACK
6
CONTINUOUS
10
141.77
20
-111.681
11
141.77
21
-111.839
0
LINE
8
BLACK
6
CONTINUOUS
10
141.77
20
-111.839
11
141.739
21
-111.993
0
LINE
8
BLACK
6
CONTINUOUS
10
141.739
20
-111.993
11
141.679
21
-112.139
0
LINE
8
BLACK
6
CONTINUOUS
10
141.679
20
-112.139
11
141.591
21
-112.27
0
LINE
8
BLACK
6
CONTINUOUS
10
141.591
20
-112.27
11
141.48
21
-112.381
0
LINE
8
BLACK
6
CONTINUOUS
10
141.48
20
-112.381
11
141.349
21
-112.469
0
LINE
8
BLACK
6
CONTINUOUS
10
141.349
20
-112.469
11
141.203
21
-112.529
0
LINE
8
BLACK
6
CONTINUOUS
10
141.203
20
-112.529
11
141.049
21
-112.56
0
LINE
8
BLACK
6
CONTINUOUS
10
141.049
20
-112.56
11
140.891
21
-112.56
0
LINE
8
BLACK
6
CONTINUOUS
10
140.891
20
-112.56
11
140.737
21
-112.529
0
LINE
8
BLACK
6
CONTINUOUS
10
140.737
20
-112.529
11
140.591
21
-112.469
0
LINE
8
BLACK
6
CONTINUOUS
10
140.591
20
-112.469
11
140.46
21
-112.381
0
LINE
8
BLACK
6
CONTINUOUS
10
140.46
20
-112.381
11
140.349
21
-112.27
0
LINE
8
BLACK
6
CONTINUOUS
10
140.349
20
-112.27
11
140.342
21
-112.26
0
LINE
8
BLACK
6
CONTINUOUS
10
140.342
20
-112.26
11
139.058
21
-112.26
0
LINE
8
BLACK
6
CONTINUOUS
10
139.058
20
-112.26
11
139.051
21
-112.27
0
LINE
8
BLACK
6
CONTINUOUS
10
139.051
20
-112.27
11
138.94
21
-112.381
0
LINE
8
BLACK
6
CONTINUOUS
10
138.94
20
-112.381
11
138.93
21
-112.388
0
LINE
8
BLACK
6
CONTINUOUS
10
138.93
20
-112.388
11
138.93
21
-115.545
0
LINE
8
BLACK
6
CONTINUOUS
10
138.93
20
-115.545
11
138.932
21
-115.57
0
LINE
8
BLACK
6
CONTINUOUS
10
138.932
20
-115.57
11
138.923
21
-115.668
0
LINE
8
BLACK
6
CONTINUOUS
10
138.923
20
-115.668
11
138.894
21
-115.762
0
LINE
8
BLACK
6
CONTINUOUS
10
138.894
20
-115.762
11
138.848
21
-115.849
0
LINE
8
BLACK
6
CONTINUOUS
10
138.848
20
-115.849
11
138.785
21
-115.925
0
LINE
8
BLACK
6
CONTINUOUS
10
138.785
20
-115.925
11
138.709
21
-115.988
0
LINE
8
BLACK
6
CONTINUOUS
10
138.709
20
-115.988
11
138.622
21
-116.034
0
LINE
8
BLACK
6
CONTINUOUS
10
138.622
20
-116.034
11
138.528
21
-116.063
0
LINE
8
BLACK
6
CONTINUOUS
10
138.528
20
-116.063
11
138.455
21
-116.07
0
LINE
8
BLACK
6
CONTINUOUS
10
138.455
20
-116.07
11
138.43
21
-116.072
0
LINE
8
BLACK
6
CONTINUOUS
10
138.43
20
-116.072
11
138.405
21
-116.07
0
LINE
8
BLACK
6
CONTINUOUS
10
138.405
20
-116.07
11
123.215
21
-116.07
0
LINE
8
BLACK
6
CONTINUOUS
10
123.215
20
-116.07
11
123.19
21
-116.072
0
LINE
8
BLACK
6
CONTINUOUS
10
123.19
20
-116.072
11
123.092
21
-116.063
0
LINE
8
BLACK
6
CONTINUOUS
10
123.092
20
-116.063
11
122.998
21
-116.034
0
LINE
8
BLACK
6
CONTINUOUS
10
122.998
20
-116.034
11
122.911
21
-115.988
0
LINE
8
BLACK
6
CONTINUOUS
10
122.911
20
-115.988
11
122.835
21
-115.925
0
LINE
8
BLACK
6
CONTINUOUS
10
122.835
20
-115.925
11
122.819
21
-115.906
0
LINE
8
BLACK
6
CONTINUOUS
10
122.819
20
-115.906
11
119.044
21
-112.131
0
LINE
8
BLACK
6
CONTINUOUS
10
119.044
20
-112.131
11
119.025
21
-112.115
0
LINE
8
BLACK
6
CONTINUOUS
10
119.025
20
-112.115
11
118.962
21
-112.039
0
LINE
8
BLACK
6
CONTINUOUS
10
118.962
20
-112.039
11
118.916
21
-111.952
0
LINE
8
BLACK
6
CONTINUOUS
10
118.916
20
-111.952
11
118.887
21
-111.858
0
LINE
8
BLACK
6
CONTINUOUS
10
118.887
20
-111.858
11
118.88
21
-111.785
0
LINE
8
BLACK
6
CONTINUOUS
10
118.88
20
-111.785
11
118.878
21
-111.76
0
LINE
8
BLACK
6
CONTINUOUS
10
118.878
20
-111.76
11
118.88
21
-111.735
0
LINE
8
BLACK
6
CONTINUOUS
10
118.88
20
-111.735
11
118.88
21
-86.3846
0
LINE
8
BLACK
6
CONTINUOUS
10
118.88
20
-86.3846
11
118.878
21
-86.36
0
LINE
8
BLACK
6
CONTINUOUS
10
118.878
20
-86.36
11
118.887
21
-86.262
0
LINE
8
BLACK
6
CONTINUOUS
10
118.887
20
-86.262
11
118.916
21
-86.1677
0
LINE
8
BLACK
6
CONTINUOUS
10
118.916
20
-86.1677
11
118.962
21
-86.0809
0
LINE
8
BLACK
6
CONTINUOUS
10
118.962
20
-86.0809
11
119.025
21
-86.0047
0
LINE
8
BLACK
6
CONTINUOUS
10
119.025
20
-86.0047
11
119.044
21
-85.9891
0
LINE
8
BLACK
6
CONTINUOUS
10
119.044
20
-85.9891
11
120.279
21
-84.7538
0
LINE
8
BLACK
6
CONTINUOUS
10
120.279
20
-84.7538
11
120.295
21
-84.7347
0
LINE
8
BLACK
6
CONTINUOUS
10
120.295
20
-84.7347
11
120.371
21
-84.6723
0
LINE
8
BLACK
6
CONTINUOUS
10
120.371
20
-84.6723
11
120.458
21
-84.6258
0
LINE
8
BLACK
6
CONTINUOUS
10
120.458
20
-84.6258
11
120.552
21
-84.5972
0
LINE
8
BLACK
6
CONTINUOUS
10
120.552
20
-84.5972
11
120.625
21
-84.59
0
LINE
8
BLACK
6
CONTINUOUS
10
120.625
20
-84.59
11
120.625
21
-84.59
0
LINE
8
BLACK
6
CONTINUOUS
10
120.625
20
-84.59
11
120.65
21
-84.5876
0
LINE
8
BLACK
6
CONTINUOUS
10
120.65
20
-84.5876
11
120.675
21
-84.59
0
LINE
8
BLACK
6
CONTINUOUS
10
120.675
20
-84.59
11
137.561
21
-84.59
0
LINE
8
BLACK
6
CONTINUOUS
10
137.561
20
-84.59
11
137.653
21
-84.4525
0
LINE
8
BLACK
6
CONTINUOUS
10
137.653
20
-84.4525
11
137.793
21
-84.3132
0
LINE
8
BLACK
6
CONTINUOUS
10
137.793
20
-84.3132
11
137.93
21
-84.2214
0
LINE
8
BLACK
6
CONTINUOUS
10
137.93
20
-84.2214
11
137.93
21
-78.32
0
LINE
8
BLACK
6
CONTINUOUS
10
137.93
20
-78.32
11
137.58
21
-78.32
0
LINE
8
BLACK
6
CONTINUOUS
10
137.58
20
-78.32
11
137.58
21
-77.97
0
LINE
8
BLACK
6
CONTINUOUS
10
137.58
20
-77.97
11
136.605
21
-77.97
0
LINE
8
BLACK
6
CONTINUOUS
10
136.605
20
-77.97
11
136.58
21
-77.9724
0
LINE
8
BLACK
6
CONTINUOUS
10
136.58
20
-77.9724
11
136.482
21
-77.9628
0
LINE
8
BLACK
6
CONTINUOUS
10
136.482
20
-77.9628
11
136.482
21
-77.9628
0
LINE
8
BLACK
6
CONTINUOUS
10
136.482
20
-77.9628
11
136.388
21
-77.9342
0
LINE
8
BLACK
6
CONTINUOUS
10
136.388
20
-77.9342
11
136.301
21
-77.8877
0
LINE
8
BLACK
6
CONTINUOUS
10
136.301
20
-77.8877
11
136.225
21
-77.8253
0
LINE
8
BLACK
6
CONTINUOUS
10
136.225
20
-77.8253
11
136.209
21
-77.8062
0
LINE
8
BLACK
6
CONTINUOUS
10
136.209
20
-77.8062
11
123.874
21
-65.4709
0
LINE
8
BLACK
6
CONTINUOUS
10
123.874
20
-65.4709
11
123.855
21
-65.4553
0
LINE
8
BLACK
6
CONTINUOUS
10
123.855
20
-65.4553
11
123.792
21
-65.3791
0
LINE
8
BLACK
6
CONTINUOUS
10
123.792
20
-65.3791
11
123.746
21
-65.2923
0
LINE
8
BLACK
6
CONTINUOUS
10
123.746
20
-65.2923
11
123.74
21
-65.2724
0
LINE
8
BLACK
6
CONTINUOUS
10
123.74
20
-65.2724
11
123.717
21
-65.198
0
LINE
8
BLACK
6
CONTINUOUS
10
123.717
20
-65.198
11
123.708
21
-65.1
0
LINE
8
BLACK
6
CONTINUOUS
10
123.708
20
-65.1
11
123.71
21
-65.0754
0
LINE
8
BLACK
6
CONTINUOUS
10
123.71
20
-65.0754
11
123.71
21
-64.1281
0
LINE
8
BLACK
6
CONTINUOUS
10
123.71
20
-64.1281
11
123.7
21
-64.1214
0
LINE
8
BLACK
6
CONTINUOUS
10
123.7
20
-64.1214
11
123.589
21
-64.01
0
LINE
8
BLACK
6
CONTINUOUS
10
123.589
20
-64.01
11
123.501
21
-63.8789
0
LINE
8
BLACK
6
CONTINUOUS
10
123.501
20
-63.8789
11
123.441
21
-63.7334
0
LINE
8
BLACK
6
CONTINUOUS
10
123.441
20
-63.7334
11
123.41
21
-63.5788
0
LINE
8
BLACK
6
CONTINUOUS
10
123.41
20
-63.5788
11
123.41
21
-63.4212
0
LINE
8
BLACK
6
CONTINUOUS
10
123.41
20
-63.4212
11
123.441
21
-63.2666
0
LINE
8
BLACK
6
CONTINUOUS
10
123.441
20
-63.2666
11
123.501
21
-63.1211
0
LINE
8
BLACK
6
CONTINUOUS
10
123.501
20
-63.1211
11
123.589
21
-62.99
0
LINE
8
BLACK
6
CONTINUOUS
10
123.589
20
-62.99
11
123.7
21
-62.8786
0
LINE
8
BLACK
6
CONTINUOUS
10
123.7
20
-62.8786
11
123.831
21
-62.791
0
LINE
8
BLACK
6
CONTINUOUS
10
123.831
20
-62.791
11
123.977
21
-62.7307
0
LINE
8
BLACK
6
CONTINUOUS
10
123.977
20
-62.7307
11
124.131
21
-62.7
0
LINE
8
BLACK
6
CONTINUOUS
10
124.131
20
-62.7
11
124.289
21
-62.7
0
LINE
8
BLACK
6
CONTINUOUS
10
124.289
20
-62.7
11
124.443
21
-62.7307
0
LINE
8
BLACK
6
CONTINUOUS
10
128.503
20
-110.991
11
128.649
21
-111.051
0
LINE
8
BLACK
6
CONTINUOUS
10
128.649
20
-111.051
11
128.78
21
-111.139
0
LINE
8
BLACK
6
CONTINUOUS
10
128.78
20
-111.139
11
128.891
21
-111.25
0
LINE
8
BLACK
6
CONTINUOUS
10
128.891
20
-111.25
11
128.979
21
-111.381
0
LINE
8
BLACK
6
CONTINUOUS
10
128.979
20
-111.381
11
129.039
21
-111.527
0
LINE
8
BLACK
6
CONTINUOUS
10
129.039
20
-111.527
11
129.07
21
-111.681
0
LINE
8
BLACK
6
CONTINUOUS
10
129.07
20
-111.681
11
129.07
21
-111.839
0
LINE
8
BLACK
6
CONTINUOUS
10
129.07
20
-111.839
11
129.039
21
-111.993
0
LINE
8
BLACK
6
CONTINUOUS
10
129.039
20
-111.993
11
128.979
21
-112.139
0
LINE
8
BLACK
6
CONTINUOUS
10
128.979
20
-112.139
11
128.891
21
-112.27
0
LINE
8
BLACK
6
CONTINUOUS
10
128.891
20
-112.27
11
128.78
21
-112.381
0
LINE
8
BLACK
6
CONTINUOUS
10
128.78
20
-112.381
11
128.649
21
-112.469
0
LINE
8
BLACK
6
CONTINUOUS
10
128.649
20
-112.469
11
128.503
21
-112.529
0
LINE
8
BLACK
6
CONTINUOUS
10
128.503
20
-112.529
11
128.349
21
-112.56
0
LINE
8
BLACK
6
CONTINUOUS
10
128.349
20
-112.56
11
128.191
21
-112.56
0
LINE
8
BLACK
6
CONTINUOUS
10
128.191
20
-112.56
11
128.037
21
-112.529
0
LINE
8
BLACK
6
CONTINUOUS
10
128.037
20
-112.529
11
127.891
21
-112.469
0
LINE
8
BLACK
6
CONTINUOUS
10
127.891
20
-112.469
11
127.76
21
-112.381
0
LINE
8
BLACK
6
CONTINUOUS
10
127.76
20
-112.381
11
127.649
21
-112.27
0
LINE
8
BLACK
6
CONTINUOUS
10
127.649
20
-112.27
11
127.561
21
-112.139
0
LINE
8
BLACK
6
CONTINUOUS
10
127.561
20
-112.139
11
127.501
21
-111.993
0
LINE
8
BLACK
6
CONTINUOUS
10
127.501
20
-111.993
11
127.47
21
-111.839
0
LINE
8
BLACK
6
CONTINUOUS
10
127.47
20
-111.839
11
127.47
21
-111.681
0
LINE
8
BLACK
6
CONTINUOUS
10
127.47
20
-111.681
11
127.501
21
-111.527
0
LINE
8
BLACK
6
CONTINUOUS
10
127.501
20
-111.527
11
127.561
21
-111.381
0
LINE
8
BLACK
6
CONTINUOUS
10
127.561
20
-111.381
11
127.649
21
-111.25
0
LINE
8
BLACK
6
CONTINUOUS
10
127.649
20
-111.25
11
127.76
21
-111.139
0
LINE
8
BLACK
6
CONTINUOUS
10
127.76
20
-111.139
11
127.891
21
-111.051
0
LINE
8
BLACK
6
CONTINUOUS
10
127.891
20
-111.051
11
128.037
21
-110.991
0
LINE
8
BLACK
6
CONTINUOUS
10
128.037
20
-110.991
11
128.191
21
-110.96
0
LINE
8
BLACK
6
CONTINUOUS
10
128.191
20
-110.96
11
128.349
21
-110.96
0
LINE
8
BLACK
6
CONTINUOUS
10
128.349
20
-110.96
11
128.503
21
-110.991
0
LINE
8
BLACK
6
CONTINUOUS
10
131.043
20
-110.991
11
131.189
21
-111.051
0
LINE
8
BLACK
6
CONTINUOUS
10
131.189
20
-111.051
11
131.32
21
-111.139
0
LINE
8
BLACK
6
CONTINUOUS
10
131.32
20
-111.139
11
131.431
21
-111.25
0
LINE
8
BLACK
6
CONTINUOUS
10
131.431
20
-111.25
11
131.519
21
-111.381
0
LINE
8
BLACK
6
CONTINUOUS
10
131.519
20
-111.381
11
131.579
21
-111.527
0
LINE
8
BLACK
6
CONTINUOUS
10
131.579
20
-111.527
11
131.61
21
-111.681
0
LINE
8
BLACK
6
CONTINUOUS
10
131.61
20
-111.681
11
131.61
21
-111.839
0
LINE
8
BLACK
6
CONTINUOUS
10
131.61
20
-111.839
11
131.579
21
-111.993
0
LINE
8
BLACK
6
CONTINUOUS
10
131.579
20
-111.993
11
131.519
21
-112.139
0
LINE
8
BLACK
6
CONTINUOUS
10
131.519
20
-112.139
11
131.431
21
-112.27
0
LINE
8
BLACK
6
CONTINUOUS
10
131.431
20
-112.27
11
131.32
21
-112.381
0
LINE
8
BLACK
6
CONTINUOUS
10
131.32
20
-112.381
11
131.189
21
-112.469
0
LINE
8
BLACK
6
CONTINUOUS
10
131.189
20
-112.469
11
131.043
21
-112.529
0
LINE
8
BLACK
6
CONTINUOUS
10
131.043
20
-112.529
11
130.889
21
-112.56
0
LINE
8
BLACK
6
CONTINUOUS
10
130.889
20
-112.56
11
130.731
21
-112.56
0
LINE
8
BLACK
6
CONTINUOUS
10
130.731
20
-112.56
11
130.577
21
-112.529
0
LINE
8
BLACK
6
CONTINUOUS
10
130.577
20
-112.529
11
130.431
21
-112.469
0
LINE
8
BLACK
6
CONTINUOUS
10
130.431
20
-112.469
11
130.3
21
-112.381
0
LINE
8
BLACK
6
CONTINUOUS
10
130.3
20
-112.381
11
130.189
21
-112.27
0
LINE
8
BLACK
6
CONTINUOUS
10
130.189
20
-112.27
11
130.101
21
-112.139
0
LINE
8
BLACK
6
CONTINUOUS
10
130.101
20
-112.139
11
130.041
21
-111.993
0
LINE
8
BLACK
6
CONTINUOUS
10
130.041
20
-111.993
11
130.01
21
-111.839
0
LINE
8
BLACK
6
CONTINUOUS
10
130.01
20
-111.839
11
130.01
21
-111.681
0
LINE
8
BLACK
6
CONTINUOUS
10
130.01
20
-111.681
11
130.041
21
-111.527
0
LINE
8
BLACK
6
CONTINUOUS
10
130.041
20
-111.527
11
130.101
21
-111.381
0
LINE
8
BLACK
6
CONTINUOUS
10
130.101
20
-111.381
11
130.189
21
-111.25
0
LINE
8
BLACK
6
CONTINUOUS
10
130.189
20
-111.25
11
130.3
21
-111.139
0
LINE
8
BLACK
6
CONTINUOUS
10
130.3
20
-111.139
11
130.431
21
-111.051
0
LINE
8
BLACK
6
CONTINUOUS
10
130.431
20
-111.051
11
130.577
21
-110.991
0
LINE
8
BLACK
6
CONTINUOUS
10
130.577
20
-110.991
11
130.731
21
-110.96
0
LINE
8
BLACK
6
CONTINUOUS
10
130.731
20
-110.96
11
130.889
21
-110.96
0
LINE
8
BLACK
6
CONTINUOUS
10
130.889
20
-110.96
11
131.043
21
-110.991
0
LINE
8
BLACK
6
CONTINUOUS
10
133.583
20
-110.991
11
133.729
21
-111.051
0
LINE
8
BLACK
6
CONTINUOUS
10
133.729
20
-111.051
11
133.86
21
-111.139
0
LINE
8
BLACK
6
CONTINUOUS
10
133.86
20
-111.139
11
133.971
21
-111.25
0
LINE
8
BLACK
6
CONTINUOUS
10
133.971
20
-111.25
11
134.059
21
-111.381
0
LINE
8
BLACK
6
CONTINUOUS
10
134.059
20
-111.381
11
134.119
21
-111.527
0
LINE
8
BLACK
6
CONTINUOUS
10
134.119
20
-111.527
11
134.15
21
-111.681
0
LINE
8
BLACK
6
CONTINUOUS
10
134.15
20
-111.681
11
134.15
21
-111.839
0
LINE
8
BLACK
6
CONTINUOUS
10
134.15
20
-111.839
11
134.119
21
-111.993
0
LINE
8
BLACK
6
CONTINUOUS
10
134.119
20
-111.993
11
134.059
21
-112.139
0
LINE
8
BLACK
6
CONTINUOUS
10
134.059
20
-112.139
11
133.971
21
-112.27
0
LINE
8
BLACK
6
CONTINUOUS
10
133.971
20
-112.27
11
133.86
21
-112.381
0
LINE
8
BLACK
6
CONTINUOUS
10
133.86
20
-112.381
11
133.729
21
-112.469
0
LINE
8
BLACK
6
CONTINUOUS
10
133.729
20
-112.469
11
133.583
21
-112.529
0
LINE
8
BLACK
6
CONTINUOUS
10
133.583
20
-112.529
11
133.429
21
-112.56
0
LINE
8
BLACK
6
CONTINUOUS
10
133.429
20
-112.56
11
133.271
21
-112.56
0
LINE
8
BLACK
6
CONTINUOUS
10
133.271
20
-112.56
11
133.117
21
-112.529
0
LINE
8
BLACK
6
CONTINUOUS
10
133.117
20
-112.529
11
132.971
21
-112.469
0
LINE
8
BLACK
6
CONTINUOUS
10
132.971
20
-112.469
11
132.84
21
-112.381
0
LINE
8
BLACK
6
CONTINUOUS
10
132.84
20
-112.381
11
132.729
21
-112.27
0
LINE
8
BLACK
6
CONTINUOUS
10
132.729
20
-112.27
11
132.641
21
-112.139
0
LINE
8
BLACK
6
CONTINUOUS
10
132.641
20
-112.139
11
132.581
21
-111.993
0
LINE
8
BLACK
6
CONTINUOUS
10
132.581
20
-111.993
11
132.55
21
-111.839
0
LINE
8
BLACK
6
CONTINUOUS
10
132.55
20
-111.839
11
132.55
21
-111.681
0
LINE
8
BLACK
6
CONTINUOUS
10
132.55
20
-111.681
11
132.581
21
-111.527
0
LINE
8
BLACK
6
CONTINUOUS
10
132.581
20
-111.527
11
132.641
21
-111.381
0
LINE
8
BLACK
6
CONTINUOUS
10
132.641
20
-111.381
11
132.729
21
-111.25
0
LINE
8
BLACK
6
CONTINUOUS
10
132.729
20
-111.25
11
132.84
21
-111.139
0
LINE
8
BLACK
6
CONTINUOUS
10
132.84
20
-111.139
11
132.971
21
-111.051
0
LINE
8
BLACK
6
CONTINUOUS
10
132.971
20
-111.051
11
133.117
21
-110.991
0
LINE
8
BLACK
6
CONTINUOUS
10
133.117
20
-110.991
11
133.271
21
-110.96
0
LINE
8
BLACK
6
CONTINUOUS
10
133.271
20
-110.96
11
133.429
21
-110.96
0
LINE
8
BLACK
6
CONTINUOUS
10
133.429
20
-110.96
11
133.583
21
-110.991
0
LINE
8
BLACK
6
CONTINUOUS
10
139.43
20
-91.09
11
138.93
21
-91.09
0
LINE
8
BLACK
6
CONTINUOUS
10
138.93
20
-91.09
11
138.93
21
-97.5829
0
LINE
8
BLACK
6
CONTINUOUS
10
138.93
20
-97.5829
11
141.177
21
-99.83
0
LINE
8
BLACK
6
CONTINUOUS
10
141.177
20
-99.83
11
145.24
21
-99.83
0
LINE
8
BLACK
6
CONTINUOUS
10
145.24
20
-99.83
11
145.24
21
-99.58
0
LINE
8
BLACK
6
CONTINUOUS
10
145.24
20
-99.58
11
145.245
21
-99.5312
0
LINE
8
BLACK
6
CONTINUOUS
10
145.245
20
-99.5312
11
145.259
21
-99.4843
0
LINE
8
BLACK
6
CONTINUOUS
10
145.259
20
-99.4843
11
145.282
21
-99.4411
0
LINE
8
BLACK
6
CONTINUOUS
10
145.282
20
-99.4411
11
145.313
21
-99.4032
0
LINE
8
BLACK
6
CONTINUOUS
10
145.313
20
-99.4032
11
145.351
21
-99.3721
0
LINE
8
BLACK
6
CONTINUOUS
10
145.351
20
-99.3721
11
145.394
21
-99.349
0
LINE
8
BLACK
6
CONTINUOUS
10
145.394
20
-99.349
11
145.441
21
-99.3348
0
LINE
8
BLACK
6
CONTINUOUS
10
145.441
20
-99.3348
11
145.49
21
-99.33
0
LINE
8
BLACK
6
CONTINUOUS
10
145.49
20
-99.33
11
146.69
21
-99.33
0
LINE
8
BLACK
6
CONTINUOUS
10
146.69
20
-99.33
11
146.739
21
-99.3348
0
LINE
8
BLACK
6
CONTINUOUS
10
146.739
20
-99.3348
11
146.786
21
-99.349
0
LINE
8
BLACK
6
CONTINUOUS
10
146.786
20
-99.349
11
146.829
21
-99.3721
0
LINE
8
BLACK
6
CONTINUOUS
10
146.829
20
-99.3721
11
146.867
21
-99.4032
0
LINE
8
BLACK
6
CONTINUOUS
10
146.867
20
-99.4032
11
146.898
21
-99.4411
0
LINE
8
BLACK
6
CONTINUOUS
10
146.898
20
-99.4411
11
146.921
21
-99.4843
0
LINE
8
BLACK
6
CONTINUOUS
10
146.921
20
-99.4843
11
146.935
21
-99.5312
0
LINE
8
BLACK
6
CONTINUOUS
10
146.935
20
-99.5312
11
146.94
21
-99.58
0
LINE
8
BLACK
6
CONTINUOUS
10
146.94
20
-99.58
11
146.94
21
-101.08
0
LINE
8
BLACK
6
CONTINUOUS
10
146.94
20
-101.08
11
146.935
21
-101.129
0
LINE
8
BLACK
6
CONTINUOUS
10
146.935
20
-101.129
11
146.921
21
-101.176
0
LINE
8
BLACK
6
CONTINUOUS
10
146.921
20
-101.176
11
146.898
21
-101.219
0
LINE
8
BLACK
6
CONTINUOUS
10
146.898
20
-101.219
11
146.867
21
-101.257
0
LINE
8
BLACK
6
CONTINUOUS
10
146.867
20
-101.257
11
146.829
21
-101.288
0
LINE
8
BLACK
6
CONTINUOUS
10
146.829
20
-101.288
11
146.786
21
-101.311
0
LINE
8
BLACK
6
CONTINUOUS
10
146.786
20
-101.311
11
146.739
21
-101.325
0
LINE
8
BLACK
6
CONTINUOUS
10
146.739
20
-101.325
11
146.69
21
-101.33
0
LINE
8
BLACK
6
CONTINUOUS
10
146.69
20
-101.33
11
145.49
21
-101.33
0
LINE
8
BLACK
6
CONTINUOUS
10
145.49
20
-101.33
11
145.441
21
-101.325
0
LINE
8
BLACK
6
CONTINUOUS
10
145.441
20
-101.325
11
145.394
21
-101.311
0
LINE
8
BLACK
6
CONTINUOUS
10
145.394
20
-101.311
11
145.351
21
-101.288
0
LINE
8
BLACK
6
CONTINUOUS
10
145.351
20
-101.288
11
145.313
21
-101.257
0
LINE
8
BLACK
6
CONTINUOUS
10
145.313
20
-101.257
11
145.282
21
-101.219
0
LINE
8
BLACK
6
CONTINUOUS
10
145.282
20
-101.219
11
145.259
21
-101.176
0
LINE
8
BLACK
6
CONTINUOUS
10
145.259
20
-101.176
11
145.245
21
-101.129
0
LINE
8
BLACK
6
CONTINUOUS
10
145.245
20
-101.129
11
145.24
21
-101.08
0
LINE
8
BLACK
6
CONTINUOUS
10
145.24
20
-101.08
11
145.24
21
-100.83
0
LINE
8
BLACK
6
CONTINUOUS
10
145.24
20
-100.83
11
141.177
21
-100.83
0
LINE
8
BLACK
6
CONTINUOUS
10
141.177
20
-100.83
11
136.39
21
-105.617
0
LINE
8
BLACK
6
CONTINUOUS
10
136.39
20
-105.617
11
136.39
21
-111.132
0
LINE
8
BLACK
6
CONTINUOUS
10
136.39
20
-111.132
11
136.4
21
-111.139
0
LINE
8
BLACK
6
CONTINUOUS
10
136.4
20
-111.139
11
136.511
21
-111.25
0
LINE
8
BLACK
6
CONTINUOUS
10
136.511
20
-111.25
11
136.599
21
-111.381
0
LINE
8
BLACK
6
CONTINUOUS
10
136.599
20
-111.381
11
136.659
21
-111.527
0
LINE
8
BLACK
6
CONTINUOUS
10
136.659
20
-111.527
11
136.69
21
-111.681
0
LINE
8
BLACK
6
CONTINUOUS
10
136.69
20
-111.681
11
136.69
21
-111.839
0
LINE
8
BLACK
6
CONTINUOUS
10
136.69
20
-111.839
11
136.659
21
-111.993
0
LINE
8
BLACK
6
CONTINUOUS
10
136.659
20
-111.993
11
136.599
21
-112.139
0
LINE
8
BLACK
6
CONTINUOUS
10
136.599
20
-112.139
11
136.511
21
-112.27
0
LINE
8
BLACK
6
CONTINUOUS
10
136.511
20
-112.27
11
136.4
21
-112.381
0
LINE
8
BLACK
6
CONTINUOUS
10
136.4
20
-112.381
11
136.269
21
-112.469
0
LINE
8
BLACK
6
CONTINUOUS
10
136.269
20
-112.469
11
136.123
21
-112.529
0
LINE
8
BLACK
6
CONTINUOUS
10
136.123
20
-112.529
11
135.969
21
-112.56
0
LINE
8
BLACK
6
CONTINUOUS
10
135.969
20
-112.56
11
135.811
21
-112.56
0
LINE
8
BLACK
6
CONTINUOUS
10
135.811
20
-112.56
11
135.657
21
-112.529
0
LINE
8
BLACK
6
CONTINUOUS
10
135.657
20
-112.529
11
135.511
21
-112.469
0
LINE
8
BLACK
6
CONTINUOUS
10
135.511
20
-112.469
11
135.38
21
-112.381
0
LINE
8
BLACK
6
CONTINUOUS
10
135.38
20
-112.381
11
135.269
21
-112.27
0
LINE
8
BLACK
6
CONTINUOUS
10
135.269
20
-112.27
11
135.181
21
-112.139
0
LINE
8
BLACK
6
CONTINUOUS
10
135.181
20
-112.139
11
135.121
21
-111.993
0
LINE
8
BLACK
6
CONTINUOUS
10
135.121
20
-111.993
11
135.09
21
-111.839
0
LINE
8
BLACK
6
CONTINUOUS
10
135.09
20
-111.839
11
135.09
21
-111.681
0
LINE
8
BLACK
6
CONTINUOUS
10
135.09
20
-111.681
11
135.121
21
-111.527
0
LINE
8
BLACK
6
CONTINUOUS
10
135.121
20
-111.527
11
135.181
21
-111.381
0
LINE
8
BLACK
6
CONTINUOUS
10
135.181
20
-111.381
11
135.269
21
-111.25
0
LINE
8
BLACK
6
CONTINUOUS
10
135.269
20
-111.25
11
135.38
21
-111.139
0
LINE
8
BLACK
6
CONTINUOUS
10
135.38
20
-111.139
11
135.39
21
-111.132
0
LINE
8
BLACK
6
CONTINUOUS
10
135.39
20
-111.132
11
135.39
21
-105.435
0
LINE
8
BLACK
6
CONTINUOUS
10
135.39
20
-105.435
11
135.388
21
-105.41
0
LINE
8
BLACK
6
CONTINUOUS
10
135.388
20
-105.41
11
135.397
21
-105.312
0
LINE
8
BLACK
6
CONTINUOUS
10
135.397
20
-105.312
11
135.426
21
-105.218
0
LINE
8
BLACK
6
CONTINUOUS
10
135.426
20
-105.218
11
135.472
21
-105.131
0
LINE
8
BLACK
6
CONTINUOUS
10
135.472
20
-105.131
11
135.535
21
-105.055
0
LINE
8
BLACK
6
CONTINUOUS
10
135.535
20
-105.055
11
135.554
21
-105.039
0
LINE
8
BLACK
6
CONTINUOUS
10
135.554
20
-105.039
11
140.263
21
-100.33
0
LINE
8
BLACK
6
CONTINUOUS
10
140.263
20
-100.33
11
138.094
21
-98.1609
0
LINE
8
BLACK
6
CONTINUOUS
10
138.094
20
-98.1609
11
138.075
21
-98.1453
0
LINE
8
BLACK
6
CONTINUOUS
10
138.075
20
-98.1453
11
138.012
21
-98.0691
0
LINE
8
BLACK
6
CONTINUOUS
10
138.012
20
-98.0691
11
137.966
21
-97.9823
0
LINE
8
BLACK
6
CONTINUOUS
10
137.966
20
-97.9823
11
137.937
21
-97.888
0
LINE
8
BLACK
6
CONTINUOUS
10
137.937
20
-97.888
11
137.93
21
-97.8146
0
LINE
8
BLACK
6
CONTINUOUS
10
137.93
20
-97.8146
11
137.928
21
-97.79
0
LINE
8
BLACK
6
CONTINUOUS
10
137.928
20
-97.79
11
137.93
21
-97.7654
0
LINE
8
BLACK
6
CONTINUOUS
10
137.93
20
-97.7654
11
137.93
21
-91.09
0
LINE
8
BLACK
6
CONTINUOUS
10
137.93
20
-91.09
11
137.43
21
-91.09
0
LINE
8
BLACK
6
CONTINUOUS
10
137.43
20
-91.09
11
137.43
21
-89.09
0
LINE
8
BLACK
6
CONTINUOUS
10
137.43
20
-89.09
11
139.43
21
-89.09
0
LINE
8
BLACK
6
CONTINUOUS
10
139.43
20
-89.09
11
139.43
21
-91.09
0
LINE
8
BLACK
6
CONTINUOUS
10
126.53
20
-112.56
11
124.93
21
-112.56
0
LINE
8
BLACK
6
CONTINUOUS
10
124.93
20
-112.56
11
124.93
21
-110.96
0
LINE
8
BLACK
6
CONTINUOUS
10
124.93
20
-110.96
11
126.53
21
-110.96
0
LINE
8
BLACK
6
CONTINUOUS
10
126.53
20
-110.96
11
126.53
21
-112.56
0
LINE
8
BLACK
6
CONTINUOUS
10
148.757
20
-99.3423
11
148.917
21
-99.3909
0
LINE
8
BLACK
6
CONTINUOUS
10
148.917
20
-99.3909
11
149.065
21
-99.4698
0
LINE
8
BLACK
6
CONTINUOUS
10
149.065
20
-99.4698
11
149.194
21
-99.5761
0
LINE
8
BLACK
6
CONTINUOUS
10
149.194
20
-99.5761
11
149.3
21
-99.7055
0
LINE
8
BLACK
6
CONTINUOUS
10
149.3
20
-99.7055
11
149.367
21
-99.83
0
LINE
8
BLACK
6
CONTINUOUS
10
149.367
20
-99.83
11
153.645
21
-99.83
0
LINE
8
BLACK
6
CONTINUOUS
10
153.645
20
-99.83
11
153.67
21
-99.8276
0
LINE
8
BLACK
6
CONTINUOUS
10
153.67
20
-99.8276
11
153.695
21
-99.83
0
LINE
8
BLACK
6
CONTINUOUS
10
153.695
20
-99.83
11
153.768
21
-99.8372
0
LINE
8
BLACK
6
CONTINUOUS
10
153.768
20
-99.8372
11
153.862
21
-99.8658
0
LINE
8
BLACK
6
CONTINUOUS
10
153.862
20
-99.8658
11
153.949
21
-99.9123
0
LINE
8
BLACK
6
CONTINUOUS
10
153.949
20
-99.9123
11
154.025
21
-99.9747
0
LINE
8
BLACK
6
CONTINUOUS
10
154.025
20
-99.9747
11
154.041
21
-99.9938
0
LINE
8
BLACK
6
CONTINUOUS
10
154.041
20
-99.9938
11
155.276
21
-101.229
0
LINE
8
BLACK
6
CONTINUOUS
10
155.276
20
-101.229
11
155.295
21
-101.245
0
LINE
8
BLACK
6
CONTINUOUS
10
155.295
20
-101.245
11
155.358
21
-101.321
0
LINE
8
BLACK
6
CONTINUOUS
10
155.358
20
-101.321
11
155.404
21
-101.408
0
LINE
8
BLACK
6
CONTINUOUS
10
155.404
20
-101.408
11
155.433
21
-101.502
0
LINE
8
BLACK
6
CONTINUOUS
10
155.433
20
-101.502
11
155.44
21
-101.575
0
LINE
8
BLACK
6
CONTINUOUS
10
155.44
20
-101.575
11
155.442
21
-101.6
0
LINE
8
BLACK
6
CONTINUOUS
10
155.442
20
-101.6
11
155.44
21
-101.625
0
LINE
8
BLACK
6
CONTINUOUS
10
155.44
20
-101.625
11
155.44
21
-106.858
0
LINE
8
BLACK
6
CONTINUOUS
10
155.44
20
-106.858
11
155.508
21
-106.887
0
LINE
8
BLACK
6
CONTINUOUS
10
155.508
20
-106.887
11
155.705
21
-107.018
0
LINE
8
BLACK
6
CONTINUOUS
10
155.705
20
-107.018
11
155.872
21
-107.185
0
LINE
8
BLACK
6
CONTINUOUS
10
155.872
20
-107.185
11
156.003
21
-107.382
0
LINE
8
BLACK
6
CONTINUOUS
10
156.003
20
-107.382
11
156.094
21
-107.6
0
LINE
8
BLACK
6
CONTINUOUS
10
156.094
20
-107.6
11
156.14
21
-107.832
0
LINE
8
BLACK
6
CONTINUOUS
10
156.14
20
-107.832
11
156.14
21
-108.068
0
LINE
8
BLACK
6
CONTINUOUS
10
156.14
20
-108.068
11
156.094
21
-108.3
0
LINE
8
BLACK
6
CONTINUOUS
10
156.094
20
-108.3
11
156.003
21
-108.518
0
LINE
8
BLACK
6
CONTINUOUS
10
156.003
20
-108.518
11
155.872
21
-108.715
0
LINE
8
BLACK
6
CONTINUOUS
10
155.872
20
-108.715
11
155.705
21
-108.882
0
LINE
8
BLACK
6
CONTINUOUS
10
155.705
20
-108.882
11
155.508
21
-109.013
0
LINE
8
BLACK
6
CONTINUOUS
10
155.508
20
-109.013
11
155.29
21
-109.104
0
LINE
8
BLACK
6
CONTINUOUS
10
155.29
20
-109.104
11
155.058
21
-109.15
0
LINE
8
BLACK
6
CONTINUOUS
10
155.058
20
-109.15
11
154.822
21
-109.15
0
LINE
8
BLACK
6
CONTINUOUS
10
154.822
20
-109.15
11
154.59
21
-109.104
0
LINE
8
BLACK
6
CONTINUOUS
10
154.59
20
-109.104
11
154.372
21
-109.013
0
LINE
8
BLACK
6
CONTINUOUS
10
154.372
20
-109.013
11
154.175
21
-108.882
0
LINE
8
BLACK
6
CONTINUOUS
10
154.175
20
-108.882
11
154.008
21
-108.715
0
LINE
8
BLACK
6
CONTINUOUS
10
154.008
20
-108.715
11
153.877
21
-108.518
0
LINE
8
BLACK
6
CONTINUOUS
10
153.877
20
-108.518
11
153.848
21
-108.45
0
LINE
8
BLACK
6
CONTINUOUS
10
153.848
20
-108.45
11
150.067
21
-108.45
0
LINE
8
BLACK
6
CONTINUOUS
10
150.067
20
-108.45
11
149.09
21
-109.427
0
LINE
8
BLACK
6
CONTINUOUS
10
149.09
20
-109.427
11
149.09
21
-111.132
0
LINE
8
BLACK
6
CONTINUOUS
10
149.09
20
-111.132
11
149.1
21
-111.139
0
LINE
8
BLACK
6
CONTINUOUS
10
149.1
20
-111.139
11
149.211
21
-111.25
0
LINE
8
BLACK
6
CONTINUOUS
10
149.211
20
-111.25
11
149.299
21
-111.381
0
LINE
8
BLACK
6
CONTINUOUS
10
149.299
20
-111.381
11
149.359
21
-111.527
0
LINE
8
BLACK
6
CONTINUOUS
10
149.359
20
-111.527
11
149.39
21
-111.681
0
LINE
8
BLACK
6
CONTINUOUS
10
149.39
20
-111.681
11
149.39
21
-111.839
0
LINE
8
BLACK
6
CONTINUOUS
10
149.39
20
-111.839
11
149.359
21
-111.993
0
LINE
8
BLACK
6
CONTINUOUS
10
149.359
20
-111.993
11
149.299
21
-112.139
0
LINE
8
BLACK
6
CONTINUOUS
10
149.299
20
-112.139
11
149.211
21
-112.27
0
LINE
8
BLACK
6
CONTINUOUS
10
149.211
20
-112.27
11
149.1
21
-112.381
0
LINE
8
BLACK
6
CONTINUOUS
10
149.1
20
-112.381
11
148.969
21
-112.469
0
LINE
8
BLACK
6
CONTINUOUS
10
148.969
20
-112.469
11
148.823
21
-112.529
0
LINE
8
BLACK
6
CONTINUOUS
10
148.823
20
-112.529
11
148.669
21
-112.56
0
LINE
8
BLACK
6
CONTINUOUS
10
148.669
20
-112.56
11
148.511
21
-112.56
0
LINE
8
BLACK
6
CONTINUOUS
10
148.511
20
-112.56
11
148.357
21
-112.529
0
LINE
8
BLACK
6
CONTINUOUS
10
148.357
20
-112.529
11
148.211
21
-112.469
0
LINE
8
BLACK
6
CONTINUOUS
10
148.211
20
-112.469
11
148.08
21
-112.381
0
LINE
8
BLACK
6
CONTINUOUS
10
148.08
20
-112.381
11
147.969
21
-112.27
0
LINE
8
BLACK
6
CONTINUOUS
10
147.969
20
-112.27
11
147.881
21
-112.139
0
LINE
8
BLACK
6
CONTINUOUS
10
147.881
20
-112.139
11
147.821
21
-111.993
0
LINE
8
BLACK
6
CONTINUOUS
10
147.821
20
-111.993
11
147.79
21
-111.839
0
LINE
8
BLACK
6
CONTINUOUS
10
147.79
20
-111.839
11
147.79
21
-111.681
0
LINE
8
BLACK
6
CONTINUOUS
10
147.79
20
-111.681
11
147.821
21
-111.527
0
LINE
8
BLACK
6
CONTINUOUS
10
147.821
20
-111.527
11
147.881
21
-111.381
0
LINE
8
BLACK
6
CONTINUOUS
10
147.881
20
-111.381
11
147.969
21
-111.25
0
LINE
8
BLACK
6
CONTINUOUS
10
147.969
20
-111.25
11
148.08
21
-111.139
0
LINE
8
BLACK
6
CONTINUOUS
10
148.08
20
-111.139
11
148.09
21
-111.132
0
LINE
8
BLACK
6
CONTINUOUS
10
148.09
20
-111.132
11
148.09
21
-109.245
0
LINE
8
BLACK
6
CONTINUOUS
10
148.09
20
-109.245
11
148.088
21
-109.22
0
LINE
8
BLACK
6
CONTINUOUS
10
148.088
20
-109.22
11
148.097
21
-109.122
0
LINE
8
BLACK
6
CONTINUOUS
10
148.097
20
-109.122
11
148.126
21
-109.028
0
LINE
8
BLACK
6
CONTINUOUS
10
148.126
20
-109.028
11
148.133
21
-109.013
0
LINE
8
BLACK
6
CONTINUOUS
10
148.133
20
-109.013
11
148.172
21
-108.941
0
LINE
8
BLACK
6
CONTINUOUS
10
148.172
20
-108.941
11
148.235
21
-108.865
0
LINE
8
BLACK
6
CONTINUOUS
10
148.235
20
-108.865
11
148.254
21
-108.849
0
LINE
8
BLACK
6
CONTINUOUS
10
148.254
20
-108.849
11
149.489
21
-107.614
0
LINE
8
BLACK
6
CONTINUOUS
10
149.489
20
-107.614
11
149.505
21
-107.595
0
LINE
8
BLACK
6
CONTINUOUS
10
149.505
20
-107.595
11
149.581
21
-107.532
0
LINE
8
BLACK
6
CONTINUOUS
10
149.581
20
-107.532
11
149.668
21
-107.486
0
LINE
8
BLACK
6
CONTINUOUS
10
149.668
20
-107.486
11
149.762
21
-107.457
0
LINE
8
BLACK
6
CONTINUOUS
10
149.762
20
-107.457
11
149.835
21
-107.45
0
LINE
8
BLACK
6
CONTINUOUS
10
149.835
20
-107.45
11
149.835
21
-107.45
0
LINE
8
BLACK
6
CONTINUOUS
10
149.835
20
-107.45
11
149.86
21
-107.448
0
LINE
8
BLACK
6
CONTINUOUS
10
149.86
20
-107.448
11
149.885
21
-107.45
0
LINE
8
BLACK
6
CONTINUOUS
10
149.885
20
-107.45
11
153.848
21
-107.45
0
LINE
8
BLACK
6
CONTINUOUS
10
153.848
20
-107.45
11
153.877
21
-107.382
0
LINE
8
BLACK
6
CONTINUOUS
10
153.877
20
-107.382
11
154.008
21
-107.185
0
LINE
8
BLACK
6
CONTINUOUS
10
154.008
20
-107.185
11
154.175
21
-107.018
0
LINE
8
BLACK
6
CONTINUOUS
10
154.175
20
-107.018
11
154.372
21
-106.887
0
LINE
8
BLACK
6
CONTINUOUS
10
154.372
20
-106.887
11
154.44
21
-106.858
0
LINE
8
BLACK
6
CONTINUOUS
10
154.44
20
-106.858
11
154.44
21
-101.807
0
LINE
8
BLACK
6
CONTINUOUS
10
154.44
20
-101.807
11
153.463
21
-100.83
0
LINE
8
BLACK
6
CONTINUOUS
10
153.463
20
-100.83
11
149.367
21
-100.83
0
LINE
8
BLACK
6
CONTINUOUS
10
149.367
20
-100.83
11
149.3
21
-100.955
0
LINE
8
BLACK
6
CONTINUOUS
10
149.3
20
-100.955
11
149.194
21
-101.084
0
LINE
8
BLACK
6
CONTINUOUS
10
149.194
20
-101.084
11
149.065
21
-101.19
0
LINE
8
BLACK
6
CONTINUOUS
10
149.065
20
-101.19
11
148.917
21
-101.269
0
LINE
8
BLACK
6
CONTINUOUS
10
148.917
20
-101.269
11
148.757
21
-101.318
0
LINE
8
BLACK
6
CONTINUOUS
10
148.757
20
-101.318
11
148.59
21
-101.334
0
LINE
8
BLACK
6
CONTINUOUS
10
148.59
20
-101.334
11
148.423
21
-101.318
0
LINE
8
BLACK
6
CONTINUOUS
10
148.423
20
-101.318
11
148.263
21
-101.269
0
LINE
8
BLACK
6
CONTINUOUS
10
148.263
20
-101.269
11
148.115
21
-101.19
0
LINE
8
BLACK
6
CONTINUOUS
10
148.115
20
-101.19
11
147.986
21
-101.084
0
LINE
8
BLACK
6
CONTINUOUS
10
147.986
20
-101.084
11
147.88
21
-100.955
0
LINE
8
BLACK
6
CONTINUOUS
10
147.88
20
-100.955
11
147.801
21
-100.807
0
LINE
8
BLACK
6
CONTINUOUS
10
147.801
20
-100.807
11
147.752
21
-100.647
0
LINE
8
BLACK
6
CONTINUOUS
10
147.752
20
-100.647
11
147.74
21
-100.522
0
LINE
8
BLACK
6
CONTINUOUS
10
147.74
20
-100.522
11
147.74
21
-100.138
0
LINE
8
BLACK
6
CONTINUOUS
10
147.74
20
-100.138
11
147.752
21
-100.013
0
LINE
8
BLACK
6
CONTINUOUS
10
147.752
20
-100.013
11
147.801
21
-99.8531
0
LINE
8
BLACK
6
CONTINUOUS
10
147.801
20
-99.8531
11
147.88
21
-99.7055
0
LINE
8
BLACK
6
CONTINUOUS
10
147.88
20
-99.7055
11
147.986
21
-99.5761
0
LINE
8
BLACK
6
CONTINUOUS
10
147.986
20
-99.5761
11
148.115
21
-99.4698
0
LINE
8
BLACK
6
CONTINUOUS
10
148.115
20
-99.4698
11
148.263
21
-99.3909
0
LINE
8
BLACK
6
CONTINUOUS
10
148.263
20
-99.3909
11
148.423
21
-99.3423
0
LINE
8
BLACK
6
CONTINUOUS
10
148.423
20
-99.3423
11
148.59
21
-99.3259
0
LINE
8
BLACK
6
CONTINUOUS
10
148.59
20
-99.3259
11
148.757
21
-99.3423
0
LINE
8
BLACK
6
CONTINUOUS
10
151.363
20
-110.991
11
151.509
21
-111.051
0
LINE
8
BLACK
6
CONTINUOUS
10
151.509
20
-111.051
11
151.64
21
-111.139
0
LINE
8
BLACK
6
CONTINUOUS
10
151.64
20
-111.139
11
151.751
21
-111.25
0
LINE
8
BLACK
6
CONTINUOUS
10
151.751
20
-111.25
11
151.839
21
-111.381
0
LINE
8
BLACK
6
CONTINUOUS
10
151.839
20
-111.381
11
151.899
21
-111.527
0
LINE
8
BLACK
6
CONTINUOUS
10
151.899
20
-111.527
11
151.93
21
-111.681
0
LINE
8
BLACK
6
CONTINUOUS
10
151.93
20
-111.681
11
151.93
21
-111.839
0
LINE
8
BLACK
6
CONTINUOUS
10
151.93
20
-111.839
11
151.899
21
-111.993
0
LINE
8
BLACK
6
CONTINUOUS
10
151.899
20
-111.993
11
151.839
21
-112.139
0
LINE
8
BLACK
6
CONTINUOUS
10
151.839
20
-112.139
11
151.751
21
-112.27
0
LINE
8
BLACK
6
CONTINUOUS
10
151.751
20
-112.27
11
151.64
21
-112.381
0
LINE
8
BLACK
6
CONTINUOUS
10
151.64
20
-112.381
11
151.509
21
-112.469
0
LINE
8
BLACK
6
CONTINUOUS
10
151.509
20
-112.469
11
151.363
21
-112.529
0
LINE
8
BLACK
6
CONTINUOUS
10
151.363
20
-112.529
11
151.209
21
-112.56
0
LINE
8
BLACK
6
CONTINUOUS
10
151.209
20
-112.56
11
151.051
21
-112.56
0
LINE
8
BLACK
6
CONTINUOUS
10
151.051
20
-112.56
11
150.897
21
-112.529
0
LINE
8
BLACK
6
CONTINUOUS
10
150.897
20
-112.529
11
150.751
21
-112.469
0
LINE
8
BLACK
6
CONTINUOUS
10
150.751
20
-112.469
11
150.62
21
-112.381
0
LINE
8
BLACK
6
CONTINUOUS
10
150.62
20
-112.381
11
150.509
21
-112.27
0
LINE
8
BLACK
6
CONTINUOUS
10
150.509
20
-112.27
11
150.421
21
-112.139
0
LINE
8
BLACK
6
CONTINUOUS
10
150.421
20
-112.139
11
150.361
21
-111.993
0
LINE
8
BLACK
6
CONTINUOUS
10
150.361
20
-111.993
11
150.33
21
-111.839
0
LINE
8
BLACK
6
CONTINUOUS
10
150.33
20
-111.839
11
150.33
21
-111.681
0
LINE
8
BLACK
6
CONTINUOUS
10
150.33
20
-111.681
11
150.361
21
-111.527
0
LINE
8
BLACK
6
CONTINUOUS
10
150.361
20
-111.527
11
150.421
21
-111.381
0
LINE
8
BLACK
6
CONTINUOUS
10
150.421
20
-111.381
11
150.509
21
-111.25
0
LINE
8
BLACK
6
CONTINUOUS
10
150.509
20
-111.25
11
150.62
21
-111.139
0
LINE
8
BLACK
6
CONTINUOUS
10
150.62
20
-111.139
11
150.751
21
-111.051
0
LINE
8
BLACK
6
CONTINUOUS
10
150.751
20
-111.051
11
150.897
21
-110.991
0
LINE
8
BLACK
6
CONTINUOUS
10
150.897
20
-110.991
11
151.051
21
-110.96
0
LINE
8
BLACK
6
CONTINUOUS
10
151.051
20
-110.96
11
151.209
21
-110.96
0
LINE
8
BLACK
6
CONTINUOUS
10
151.209
20
-110.96
11
151.363
21
-110.991
0
LINE
8
BLACK
6
CONTINUOUS
10
153.903
20
-110.991
11
154.049
21
-111.051
0
LINE
8
BLACK
6
CONTINUOUS
10
154.049
20
-111.051
11
154.18
21
-111.139
0
LINE
8
BLACK
6
CONTINUOUS
10
154.18
20
-111.139
11
154.291
21
-111.25
0
LINE
8
BLACK
6
CONTINUOUS
10
154.291
20
-111.25
11
154.379
21
-111.381
0
LINE
8
BLACK
6
CONTINUOUS
10
154.379
20
-111.381
11
154.439
21
-111.527
0
LINE
8
BLACK
6
CONTINUOUS
10
154.439
20
-111.527
11
154.47
21
-111.681
0
LINE
8
BLACK
6
CONTINUOUS
10
154.47
20
-111.681
11
154.47
21
-111.839
0
LINE
8
BLACK
6
CONTINUOUS
10
154.47
20
-111.839
11
154.439
21
-111.993
0
LINE
8
BLACK
6
CONTINUOUS
10
154.439
20
-111.993
11
154.379
21
-112.139
0
LINE
8
BLACK
6
CONTINUOUS
10
154.379
20
-112.139
11
154.291
21
-112.27
0
LINE
8
BLACK
6
CONTINUOUS
10
154.291
20
-112.27
11
154.18
21
-112.381
0
LINE
8
BLACK
6
CONTINUOUS
10
154.18
20
-112.381
11
154.049
21
-112.469
0
LINE
8
BLACK
6
CONTINUOUS
10
154.049
20
-112.469
11
153.903
21
-112.529
0
LINE
8
BLACK
6
CONTINUOUS
10
153.903
20
-112.529
11
153.749
21
-112.56
0
LINE
8
BLACK
6
CONTINUOUS
10
153.749
20
-112.56
11
153.591
21
-112.56
0
LINE
8
BLACK
6
CONTINUOUS
10
153.591
20
-112.56
11
153.437
21
-112.529
0
LINE
8
BLACK
6
CONTINUOUS
10
153.437
20
-112.529
11
153.291
21
-112.469
0
LINE
8
BLACK
6
CONTINUOUS
10
153.291
20
-112.469
11
153.16
21
-112.381
0
LINE
8
BLACK
6
CONTINUOUS
10
153.16
20
-112.381
11
153.049
21
-112.27
0
LINE
8
BLACK
6
CONTINUOUS
10
153.049
20
-112.27
11
152.961
21
-112.139
0
LINE
8
BLACK
6
CONTINUOUS
10
152.961
20
-112.139
11
152.901
21
-111.993
0
LINE
8
BLACK
6
CONTINUOUS
10
152.901
20
-111.993
11
152.87
21
-111.839
0
LINE
8
BLACK
6
CONTINUOUS
10
152.87
20
-111.839
11
152.87
21
-111.681
0
LINE
8
BLACK
6
CONTINUOUS
10
152.87
20
-111.681
11
152.901
21
-111.527
0
LINE
8
BLACK
6
CONTINUOUS
10
152.901
20
-111.527
11
152.961
21
-111.381
0
LINE
8
BLACK
6
CONTINUOUS
10
152.961
20
-111.381
11
153.049
21
-111.25
0
LINE
8
BLACK
6
CONTINUOUS
10
153.049
20
-111.25
11
153.16
21
-111.139
0
LINE
8
BLACK
6
CONTINUOUS
10
153.16
20
-111.139
11
153.291
21
-111.051
0
LINE
8
BLACK
6
CONTINUOUS
10
153.291
20
-111.051
11
153.437
21
-110.991
0
LINE
8
BLACK
6
CONTINUOUS
10
153.437
20
-110.991
11
153.591
21
-110.96
0
LINE
8
BLACK
6
CONTINUOUS
10
153.591
20
-110.96
11
153.749
21
-110.96
0
LINE
8
BLACK
6
CONTINUOUS
10
153.749
20
-110.96
11
153.903
21
-110.991
0
LINE
8
BLACK
6
CONTINUOUS
10
156.443
20
-110.991
11
156.589
21
-111.051
0
LINE
8
BLACK
6
CONTINUOUS
10
156.589
20
-111.051
11
156.72
21
-111.139
0
LINE
8
BLACK
6
CONTINUOUS
10
156.72
20
-111.139
11
156.831
21
-111.25
0
LINE
8
BLACK
6
CONTINUOUS
10
156.831
20
-111.25
11
156.919
21
-111.381
0
LINE
8
BLACK
6
CONTINUOUS
10
156.919
20
-111.381
11
156.979
21
-111.527
0
LINE
8
BLACK
6
CONTINUOUS
10
156.979
20
-111.527
11
157.01
21
-111.681
0
LINE
8
BLACK
6
CONTINUOUS
10
157.01
20
-111.681
11
157.01
21
-111.839
0
LINE
8
BLACK
6
CONTINUOUS
10
157.01
20
-111.839
11
156.979
21
-111.993
0
LINE
8
BLACK
6
CONTINUOUS
10
156.979
20
-111.993
11
156.919
21
-112.139
0
LINE
8
BLACK
6
CONTINUOUS
10
156.919
20
-112.139
11
156.831
21
-112.27
0
LINE
8
BLACK
6
CONTINUOUS
10
156.831
20
-112.27
11
156.72
21
-112.381
0
LINE
8
BLACK
6
CONTINUOUS
10
156.72
20
-112.381
11
156.589
21
-112.469
0
LINE
8
BLACK
6
CONTINUOUS
10
156.589
20
-112.469
11
156.443
21
-112.529
0
LINE
8
BLACK
6
CONTINUOUS
10
156.443
20
-112.529
11
156.289
21
-112.56
0
LINE
8
BLACK
6
CONTINUOUS
10
156.289
20
-112.56
11
156.131
21
-112.56
0
LINE
8
BLACK
6
CONTINUOUS
10
156.131
20
-112.56
11
155.977
21
-112.529
0
LINE
8
BLACK
6
CONTINUOUS
10
155.977
20
-112.529
11
155.831
21
-112.469
0
LINE
8
BLACK
6
CONTINUOUS
10
155.831
20
-112.469
11
155.7
21
-112.381
0
LINE
8
BLACK
6
CONTINUOUS
10
155.7
20
-112.381
11
155.589
21
-112.27
0
LINE
8
BLACK
6
CONTINUOUS
10
155.589
20
-112.27
11
155.501
21
-112.139
0
LINE
8
BLACK
6
CONTINUOUS
10
155.501
20
-112.139
11
155.441
21
-111.993
0
LINE
8
BLACK
6
CONTINUOUS
10
155.441
20
-111.993
11
155.41
21
-111.839
0
LINE
8
BLACK
6
CONTINUOUS
10
155.41
20
-111.839
11
155.41
21
-111.681
0
LINE
8
BLACK
6
CONTINUOUS
10
155.41
20
-111.681
11
155.441
21
-111.527
0
LINE
8
BLACK
6
CONTINUOUS
10
155.441
20
-111.527
11
155.501
21
-111.381
0
LINE
8
BLACK
6
CONTINUOUS
10
155.501
20
-111.381
11
155.589
21
-111.25
0
LINE
8
BLACK
6
CONTINUOUS
10
155.589
20
-111.25
11
155.7
21
-111.139
0
LINE
8
BLACK
6
CONTINUOUS
10
155.7
20
-111.139
11
155.831
21
-111.051
0
LINE
8
BLACK
6
CONTINUOUS
10
155.831
20
-111.051
11
155.977
21
-110.991
0
LINE
8
BLACK
6
CONTINUOUS
10
155.977
20
-110.991
11
156.131
21
-110.96
0
LINE
8
BLACK
6
CONTINUOUS
10
156.131
20
-110.96
11
156.289
21
-110.96
0
LINE
8
BLACK
6
CONTINUOUS
10
156.289
20
-110.96
11
156.443
21
-110.991
0
LINE
8
BLACK
6
CONTINUOUS
10
158.983
20
-110.991
11
159.129
21
-111.051
0
LINE
8
BLACK
6
CONTINUOUS
10
159.129
20
-111.051
11
159.26
21
-111.139
0
LINE
8
BLACK
6
CONTINUOUS
10
159.26
20
-111.139
11
159.371
21
-111.25
0
LINE
8
BLACK
6
CONTINUOUS
10
159.371
20
-111.25
11
159.459
21
-111.381
0
LINE
8
BLACK
6
CONTINUOUS
10
159.459
20
-111.381
11
159.519
21
-111.527
0
LINE
8
BLACK
6
CONTINUOUS
10
159.519
20
-111.527
11
159.55
21
-111.681
0
LINE
8
BLACK
6
CONTINUOUS
10
159.55
20
-111.681
11
159.55
21
-111.839
0
LINE
8
BLACK
6
CONTINUOUS
10
159.55
20
-111.839
11
159.519
21
-111.993
0
LINE
8
BLACK
6
CONTINUOUS
10
159.519
20
-111.993
11
159.459
21
-112.139
0
LINE
8
BLACK
6
CONTINUOUS
10
159.459
20
-112.139
11
159.371
21
-112.27
0
LINE
8
BLACK
6
CONTINUOUS
10
159.371
20
-112.27
11
159.26
21
-112.381
0
LINE
8
BLACK
6
CONTINUOUS
10
159.26
20
-112.381
11
159.129
21
-112.469
0
LINE
8
BLACK
6
CONTINUOUS
10
159.129
20
-112.469
11
158.983
21
-112.529
0
LINE
8
BLACK
6
CONTINUOUS
10
158.983
20
-112.529
11
158.829
21
-112.56
0
LINE
8
BLACK
6
CONTINUOUS
10
158.829
20
-112.56
11
158.671
21
-112.56
0
LINE
8
BLACK
6
CONTINUOUS
10
158.671
20
-112.56
11
158.517
21
-112.529
0
LINE
8
BLACK
6
CONTINUOUS
10
158.517
20
-112.529
11
158.371
21
-112.469
0
LINE
8
BLACK
6
CONTINUOUS
10
158.371
20
-112.469
11
158.24
21
-112.381
0
LINE
8
BLACK
6
CONTINUOUS
10
158.24
20
-112.381
11
158.129
21
-112.27
0
LINE
8
BLACK
6
CONTINUOUS
10
158.129
20
-112.27
11
158.041
21
-112.139
0
LINE
8
BLACK
6
CONTINUOUS
10
158.041
20
-112.139
11
157.981
21
-111.993
0
LINE
8
BLACK
6
CONTINUOUS
10
157.981
20
-111.993
11
157.95
21
-111.839
0
LINE
8
BLACK
6
CONTINUOUS
10
157.95
20
-111.839
11
157.95
21
-111.681
0
LINE
8
BLACK
6
CONTINUOUS
10
157.95
20
-111.681
11
157.981
21
-111.527
0
LINE
8
BLACK
6
CONTINUOUS
10
157.981
20
-111.527
11
158.041
21
-111.381
0
LINE
8
BLACK
6
CONTINUOUS
10
158.041
20
-111.381
11
158.129
21
-111.25
0
LINE
8
BLACK
6
CONTINUOUS
10
158.129
20
-111.25
11
158.24
21
-111.139
0
LINE
8
BLACK
6
CONTINUOUS
10
158.24
20
-111.139
11
158.371
21
-111.051
0
LINE
8
BLACK
6
CONTINUOUS
10
158.371
20
-111.051
11
158.517
21
-110.991
0
LINE
8
BLACK
6
CONTINUOUS
10
158.517
20
-110.991
11
158.671
21
-110.96
0
LINE
8
BLACK
6
CONTINUOUS
10
158.671
20
-110.96
11
158.829
21
-110.96
0
LINE
8
BLACK
6
CONTINUOUS
10
158.829
20
-110.96
11
158.983
21
-110.991
0
LINE
8
BLACK
6
CONTINUOUS
10
161.523
20
-110.991
11
161.669
21
-111.051
0
LINE
8
BLACK
6
CONTINUOUS
10
161.669
20
-111.051
11
161.8
21
-111.139
0
LINE
8
BLACK
6
CONTINUOUS
10
161.8
20
-111.139
11
161.911
21
-111.25
0
LINE
8
BLACK
6
CONTINUOUS
10
161.911
20
-111.25
11
161.999
21
-111.381
0
LINE
8
BLACK
6
CONTINUOUS
10
161.999
20
-111.381
11
162.059
21
-111.527
0
LINE
8
BLACK
6
CONTINUOUS
10
162.059
20
-111.527
11
162.09
21
-111.681
0
LINE
8
BLACK
6
CONTINUOUS
10
162.09
20
-111.681
11
162.09
21
-111.839
0
LINE
8
BLACK
6
CONTINUOUS
10
162.09
20
-111.839
11
162.059
21
-111.993
0
LINE
8
BLACK
6
CONTINUOUS
10
162.059
20
-111.993
11
161.999
21
-112.139
0
LINE
8
BLACK
6
CONTINUOUS
10
161.999
20
-112.139
11
161.911
21
-112.27
0
LINE
8
BLACK
6
CONTINUOUS
10
161.911
20
-112.27
11
161.8
21
-112.381
0
LINE
8
BLACK
6
CONTINUOUS
10
161.8
20
-112.381
11
161.669
21
-112.469
0
LINE
8
BLACK
6
CONTINUOUS
10
161.669
20
-112.469
11
161.523
21
-112.529
0
LINE
8
BLACK
6
CONTINUOUS
10
161.523
20
-112.529
11
161.369
21
-112.56
0
LINE
8
BLACK
6
CONTINUOUS
10
161.369
20
-112.56
11
161.211
21
-112.56
0
LINE
8
BLACK
6
CONTINUOUS
10
161.211
20
-112.56
11
161.057
21
-112.529
0
LINE
8
BLACK
6
CONTINUOUS
10
161.057
20
-112.529
11
160.911
21
-112.469
0
LINE
8
BLACK
6
CONTINUOUS
10
160.911
20
-112.469
11
160.78
21
-112.381
0
LINE
8
BLACK
6
CONTINUOUS
10
160.78
20
-112.381
11
160.669
21
-112.27
0
LINE
8
BLACK
6
CONTINUOUS
10
160.669
20
-112.27
11
160.581
21
-112.139
0
LINE
8
BLACK
6
CONTINUOUS
10
160.581
20
-112.139
11
160.521
21
-111.993
0
LINE
8
BLACK
6
CONTINUOUS
10
160.521
20
-111.993
11
160.49
21
-111.839
0
LINE
8
BLACK
6
CONTINUOUS
10
160.49
20
-111.839
11
160.49
21
-111.681
0
LINE
8
BLACK
6
CONTINUOUS
10
160.49
20
-111.681
11
160.521
21
-111.527
0
LINE
8
BLACK
6
CONTINUOUS
10
160.521
20
-111.527
11
160.581
21
-111.381
0
LINE
8
BLACK
6
CONTINUOUS
10
160.581
20
-111.381
11
160.669
21
-111.25
0
LINE
8
BLACK
6
CONTINUOUS
10
160.669
20
-111.25
11
160.78
21
-111.139
0
LINE
8
BLACK
6
CONTINUOUS
10
160.78
20
-111.139
11
160.911
21
-111.051
0
LINE
8
BLACK
6
CONTINUOUS
10
160.911
20
-111.051
11
161.057
21
-110.991
0
LINE
8
BLACK
6
CONTINUOUS
10
161.057
20
-110.991
11
161.211
21
-110.96
0
LINE
8
BLACK
6
CONTINUOUS
10
161.211
20
-110.96
11
161.369
21
-110.96
0
LINE
8
BLACK
6
CONTINUOUS
10
161.369
20
-110.96
11
161.523
21
-110.991
0
LINE
8
BLACK
6
CONTINUOUS
10
151.363
20
-62.7307
11
151.509
21
-62.791
0
LINE
8
BLACK
6
CONTINUOUS
10
151.509
20
-62.791
11
151.64
21
-62.8786
0
LINE
8
BLACK
6
CONTINUOUS
10
151.64
20
-62.8786
11
151.751
21
-62.99
0
LINE
8
BLACK
6
CONTINUOUS
10
151.751
20
-62.99
11
151.839
21
-63.1211
0
LINE
8
BLACK
6
CONTINUOUS
10
151.839
20
-63.1211
11
151.899
21
-63.2666
0
LINE
8
BLACK
6
CONTINUOUS
10
151.899
20
-63.2666
11
151.93
21
-63.4212
0
LINE
8
BLACK
6
CONTINUOUS
10
151.93
20
-63.4212
11
151.93
21
-63.5788
0
LINE
8
BLACK
6
CONTINUOUS
10
151.93
20
-63.5788
11
151.899
21
-63.7334
0
LINE
8
BLACK
6
CONTINUOUS
10
151.899
20
-63.7334
11
151.839
21
-63.8789
0
LINE
8
BLACK
6
CONTINUOUS
10
151.839
20
-63.8789
11
151.751
21
-64.01
0
LINE
8
BLACK
6
CONTINUOUS
10
151.751
20
-64.01
11
151.64
21
-64.1214
0
LINE
8
BLACK
6
CONTINUOUS
10
151.64
20
-64.1214
11
151.63
21
-64.1281
0
LINE
8
BLACK
6
CONTINUOUS
10
151.63
20
-64.1281
11
151.63
21
-64.7455
0
LINE
8
BLACK
6
CONTINUOUS
10
151.63
20
-64.7455
11
151.632
21
-64.77
0
LINE
8
BLACK
6
CONTINUOUS
10
151.632
20
-64.77
11
151.63
21
-64.7946
0
LINE
8
BLACK
6
CONTINUOUS
10
151.63
20
-64.7946
11
151.63
21
-64.7946
0
LINE
8
BLACK
6
CONTINUOUS
10
151.63
20
-64.7946
11
151.623
21
-64.868
0
LINE
8
BLACK
6
CONTINUOUS
10
151.623
20
-64.868
11
151.594
21
-64.9623
0
LINE
8
BLACK
6
CONTINUOUS
10
151.594
20
-64.9623
11
151.548
21
-65.0491
0
LINE
8
BLACK
6
CONTINUOUS
10
151.548
20
-65.0491
11
151.485
21
-65.1253
0
LINE
8
BLACK
6
CONTINUOUS
10
151.485
20
-65.1253
11
151.466
21
-65.1409
0
LINE
8
BLACK
6
CONTINUOUS
10
151.466
20
-65.1409
11
149.09
21
-67.5171
0
LINE
8
BLACK
6
CONTINUOUS
10
149.09
20
-67.5171
11
149.09
21
-71.89
0
LINE
8
BLACK
6
CONTINUOUS
10
149.09
20
-71.89
11
150.442
21
-71.89
0
LINE
8
BLACK
6
CONTINUOUS
10
150.442
20
-71.89
11
150.47
21
-71.8482
0
LINE
8
BLACK
6
CONTINUOUS
10
150.47
20
-71.8482
11
150.588
21
-71.7298
0
LINE
8
BLACK
6
CONTINUOUS
10
150.588
20
-71.7298
11
150.727
21
-71.6367
0
LINE
8
BLACK
6
CONTINUOUS
10
150.727
20
-71.6367
11
150.882
21
-71.5727
0
LINE
8
BLACK
6
CONTINUOUS
10
150.882
20
-71.5727
11
151.046
21
-71.54
0
LINE
8
BLACK
6
CONTINUOUS
10
151.046
20
-71.54
11
151.214
21
-71.54
0
LINE
8
BLACK
6
CONTINUOUS
10
151.214
20
-71.54
11
151.378
21
-71.5727
0
LINE
8
BLACK
6
CONTINUOUS
10
151.378
20
-71.5727
11
151.533
21
-71.6367
0
LINE
8
BLACK
6
CONTINUOUS
10
151.533
20
-71.6367
11
151.672
21
-71.7298
0
LINE
8
BLACK
6
CONTINUOUS
10
151.672
20
-71.7298
11
151.79
21
-71.8482
0
LINE
8
BLACK
6
CONTINUOUS
10
151.79
20
-71.8482
11
151.883
21
-71.9874
0
LINE
8
BLACK
6
CONTINUOUS
10
151.883
20
-71.9874
11
151.947
21
-72.1421
0
LINE
8
BLACK
6
CONTINUOUS
10
151.947
20
-72.1421
11
151.98
21
-72.3063
0
LINE
8
BLACK
6
CONTINUOUS
10
151.98
20
-72.3063
11
151.98
21
-72.4737
0
LINE
8
BLACK
6
CONTINUOUS
10
151.98
20
-72.4737
11
151.947
21
-72.6379
0
LINE
8
BLACK
6
CONTINUOUS
10
151.947
20
-72.6379
11
151.883
21
-72.7926
0
LINE
8
BLACK
6
CONTINUOUS
10
151.883
20
-72.7926
11
151.79
21
-72.9318
0
LINE
8
BLACK
6
CONTINUOUS
10
151.79
20
-72.9318
11
151.672
21
-73.0502
0
LINE
8
BLACK
6
CONTINUOUS
10
151.672
20
-73.0502
11
151.533
21
-73.1433
0
LINE
8
BLACK
6
CONTINUOUS
10
151.533
20
-73.1433
11
151.378
21
-73.2073
0
LINE
8
BLACK
6
CONTINUOUS
10
151.378
20
-73.2073
11
151.214
21
-73.24
0
LINE
8
BLACK
6
CONTINUOUS
10
151.214
20
-73.24
11
151.046
21
-73.24
0
LINE
8
BLACK
6
CONTINUOUS
10
151.046
20
-73.24
11
150.882
21
-73.2073
0
LINE
8
BLACK
6
CONTINUOUS
10
150.882
20
-73.2073
11
150.727
21
-73.1433
0
LINE
8
BLACK
6
CONTINUOUS
10
150.727
20
-73.1433
11
150.588
21
-73.0502
0
LINE
8
BLACK
6
CONTINUOUS
10
150.588
20
-73.0502
11
150.47
21
-72.9318
0
LINE
8
BLACK
6
CONTINUOUS
10
150.47
20
-72.9318
11
150.442
21
-72.89
0
LINE
8
BLACK
6
CONTINUOUS
10
150.442
20
-72.89
11
148.615
21
-72.89
0
LINE
8
BLACK
6
CONTINUOUS
10
148.615
20
-72.89
11
148.59
21
-72.8924
0
LINE
8
BLACK
6
CONTINUOUS
10
148.59
20
-72.8924
11
148.492
21
-72.8828
0
LINE
8
BLACK
6
CONTINUOUS
10
148.492
20
-72.8828
11
148.398
21
-72.8542
0
LINE
8
BLACK
6
CONTINUOUS
10
148.398
20
-72.8542
11
148.311
21
-72.8077
0
LINE
8
BLACK
6
CONTINUOUS
10
148.311
20
-72.8077
11
148.235
21
-72.7453
0
LINE
8
BLACK
6
CONTINUOUS
10
148.235
20
-72.7453
11
148.172
21
-72.6691
0
LINE
8
BLACK
6
CONTINUOUS
10
148.172
20
-72.6691
11
148.156
21
-72.6379
0
LINE
8
BLACK
6
CONTINUOUS
10
148.156
20
-72.6379
11
148.126
21
-72.5823
0
LINE
8
BLACK
6
CONTINUOUS
10
148.126
20
-72.5823
11
148.097
21
-72.488
0
LINE
8
BLACK
6
CONTINUOUS
10
148.097
20
-72.488
11
148.088
21
-72.39
0
LINE
8
BLACK
6
CONTINUOUS
10
148.088
20
-72.39
11
148.09
21
-72.3654
0
LINE
8
BLACK
6
CONTINUOUS
10
148.09
20
-72.3654
11
148.09
21
-67.3346
0
LINE
8
BLACK
6
CONTINUOUS
10
148.09
20
-67.3346
11
148.088
21
-67.31
0
LINE
8
BLACK
6
CONTINUOUS
10
148.088
20
-67.31
11
148.097
21
-67.212
0
LINE
8
BLACK
6
CONTINUOUS
10
148.097
20
-67.212
11
148.126
21
-67.1177
0
LINE
8
BLACK
6
CONTINUOUS
10
148.126
20
-67.1177
11
148.139
21
-67.0927
0
LINE
8
BLACK
6
CONTINUOUS
10
148.139
20
-67.0927
11
148.172
21
-67.0309
0
LINE
8
BLACK
6
CONTINUOUS
10
148.172
20
-67.0309
11
148.235
21
-66.9547
0
LINE
8
BLACK
6
CONTINUOUS
10
148.235
20
-66.9547
11
148.254
21
-66.9391
0
LINE
8
BLACK
6
CONTINUOUS
10
148.254
20
-66.9391
11
150.63
21
-64.5629
0
LINE
8
BLACK
6
CONTINUOUS
10
150.63
20
-64.5629
11
150.63
21
-64.1281
0
LINE
8
BLACK
6
CONTINUOUS
10
150.63
20
-64.1281
11
150.62
21
-64.1214
0
LINE
8
BLACK
6
CONTINUOUS
10
150.62
20
-64.1214
11
150.509
21
-64.01
0
LINE
8
BLACK
6
CONTINUOUS
10
150.509
20
-64.01
11
150.421
21
-63.8789
0
LINE
8
BLACK
6
CONTINUOUS
10
150.421
20
-63.8789
11
150.361
21
-63.7334
0
LINE
8
BLACK
6
CONTINUOUS
10
150.361
20
-63.7334
11
150.33
21
-63.5788
0
LINE
8
BLACK
6
CONTINUOUS
10
150.33
20
-63.5788
11
150.33
21
-63.4212
0
LINE
8
BLACK
6
CONTINUOUS
10
150.33
20
-63.4212
11
150.361
21
-63.2666
0
LINE
8
BLACK
6
CONTINUOUS
10
150.361
20
-63.2666
11
150.421
21
-63.1211
0
LINE
8
BLACK
6
CONTINUOUS
10
150.421
20
-63.1211
11
150.509
21
-62.99
0
LINE
8
BLACK
6
CONTINUOUS
10
150.509
20
-62.99
11
150.62
21
-62.8786
0
LINE
8
BLACK
6
CONTINUOUS
10
150.62
20
-62.8786
11
150.751
21
-62.791
0
LINE
8
BLACK
6
CONTINUOUS
10
150.751
20
-62.791
11
150.897
21
-62.7307
0
LINE
8
BLACK
6
CONTINUOUS
10
150.897
20
-62.7307
11
151.051
21
-62.7
0
LINE
8
BLACK
6
CONTINUOUS
10
151.051
20
-62.7
11
151.209
21
-62.7
0
LINE
8
BLACK
6
CONTINUOUS
10
151.209
20
-62.7
11
151.363
21
-62.7307
0
LINE
8
BLACK
6
CONTINUOUS
10
143.743
20
-62.7307
11
143.889
21
-62.791
0
LINE
8
BLACK
6
CONTINUOUS
10
143.889
20
-62.791
11
144.02
21
-62.8786
0
LINE
8
BLACK
6
CONTINUOUS
10
144.02
20
-62.8786
11
144.131
21
-62.99
0
LINE
8
BLACK
6
CONTINUOUS
10
144.131
20
-62.99
11
144.219
21
-63.1211
0
LINE
8
BLACK
6
CONTINUOUS
10
144.219
20
-63.1211
11
144.279
21
-63.2666
0
LINE
8
BLACK
6
CONTINUOUS
10
144.279
20
-63.2666
11
144.31
21
-63.4212
0
LINE
8
BLACK
6
CONTINUOUS
10
144.31
20
-63.4212
11
144.31
21
-63.5788
0
LINE
8
BLACK
6
CONTINUOUS
10
144.31
20
-63.5788
11
144.279
21
-63.7334
0
LINE
8
BLACK
6
CONTINUOUS
10
144.279
20
-63.7334
11
144.219
21
-63.8789
0
LINE
8
BLACK
6
CONTINUOUS
10
144.219
20
-63.8789
11
144.131
21
-64.01
0
LINE
8
BLACK
6
CONTINUOUS
10
144.131
20
-64.01
11
144.02
21
-64.1214
0
LINE
8
BLACK
6
CONTINUOUS
10
144.02
20
-64.1214
11
144.01
21
-64.1281
0
LINE
8
BLACK
6
CONTINUOUS
10
144.01
20
-64.1281
11
144.01
21
-64.5629
0
LINE
8
BLACK
6
CONTINUOUS
10
144.01
20
-64.5629
11
146.386
21
-66.9391
0
LINE
8
BLACK
6
CONTINUOUS
10
146.386
20
-66.9391
11
146.405
21
-66.9547
0
LINE
8
BLACK
6
CONTINUOUS
10
146.405
20
-66.9547
11
146.468
21
-67.0309
0
LINE
8
BLACK
6
CONTINUOUS
10
146.468
20
-67.0309
11
146.514
21
-67.1177
0
LINE
8
BLACK
6
CONTINUOUS
10
146.514
20
-67.1177
11
146.543
21
-67.212
0
LINE
8
BLACK
6
CONTINUOUS
10
146.543
20
-67.212
11
146.55
21
-67.2854
0
LINE
8
BLACK
6
CONTINUOUS
10
146.55
20
-67.2854
11
146.55
21
-67.2854
0
LINE
8
BLACK
6
CONTINUOUS
10
146.55
20
-67.2854
11
146.552
21
-67.31
0
LINE
8
BLACK
6
CONTINUOUS
10
146.552
20
-67.31
11
146.55
21
-67.3345
0
LINE
8
BLACK
6
CONTINUOUS
10
146.55
20
-67.3345
11
146.55
21
-72.3654
0
LINE
8
BLACK
6
CONTINUOUS
10
146.55
20
-72.3654
11
146.552
21
-72.39
0
LINE
8
BLACK
6
CONTINUOUS
10
146.552
20
-72.39
11
146.543
21
-72.488
0
LINE
8
BLACK
6
CONTINUOUS
10
146.543
20
-72.488
11
146.514
21
-72.5823
0
LINE
8
BLACK
6
CONTINUOUS
10
146.514
20
-72.5823
11
146.468
21
-72.6691
0
LINE
8
BLACK
6
CONTINUOUS
10
146.468
20
-72.6691
11
146.405
21
-72.7453
0
LINE
8
BLACK
6
CONTINUOUS
10
146.405
20
-72.7453
11
146.329
21
-72.8077
0
LINE
8
BLACK
6
CONTINUOUS
10
146.329
20
-72.8077
11
146.242
21
-72.8542
0
LINE
8
BLACK
6
CONTINUOUS
10
146.242
20
-72.8542
11
146.148
21
-72.8828
0
LINE
8
BLACK
6
CONTINUOUS
10
146.148
20
-72.8828
11
146.075
21
-72.89
0
LINE
8
BLACK
6
CONTINUOUS
10
146.075
20
-72.89
11
146.05
21
-72.8924
0
LINE
8
BLACK
6
CONTINUOUS
10
146.05
20
-72.8924
11
146.025
21
-72.89
0
LINE
8
BLACK
6
CONTINUOUS
10
146.025
20
-72.89
11
144.198
21
-72.89
0
LINE
8
BLACK
6
CONTINUOUS
10
144.198
20
-72.89
11
144.17
21
-72.9318
0
LINE
8
BLACK
6
CONTINUOUS
10
144.17
20
-72.9318
11
144.052
21
-73.0502
0
LINE
8
BLACK
6
CONTINUOUS
10
144.052
20
-73.0502
11
143.913
21
-73.1433
0
LINE
8
BLACK
6
CONTINUOUS
10
143.913
20
-73.1433
11
143.758
21
-73.2073
0
LINE
8
BLACK
6
CONTINUOUS
10
143.758
20
-73.2073
11
143.594
21
-73.24
0
LINE
8
BLACK
6
CONTINUOUS
10
143.594
20
-73.24
11
143.426
21
-73.24
0
LINE
8
BLACK
6
CONTINUOUS
10
143.426
20
-73.24
11
143.262
21
-73.2073
0
LINE
8
BLACK
6
CONTINUOUS
10
143.262
20
-73.2073
11
143.107
21
-73.1433
0
LINE
8
BLACK
6
CONTINUOUS
10
143.107
20
-73.1433
11
142.968
21
-73.0502
0
LINE
8
BLACK
6
CONTINUOUS
10
142.968
20
-73.0502
11
142.85
21
-72.9318
0
LINE
8
BLACK
6
CONTINUOUS
10
142.85
20
-72.9318
11
142.757
21
-72.7926
0
LINE
8
BLACK
6
CONTINUOUS
10
142.757
20
-72.7926
11
142.693
21
-72.6379
0
LINE
8
BLACK
6
CONTINUOUS
10
142.693
20
-72.6379
11
142.66
21
-72.4737
0
LINE
8
BLACK
6
CONTINUOUS
10
142.66
20
-72.4737
11
142.66
21
-72.3063
0
LINE
8
BLACK
6
CONTINUOUS
10
142.66
20
-72.3063
11
142.693
21
-72.1421
0
LINE
8
BLACK
6
CONTINUOUS
10
142.693
20
-72.1421
11
142.757
21
-71.9874
0
LINE
8
BLACK
6
CONTINUOUS
10
142.757
20
-71.9874
11
142.85
21
-71.8482
0
LINE
8
BLACK
6
CONTINUOUS
10
142.85
20
-71.8482
11
142.968
21
-71.7298
0
LINE
8
BLACK
6
CONTINUOUS
10
142.968
20
-71.7298
11
143.107
21
-71.6367
0
LINE
8
BLACK
6
CONTINUOUS
10
143.107
20
-71.6367
11
143.262
21
-71.5727
0
LINE
8
BLACK
6
CONTINUOUS
10
143.262
20
-71.5727
11
143.426
21
-71.54
0
LINE
8
BLACK
6
CONTINUOUS
10
143.426
20
-71.54
11
143.594
21
-71.54
0
LINE
8
BLACK
6
CONTINUOUS
10
143.594
20
-71.54
11
143.758
21
-71.5727
0
LINE
8
BLACK
6
CONTINUOUS
10
143.758
20
-71.5727
11
143.913
21
-71.6367
0
LINE
8
BLACK
6
CONTINUOUS
10
143.913
20
-71.6367
11
144.052
21
-71.7298
0
LINE
8
BLACK
6
CONTINUOUS
10
144.052
20
-71.7298
11
144.17
21
-71.8482
0
LINE
8
BLACK
6
CONTINUOUS
10
144.17
20
-71.8482
11
144.198
21
-71.89
0
LINE
8
BLACK
6
CONTINUOUS
10
144.198
20
-71.89
11
145.55
21
-71.89
0
LINE
8
BLACK
6
CONTINUOUS
10
145.55
20
-71.89
11
145.55
21
-67.5171
0
LINE
8
BLACK
6
CONTINUOUS
10
145.55
20
-67.5171
11
143.174
21
-65.1409
0
LINE
8
BLACK
6
CONTINUOUS
10
143.174
20
-65.1409
11
143.155
21
-65.1253
0
LINE
8
BLACK
6
CONTINUOUS
10
143.155
20
-65.1253
11
143.092
21
-65.0491
0
LINE
8
BLACK
6
CONTINUOUS
10
143.092
20
-65.0491
11
143.046
21
-64.9623
0
LINE
8
BLACK
6
CONTINUOUS
10
143.046
20
-64.9623
11
143.034
21
-64.922
0
LINE
8
BLACK
6
CONTINUOUS
10
143.034
20
-64.922
11
143.017
21
-64.868
0
LINE
8
BLACK
6
CONTINUOUS
10
143.017
20
-64.868
11
143.008
21
-64.77
0
LINE
8
BLACK
6
CONTINUOUS
10
143.008
20
-64.77
11
143.01
21
-64.7454
0
LINE
8
BLACK
6
CONTINUOUS
10
143.01
20
-64.7454
11
143.01
21
-64.1281
0
LINE
8
BLACK
6
CONTINUOUS
10
143.01
20
-64.1281
11
143
21
-64.1214
0
LINE
8
BLACK
6
CONTINUOUS
10
143
20
-64.1214
11
142.889
21
-64.01
0
LINE
8
BLACK
6
CONTINUOUS
10
142.889
20
-64.01
11
142.801
21
-63.8789
0
LINE
8
BLACK
6
CONTINUOUS
10
142.801
20
-63.8789
11
142.741
21
-63.7334
0
LINE
8
BLACK
6
CONTINUOUS
10
142.741
20
-63.7334
11
142.71
21
-63.5788
0
LINE
8
BLACK
6
CONTINUOUS
10
142.71
20
-63.5788
11
142.71
21
-63.4212
0
LINE
8
BLACK
6
CONTINUOUS
10
142.71
20
-63.4212
11
142.741
21
-63.2666
0
LINE
8
BLACK
6
CONTINUOUS
10
142.741
20
-63.2666
11
142.801
21
-63.1211
0
LINE
8
BLACK
6
CONTINUOUS
10
142.801
20
-63.1211
11
142.889
21
-62.99
0
LINE
8
BLACK
6
CONTINUOUS
10
142.889
20
-62.99
11
143
21
-62.8786
0
LINE
8
BLACK
6
CONTINUOUS
10
143
20
-62.8786
11
143.131
21
-62.791
0
LINE
8
BLACK
6
CONTINUOUS
10
143.131
20
-62.791
11
143.277
21
-62.7307
0
LINE
8
BLACK
6
CONTINUOUS
10
143.277
20
-62.7307
11
143.431
21
-62.7
0
LINE
8
BLACK
6
CONTINUOUS
10
143.431
20
-62.7
11
143.589
21
-62.7
0
LINE
8
BLACK
6
CONTINUOUS
10
143.589
20
-62.7
11
143.743
21
-62.7307
0
LINE
8
BLACK
6
CONTINUOUS
10
139.683
20
-62.7307
11
139.829
21
-62.791
0
LINE
8
BLACK
6
CONTINUOUS
10
139.829
20
-62.791
11
139.96
21
-62.8786
0
LINE
8
BLACK
6
CONTINUOUS
10
139.96
20
-62.8786
11
140.071
21
-62.99
0
LINE
8
BLACK
6
CONTINUOUS
10
140.071
20
-62.99
11
140.159
21
-63.1211
0
LINE
8
BLACK
6
CONTINUOUS
10
140.159
20
-63.1211
11
140.219
21
-63.2666
0
LINE
8
BLACK
6
CONTINUOUS
10
140.219
20
-63.2666
11
140.25
21
-63.4212
0
LINE
8
BLACK
6
CONTINUOUS
10
140.25
20
-63.4212
11
140.25
21
-63.5788
0
LINE
8
BLACK
6
CONTINUOUS
10
140.25
20
-63.5788
11
140.219
21
-63.7334
0
LINE
8
BLACK
6
CONTINUOUS
10
140.219
20
-63.7334
11
140.159
21
-63.8789
0
LINE
8
BLACK
6
CONTINUOUS
10
140.159
20
-63.8789
11
140.071
21
-64.01
0
LINE
8
BLACK
6
CONTINUOUS
10
140.071
20
-64.01
11
139.96
21
-64.1214
0
LINE
8
BLACK
6
CONTINUOUS
10
139.96
20
-64.1214
11
139.95
21
-64.1281
0
LINE
8
BLACK
6
CONTINUOUS
10
139.95
20
-64.1281
11
139.95
21
-64.9954
0
LINE
8
BLACK
6
CONTINUOUS
10
139.95
20
-64.9954
11
139.952
21
-65.02
0
LINE
8
BLACK
6
CONTINUOUS
10
139.952
20
-65.02
11
139.95
21
-65.0446
0
LINE
8
BLACK
6
CONTINUOUS
10
139.95
20
-65.0446
11
139.95
21
-65.0446
0
LINE
8
BLACK
6
CONTINUOUS
10
139.95
20
-65.0446
11
139.943
21
-65.118
0
LINE
8
BLACK
6
CONTINUOUS
10
139.943
20
-65.118
11
139.914
21
-65.2123
0
LINE
8
BLACK
6
CONTINUOUS
10
139.914
20
-65.2123
11
139.868
21
-65.2991
0
LINE
8
BLACK
6
CONTINUOUS
10
139.868
20
-65.2991
11
139.805
21
-65.3753
0
LINE
8
BLACK
6
CONTINUOUS
10
139.805
20
-65.3753
11
139.786
21
-65.3909
0
LINE
8
BLACK
6
CONTINUOUS
10
139.786
20
-65.3909
11
137.531
21
-67.6462
0
LINE
8
BLACK
6
CONTINUOUS
10
137.531
20
-67.6462
11
137.515
21
-67.6653
0
LINE
8
BLACK
6
CONTINUOUS
10
137.515
20
-67.6653
11
137.439
21
-67.7277
0
LINE
8
BLACK
6
CONTINUOUS
10
137.439
20
-67.7277
11
137.352
21
-67.7742
0
LINE
8
BLACK
6
CONTINUOUS
10
137.352
20
-67.7742
11
137.258
21
-67.8028
0
LINE
8
BLACK
6
CONTINUOUS
10
137.258
20
-67.8028
11
137.185
21
-67.81
0
LINE
8
BLACK
6
CONTINUOUS
10
137.185
20
-67.81
11
137.16
21
-67.8124
0
LINE
8
BLACK
6
CONTINUOUS
10
137.16
20
-67.8124
11
137.135
21
-67.81
0
LINE
8
BLACK
6
CONTINUOUS
10
137.135
20
-67.81
11
133.85
21
-67.81
0
LINE
8
BLACK
6
CONTINUOUS
10
133.85
20
-67.81
11
133.85
21
-69.6429
0
LINE
8
BLACK
6
CONTINUOUS
10
133.85
20
-69.6429
11
136.097
21
-71.89
0
LINE
8
BLACK
6
CONTINUOUS
10
136.097
20
-71.89
11
137.742
21
-71.89
0
LINE
8
BLACK
6
CONTINUOUS
10
137.742
20
-71.89
11
137.77
21
-71.8482
0
LINE
8
BLACK
6
CONTINUOUS
10
137.77
20
-71.8482
11
137.888
21
-71.7298
0
LINE
8
BLACK
6
CONTINUOUS
10
137.888
20
-71.7298
11
138.027
21
-71.6367
0
LINE
8
BLACK
6
CONTINUOUS
10
138.027
20
-71.6367
11
138.182
21
-71.5727
0
LINE
8
BLACK
6
CONTINUOUS
10
138.182
20
-71.5727
11
138.346
21
-71.54
0
LINE
8
BLACK
6
CONTINUOUS
10
138.346
20
-71.54
11
138.514
21
-71.54
0
LINE
8
BLACK
6
CONTINUOUS
10
138.514
20
-71.54
11
138.678
21
-71.5727
0
LINE
8
BLACK
6
CONTINUOUS
10
138.678
20
-71.5727
11
138.833
21
-71.6367
0
LINE
8
BLACK
6
CONTINUOUS
10
138.833
20
-71.6367
11
138.972
21
-71.7298
0
LINE
8
BLACK
6
CONTINUOUS
10
138.972
20
-71.7298
11
139.09
21
-71.8482
0
LINE
8
BLACK
6
CONTINUOUS
10
139.09
20
-71.8482
11
139.183
21
-71.9874
0
LINE
8
BLACK
6
CONTINUOUS
10
139.183
20
-71.9874
11
139.247
21
-72.1421
0
LINE
8
BLACK
6
CONTINUOUS
10
139.247
20
-72.1421
11
139.28
21
-72.3063
0
LINE
8
BLACK
6
CONTINUOUS
10
139.28
20
-72.3063
11
139.28
21
-72.4737
0
LINE
8
BLACK
6
CONTINUOUS
10
139.28
20
-72.4737
11
139.247
21
-72.6379
0
LINE
8
BLACK
6
CONTINUOUS
10
139.247
20
-72.6379
11
139.183
21
-72.7926
0
LINE
8
BLACK
6
CONTINUOUS
10
139.183
20
-72.7926
11
139.09
21
-72.9318
0
LINE
8
BLACK
6
CONTINUOUS
10
139.09
20
-72.9318
11
138.972
21
-73.0502
0
LINE
8
BLACK
6
CONTINUOUS
10
138.972
20
-73.0502
11
138.833
21
-73.1433
0
LINE
8
BLACK
6
CONTINUOUS
10
138.833
20
-73.1433
11
138.678
21
-73.2073
0
LINE
8
BLACK
6
CONTINUOUS
10
138.678
20
-73.2073
11
138.514
21
-73.24
0
LINE
8
BLACK
6
CONTINUOUS
10
138.514
20
-73.24
11
138.346
21
-73.24
0
LINE
8
BLACK
6
CONTINUOUS
10
138.346
20
-73.24
11
138.182
21
-73.2073
0
LINE
8
BLACK
6
CONTINUOUS
10
138.182
20
-73.2073
11
138.027
21
-73.1433
0
LINE
8
BLACK
6
CONTINUOUS
10
138.027
20
-73.1433
11
137.888
21
-73.0502
0
LINE
8
BLACK
6
CONTINUOUS
10
137.888
20
-73.0502
11
137.77
21
-72.9318
0
LINE
8
BLACK
6
CONTINUOUS
10
137.77
20
-72.9318
11
137.742
21
-72.89
0
LINE
8
BLACK
6
CONTINUOUS
10
137.742
20
-72.89
11
135.915
21
-72.89
0
LINE
8
BLACK
6
CONTINUOUS
10
135.915
20
-72.89
11
135.89
21
-72.8924
0
LINE
8
BLACK
6
CONTINUOUS
10
135.89
20
-72.8924
11
135.865
21
-72.89
0
LINE
8
BLACK
6
CONTINUOUS
10
135.865
20
-72.89
11
135.865
21
-72.89
0
LINE
8
BLACK
6
CONTINUOUS
10
135.865
20
-72.89
11
135.792
21
-72.8828
0
LINE
8
BLACK
6
CONTINUOUS
10
135.792
20
-72.8828
11
135.698
21
-72.8542
0
LINE
8
BLACK
6
CONTINUOUS
10
135.698
20
-72.8542
11
135.611
21
-72.8077
0
LINE
8
BLACK
6
CONTINUOUS
10
135.611
20
-72.8077
11
135.535
21
-72.7453
0
LINE
8
BLACK
6
CONTINUOUS
10
135.535
20
-72.7453
11
135.519
21
-72.7262
0
LINE
8
BLACK
6
CONTINUOUS
10
135.519
20
-72.7262
11
133.014
21
-70.2209
0
LINE
8
BLACK
6
CONTINUOUS
10
133.014
20
-70.2209
11
132.995
21
-70.2053
0
LINE
8
BLACK
6
CONTINUOUS
10
132.995
20
-70.2053
11
132.932
21
-70.1291
0
LINE
8
BLACK
6
CONTINUOUS
10
132.932
20
-70.1291
11
132.886
21
-70.0423
0
LINE
8
BLACK
6
CONTINUOUS
10
132.886
20
-70.0423
11
132.857
21
-69.948
0
LINE
8
BLACK
6
CONTINUOUS
10
132.857
20
-69.948
11
132.85
21
-69.8746
0
LINE
8
BLACK
6
CONTINUOUS
10
132.85
20
-69.8746
11
132.848
21
-69.85
0
LINE
8
BLACK
6
CONTINUOUS
10
132.848
20
-69.85
11
132.85
21
-69.8254
0
LINE
8
BLACK
6
CONTINUOUS
10
132.85
20
-69.8254
11
132.85
21
-67.3346
0
LINE
8
BLACK
6
CONTINUOUS
10
132.85
20
-67.3346
11
132.848
21
-67.31
0
LINE
8
BLACK
6
CONTINUOUS
10
132.848
20
-67.31
11
132.857
21
-67.212
0
LINE
8
BLACK
6
CONTINUOUS
10
132.857
20
-67.212
11
132.886
21
-67.1177
0
LINE
8
BLACK
6
CONTINUOUS
10
132.886
20
-67.1177
11
132.932
21
-67.0309
0
LINE
8
BLACK
6
CONTINUOUS
10
132.932
20
-67.0309
11
132.995
21
-66.9547
0
LINE
8
BLACK
6
CONTINUOUS
10
132.995
20
-66.9547
11
133.071
21
-66.8923
0
LINE
8
BLACK
6
CONTINUOUS
10
133.071
20
-66.8923
11
133.158
21
-66.8458
0
LINE
8
BLACK
6
CONTINUOUS
10
133.158
20
-66.8458
11
133.252
21
-66.8172
0
LINE
8
BLACK
6
CONTINUOUS
10
133.252
20
-66.8172
11
133.325
21
-66.81
0
LINE
8
BLACK
6
CONTINUOUS
10
133.325
20
-66.81
11
133.35
21
-66.8076
0
LINE
8
BLACK
6
CONTINUOUS
10
133.35
20
-66.8076
11
133.375
21
-66.81
0
LINE
8
BLACK
6
CONTINUOUS
10
133.375
20
-66.81
11
136.953
21
-66.81
0
LINE
8
BLACK
6
CONTINUOUS
10
136.953
20
-66.81
11
138.95
21
-64.8129
0
LINE
8
BLACK
6
CONTINUOUS
10
138.95
20
-64.8129
11
138.95
21
-64.1281
0
LINE
8
BLACK
6
CONTINUOUS
10
138.95
20
-64.1281
11
138.94
21
-64.1214
0
LINE
8
BLACK
6
CONTINUOUS
10
138.94
20
-64.1214
11
138.829
21
-64.01
0
LINE
8
BLACK
6
CONTINUOUS
10
138.829
20
-64.01
11
138.741
21
-63.8789
0
LINE
8
BLACK
6
CONTINUOUS
10
138.741
20
-63.8789
11
138.681
21
-63.7334
0
LINE
8
BLACK
6
CONTINUOUS
10
138.681
20
-63.7334
11
138.65
21
-63.5788
0
LINE
8
BLACK
6
CONTINUOUS
10
138.65
20
-63.5788
11
138.65
21
-63.4212
0
LINE
8
BLACK
6
CONTINUOUS
10
138.65
20
-63.4212
11
138.681
21
-63.2666
0
LINE
8
BLACK
6
CONTINUOUS
10
138.681
20
-63.2666
11
138.741
21
-63.1211
0
LINE
8
BLACK
6
CONTINUOUS
10
138.741
20
-63.1211
11
138.829
21
-62.99
0
LINE
8
BLACK
6
CONTINUOUS
10
138.829
20
-62.99
11
138.94
21
-62.8786
0
LINE
8
BLACK
6
CONTINUOUS
10
138.94
20
-62.8786
11
139.071
21
-62.791
0
LINE
8
BLACK
6
CONTINUOUS
10
139.071
20
-62.791
11
139.217
21
-62.7307
0
LINE
8
BLACK
6
CONTINUOUS
10
139.217
20
-62.7307
11
139.371
21
-62.7
0
LINE
8
BLACK
6
CONTINUOUS
10
139.371
20
-62.7
11
139.529
21
-62.7
0
LINE
8
BLACK
6
CONTINUOUS
10
139.529
20
-62.7
11
139.683
21
-62.7307
0
LINE
8
BLACK
6
CONTINUOUS
10
156.443
20
-62.7307
11
156.589
21
-62.791
0
LINE
8
BLACK
6
CONTINUOUS
10
156.589
20
-62.791
11
156.72
21
-62.8786
0
LINE
8
BLACK
6
CONTINUOUS
10
156.72
20
-62.8786
11
156.831
21
-62.99
0
LINE
8
BLACK
6
CONTINUOUS
10
156.831
20
-62.99
11
156.919
21
-63.1211
0
LINE
8
BLACK
6
CONTINUOUS
10
156.919
20
-63.1211
11
156.979
21
-63.2666
0
LINE
8
BLACK
6
CONTINUOUS
10
156.979
20
-63.2666
11
157.01
21
-63.4212
0
LINE
8
BLACK
6
CONTINUOUS
10
157.01
20
-63.4212
11
157.01
21
-63.5788
0
LINE
8
BLACK
6
CONTINUOUS
10
157.01
20
-63.5788
11
156.979
21
-63.7334
0
LINE
8
BLACK
6
CONTINUOUS
10
156.979
20
-63.7334
11
156.919
21
-63.8789
0
LINE
8
BLACK
6
CONTINUOUS
10
156.919
20
-63.8789
11
156.831
21
-64.01
0
LINE
8
BLACK
6
CONTINUOUS
10
156.831
20
-64.01
11
156.72
21
-64.1214
0
LINE
8
BLACK
6
CONTINUOUS
10
156.72
20
-64.1214
11
156.71
21
-64.1281
0
LINE
8
BLACK
6
CONTINUOUS
10
156.71
20
-64.1281
11
156.71
21
-65.54
0
LINE
8
BLACK
6
CONTINUOUS
10
156.71
20
-65.54
11
159.995
21
-65.54
0
LINE
8
BLACK
6
CONTINUOUS
10
159.995
20
-65.54
11
160.02
21
-65.5376
0
LINE
8
BLACK
6
CONTINUOUS
10
160.02
20
-65.5376
11
160.045
21
-65.54
0
LINE
8
BLACK
6
CONTINUOUS
10
160.045
20
-65.54
11
160.118
21
-65.5472
0
LINE
8
BLACK
6
CONTINUOUS
10
160.118
20
-65.5472
11
160.212
21
-65.5758
0
LINE
8
BLACK
6
CONTINUOUS
10
160.212
20
-65.5758
11
160.299
21
-65.6223
0
LINE
8
BLACK
6
CONTINUOUS
10
160.299
20
-65.6223
11
160.375
21
-65.6847
0
LINE
8
BLACK
6
CONTINUOUS
10
160.375
20
-65.6847
11
160.438
21
-65.7609
0
LINE
8
BLACK
6
CONTINUOUS
10
160.438
20
-65.7609
11
160.484
21
-65.8477
0
LINE
8
BLACK
6
CONTINUOUS
10
160.484
20
-65.8477
11
160.513
21
-65.942
0
LINE
8
BLACK
6
CONTINUOUS
10
160.513
20
-65.942
11
160.522
21
-66.04
0
LINE
8
BLACK
6
CONTINUOUS
10
160.522
20
-66.04
11
160.52
21
-66.0646
0
LINE
8
BLACK
6
CONTINUOUS
10
160.52
20
-66.0646
11
160.52
21
-71.0954
0
LINE
8
BLACK
6
CONTINUOUS
10
160.52
20
-71.0954
11
160.522
21
-71.12
0
LINE
8
BLACK
6
CONTINUOUS
10
160.522
20
-71.12
11
160.52
21
-71.1446
0
LINE
8
BLACK
6
CONTINUOUS
10
160.52
20
-71.1446
11
160.52
21
-71.1446
0
LINE
8
BLACK
6
CONTINUOUS
10
160.52
20
-71.1446
11
160.513
21
-71.218
0
LINE
8
BLACK
6
CONTINUOUS
10
160.513
20
-71.218
11
160.484
21
-71.3123
0
LINE
8
BLACK
6
CONTINUOUS
10
160.484
20
-71.3123
11
160.438
21
-71.3991
0
LINE
8
BLACK
6
CONTINUOUS
10
160.438
20
-71.3991
11
160.375
21
-71.4753
0
LINE
8
BLACK
6
CONTINUOUS
10
160.375
20
-71.4753
11
160.356
21
-71.4909
0
LINE
8
BLACK
6
CONTINUOUS
10
160.356
20
-71.4909
11
159.121
21
-72.7262
0
LINE
8
BLACK
6
CONTINUOUS
10
159.121
20
-72.7262
11
159.105
21
-72.7453
0
LINE
8
BLACK
6
CONTINUOUS
10
159.105
20
-72.7453
11
159.029
21
-72.8077
0
LINE
8
BLACK
6
CONTINUOUS
10
159.029
20
-72.8077
11
158.942
21
-72.8542
0
LINE
8
BLACK
6
CONTINUOUS
10
158.942
20
-72.8542
11
158.848
21
-72.8828
0
LINE
8
BLACK
6
CONTINUOUS
10
158.848
20
-72.8828
11
158.775
21
-72.89
0
LINE
8
BLACK
6
CONTINUOUS
10
158.775
20
-72.89
11
158.75
21
-72.8924
0
LINE
8
BLACK
6
CONTINUOUS
10
158.75
20
-72.8924
11
158.725
21
-72.89
0
LINE
8
BLACK
6
CONTINUOUS
10
158.725
20
-72.89
11
156.898
21
-72.89
0
LINE
8
BLACK
6
CONTINUOUS
10
156.898
20
-72.89
11
156.87
21
-72.9318
0
LINE
8
BLACK
6
CONTINUOUS
10
156.87
20
-72.9318
11
156.752
21
-73.0502
0
LINE
8
BLACK
6
CONTINUOUS
10
156.752
20
-73.0502
11
156.613
21
-73.1433
0
LINE
8
BLACK
6
CONTINUOUS
10
156.613
20
-73.1433
11
156.458
21
-73.2073
0
LINE
8
BLACK
6
CONTINUOUS
10
156.458
20
-73.2073
11
156.294
21
-73.24
0
LINE
8
BLACK
6
CONTINUOUS
10
156.294
20
-73.24
11
156.126
21
-73.24
0
LINE
8
BLACK
6
CONTINUOUS
10
156.126
20
-73.24
11
155.962
21
-73.2073
0
LINE
8
BLACK
6
CONTINUOUS
10
155.962
20
-73.2073
11
155.807
21
-73.1433
0
LINE
8
BLACK
6
CONTINUOUS
10
155.807
20
-73.1433
11
155.668
21
-73.0502
0
LINE
8
BLACK
6
CONTINUOUS
10
155.668
20
-73.0502
11
155.55
21
-72.9318
0
LINE
8
BLACK
6
CONTINUOUS
10
155.55
20
-72.9318
11
155.457
21
-72.7926
0
LINE
8
BLACK
6
CONTINUOUS
10
155.457
20
-72.7926
11
155.393
21
-72.6379
0
LINE
8
BLACK
6
CONTINUOUS
10
155.393
20
-72.6379
11
155.36
21
-72.4737
0
LINE
8
BLACK
6
CONTINUOUS
10
155.36
20
-72.4737
11
155.36
21
-72.3063
0
LINE
8
BLACK
6
CONTINUOUS
10
155.36
20
-72.3063
11
155.393
21
-72.1421
0
LINE
8
BLACK
6
CONTINUOUS
10
155.393
20
-72.1421
11
155.457
21
-71.9874
0
LINE
8
BLACK
6
CONTINUOUS
10
155.457
20
-71.9874
11
155.55
21
-71.8482
0
LINE
8
BLACK
6
CONTINUOUS
10
155.55
20
-71.8482
11
155.668
21
-71.7298
0
LINE
8
BLACK
6
CONTINUOUS
10
155.668
20
-71.7298
11
155.807
21
-71.6367
0
LINE
8
BLACK
6
CONTINUOUS
10
155.807
20
-71.6367
11
155.962
21
-71.5727
0
LINE
8
BLACK
6
CONTINUOUS
10
155.962
20
-71.5727
11
156.126
21
-71.54
0
LINE
8
BLACK
6
CONTINUOUS
10
156.126
20
-71.54
11
156.294
21
-71.54
0
LINE
8
BLACK
6
CONTINUOUS
10
156.294
20
-71.54
11
156.458
21
-71.5727
0
LINE
8
BLACK
6
CONTINUOUS
10
156.458
20
-71.5727
11
156.613
21
-71.6367
0
LINE
8
BLACK
6
CONTINUOUS
10
156.613
20
-71.6367
11
156.752
21
-71.7298
0
LINE
8
BLACK
6
CONTINUOUS
10
156.752
20
-71.7298
11
156.87
21
-71.8482
0
LINE
8
BLACK
6
CONTINUOUS
10
156.87
20
-71.8482
11
156.898
21
-71.89
0
LINE
8
BLACK
6
CONTINUOUS
10
156.898
20
-71.89
11
158.543
21
-71.89
0
LINE
8
BLACK
6
CONTINUOUS
10
158.543
20
-71.89
11
159.52
21
-70.9129
0
LINE
8
BLACK
6
CONTINUOUS
10
159.52
20
-70.9129
11
159.52
21
-66.54
0
LINE
8
BLACK
6
CONTINUOUS
10
159.52
20
-66.54
11
156.235
21
-66.54
0
LINE
8
BLACK
6
CONTINUOUS
10
156.235
20
-66.54
11
156.21
21
-66.5424
0
LINE
8
BLACK
6
CONTINUOUS
10
156.21
20
-66.5424
11
156.112
21
-66.5328
0
LINE
8
BLACK
6
CONTINUOUS
10
156.112
20
-66.5328
11
156.018
21
-66.5042
0
LINE
8
BLACK
6
CONTINUOUS
10
156.018
20
-66.5042
11
155.931
21
-66.4577
0
LINE
8
BLACK
6
CONTINUOUS
10
155.931
20
-66.4577
11
155.855
21
-66.3953
0
LINE
8
BLACK
6
CONTINUOUS
10
155.855
20
-66.3953
11
155.792
21
-66.3191
0
LINE
8
BLACK
6
CONTINUOUS
10
155.792
20
-66.3191
11
155.759
21
-66.2573
0
LINE
8
BLACK
6
CONTINUOUS
10
155.759
20
-66.2573
11
155.746
21
-66.2323
0
LINE
8
BLACK
6
CONTINUOUS
10
155.746
20
-66.2323
11
155.717
21
-66.138
0
LINE
8
BLACK
6
CONTINUOUS
10
155.717
20
-66.138
11
155.708
21
-66.04
0
LINE
8
BLACK
6
CONTINUOUS
10
155.708
20
-66.04
11
155.71
21
-66.0154
0
LINE
8
BLACK
6
CONTINUOUS
10
155.71
20
-66.0154
11
155.71
21
-64.1281
0
LINE
8
BLACK
6
CONTINUOUS
10
155.71
20
-64.1281
11
155.7
21
-64.1214
0
LINE
8
BLACK
6
CONTINUOUS
10
155.7
20
-64.1214
11
155.589
21
-64.01
0
LINE
8
BLACK
6
CONTINUOUS
10
155.589
20
-64.01
11
155.501
21
-63.8789
0
LINE
8
BLACK
6
CONTINUOUS
10
155.501
20
-63.8789
11
155.441
21
-63.7334
0
LINE
8
BLACK
6
CONTINUOUS
10
155.441
20
-63.7334
11
155.41
21
-63.5788
0
LINE
8
BLACK
6
CONTINUOUS
10
155.41
20
-63.5788
11
155.41
21
-63.4212
0
LINE
8
BLACK
6
CONTINUOUS
10
155.41
20
-63.4212
11
155.441
21
-63.2666
0
LINE
8
BLACK
6
CONTINUOUS
10
155.441
20
-63.2666
11
155.501
21
-63.1211
0
LINE
8
BLACK
6
CONTINUOUS
10
155.501
20
-63.1211
11
155.589
21
-62.99
0
LINE
8
BLACK
6
CONTINUOUS
10
155.589
20
-62.99
11
155.7
21
-62.8786
0
LINE
8
BLACK
6
CONTINUOUS
10
155.7
20
-62.8786
11
155.831
21
-62.791
0
LINE
8
BLACK
6
CONTINUOUS
10
155.831
20
-62.791
11
155.977
21
-62.7307
0
LINE
8
BLACK
6
CONTINUOUS
10
155.977
20
-62.7307
11
156.131
21
-62.7
0
LINE
8
BLACK
6
CONTINUOUS
10
156.131
20
-62.7
11
156.289
21
-62.7
0
LINE
8
BLACK
6
CONTINUOUS
10
156.289
20
-62.7
11
156.443
21
-62.7307
0
LINE
8
BLACK
6
CONTINUOUS
10
153.962
20
-65.7134
11
154.144
21
-65.7888
0
LINE
8
BLACK
6
CONTINUOUS
10
154.144
20
-65.7888
11
154.307
21
-65.8982
0
LINE
8
BLACK
6
CONTINUOUS
10
154.307
20
-65.8982
11
154.447
21
-66.0375
0
LINE
8
BLACK
6
CONTINUOUS
10
154.447
20
-66.0375
11
154.556
21
-66.2013
0
LINE
8
BLACK
6
CONTINUOUS
10
154.556
20
-66.2013
11
154.632
21
-66.3833
0
LINE
8
BLACK
6
CONTINUOUS
10
154.632
20
-66.3833
11
154.67
21
-66.5765
0
LINE
8
BLACK
6
CONTINUOUS
10
154.67
20
-66.5765
11
154.67
21
-66.7735
0
LINE
8
BLACK
6
CONTINUOUS
10
154.67
20
-66.7735
11
154.632
21
-66.9667
0
LINE
8
BLACK
6
CONTINUOUS
10
154.632
20
-66.9667
11
154.556
21
-67.1487
0
LINE
8
BLACK
6
CONTINUOUS
10
154.556
20
-67.1487
11
154.447
21
-67.3125
0
LINE
8
BLACK
6
CONTINUOUS
10
154.447
20
-67.3125
11
154.307
21
-67.4518
0
LINE
8
BLACK
6
CONTINUOUS
10
154.307
20
-67.4518
11
154.17
21
-67.5436
0
LINE
8
BLACK
6
CONTINUOUS
10
154.17
20
-67.5436
11
154.17
21
-69.35
0
LINE
8
BLACK
6
CONTINUOUS
10
154.17
20
-69.35
11
155.522
21
-69.35
0
LINE
8
BLACK
6
CONTINUOUS
10
155.522
20
-69.35
11
155.55
21
-69.3082
0
LINE
8
BLACK
6
CONTINUOUS
10
155.55
20
-69.3082
11
155.668
21
-69.1898
0
LINE
8
BLACK
6
CONTINUOUS
10
155.668
20
-69.1898
11
155.807
21
-69.0967
0
LINE
8
BLACK
6
CONTINUOUS
10
155.807
20
-69.0967
11
155.962
21
-69.0327
0
LINE
8
BLACK
6
CONTINUOUS
10
155.962
20
-69.0327
11
156.126
21
-69
0
LINE
8
BLACK
6
CONTINUOUS
10
156.126
20
-69
11
156.294
21
-69
0
LINE
8
BLACK
6
CONTINUOUS
10
156.294
20
-69
11
156.458
21
-69.0327
0
LINE
8
BLACK
6
CONTINUOUS
10
156.458
20
-69.0327
11
156.613
21
-69.0967
0
LINE
8
BLACK
6
CONTINUOUS
10
156.613
20
-69.0967
11
156.752
21
-69.1898
0
LINE
8
BLACK
6
CONTINUOUS
10
156.752
20
-69.1898
11
156.87
21
-69.3082
0
LINE
8
BLACK
6
CONTINUOUS
10
156.87
20
-69.3082
11
156.963
21
-69.4474
0
LINE
8
BLACK
6
CONTINUOUS
10
156.963
20
-69.4474
11
157.027
21
-69.6021
0
LINE
8
BLACK
6
CONTINUOUS
10
157.027
20
-69.6021
11
157.06
21
-69.7663
0
LINE
8
BLACK
6
CONTINUOUS
10
157.06
20
-69.7663
11
157.06
21
-69.9337
0
LINE
8
BLACK
6
CONTINUOUS
10
157.06
20
-69.9337
11
157.027
21
-70.0979
0
LINE
8
BLACK
6
CONTINUOUS
10
157.027
20
-70.0979
11
156.963
21
-70.2526
0
LINE
8
BLACK
6
CONTINUOUS
10
156.963
20
-70.2526
11
156.87
21
-70.3918
0
LINE
8
BLACK
6
CONTINUOUS
10
156.87
20
-70.3918
11
156.752
21
-70.5102
0
LINE
8
BLACK
6
CONTINUOUS
10
156.752
20
-70.5102
11
156.613
21
-70.6033
0
LINE
8
BLACK
6
CONTINUOUS
10
156.613
20
-70.6033
11
156.458
21
-70.6673
0
LINE
8
BLACK
6
CONTINUOUS
10
156.458
20
-70.6673
11
156.294
21
-70.7
0
LINE
8
BLACK
6
CONTINUOUS
10
156.294
20
-70.7
11
156.126
21
-70.7
0
LINE
8
BLACK
6
CONTINUOUS
10
156.126
20
-70.7
11
155.962
21
-70.6673
0
LINE
8
BLACK
6
CONTINUOUS
10
155.962
20
-70.6673
11
155.807
21
-70.6033
0
LINE
8
BLACK
6
CONTINUOUS
10
155.807
20
-70.6033
11
155.668
21
-70.5102
0
LINE
8
BLACK
6
CONTINUOUS
10
155.668
20
-70.5102
11
155.55
21
-70.3918
0
LINE
8
BLACK
6
CONTINUOUS
10
155.55
20
-70.3918
11
155.522
21
-70.35
0
LINE
8
BLACK
6
CONTINUOUS
10
155.522
20
-70.35
11
153.695
21
-70.35
0
LINE
8
BLACK
6
CONTINUOUS
10
153.695
20
-70.35
11
153.67
21
-70.3524
0
LINE
8
BLACK
6
CONTINUOUS
10
153.67
20
-70.3524
11
153.645
21
-70.35
0
LINE
8
BLACK
6
CONTINUOUS
10
153.645
20
-70.35
11
151.818
21
-70.35
0
LINE
8
BLACK
6
CONTINUOUS
10
151.818
20
-70.35
11
151.79
21
-70.3918
0
LINE
8
BLACK
6
CONTINUOUS
10
151.79
20
-70.3918
11
151.672
21
-70.5102
0
LINE
8
BLACK
6
CONTINUOUS
10
151.672
20
-70.5102
11
151.533
21
-70.6033
0
LINE
8
BLACK
6
CONTINUOUS
10
151.533
20
-70.6033
11
151.378
21
-70.6673
0
LINE
8
BLACK
6
CONTINUOUS
10
151.378
20
-70.6673
11
151.214
21
-70.7
0
LINE
8
BLACK
6
CONTINUOUS
10
151.214
20
-70.7
11
151.046
21
-70.7
0
LINE
8
BLACK
6
CONTINUOUS
10
151.046
20
-70.7
11
150.882
21
-70.6673
0
LINE
8
BLACK
6
CONTINUOUS
10
150.882
20
-70.6673
11
150.727
21
-70.6033
0
LINE
8
BLACK
6
CONTINUOUS
10
150.727
20
-70.6033
11
150.588
21
-70.5102
0
LINE
8
BLACK
6
CONTINUOUS
10
150.588
20
-70.5102
11
150.47
21
-70.3918
0
LINE
8
BLACK
6
CONTINUOUS
10
150.47
20
-70.3918
11
150.377
21
-70.2526
0
LINE
8
BLACK
6
CONTINUOUS
10
150.377
20
-70.2526
11
150.313
21
-70.0979
0
LINE
8
BLACK
6
CONTINUOUS
10
150.313
20
-70.0979
11
150.28
21
-69.9337
0
LINE
8
BLACK
6
CONTINUOUS
10
150.28
20
-69.9337
11
150.28
21
-69.7663
0
LINE
8
BLACK
6
CONTINUOUS
10
150.28
20
-69.7663
11
150.313
21
-69.6021
0
LINE
8
BLACK
6
CONTINUOUS
10
150.313
20
-69.6021
11
150.377
21
-69.4474
0
LINE
8
BLACK
6
CONTINUOUS
10
150.377
20
-69.4474
11
150.47
21
-69.3082
0
LINE
8
BLACK
6
CONTINUOUS
10
150.47
20
-69.3082
11
150.588
21
-69.1898
0
LINE
8
BLACK
6
CONTINUOUS
10
150.588
20
-69.1898
11
150.727
21
-69.0967
0
LINE
8
BLACK
6
CONTINUOUS
10
150.727
20
-69.0967
11
150.882
21
-69.0327
0
LINE
8
BLACK
6
CONTINUOUS
10
150.882
20
-69.0327
11
151.046
21
-69
0
LINE
8
BLACK
6
CONTINUOUS
10
151.046
20
-69
11
151.214
21
-69
0
LINE
8
BLACK
6
CONTINUOUS
10
151.214
20
-69
11
151.378
21
-69.0327
0
LINE
8
BLACK
6
CONTINUOUS
10
151.378
20
-69.0327
11
151.533
21
-69.0967
0
LINE
8
BLACK
6
CONTINUOUS
10
151.533
20
-69.0967
11
151.672
21
-69.1898
0
LINE
8
BLACK
6
CONTINUOUS
10
151.672
20
-69.1898
11
151.79
21
-69.3082
0
LINE
8
BLACK
6
CONTINUOUS
10
151.79
20
-69.3082
11
151.818
21
-69.35
0
LINE
8
BLACK
6
CONTINUOUS
10
151.818
20
-69.35
11
153.17
21
-69.35
0
LINE
8
BLACK
6
CONTINUOUS
10
153.17
20
-69.35
11
153.17
21
-67.5436
0
LINE
8
BLACK
6
CONTINUOUS
10
153.17
20
-67.5436
11
153.033
21
-67.4518
0
LINE
8
BLACK
6
CONTINUOUS
10
153.033
20
-67.4518
11
152.893
21
-67.3125
0
LINE
8
BLACK
6
CONTINUOUS
10
152.893
20
-67.3125
11
152.784
21
-67.1487
0
LINE
8
BLACK
6
CONTINUOUS
10
152.784
20
-67.1487
11
152.708
21
-66.9667
0
LINE
8
BLACK
6
CONTINUOUS
10
152.708
20
-66.9667
11
152.67
21
-66.7735
0
LINE
8
BLACK
6
CONTINUOUS
10
152.67
20
-66.7735
11
152.67
21
-66.5765
0
LINE
8
BLACK
6
CONTINUOUS
10
152.67
20
-66.5765
11
152.708
21
-66.3833
0
LINE
8
BLACK
6
CONTINUOUS
10
152.708
20
-66.3833
11
152.784
21
-66.2013
0
LINE
8
BLACK
6
CONTINUOUS
10
152.784
20
-66.2013
11
152.893
21
-66.0375
0
LINE
8
BLACK
6
CONTINUOUS
10
152.893
20
-66.0375
11
153.033
21
-65.8982
0
LINE
8
BLACK
6
CONTINUOUS
10
153.033
20
-65.8982
11
153.196
21
-65.7888
0
LINE
8
BLACK
6
CONTINUOUS
10
153.196
20
-65.7888
11
153.378
21
-65.7134
0
LINE
8
BLACK
6
CONTINUOUS
10
153.378
20
-65.7134
11
153.572
21
-65.675
0
LINE
8
BLACK
6
CONTINUOUS
10
153.572
20
-65.675
11
153.768
21
-65.675
0
LINE
8
BLACK
6
CONTINUOUS
10
153.768
20
-65.675
11
153.962
21
-65.7134
0
LINE
8
BLACK
6
CONTINUOUS
10
139.09
20
-70.3918
11
138.972
21
-70.5102
0
LINE
8
BLACK
6
CONTINUOUS
10
138.972
20
-70.5102
11
138.833
21
-70.6033
0
LINE
8
BLACK
6
CONTINUOUS
10
138.833
20
-70.6033
11
138.678
21
-70.6673
0
LINE
8
BLACK
6
CONTINUOUS
10
138.678
20
-70.6673
11
138.514
21
-70.7
0
LINE
8
BLACK
6
CONTINUOUS
10
138.514
20
-70.7
11
138.346
21
-70.7
0
LINE
8
BLACK
6
CONTINUOUS
10
138.346
20
-70.7
11
138.182
21
-70.6673
0
LINE
8
BLACK
6
CONTINUOUS
10
138.182
20
-70.6673
11
138.027
21
-70.6033
0
LINE
8
BLACK
6
CONTINUOUS
10
138.027
20
-70.6033
11
137.888
21
-70.5102
0
LINE
8
BLACK
6
CONTINUOUS
10
137.888
20
-70.5102
11
137.77
21
-70.3918
0
LINE
8
BLACK
6
CONTINUOUS
10
137.77
20
-70.3918
11
137.677
21
-70.2526
0
LINE
8
BLACK
6
CONTINUOUS
10
137.677
20
-70.2526
11
137.613
21
-70.0979
0
LINE
8
BLACK
6
CONTINUOUS
10
137.613
20
-70.0979
11
137.58
21
-69.9337
0
LINE
8
BLACK
6
CONTINUOUS
10
137.58
20
-69.9337
11
137.58
21
-69.7663
0
LINE
8
BLACK
6
CONTINUOUS
10
137.58
20
-69.7663
11
137.613
21
-69.6021
0
LINE
8
BLACK
6
CONTINUOUS
10
137.613
20
-69.6021
11
137.677
21
-69.4474
0
LINE
8
BLACK
6
CONTINUOUS
10
137.677
20
-69.4474
11
137.77
21
-69.3082
0
LINE
8
BLACK
6
CONTINUOUS
10
137.77
20
-69.3082
11
137.888
21
-69.1898
0
LINE
8
BLACK
6
CONTINUOUS
10
137.888
20
-69.1898
11
138.027
21
-69.0967
0
LINE
8
BLACK
6
CONTINUOUS
10
138.027
20
-69.0967
11
138.182
21
-69.0327
0
LINE
8
BLACK
6
CONTINUOUS
10
138.182
20
-69.0327
11
138.346
21
-69
0
LINE
8
BLACK
6
CONTINUOUS
10
138.346
20
-69
11
138.514
21
-69
0
LINE
8
BLACK
6
CONTINUOUS
10
138.514
20
-69
11
138.678
21
-69.0327
0
LINE
8
BLACK
6
CONTINUOUS
10
138.678
20
-69.0327
11
138.833
21
-69.0967
0
LINE
8
BLACK
6
CONTINUOUS
10
138.833
20
-69.0967
11
138.972
21
-69.1898
0
LINE
8
BLACK
6
CONTINUOUS
10
138.972
20
-69.1898
11
139.09
21
-69.3082
0
LINE
8
BLACK
6
CONTINUOUS
10
139.09
20
-69.3082
11
139.118
21
-69.35
0
LINE
8
BLACK
6
CONTINUOUS
10
139.118
20
-69.35
11
141.105
21
-69.35
0
LINE
8
BLACK
6
CONTINUOUS
10
141.105
20
-69.35
11
141.105
21
-67.5436
0
LINE
8
BLACK
6
CONTINUOUS
10
141.105
20
-67.5436
11
140.968
21
-67.4518
0
LINE
8
BLACK
6
CONTINUOUS
10
140.968
20
-67.4518
11
140.828
21
-67.3125
0
LINE
8
BLACK
6
CONTINUOUS
10
140.828
20
-67.3125
11
140.719
21
-67.1487
0
LINE
8
BLACK
6
CONTINUOUS
10
140.719
20
-67.1487
11
140.643
21
-66.9667
0
LINE
8
BLACK
6
CONTINUOUS
10
140.643
20
-66.9667
11
140.605
21
-66.7735
0
LINE
8
BLACK
6
CONTINUOUS
10
140.605
20
-66.7735
11
140.605
21
-66.5765
0
LINE
8
BLACK
6
CONTINUOUS
10
140.605
20
-66.5765
11
140.643
21
-66.3833
0
LINE
8
BLACK
6
CONTINUOUS
10
140.643
20
-66.3833
11
140.719
21
-66.2013
0
LINE
8
BLACK
6
CONTINUOUS
10
140.719
20
-66.2013
11
140.828
21
-66.0375
0
LINE
8
BLACK
6
CONTINUOUS
10
140.828
20
-66.0375
11
140.968
21
-65.8982
0
LINE
8
BLACK
6
CONTINUOUS
10
140.968
20
-65.8982
11
141.105
21
-65.8064
0
LINE
8
BLACK
6
CONTINUOUS
10
141.105
20
-65.8064
11
141.105
21
-61.6196
0
LINE
8
BLACK
6
CONTINUOUS
10
141.105
20
-61.6196
11
141.103
21
-61.595
0
LINE
8
BLACK
6
CONTINUOUS
10
141.103
20
-61.595
11
141.112
21
-61.497
0
LINE
8
BLACK
6
CONTINUOUS
10
141.112
20
-61.497
11
141.141
21
-61.4027
0
LINE
8
BLACK
6
CONTINUOUS
10
141.141
20
-61.4027
11
141.187
21
-61.3159
0
LINE
8
BLACK
6
CONTINUOUS
10
141.187
20
-61.3159
11
141.25
21
-61.2397
0
LINE
8
BLACK
6
CONTINUOUS
10
141.25
20
-61.2397
11
141.326
21
-61.1773
0
LINE
8
BLACK
6
CONTINUOUS
10
141.326
20
-61.1773
11
141.413
21
-61.1308
0
LINE
8
BLACK
6
CONTINUOUS
10
141.413
20
-61.1308
11
141.507
21
-61.1022
0
LINE
8
BLACK
6
CONTINUOUS
10
141.507
20
-61.1022
11
141.58
21
-61.095
0
LINE
8
BLACK
6
CONTINUOUS
10
141.58
20
-61.095
11
141.605
21
-61.0926
0
LINE
8
BLACK
6
CONTINUOUS
10
141.605
20
-61.0926
11
141.63
21
-61.095
0
LINE
8
BLACK
6
CONTINUOUS
10
141.63
20
-61.095
11
144.12
21
-61.095
0
LINE
8
BLACK
6
CONTINUOUS
10
144.12
20
-61.095
11
144.145
21
-61.0926
0
LINE
8
BLACK
6
CONTINUOUS
10
144.145
20
-61.0926
11
144.17
21
-61.095
0
LINE
8
BLACK
6
CONTINUOUS
10
144.17
20
-61.095
11
144.243
21
-61.1022
0
LINE
8
BLACK
6
CONTINUOUS
10
144.243
20
-61.1022
11
144.337
21
-61.1308
0
LINE
8
BLACK
6
CONTINUOUS
10
144.337
20
-61.1308
11
144.424
21
-61.1773
0
LINE
8
BLACK
6
CONTINUOUS
10
144.424
20
-61.1773
11
144.5
21
-61.2397
0
LINE
8
BLACK
6
CONTINUOUS
10
144.5
20
-61.2397
11
144.516
21
-61.2588
0
LINE
8
BLACK
6
CONTINUOUS
10
144.516
20
-61.2588
11
145.959
21
-62.7023
0
LINE
8
BLACK
6
CONTINUOUS
10
145.959
20
-62.7023
11
145.971
21
-62.7
0
LINE
8
BLACK
6
CONTINUOUS
10
145.971
20
-62.7
11
146.129
21
-62.7
0
LINE
8
BLACK
6
CONTINUOUS
10
146.129
20
-62.7
11
146.283
21
-62.7307
0
LINE
8
BLACK
6
CONTINUOUS
10
146.283
20
-62.7307
11
146.429
21
-62.791
0
LINE
8
BLACK
6
CONTINUOUS
10
146.429
20
-62.791
11
146.56
21
-62.8786
0
LINE
8
BLACK
6
CONTINUOUS
10
146.56
20
-62.8786
11
146.671
21
-62.99
0
LINE
8
BLACK
6
CONTINUOUS
10
146.671
20
-62.99
11
146.759
21
-63.1211
0
LINE
8
BLACK
6
CONTINUOUS
10
146.759
20
-63.1211
11
146.819
21
-63.2666
0
LINE
8
BLACK
6
CONTINUOUS
10
146.819
20
-63.2666
11
146.85
21
-63.4212
0
LINE
8
BLACK
6
CONTINUOUS
10
146.85
20
-63.4212
11
146.85
21
-63.5788
0
LINE
8
BLACK
6
CONTINUOUS
10
146.85
20
-63.5788
11
146.819
21
-63.7334
0
LINE
8
BLACK
6
CONTINUOUS
10
146.819
20
-63.7334
11
146.759
21
-63.8789
0
LINE
8
BLACK
6
CONTINUOUS
10
146.759
20
-63.8789
11
146.671
21
-64.01
0
LINE
8
BLACK
6
CONTINUOUS
10
146.671
20
-64.01
11
146.56
21
-64.1214
0
LINE
8
BLACK
6
CONTINUOUS
10
146.56
20
-64.1214
11
146.429
21
-64.209
0
LINE
8
BLACK
6
CONTINUOUS
10
146.429
20
-64.209
11
146.283
21
-64.2693
0
LINE
8
BLACK
6
CONTINUOUS
10
146.283
20
-64.2693
11
146.129
21
-64.3
0
LINE
8
BLACK
6
CONTINUOUS
10
146.129
20
-64.3
11
145.971
21
-64.3
0
LINE
8
BLACK
6
CONTINUOUS
10
145.971
20
-64.3
11
145.817
21
-64.2693
0
LINE
8
BLACK
6
CONTINUOUS
10
145.817
20
-64.2693
11
145.671
21
-64.209
0
LINE
8
BLACK
6
CONTINUOUS
10
145.671
20
-64.209
11
145.54
21
-64.1214
0
LINE
8
BLACK
6
CONTINUOUS
10
145.54
20
-64.1214
11
145.429
21
-64.01
0
LINE
8
BLACK
6
CONTINUOUS
10
145.429
20
-64.01
11
145.341
21
-63.8789
0
LINE
8
BLACK
6
CONTINUOUS
10
145.341
20
-63.8789
11
145.281
21
-63.7334
0
LINE
8
BLACK
6
CONTINUOUS
10
145.281
20
-63.7334
11
145.25
21
-63.5788
0
LINE
8
BLACK
6
CONTINUOUS
10
145.25
20
-63.5788
11
145.25
21
-63.4212
0
LINE
8
BLACK
6
CONTINUOUS
10
145.25
20
-63.4212
11
145.252
21
-63.4094
0
LINE
8
BLACK
6
CONTINUOUS
10
145.252
20
-63.4094
11
143.938
21
-62.095
0
LINE
8
BLACK
6
CONTINUOUS
10
143.938
20
-62.095
11
142.105
21
-62.095
0
LINE
8
BLACK
6
CONTINUOUS
10
142.105
20
-62.095
11
142.105
21
-65.8064
0
LINE
8
BLACK
6
CONTINUOUS
10
142.105
20
-65.8064
11
142.242
21
-65.8982
0
LINE
8
BLACK
6
CONTINUOUS
10
142.242
20
-65.8982
11
142.382
21
-66.0375
0
LINE
8
BLACK
6
CONTINUOUS
10
142.382
20
-66.0375
11
142.491
21
-66.2013
0
LINE
8
BLACK
6
CONTINUOUS
10
142.491
20
-66.2013
11
142.567
21
-66.3833
0
LINE
8
BLACK
6
CONTINUOUS
10
142.567
20
-66.3833
11
142.605
21
-66.5765
0
LINE
8
BLACK
6
CONTINUOUS
10
142.605
20
-66.5765
11
142.605
21
-66.7735
0
LINE
8
BLACK
6
CONTINUOUS
10
142.605
20
-66.7735
11
142.567
21
-66.9667
0
LINE
8
BLACK
6
CONTINUOUS
10
142.567
20
-66.9667
11
142.491
21
-67.1487
0
LINE
8
BLACK
6
CONTINUOUS
10
142.491
20
-67.1487
11
142.382
21
-67.3125
0
LINE
8
BLACK
6
CONTINUOUS
10
142.382
20
-67.3125
11
142.242
21
-67.4518
0
LINE
8
BLACK
6
CONTINUOUS
10
142.242
20
-67.4518
11
142.105
21
-67.5436
0
LINE
8
BLACK
6
CONTINUOUS
10
142.105
20
-67.5436
11
142.105
21
-69.35
0
LINE
8
BLACK
6
CONTINUOUS
10
142.105
20
-69.35
11
142.822
21
-69.35
0
LINE
8
BLACK
6
CONTINUOUS
10
142.822
20
-69.35
11
142.85
21
-69.3082
0
LINE
8
BLACK
6
CONTINUOUS
10
142.85
20
-69.3082
11
142.968
21
-69.1898
0
LINE
8
BLACK
6
CONTINUOUS
10
142.968
20
-69.1898
11
143.107
21
-69.0967
0
LINE
8
BLACK
6
CONTINUOUS
10
143.107
20
-69.0967
11
143.262
21
-69.0327
0
LINE
8
BLACK
6
CONTINUOUS
10
143.262
20
-69.0327
11
143.426
21
-69
0
LINE
8
BLACK
6
CONTINUOUS
10
143.426
20
-69
11
143.594
21
-69
0
LINE
8
BLACK
6
CONTINUOUS
10
143.594
20
-69
11
143.758
21
-69.0327
0
LINE
8
BLACK
6
CONTINUOUS
10
143.758
20
-69.0327
11
143.913
21
-69.0967
0
LINE
8
BLACK
6
CONTINUOUS
10
143.913
20
-69.0967
11
144.052
21
-69.1898
0
LINE
8
BLACK
6
CONTINUOUS
10
144.052
20
-69.1898
11
144.17
21
-69.3082
0
LINE
8
BLACK
6
CONTINUOUS
10
144.17
20
-69.3082
11
144.263
21
-69.4474
0
LINE
8
BLACK
6
CONTINUOUS
10
144.263
20
-69.4474
11
144.327
21
-69.6021
0
LINE
8
BLACK
6
CONTINUOUS
10
144.327
20
-69.6021
11
144.36
21
-69.7663
0
LINE
8
BLACK
6
CONTINUOUS
10
144.36
20
-69.7663
11
144.36
21
-69.9337
0
LINE
8
BLACK
6
CONTINUOUS
10
144.36
20
-69.9337
11
144.327
21
-70.0979
0
LINE
8
BLACK
6
CONTINUOUS
10
144.327
20
-70.0979
11
144.263
21
-70.2526
0
LINE
8
BLACK
6
CONTINUOUS
10
144.263
20
-70.2526
11
144.17
21
-70.3918
0
LINE
8
BLACK
6
CONTINUOUS
10
144.17
20
-70.3918
11
144.052
21
-70.5102
0
LINE
8
BLACK
6
CONTINUOUS
10
144.052
20
-70.5102
11
143.913
21
-70.6033
0
LINE
8
BLACK
6
CONTINUOUS
10
143.913
20
-70.6033
11
143.758
21
-70.6673
0
LINE
8
BLACK
6
CONTINUOUS
10
143.758
20
-70.6673
11
143.594
21
-70.7
0
LINE
8
BLACK
6
CONTINUOUS
10
143.594
20
-70.7
11
143.426
21
-70.7
0
LINE
8
BLACK
6
CONTINUOUS
10
143.426
20
-70.7
11
143.262
21
-70.6673
0
LINE
8
BLACK
6
CONTINUOUS
10
143.262
20
-70.6673
11
143.107
21
-70.6033
0
LINE
8
BLACK
6
CONTINUOUS
10
143.107
20
-70.6033
11
142.968
21
-70.5102
0
LINE
8
BLACK
6
CONTINUOUS
10
142.968
20
-70.5102
11
142.85
21
-70.3918
0
LINE
8
BLACK
6
CONTINUOUS
10
142.85
20
-70.3918
11
142.822
21
-70.35
0
LINE
8
BLACK
6
CONTINUOUS
10
142.822
20
-70.35
11
141.63
21
-70.35
0
LINE
8
BLACK
6
CONTINUOUS
10
141.63
20
-70.35
11
141.605
21
-70.3524
0
LINE
8
BLACK
6
CONTINUOUS
10
141.605
20
-70.3524
11
141.58
21
-70.35
0
LINE
8
BLACK
6
CONTINUOUS
10
141.58
20
-70.35
11
139.118
21
-70.35
0
LINE
8
BLACK
6
CONTINUOUS
10
139.118
20
-70.35
11
139.09
21
-70.3918
0
LINE
8
BLACK
6
CONTINUOUS
10
148.823
20
-62.7307
11
148.969
21
-62.791
0
LINE
8
BLACK
6
CONTINUOUS
10
148.969
20
-62.791
11
149.1
21
-62.8786
0
LINE
8
BLACK
6
CONTINUOUS
10
149.1
20
-62.8786
11
149.211
21
-62.99
0
LINE
8
BLACK
6
CONTINUOUS
10
149.211
20
-62.99
11
149.299
21
-63.1211
0
LINE
8
BLACK
6
CONTINUOUS
10
149.299
20
-63.1211
11
149.359
21
-63.2666
0
LINE
8
BLACK
6
CONTINUOUS
10
149.359
20
-63.2666
11
149.39
21
-63.4212
0
LINE
8
BLACK
6
CONTINUOUS
10
149.39
20
-63.4212
11
149.39
21
-63.5788
0
LINE
8
BLACK
6
CONTINUOUS
10
149.39
20
-63.5788
11
149.359
21
-63.7334
0
LINE
8
BLACK
6
CONTINUOUS
10
149.359
20
-63.7334
11
149.299
21
-63.8789
0
LINE
8
BLACK
6
CONTINUOUS
10
149.299
20
-63.8789
11
149.211
21
-64.01
0
LINE
8
BLACK
6
CONTINUOUS
10
149.211
20
-64.01
11
149.1
21
-64.1214
0
LINE
8
BLACK
6
CONTINUOUS
10
149.1
20
-64.1214
11
148.969
21
-64.209
0
LINE
8
BLACK
6
CONTINUOUS
10
148.969
20
-64.209
11
148.823
21
-64.2693
0
LINE
8
BLACK
6
CONTINUOUS
10
148.823
20
-64.2693
11
148.669
21
-64.3
0
LINE
8
BLACK
6
CONTINUOUS
10
148.669
20
-64.3
11
148.511
21
-64.3
0
LINE
8
BLACK
6
CONTINUOUS
10
148.511
20
-64.3
11
148.357
21
-64.2693
0
LINE
8
BLACK
6
CONTINUOUS
10
148.357
20
-64.2693
11
148.211
21
-64.209
0
LINE
8
BLACK
6
CONTINUOUS
10
148.211
20
-64.209
11
148.08
21
-64.1214
0
LINE
8
BLACK
6
CONTINUOUS
10
148.08
20
-64.1214
11
147.969
21
-64.01
0
LINE
8
BLACK
6
CONTINUOUS
10
147.969
20
-64.01
11
147.881
21
-63.8789
0
LINE
8
BLACK
6
CONTINUOUS
10
147.881
20
-63.8789
11
147.821
21
-63.7334
0
LINE
8
BLACK
6
CONTINUOUS
10
147.821
20
-63.7334
11
147.79
21
-63.5788
0
LINE
8
BLACK
6
CONTINUOUS
10
147.79
20
-63.5788
11
147.79
21
-63.4212
0
LINE
8
BLACK
6
CONTINUOUS
10
147.79
20
-63.4212
11
147.821
21
-63.2666
0
LINE
8
BLACK
6
CONTINUOUS
10
147.821
20
-63.2666
11
147.881
21
-63.1211
0
LINE
8
BLACK
6
CONTINUOUS
10
147.881
20
-63.1211
11
147.969
21
-62.99
0
LINE
8
BLACK
6
CONTINUOUS
10
147.969
20
-62.99
11
148.08
21
-62.8786
0
LINE
8
BLACK
6
CONTINUOUS
10
148.08
20
-62.8786
11
148.211
21
-62.791
0
LINE
8
BLACK
6
CONTINUOUS
10
148.211
20
-62.791
11
148.357
21
-62.7307
0
LINE
8
BLACK
6
CONTINUOUS
10
148.357
20
-62.7307
11
148.511
21
-62.7
0
LINE
8
BLACK
6
CONTINUOUS
10
148.511
20
-62.7
11
148.669
21
-62.7
0
LINE
8
BLACK
6
CONTINUOUS
10
148.669
20
-62.7
11
148.823
21
-62.7307
0
LINE
8
BLACK
6
CONTINUOUS
10
153.903
20
-62.7307
11
154.049
21
-62.791
0
LINE
8
BLACK
6
CONTINUOUS
10
154.049
20
-62.791
11
154.18
21
-62.8786
0
LINE
8
BLACK
6
CONTINUOUS
10
154.18
20
-62.8786
11
154.291
21
-62.99
0
LINE
8
BLACK
6
CONTINUOUS
10
154.291
20
-62.99
11
154.379
21
-63.1211
0
LINE
8
BLACK
6
CONTINUOUS
10
154.379
20
-63.1211
11
154.439
21
-63.2666
0
LINE
8
BLACK
6
CONTINUOUS
10
154.439
20
-63.2666
11
154.47
21
-63.4212
0
LINE
8
BLACK
6
CONTINUOUS
10
154.47
20
-63.4212
11
154.47
21
-63.5788
0
LINE
8
BLACK
6
CONTINUOUS
10
154.47
20
-63.5788
11
154.439
21
-63.7334
0
LINE
8
BLACK
6
CONTINUOUS
10
154.439
20
-63.7334
11
154.379
21
-63.8789
0
LINE
8
BLACK
6
CONTINUOUS
10
154.379
20
-63.8789
11
154.291
21
-64.01
0
LINE
8
BLACK
6
CONTINUOUS
10
154.291
20
-64.01
11
154.18
21
-64.1214
0
LINE
8
BLACK
6
CONTINUOUS
10
154.18
20
-64.1214
11
154.049
21
-64.209
0
LINE
8
BLACK
6
CONTINUOUS
10
154.049
20
-64.209
11
153.903
21
-64.2693
0
LINE
8
BLACK
6
CONTINUOUS
10
153.903
20
-64.2693
11
153.749
21
-64.3
0
LINE
8
BLACK
6
CONTINUOUS
10
153.749
20
-64.3
11
153.591
21
-64.3
0
LINE
8
BLACK
6
CONTINUOUS
10
153.591
20
-64.3
11
153.437
21
-64.2693
0
LINE
8
BLACK
6
CONTINUOUS
10
153.437
20
-64.2693
11
153.291
21
-64.209
0
LINE
8
BLACK
6
CONTINUOUS
10
153.291
20
-64.209
11
153.16
21
-64.1214
0
LINE
8
BLACK
6
CONTINUOUS
10
153.16
20
-64.1214
11
153.049
21
-64.01
0
LINE
8
BLACK
6
CONTINUOUS
10
153.049
20
-64.01
11
152.961
21
-63.8789
0
LINE
8
BLACK
6
CONTINUOUS
10
152.961
20
-63.8789
11
152.901
21
-63.7334
0
LINE
8
BLACK
6
CONTINUOUS
10
152.901
20
-63.7334
11
152.87
21
-63.5788
0
LINE
8
BLACK
6
CONTINUOUS
10
152.87
20
-63.5788
11
152.87
21
-63.4212
0
LINE
8
BLACK
6
CONTINUOUS
10
152.87
20
-63.4212
11
152.901
21
-63.2666
0
LINE
8
BLACK
6
CONTINUOUS
10
152.901
20
-63.2666
11
152.961
21
-63.1211
0
LINE
8
BLACK
6
CONTINUOUS
10
152.961
20
-63.1211
11
153.049
21
-62.99
0
LINE
8
BLACK
6
CONTINUOUS
10
153.049
20
-62.99
11
153.16
21
-62.8786
0
LINE
8
BLACK
6
CONTINUOUS
10
153.16
20
-62.8786
11
153.291
21
-62.791
0
LINE
8
BLACK
6
CONTINUOUS
10
153.291
20
-62.791
11
153.437
21
-62.7307
0
LINE
8
BLACK
6
CONTINUOUS
10
153.437
20
-62.7307
11
153.591
21
-62.7
0
LINE
8
BLACK
6
CONTINUOUS
10
153.591
20
-62.7
11
153.749
21
-62.7
0
LINE
8
BLACK
6
CONTINUOUS
10
153.749
20
-62.7
11
153.903
21
-62.7307
0
LINE
8
BLACK
6
CONTINUOUS
10
119.363
20
-62.7307
11
119.509
21
-62.791
0
LINE
8
BLACK
6
CONTINUOUS
10
119.509
20
-62.791
11
119.64
21
-62.8786
0
LINE
8
BLACK
6
CONTINUOUS
10
119.64
20
-62.8786
11
119.751
21
-62.99
0
LINE
8
BLACK
6
CONTINUOUS
10
119.751
20
-62.99
11
119.839
21
-63.1211
0
LINE
8
BLACK
6
CONTINUOUS
10
119.839
20
-63.1211
11
119.899
21
-63.2666
0
LINE
8
BLACK
6
CONTINUOUS
10
119.899
20
-63.2666
11
119.93
21
-63.4212
0
LINE
8
BLACK
6
CONTINUOUS
10
119.93
20
-63.4212
11
119.93
21
-63.5788
0
LINE
8
BLACK
6
CONTINUOUS
10
119.93
20
-63.5788
11
119.899
21
-63.7334
0
LINE
8
BLACK
6
CONTINUOUS
10
119.899
20
-63.7334
11
119.839
21
-63.8789
0
LINE
8
BLACK
6
CONTINUOUS
10
119.839
20
-63.8789
11
119.751
21
-64.01
0
LINE
8
BLACK
6
CONTINUOUS
10
119.751
20
-64.01
11
119.64
21
-64.1214
0
LINE
8
BLACK
6
CONTINUOUS
10
119.64
20
-64.1214
11
119.509
21
-64.209
0
LINE
8
BLACK
6
CONTINUOUS
10
119.509
20
-64.209
11
119.363
21
-64.2693
0
LINE
8
BLACK
6
CONTINUOUS
10
119.363
20
-64.2693
11
119.209
21
-64.3
0
LINE
8
BLACK
6
CONTINUOUS
10
119.209
20
-64.3
11
119.051
21
-64.3
0
LINE
8
BLACK
6
CONTINUOUS
10
119.051
20
-64.3
11
118.897
21
-64.2693
0
LINE
8
BLACK
6
CONTINUOUS
10
118.897
20
-64.2693
11
118.751
21
-64.209
0
LINE
8
BLACK
6
CONTINUOUS
10
118.751
20
-64.209
11
118.62
21
-64.1214
0
LINE
8
BLACK
6
CONTINUOUS
10
118.62
20
-64.1214
11
118.509
21
-64.01
0
LINE
8
BLACK
6
CONTINUOUS
10
118.509
20
-64.01
11
118.421
21
-63.8789
0
LINE
8
BLACK
6
CONTINUOUS
10
118.421
20
-63.8789
11
118.361
21
-63.7334
0
LINE
8
BLACK
6
CONTINUOUS
10
118.361
20
-63.7334
11
118.33
21
-63.5788
0
LINE
8
BLACK
6
CONTINUOUS
10
118.33
20
-63.5788
11
118.33
21
-63.4212
0
LINE
8
BLACK
6
CONTINUOUS
10
118.33
20
-63.4212
11
118.361
21
-63.2666
0
LINE
8
BLACK
6
CONTINUOUS
10
118.361
20
-63.2666
11
118.421
21
-63.1211
0
LINE
8
BLACK
6
CONTINUOUS
10
118.421
20
-63.1211
11
118.509
21
-62.99
0
LINE
8
BLACK
6
CONTINUOUS
10
118.509
20
-62.99
11
118.62
21
-62.8786
0
LINE
8
BLACK
6
CONTINUOUS
10
118.62
20
-62.8786
11
118.751
21
-62.791
0
LINE
8
BLACK
6
CONTINUOUS
10
118.751
20
-62.791
11
118.897
21
-62.7307
0
LINE
8
BLACK
6
CONTINUOUS
10
118.897
20
-62.7307
11
119.051
21
-62.7
0
LINE
8
BLACK
6
CONTINUOUS
10
119.051
20
-62.7
11
119.209
21
-62.7
0
LINE
8
BLACK
6
CONTINUOUS
10
119.209
20
-62.7
11
119.363
21
-62.7307
0
LINE
8
BLACK
6
CONTINUOUS
10
116.823
20
-62.7307
11
116.969
21
-62.791
0
LINE
8
BLACK
6
CONTINUOUS
10
116.969
20
-62.791
11
117.1
21
-62.8786
0
LINE
8
BLACK
6
CONTINUOUS
10
117.1
20
-62.8786
11
117.211
21
-62.99
0
LINE
8
BLACK
6
CONTINUOUS
10
117.211
20
-62.99
11
117.299
21
-63.1211
0
LINE
8
BLACK
6
CONTINUOUS
10
117.299
20
-63.1211
11
117.359
21
-63.2666
0
LINE
8
BLACK
6
CONTINUOUS
10
117.359
20
-63.2666
11
117.39
21
-63.4212
0
LINE
8
BLACK
6
CONTINUOUS
10
117.39
20
-63.4212
11
117.39
21
-63.5788
0
LINE
8
BLACK
6
CONTINUOUS
10
117.39
20
-63.5788
11
117.359
21
-63.7334
0
LINE
8
BLACK
6
CONTINUOUS
10
117.359
20
-63.7334
11
117.299
21
-63.8789
0
LINE
8
BLACK
6
CONTINUOUS
10
117.299
20
-63.8789
11
117.211
21
-64.01
0
LINE
8
BLACK
6
CONTINUOUS
10
117.211
20
-64.01
11
117.1
21
-64.1214
0
LINE
8
BLACK
6
CONTINUOUS
10
117.1
20
-64.1214
11
116.969
21
-64.209
0
LINE
8
BLACK
6
CONTINUOUS
10
116.969
20
-64.209
11
116.823
21
-64.2693
0
LINE
8
BLACK
6
CONTINUOUS
10
116.823
20
-64.2693
11
116.669
21
-64.3
0
LINE
8
BLACK
6
CONTINUOUS
10
116.669
20
-64.3
11
116.511
21
-64.3
0
LINE
8
BLACK
6
CONTINUOUS
10
116.511
20
-64.3
11
116.357
21
-64.2693
0
LINE
8
BLACK
6
CONTINUOUS
10
116.357
20
-64.2693
11
116.211
21
-64.209
0
LINE
8
BLACK
6
CONTINUOUS
10
116.211
20
-64.209
11
116.08
21
-64.1214
0
LINE
8
BLACK
6
CONTINUOUS
10
116.08
20
-64.1214
11
115.969
21
-64.01
0
LINE
8
BLACK
6
CONTINUOUS
10
115.969
20
-64.01
11
115.881
21
-63.8789
0
LINE
8
BLACK
6
CONTINUOUS
10
115.881
20
-63.8789
11
115.821
21
-63.7334
0
LINE
8
BLACK
6
CONTINUOUS
10
115.821
20
-63.7334
11
115.79
21
-63.5788
0
LINE
8
BLACK
6
CONTINUOUS
10
115.79
20
-63.5788
11
115.79
21
-63.4212
0
LINE
8
BLACK
6
CONTINUOUS
10
115.79
20
-63.4212
11
115.821
21
-63.2666
0
LINE
8
BLACK
6
CONTINUOUS
10
115.821
20
-63.2666
11
115.881
21
-63.1211
0
LINE
8
BLACK
6
CONTINUOUS
10
115.881
20
-63.1211
11
115.969
21
-62.99
0
LINE
8
BLACK
6
CONTINUOUS
10
115.969
20
-62.99
11
116.08
21
-62.8786
0
LINE
8
BLACK
6
CONTINUOUS
10
116.08
20
-62.8786
11
116.211
21
-62.791
0
LINE
8
BLACK
6
CONTINUOUS
10
116.211
20
-62.791
11
116.357
21
-62.7307
0
LINE
8
BLACK
6
CONTINUOUS
10
116.357
20
-62.7307
11
116.511
21
-62.7
0
LINE
8
BLACK
6
CONTINUOUS
10
116.511
20
-62.7
11
116.669
21
-62.7
0
LINE
8
BLACK
6
CONTINUOUS
10
116.669
20
-62.7
11
116.823
21
-62.7307
0
LINE
8
BLACK
6
CONTINUOUS
10
137.143
20
-62.7307
11
137.289
21
-62.791
0
LINE
8
BLACK
6
CONTINUOUS
10
137.289
20
-62.791
11
137.42
21
-62.8786
0
LINE
8
BLACK
6
CONTINUOUS
10
137.42
20
-62.8786
11
137.531
21
-62.99
0
LINE
8
BLACK
6
CONTINUOUS
10
137.531
20
-62.99
11
137.619
21
-63.1211
0
LINE
8
BLACK
6
CONTINUOUS
10
137.619
20
-63.1211
11
137.679
21
-63.2666
0
LINE
8
BLACK
6
CONTINUOUS
10
137.679
20
-63.2666
11
137.71
21
-63.4212
0
LINE
8
BLACK
6
CONTINUOUS
10
137.71
20
-63.4212
11
137.71
21
-63.5788
0
LINE
8
BLACK
6
CONTINUOUS
10
137.71
20
-63.5788
11
137.679
21
-63.7334
0
LINE
8
BLACK
6
CONTINUOUS
10
137.679
20
-63.7334
11
137.619
21
-63.8789
0
LINE
8
BLACK
6
CONTINUOUS
10
137.619
20
-63.8789
11
137.531
21
-64.01
0
LINE
8
BLACK
6
CONTINUOUS
10
137.531
20
-64.01
11
137.42
21
-64.1214
0
LINE
8
BLACK
6
CONTINUOUS
10
137.42
20
-64.1214
11
137.289
21
-64.209
0
LINE
8
BLACK
6
CONTINUOUS
10
137.289
20
-64.209
11
137.143
21
-64.2693
0
LINE
8
BLACK
6
CONTINUOUS
10
137.143
20
-64.2693
11
136.989
21
-64.3
0
LINE
8
BLACK
6
CONTINUOUS
10
136.989
20
-64.3
11
136.831
21
-64.3
0
LINE
8
BLACK
6
CONTINUOUS
10
136.831
20
-64.3
11
136.677
21
-64.2693
0
LINE
8
BLACK
6
CONTINUOUS
10
136.677
20
-64.2693
11
136.531
21
-64.209
0
LINE
8
BLACK
6
CONTINUOUS
10
136.531
20
-64.209
11
136.4
21
-64.1214
0
LINE
8
BLACK
6
CONTINUOUS
10
136.4
20
-64.1214
11
136.289
21
-64.01
0
LINE
8
BLACK
6
CONTINUOUS
10
136.289
20
-64.01
11
136.201
21
-63.8789
0
LINE
8
BLACK
6
CONTINUOUS
10
136.201
20
-63.8789
11
136.141
21
-63.7334
0
LINE
8
BLACK
6
CONTINUOUS
10
136.141
20
-63.7334
11
136.11
21
-63.5788
0
LINE
8
BLACK
6
CONTINUOUS
10
136.11
20
-63.5788
11
136.11
21
-63.4212
0
LINE
8
BLACK
6
CONTINUOUS
10
136.11
20
-63.4212
11
136.141
21
-63.2666
0
LINE
8
BLACK
6
CONTINUOUS
10
136.141
20
-63.2666
11
136.201
21
-63.1211
0
LINE
8
BLACK
6
CONTINUOUS
10
136.201
20
-63.1211
11
136.289
21
-62.99
0
LINE
8
BLACK
6
CONTINUOUS
10
136.289
20
-62.99
11
136.4
21
-62.8786
0
LINE
8
BLACK
6
CONTINUOUS
10
136.4
20
-62.8786
11
136.531
21
-62.791
0
LINE
8
BLACK
6
CONTINUOUS
10
136.531
20
-62.791
11
136.677
21
-62.7307
0
LINE
8
BLACK
6
CONTINUOUS
10
136.677
20
-62.7307
11
136.831
21
-62.7
0
LINE
8
BLACK
6
CONTINUOUS
10
136.831
20
-62.7
11
136.989
21
-62.7
0
LINE
8
BLACK
6
CONTINUOUS
10
136.989
20
-62.7
11
137.143
21
-62.7307
0
LINE
8
BLACK
6
CONTINUOUS
10
134.603
20
-62.7307
11
134.749
21
-62.791
0
LINE
8
BLACK
6
CONTINUOUS
10
134.749
20
-62.791
11
134.88
21
-62.8786
0
LINE
8
BLACK
6
CONTINUOUS
10
134.88
20
-62.8786
11
134.991
21
-62.99
0
LINE
8
BLACK
6
CONTINUOUS
10
134.991
20
-62.99
11
135.079
21
-63.1211
0
LINE
8
BLACK
6
CONTINUOUS
10
135.079
20
-63.1211
11
135.139
21
-63.2666
0
LINE
8
BLACK
6
CONTINUOUS
10
135.139
20
-63.2666
11
135.17
21
-63.4212
0
LINE
8
BLACK
6
CONTINUOUS
10
135.17
20
-63.4212
11
135.17
21
-63.5788
0
LINE
8
BLACK
6
CONTINUOUS
10
135.17
20
-63.5788
11
135.139
21
-63.7334
0
LINE
8
BLACK
6
CONTINUOUS
10
135.139
20
-63.7334
11
135.079
21
-63.8789
0
LINE
8
BLACK
6
CONTINUOUS
10
135.079
20
-63.8789
11
134.991
21
-64.01
0
LINE
8
BLACK
6
CONTINUOUS
10
134.991
20
-64.01
11
134.88
21
-64.1214
0
LINE
8
BLACK
6
CONTINUOUS
10
134.88
20
-64.1214
11
134.749
21
-64.209
0
LINE
8
BLACK
6
CONTINUOUS
10
134.749
20
-64.209
11
134.603
21
-64.2693
0
LINE
8
BLACK
6
CONTINUOUS
10
134.603
20
-64.2693
11
134.449
21
-64.3
0
LINE
8
BLACK
6
CONTINUOUS
10
134.449
20
-64.3
11
134.291
21
-64.3
0
LINE
8
BLACK
6
CONTINUOUS
10
134.291
20
-64.3
11
134.137
21
-64.2693
0
LINE
8
BLACK
6
CONTINUOUS
10
134.137
20
-64.2693
11
133.991
21
-64.209
0
LINE
8
BLACK
6
CONTINUOUS
10
133.991
20
-64.209
11
133.86
21
-64.1214
0
LINE
8
BLACK
6
CONTINUOUS
10
133.86
20
-64.1214
11
133.749
21
-64.01
0
LINE
8
BLACK
6
CONTINUOUS
10
133.749
20
-64.01
11
133.661
21
-63.8789
0
LINE
8
BLACK
6
CONTINUOUS
10
133.661
20
-63.8789
11
133.601
21
-63.7334
0
LINE
8
BLACK
6
CONTINUOUS
10
133.601
20
-63.7334
11
133.57
21
-63.5788
0
LINE
8
BLACK
6
CONTINUOUS
10
133.57
20
-63.5788
11
133.57
21
-63.4212
0
LINE
8
BLACK
6
CONTINUOUS
10
133.57
20
-63.4212
11
133.601
21
-63.2666
0
LINE
8
BLACK
6
CONTINUOUS
10
133.601
20
-63.2666
11
133.661
21
-63.1211
0
LINE
8
BLACK
6
CONTINUOUS
10
133.661
20
-63.1211
11
133.749
21
-62.99
0
LINE
8
BLACK
6
CONTINUOUS
10
133.749
20
-62.99
11
133.86
21
-62.8786
0
LINE
8
BLACK
6
CONTINUOUS
10
133.86
20
-62.8786
11
133.991
21
-62.791
0
LINE
8
BLACK
6
CONTINUOUS
10
133.991
20
-62.791
11
134.137
21
-62.7307
0
LINE
8
BLACK
6
CONTINUOUS
10
134.137
20
-62.7307
11
134.291
21
-62.7
0
LINE
8
BLACK
6
CONTINUOUS
10
134.291
20
-62.7
11
134.449
21
-62.7
0
LINE
8
BLACK
6
CONTINUOUS
10
134.449
20
-62.7
11
134.603
21
-62.7307
0
LINE
8
BLACK
6
CONTINUOUS
10
132.063
20
-62.7307
11
132.209
21
-62.791
0
LINE
8
BLACK
6
CONTINUOUS
10
132.209
20
-62.791
11
132.34
21
-62.8786
0
LINE
8
BLACK
6
CONTINUOUS
10
132.34
20
-62.8786
11
132.451
21
-62.99
0
LINE
8
BLACK
6
CONTINUOUS
10
132.451
20
-62.99
11
132.539
21
-63.1211
0
LINE
8
BLACK
6
CONTINUOUS
10
132.539
20
-63.1211
11
132.599
21
-63.2666
0
LINE
8
BLACK
6
CONTINUOUS
10
132.599
20
-63.2666
11
132.63
21
-63.4212
0
LINE
8
BLACK
6
CONTINUOUS
10
132.63
20
-63.4212
11
132.63
21
-63.5788
0
LINE
8
BLACK
6
CONTINUOUS
10
132.63
20
-63.5788
11
132.599
21
-63.7334
0
LINE
8
BLACK
6
CONTINUOUS
10
132.599
20
-63.7334
11
132.539
21
-63.8789
0
LINE
8
BLACK
6
CONTINUOUS
10
132.539
20
-63.8789
11
132.451
21
-64.01
0
LINE
8
BLACK
6
CONTINUOUS
10
132.451
20
-64.01
11
132.34
21
-64.1214
0
LINE
8
BLACK
6
CONTINUOUS
10
132.34
20
-64.1214
11
132.209
21
-64.209
0
LINE
8
BLACK
6
CONTINUOUS
10
132.209
20
-64.209
11
132.063
21
-64.2693
0
LINE
8
BLACK
6
CONTINUOUS
10
132.063
20
-64.2693
11
131.909
21
-64.3
0
LINE
8
BLACK
6
CONTINUOUS
10
131.909
20
-64.3
11
131.751
21
-64.3
0
LINE
8
BLACK
6
CONTINUOUS
10
131.751
20
-64.3
11
131.597
21
-64.2693
0
LINE
8
BLACK
6
CONTINUOUS
10
131.597
20
-64.2693
11
131.451
21
-64.209
0
LINE
8
BLACK
6
CONTINUOUS
10
131.451
20
-64.209
11
131.32
21
-64.1214
0
LINE
8
BLACK
6
CONTINUOUS
10
131.32
20
-64.1214
11
131.209
21
-64.01
0
LINE
8
BLACK
6
CONTINUOUS
10
131.209
20
-64.01
11
131.121
21
-63.8789
0
LINE
8
BLACK
6
CONTINUOUS
10
131.121
20
-63.8789
11
131.061
21
-63.7334
0
LINE
8
BLACK
6
CONTINUOUS
10
131.061
20
-63.7334
11
131.03
21
-63.5788
0
LINE
8
BLACK
6
CONTINUOUS
10
131.03
20
-63.5788
11
131.03
21
-63.4212
0
LINE
8
BLACK
6
CONTINUOUS
10
131.03
20
-63.4212
11
131.061
21
-63.2666
0
LINE
8
BLACK
6
CONTINUOUS
10
131.061
20
-63.2666
11
131.121
21
-63.1211
0
LINE
8
BLACK
6
CONTINUOUS
10
131.121
20
-63.1211
11
131.209
21
-62.99
0
LINE
8
BLACK
6
CONTINUOUS
10
131.209
20
-62.99
11
131.32
21
-62.8786
0
LINE
8
BLACK
6
CONTINUOUS
10
131.32
20
-62.8786
11
131.451
21
-62.791
0
LINE
8
BLACK
6
CONTINUOUS
10
131.451
20
-62.791
11
131.597
21
-62.7307
0
LINE
8
BLACK
6
CONTINUOUS
10
131.597
20
-62.7307
11
131.751
21
-62.7
0
LINE
8
BLACK
6
CONTINUOUS
10
131.751
20
-62.7
11
131.909
21
-62.7
0
LINE
8
BLACK
6
CONTINUOUS
10
131.909
20
-62.7
11
132.063
21
-62.7307
0
LINE
8
BLACK
6
CONTINUOUS
10
129.523
20
-62.7307
11
129.669
21
-62.791
0
LINE
8
BLACK
6
CONTINUOUS
10
129.669
20
-62.791
11
129.8
21
-62.8786
0
LINE
8
BLACK
6
CONTINUOUS
10
129.8
20
-62.8786
11
129.911
21
-62.99
0
LINE
8
BLACK
6
CONTINUOUS
10
129.911
20
-62.99
11
129.999
21
-63.1211
0
LINE
8
BLACK
6
CONTINUOUS
10
129.999
20
-63.1211
11
130.059
21
-63.2666
0
LINE
8
BLACK
6
CONTINUOUS
10
130.059
20
-63.2666
11
130.09
21
-63.4212
0
LINE
8
BLACK
6
CONTINUOUS
10
130.09
20
-63.4212
11
130.09
21
-63.5788
0
LINE
8
BLACK
6
CONTINUOUS
10
130.09
20
-63.5788
11
130.059
21
-63.7334
0
LINE
8
BLACK
6
CONTINUOUS
10
130.059
20
-63.7334
11
129.999
21
-63.8789
0
LINE
8
BLACK
6
CONTINUOUS
10
129.999
20
-63.8789
11
129.911
21
-64.01
0
LINE
8
BLACK
6
CONTINUOUS
10
129.911
20
-64.01
11
129.8
21
-64.1214
0
LINE
8
BLACK
6
CONTINUOUS
10
129.8
20
-64.1214
11
129.669
21
-64.209
0
LINE
8
BLACK
6
CONTINUOUS
10
129.669
20
-64.209
11
129.523
21
-64.2693
0
LINE
8
BLACK
6
CONTINUOUS
10
129.523
20
-64.2693
11
129.369
21
-64.3
0
LINE
8
BLACK
6
CONTINUOUS
10
129.369
20
-64.3
11
129.211
21
-64.3
0
LINE
8
BLACK
6
CONTINUOUS
10
129.211
20
-64.3
11
129.057
21
-64.2693
0
LINE
8
BLACK
6
CONTINUOUS
10
129.057
20
-64.2693
11
128.911
21
-64.209
0
LINE
8
BLACK
6
CONTINUOUS
10
128.911
20
-64.209
11
128.78
21
-64.1214
0
LINE
8
BLACK
6
CONTINUOUS
10
128.78
20
-64.1214
11
128.669
21
-64.01
0
LINE
8
BLACK
6
CONTINUOUS
10
128.669
20
-64.01
11
128.581
21
-63.8789
0
LINE
8
BLACK
6
CONTINUOUS
10
128.581
20
-63.8789
11
128.521
21
-63.7334
0
LINE
8
BLACK
6
CONTINUOUS
10
128.521
20
-63.7334
11
128.49
21
-63.5788
0
LINE
8
BLACK
6
CONTINUOUS
10
128.49
20
-63.5788
11
128.49
21
-63.4212
0
LINE
8
BLACK
6
CONTINUOUS
10
128.49
20
-63.4212
11
128.521
21
-63.2666
0
LINE
8
BLACK
6
CONTINUOUS
10
128.521
20
-63.2666
11
128.581
21
-63.1211
0
LINE
8
BLACK
6
CONTINUOUS
10
128.581
20
-63.1211
11
128.669
21
-62.99
0
LINE
8
BLACK
6
CONTINUOUS
10
128.669
20
-62.99
11
128.78
21
-62.8786
0
LINE
8
BLACK
6
CONTINUOUS
10
128.78
20
-62.8786
11
128.911
21
-62.791
0
LINE
8
BLACK
6
CONTINUOUS
10
128.911
20
-62.791
11
129.057
21
-62.7307
0
LINE
8
BLACK
6
CONTINUOUS
10
129.057
20
-62.7307
11
129.211
21
-62.7
0
LINE
8
BLACK
6
CONTINUOUS
10
129.211
20
-62.7
11
129.369
21
-62.7
0
LINE
8
BLACK
6
CONTINUOUS
10
129.369
20
-62.7
11
129.523
21
-62.7307
0
LINE
8
BLACK
6
CONTINUOUS
10
126.983
20
-62.7307
11
127.129
21
-62.791
0
LINE
8
BLACK
6
CONTINUOUS
10
127.129
20
-62.791
11
127.26
21
-62.8786
0
LINE
8
BLACK
6
CONTINUOUS
10
127.26
20
-62.8786
11
127.371
21
-62.99
0
LINE
8
BLACK
6
CONTINUOUS
10
127.371
20
-62.99
11
127.459
21
-63.1211
0
LINE
8
BLACK
6
CONTINUOUS
10
127.459
20
-63.1211
11
127.519
21
-63.2666
0
LINE
8
BLACK
6
CONTINUOUS
10
127.519
20
-63.2666
11
127.55
21
-63.4212
0
LINE
8
BLACK
6
CONTINUOUS
10
127.55
20
-63.4212
11
127.55
21
-63.5788
0
LINE
8
BLACK
6
CONTINUOUS
10
127.55
20
-63.5788
11
127.519
21
-63.7334
0
LINE
8
BLACK
6
CONTINUOUS
10
127.519
20
-63.7334
11
127.459
21
-63.8789
0
LINE
8
BLACK
6
CONTINUOUS
10
127.459
20
-63.8789
11
127.371
21
-64.01
0
LINE
8
BLACK
6
CONTINUOUS
10
127.371
20
-64.01
11
127.26
21
-64.1214
0
LINE
8
BLACK
6
CONTINUOUS
10
127.26
20
-64.1214
11
127.129
21
-64.209
0
LINE
8
BLACK
6
CONTINUOUS
10
127.129
20
-64.209
11
126.983
21
-64.2693
0
LINE
8
BLACK
6
CONTINUOUS
10
126.983
20
-64.2693
11
126.829
21
-64.3
0
LINE
8
BLACK
6
CONTINUOUS
10
126.829
20
-64.3
11
126.671
21
-64.3
0
LINE
8
BLACK
6
CONTINUOUS
10
126.671
20
-64.3
11
126.517
21
-64.2693
0
LINE
8
BLACK
6
CONTINUOUS
10
126.517
20
-64.2693
11
126.371
21
-64.209
0
LINE
8
BLACK
6
CONTINUOUS
10
126.371
20
-64.209
11
126.24
21
-64.1214
0
LINE
8
BLACK
6
CONTINUOUS
10
126.24
20
-64.1214
11
126.129
21
-64.01
0
LINE
8
BLACK
6
CONTINUOUS
10
126.129
20
-64.01
11
126.041
21
-63.8789
0
LINE
8
BLACK
6
CONTINUOUS
10
126.041
20
-63.8789
11
125.981
21
-63.7334
0
LINE
8
BLACK
6
CONTINUOUS
10
125.981
20
-63.7334
11
125.95
21
-63.5788
0
LINE
8
BLACK
6
CONTINUOUS
10
125.95
20
-63.5788
11
125.95
21
-63.4212
0
LINE
8
BLACK
6
CONTINUOUS
10
125.95
20
-63.4212
11
125.981
21
-63.2666
0
LINE
8
BLACK
6
CONTINUOUS
10
125.981
20
-63.2666
11
126.041
21
-63.1211
0
LINE
8
BLACK
6
CONTINUOUS
10
126.041
20
-63.1211
11
126.129
21
-62.99
0
LINE
8
BLACK
6
CONTINUOUS
10
126.129
20
-62.99
11
126.24
21
-62.8786
0
LINE
8
BLACK
6
CONTINUOUS
10
126.24
20
-62.8786
11
126.371
21
-62.791
0
LINE
8
BLACK
6
CONTINUOUS
10
126.371
20
-62.791
11
126.517
21
-62.7307
0
LINE
8
BLACK
6
CONTINUOUS
10
126.517
20
-62.7307
11
126.671
21
-62.7
0
LINE
8
BLACK
6
CONTINUOUS
10
126.671
20
-62.7
11
126.829
21
-62.7
0
LINE
8
BLACK
6
CONTINUOUS
10
126.829
20
-62.7
11
126.983
21
-62.7307
0
LINE
8
BLACK
6
CONTINUOUS
10
121.903
20
-62.7307
11
122.049
21
-62.791
0
LINE
8
BLACK
6
CONTINUOUS
10
122.049
20
-62.791
11
122.18
21
-62.8786
0
LINE
8
BLACK
6
CONTINUOUS
10
122.18
20
-62.8786
11
122.291
21
-62.99
0
LINE
8
BLACK
6
CONTINUOUS
10
122.291
20
-62.99
11
122.379
21
-63.1211
0
LINE
8
BLACK
6
CONTINUOUS
10
122.379
20
-63.1211
11
122.439
21
-63.2666
0
LINE
8
BLACK
6
CONTINUOUS
10
122.439
20
-63.2666
11
122.47
21
-63.4212
0
LINE
8
BLACK
6
CONTINUOUS
10
122.47
20
-63.4212
11
122.47
21
-63.5788
0
LINE
8
BLACK
6
CONTINUOUS
10
122.47
20
-63.5788
11
122.439
21
-63.7334
0
LINE
8
BLACK
6
CONTINUOUS
10
122.439
20
-63.7334
11
122.379
21
-63.8789
0
LINE
8
BLACK
6
CONTINUOUS
10
122.379
20
-63.8789
11
122.291
21
-64.01
0
LINE
8
BLACK
6
CONTINUOUS
10
122.291
20
-64.01
11
122.18
21
-64.1214
0
LINE
8
BLACK
6
CONTINUOUS
10
122.18
20
-64.1214
11
122.049
21
-64.209
0
LINE
8
BLACK
6
CONTINUOUS
10
122.049
20
-64.209
11
121.903
21
-64.2693
0
LINE
8
BLACK
6
CONTINUOUS
10
121.903
20
-64.2693
11
121.749
21
-64.3
0
LINE
8
BLACK
6
CONTINUOUS
10
121.749
20
-64.3
11
121.591
21
-64.3
0
LINE
8
BLACK
6
CONTINUOUS
10
121.591
20
-64.3
11
121.437
21
-64.2693
0
LINE
8
BLACK
6
CONTINUOUS
10
121.437
20
-64.2693
11
121.291
21
-64.209
0
LINE
8
BLACK
6
CONTINUOUS
10
121.291
20
-64.209
11
121.16
21
-64.1214
0
LINE
8
BLACK
6
CONTINUOUS
10
121.16
20
-64.1214
11
121.049
21
-64.01
0
LINE
8
BLACK
6
CONTINUOUS
10
121.049
20
-64.01
11
120.961
21
-63.8789
0
LINE
8
BLACK
6
CONTINUOUS
10
120.961
20
-63.8789
11
120.901
21
-63.7334
0
LINE
8
BLACK
6
CONTINUOUS
10
120.901
20
-63.7334
11
120.87
21
-63.5788
0
LINE
8
BLACK
6
CONTINUOUS
10
120.87
20
-63.5788
11
120.87
21
-63.4212
0
LINE
8
BLACK
6
CONTINUOUS
10
120.87
20
-63.4212
11
120.901
21
-63.2666
0
LINE
8
BLACK
6
CONTINUOUS
10
120.901
20
-63.2666
11
120.961
21
-63.1211
0
LINE
8
BLACK
6
CONTINUOUS
10
120.961
20
-63.1211
11
121.049
21
-62.99
0
LINE
8
BLACK
6
CONTINUOUS
10
121.049
20
-62.99
11
121.16
21
-62.8786
0
LINE
8
BLACK
6
CONTINUOUS
10
121.16
20
-62.8786
11
121.291
21
-62.791
0
LINE
8
BLACK
6
CONTINUOUS
10
121.291
20
-62.791
11
121.437
21
-62.7307
0
LINE
8
BLACK
6
CONTINUOUS
10
121.437
20
-62.7307
11
121.591
21
-62.7
0
LINE
8
BLACK
6
CONTINUOUS
10
121.591
20
-62.7
11
121.749
21
-62.7
0
LINE
8
BLACK
6
CONTINUOUS
10
121.749
20
-62.7
11
121.903
21
-62.7307
0
LINE
8
BLACK
6
CONTINUOUS
10
161.523
20
-62.7307
11
161.669
21
-62.791
0
LINE
8
BLACK
6
CONTINUOUS
10
161.669
20
-62.791
11
161.8
21
-62.8786
0
LINE
8
BLACK
6
CONTINUOUS
10
161.8
20
-62.8786
11
161.911
21
-62.99
0
LINE
8
BLACK
6
CONTINUOUS
10
161.911
20
-62.99
11
161.999
21
-63.1211
0
LINE
8
BLACK
6
CONTINUOUS
10
161.999
20
-63.1211
11
162.059
21
-63.2666
0
LINE
8
BLACK
6
CONTINUOUS
10
162.059
20
-63.2666
11
162.09
21
-63.4212
0
LINE
8
BLACK
6
CONTINUOUS
10
162.09
20
-63.4212
11
162.09
21
-63.5788
0
LINE
8
BLACK
6
CONTINUOUS
10
162.09
20
-63.5788
11
162.059
21
-63.7334
0
LINE
8
BLACK
6
CONTINUOUS
10
162.059
20
-63.7334
11
161.999
21
-63.8789
0
LINE
8
BLACK
6
CONTINUOUS
10
161.999
20
-63.8789
11
161.911
21
-64.01
0
LINE
8
BLACK
6
CONTINUOUS
10
161.911
20
-64.01
11
161.8
21
-64.1214
0
LINE
8
BLACK
6
CONTINUOUS
10
161.8
20
-64.1214
11
161.669
21
-64.209
0
LINE
8
BLACK
6
CONTINUOUS
10
161.669
20
-64.209
11
161.523
21
-64.2693
0
LINE
8
BLACK
6
CONTINUOUS
10
161.523
20
-64.2693
11
161.369
21
-64.3
0
LINE
8
BLACK
6
CONTINUOUS
10
161.369
20
-64.3
11
161.211
21
-64.3
0
LINE
8
BLACK
6
CONTINUOUS
10
161.211
20
-64.3
11
161.057
21
-64.2693
0
LINE
8
BLACK
6
CONTINUOUS
10
161.057
20
-64.2693
11
160.911
21
-64.209
0
LINE
8
BLACK
6
CONTINUOUS
10
160.911
20
-64.209
11
160.78
21
-64.1214
0
LINE
8
BLACK
6
CONTINUOUS
10
160.78
20
-64.1214
11
160.669
21
-64.01
0
LINE
8
BLACK
6
CONTINUOUS
10
160.669
20
-64.01
11
160.581
21
-63.8789
0
LINE
8
BLACK
6
CONTINUOUS
10
160.581
20
-63.8789
11
160.521
21
-63.7334
0
LINE
8
BLACK
6
CONTINUOUS
10
160.521
20
-63.7334
11
160.49
21
-63.5788
0
LINE
8
BLACK
6
CONTINUOUS
10
160.49
20
-63.5788
11
160.49
21
-63.4212
0
LINE
8
BLACK
6
CONTINUOUS
10
160.49
20
-63.4212
11
160.521
21
-63.2666
0
LINE
8
BLACK
6
CONTINUOUS
10
160.521
20
-63.2666
11
160.581
21
-63.1211
0
LINE
8
BLACK
6
CONTINUOUS
10
160.581
20
-63.1211
11
160.669
21
-62.99
0
LINE
8
BLACK
6
CONTINUOUS
10
160.669
20
-62.99
11
160.78
21
-62.8786
0
LINE
8
BLACK
6
CONTINUOUS
10
160.78
20
-62.8786
11
160.911
21
-62.791
0
LINE
8
BLACK
6
CONTINUOUS
10
160.911
20
-62.791
11
161.057
21
-62.7307
0
LINE
8
BLACK
6
CONTINUOUS
10
161.057
20
-62.7307
11
161.211
21
-62.7
0
LINE
8
BLACK
6
CONTINUOUS
10
161.211
20
-62.7
11
161.369
21
-62.7
0
LINE
8
BLACK
6
CONTINUOUS
10
161.369
20
-62.7
11
161.523
21
-62.7307
0
LINE
8
BLACK
6
CONTINUOUS
10
158.983
20
-62.7307
11
159.129
21
-62.791
0
LINE
8
BLACK
6
CONTINUOUS
10
159.129
20
-62.791
11
159.26
21
-62.8786
0
LINE
8
BLACK
6
CONTINUOUS
10
159.26
20
-62.8786
11
159.371
21
-62.99
0
LINE
8
BLACK
6
CONTINUOUS
10
159.371
20
-62.99
11
159.459
21
-63.1211
0
LINE
8
BLACK
6
CONTINUOUS
10
159.459
20
-63.1211
11
159.519
21
-63.2666
0
LINE
8
BLACK
6
CONTINUOUS
10
159.519
20
-63.2666
11
159.55
21
-63.4212
0
LINE
8
BLACK
6
CONTINUOUS
10
159.55
20
-63.4212
11
159.55
21
-63.5788
0
LINE
8
BLACK
6
CONTINUOUS
10
159.55
20
-63.5788
11
159.519
21
-63.7334
0
LINE
8
BLACK
6
CONTINUOUS
10
159.519
20
-63.7334
11
159.459
21
-63.8789
0
LINE
8
BLACK
6
CONTINUOUS
10
159.459
20
-63.8789
11
159.371
21
-64.01
0
LINE
8
BLACK
6
CONTINUOUS
10
159.371
20
-64.01
11
159.26
21
-64.1214
0
LINE
8
BLACK
6
CONTINUOUS
10
159.26
20
-64.1214
11
159.129
21
-64.209
0
LINE
8
BLACK
6
CONTINUOUS
10
159.129
20
-64.209
11
158.983
21
-64.2693
0
LINE
8
BLACK
6
CONTINUOUS
10
158.983
20
-64.2693
11
158.829
21
-64.3
0
LINE
8
BLACK
6
CONTINUOUS
10
158.829
20
-64.3
11
158.671
21
-64.3
0
LINE
8
BLACK
6
CONTINUOUS
10
158.671
20
-64.3
11
158.517
21
-64.2693
0
LINE
8
BLACK
6
CONTINUOUS
10
158.517
20
-64.2693
11
158.371
21
-64.209
0
LINE
8
BLACK
6
CONTINUOUS
10
158.371
20
-64.209
11
158.24
21
-64.1214
0
LINE
8
BLACK
6
CONTINUOUS
10
158.24
20
-64.1214
11
158.129
21
-64.01
0
LINE
8
BLACK
6
CONTINUOUS
10
158.129
20
-64.01
11
158.041
21
-63.8789
0
LINE
8
BLACK
6
CONTINUOUS
10
158.041
20
-63.8789
11
157.981
21
-63.7334
0
LINE
8
BLACK
6
CONTINUOUS
10
157.981
20
-63.7334
11
157.95
21
-63.5788
0
LINE
8
BLACK
6
CONTINUOUS
10
157.95
20
-63.5788
11
157.95
21
-63.4212
0
LINE
8
BLACK
6
CONTINUOUS
10
157.95
20
-63.4212
11
157.981
21
-63.2666
0
LINE
8
BLACK
6
CONTINUOUS
10
157.981
20
-63.2666
11
158.041
21
-63.1211
0
LINE
8
BLACK
6
CONTINUOUS
10
158.041
20
-63.1211
11
158.129
21
-62.99
0
LINE
8
BLACK
6
CONTINUOUS
10
158.129
20
-62.99
11
158.24
21
-62.8786
0
LINE
8
BLACK
6
CONTINUOUS
10
158.24
20
-62.8786
11
158.371
21
-62.791
0
LINE
8
BLACK
6
CONTINUOUS
10
158.371
20
-62.791
11
158.517
21
-62.7307
0
LINE
8
BLACK
6
CONTINUOUS
10
158.517
20
-62.7307
11
158.671
21
-62.7
0
LINE
8
BLACK
6
CONTINUOUS
10
158.671
20
-62.7
11
158.829
21
-62.7
0
LINE
8
BLACK
6
CONTINUOUS
10
158.829
20
-62.7
11
158.983
21
-62.7307
0
CIRCLE
8
BLACK
10
154.94
20
-95.25
40
0.175
0
CIRCLE
8
BLACK
10
154.94
20
-107.95
40
0.175
0
CIRCLE
8
BLACK
10
162.56
20
-88.9
40
0.175
0
CIRCLE
8
BLACK
10
162.56
20
-93.98
40
0.175
0
CIRCLE
8
BLACK
10
138.43
20
-69.85
40
0.175
0
CIRCLE
8
BLACK
10
138.43
20
-72.39
40
0.175
0
CIRCLE
8
BLACK
10
138.43
20
-74.93
40
0.175
0
CIRCLE
8
BLACK
10
138.43
20
-77.47
40
0.175
0
CIRCLE
8
BLACK
10
143.51
20
-69.85
40
0.175
0
CIRCLE
8
BLACK
10
143.51
20
-72.39
40
0.175
0
CIRCLE
8
BLACK
10
143.51
20
-74.93
40
0.175
0
CIRCLE
8
BLACK
10
143.51
20
-77.47
40
0.175
0
CIRCLE
8
BLACK
10
151.13
20
-69.85
40
0.175
0
CIRCLE
8
BLACK
10
151.13
20
-72.39
40
0.175
0
CIRCLE
8
BLACK
10
151.13
20
-74.93
40
0.175
0
CIRCLE
8
BLACK
10
151.13
20
-77.47
40
0.175
0
CIRCLE
8
BLACK
10
156.21
20
-69.85
40
0.175
0
CIRCLE
8
BLACK
10
156.21
20
-72.39
40
0.175
0
CIRCLE
8
BLACK
10
156.21
20
-74.93
40
0.175
0
CIRCLE
8
BLACK
10
156.21
20
-77.47
40
0.175
0
CIRCLE
8
BLACK
10
148.59
20
-100.33
40
0.175
0
CIRCLE
8
BLACK
10
146.09
20
-100.33
40
0.175
0
CIRCLE
8
BLACK
10
138.43
20
-85.09
40
0.175
0
CIRCLE
8
BLACK
10
138.43
20
-90.09
40
0.175
0
CIRCLE
8
BLACK
10
158.75
20
-63.5
40
0.175
0
CIRCLE
8
BLACK
10
161.29
20
-63.5
40
0.175
0
CIRCLE
8
BLACK
10
121.67
20
-63.5
40
0.175
0
CIRCLE
8
BLACK
10
161.29
20
-111.76
40
0.175
0
CIRCLE
8
BLACK
10
124.21
20
-63.5
40
0.175
0
CIRCLE
8
BLACK
10
158.75
20
-111.76
40
0.175
0
CIRCLE
8
BLACK
10
126.75
20
-63.5
40
0.175
0
CIRCLE
8
BLACK
10
156.21
20
-111.76
40
0.175
0
CIRCLE
8
BLACK
10
129.29
20
-63.5
40
0.175
0
CIRCLE
8
BLACK
10
153.67
20
-111.76
40
0.175
0
CIRCLE
8
BLACK
10
131.83
20
-63.5
40
0.175
0
CIRCLE
8
BLACK
10
151.13
20
-111.76
40
0.175
0
CIRCLE
8
BLACK
10
134.37
20
-63.5
40
0.175
0
CIRCLE
8
BLACK
10
148.59
20
-111.76
40
0.175
0
CIRCLE
8
BLACK
10
136.91
20
-63.5
40
0.175
0
CIRCLE
8
BLACK
10
143.51
20
-111.76
40
0.175
0
CIRCLE
8
BLACK
10
139.45
20
-63.5
40
0.175
0
CIRCLE
8
BLACK
10
140.97
20
-111.76
40
0.175
0
CIRCLE
8
BLACK
10
143.51
20
-63.5
40
0.175
0
CIRCLE
8
BLACK
10
138.43
20
-111.76
40
0.175
0
CIRCLE
8
BLACK
10
146.05
20
-63.5
40
0.175
0
CIRCLE
8
BLACK
10
135.89
20
-111.76
40
0.175
0
CIRCLE
8
BLACK
10
148.59
20
-63.5
40
0.175
0
CIRCLE
8
BLACK
10
133.35
20
-111.76
40
0.175
0
CIRCLE
8
BLACK
10
151.13
20
-63.5
40
0.175
0
CIRCLE
8
BLACK
10
130.81
20
-111.76
40
0.175
0
CIRCLE
8
BLACK
10
153.67
20
-63.5
40
0.175
0
CIRCLE
8
BLACK
10
128.27
20
-111.76
40
0.175
0
CIRCLE
8
BLACK
10
156.21
20
-63.5
40
0.175
0
CIRCLE
8
BLACK
10
125.73
20
-111.76
40
0.175
0
CIRCLE
8
BLACK
10
119.13
20
-63.5
40
0.175
0
CIRCLE
8
BLACK
10
116.59
20
-63.5
40
0.175
0
CIRCLE
8
BLACK
10
153.67
20
-66.675
40
0.5
0
CIRCLE
8
BLACK
10
141.605
20
-66.675
40
0.5
  0
ENDSEC
  0
EOF
