  0
SECTION
  2
HEADER
  9
$ANGBASE
  50
0.0
  9
$ANGDIR
  70
1
  9
$MEASUREMENT
  70
1
  0
ENDSEC
  0
SECTION
  2
TABLES
  0
TABLE
  2
LTYPE
  70
4
  0
LTYPE
  5
40F
  2
CONTINUOUS
  70
0
  3
Solid line
  72
65
  73
0
  40
0.0
  0
LTYPE
  5
410
  2
DASHDOT
 70
0
  3
Dash Dot ____ _ ____ _
 72
65
 73
4
 40
2.0
 49
1.25
 49
-0.25
 49
0.25
 49
-0.25
  0
LTYPE
  5
411
  2
DASHED
 70
0
  3
Dashed __ __ __ __ __
 72
65
 73
2
 40
0.75
 49
0.5
 49
-0.25
  0
LTYPE
  5
43B
  2
DOTTED
 70
0
  3
Dotted .  .  .  .
 72
65
 73
2
 40
0.2
 49
0.0
 49
-0.2
  0
ENDTAB
  0
TABLE
  2
STYLE
  70
4
  0
STYLE
  2
KICAD
  70
0
  40
0
  41
1
  42
1
  50
0
  71
0
  3
isocp.shx
  0
STYLE
  2
KICADB
  70
0
  40
0
  41
1
  42
1
  50
0
  71
0
  3
isocp.shx
  0
STYLE
  2
KICADI
  70
0
  40
0
  41
1
  42
1
  50
15
  71
0
  3
isocp.shx
  0
STYLE
  2
KICADBI
  70
0
  40
0
  41
1
  42
1
  50
15
  71
0
  3
isocp.shx
  0
ENDTAB
  0
TABLE
  2
LAYER
  70
1
  0
LAYER
  2
BLACK
  70
0
  62
7
  6
CONTINUOUS
  0
ENDTAB
  0
ENDSEC
  0
SECTION
  2
ENTITIES
0
LINE
8
BLACK
6
CONTINUOUS
10
138.663
20
-110.991
11
138.809
21
-111.051
0
LINE
8
BLACK
6
CONTINUOUS
10
138.809
20
-111.051
11
138.94
21
-111.139
0
LINE
8
BLACK
6
CONTINUOUS
10
138.94
20
-111.139
11
139.051
21
-111.25
0
LINE
8
BLACK
6
CONTINUOUS
10
139.051
20
-111.25
11
139.139
21
-111.381
0
LINE
8
BLACK
6
CONTINUOUS
10
139.139
20
-111.381
11
139.199
21
-111.527
0
LINE
8
BLACK
6
CONTINUOUS
10
139.199
20
-111.527
11
139.23
21
-111.681
0
LINE
8
BLACK
6
CONTINUOUS
10
139.23
20
-111.681
11
139.23
21
-111.839
0
LINE
8
BLACK
6
CONTINUOUS
10
139.23
20
-111.839
11
139.199
21
-111.993
0
LINE
8
BLACK
6
CONTINUOUS
10
139.199
20
-111.993
11
139.139
21
-112.139
0
LINE
8
BLACK
6
CONTINUOUS
10
139.139
20
-112.139
11
139.051
21
-112.27
0
LINE
8
BLACK
6
CONTINUOUS
10
139.051
20
-112.27
11
138.94
21
-112.381
0
LINE
8
BLACK
6
CONTINUOUS
10
138.94
20
-112.381
11
138.809
21
-112.469
0
LINE
8
BLACK
6
CONTINUOUS
10
138.809
20
-112.469
11
138.663
21
-112.529
0
LINE
8
BLACK
6
CONTINUOUS
10
138.663
20
-112.529
11
138.509
21
-112.56
0
LINE
8
BLACK
6
CONTINUOUS
10
138.509
20
-112.56
11
138.351
21
-112.56
0
LINE
8
BLACK
6
CONTINUOUS
10
138.351
20
-112.56
11
138.197
21
-112.529
0
LINE
8
BLACK
6
CONTINUOUS
10
138.197
20
-112.529
11
138.051
21
-112.469
0
LINE
8
BLACK
6
CONTINUOUS
10
138.051
20
-112.469
11
137.92
21
-112.381
0
LINE
8
BLACK
6
CONTINUOUS
10
137.92
20
-112.381
11
137.809
21
-112.27
0
LINE
8
BLACK
6
CONTINUOUS
10
137.809
20
-112.27
11
137.721
21
-112.139
0
LINE
8
BLACK
6
CONTINUOUS
10
137.721
20
-112.139
11
137.661
21
-111.993
0
LINE
8
BLACK
6
CONTINUOUS
10
137.661
20
-111.993
11
137.63
21
-111.839
0
LINE
8
BLACK
6
CONTINUOUS
10
137.63
20
-111.839
11
137.63
21
-111.681
0
LINE
8
BLACK
6
CONTINUOUS
10
137.63
20
-111.681
11
137.661
21
-111.527
0
LINE
8
BLACK
6
CONTINUOUS
10
137.661
20
-111.527
11
137.721
21
-111.381
0
LINE
8
BLACK
6
CONTINUOUS
10
137.721
20
-111.381
11
137.809
21
-111.25
0
LINE
8
BLACK
6
CONTINUOUS
10
137.809
20
-111.25
11
137.92
21
-111.139
0
LINE
8
BLACK
6
CONTINUOUS
10
137.92
20
-111.139
11
138.051
21
-111.051
0
LINE
8
BLACK
6
CONTINUOUS
10
138.051
20
-111.051
11
138.197
21
-110.991
0
LINE
8
BLACK
6
CONTINUOUS
10
138.197
20
-110.991
11
138.351
21
-110.96
0
LINE
8
BLACK
6
CONTINUOUS
10
138.351
20
-110.96
11
138.509
21
-110.96
0
LINE
8
BLACK
6
CONTINUOUS
10
138.509
20
-110.96
11
138.663
21
-110.991
0
LINE
8
BLACK
6
CONTINUOUS
10
136.123
20
-110.991
11
136.269
21
-111.051
0
LINE
8
BLACK
6
CONTINUOUS
10
136.269
20
-111.051
11
136.4
21
-111.139
0
LINE
8
BLACK
6
CONTINUOUS
10
136.4
20
-111.139
11
136.511
21
-111.25
0
LINE
8
BLACK
6
CONTINUOUS
10
136.511
20
-111.25
11
136.599
21
-111.381
0
LINE
8
BLACK
6
CONTINUOUS
10
136.599
20
-111.381
11
136.659
21
-111.527
0
LINE
8
BLACK
6
CONTINUOUS
10
136.659
20
-111.527
11
136.69
21
-111.681
0
LINE
8
BLACK
6
CONTINUOUS
10
136.69
20
-111.681
11
136.69
21
-111.839
0
LINE
8
BLACK
6
CONTINUOUS
10
136.69
20
-111.839
11
136.659
21
-111.993
0
LINE
8
BLACK
6
CONTINUOUS
10
136.659
20
-111.993
11
136.599
21
-112.139
0
LINE
8
BLACK
6
CONTINUOUS
10
136.599
20
-112.139
11
136.511
21
-112.27
0
LINE
8
BLACK
6
CONTINUOUS
10
136.511
20
-112.27
11
136.4
21
-112.381
0
LINE
8
BLACK
6
CONTINUOUS
10
136.4
20
-112.381
11
136.269
21
-112.469
0
LINE
8
BLACK
6
CONTINUOUS
10
136.269
20
-112.469
11
136.123
21
-112.529
0
LINE
8
BLACK
6
CONTINUOUS
10
136.123
20
-112.529
11
135.969
21
-112.56
0
LINE
8
BLACK
6
CONTINUOUS
10
135.969
20
-112.56
11
135.811
21
-112.56
0
LINE
8
BLACK
6
CONTINUOUS
10
135.811
20
-112.56
11
135.657
21
-112.529
0
LINE
8
BLACK
6
CONTINUOUS
10
135.657
20
-112.529
11
135.511
21
-112.469
0
LINE
8
BLACK
6
CONTINUOUS
10
135.511
20
-112.469
11
135.38
21
-112.381
0
LINE
8
BLACK
6
CONTINUOUS
10
135.38
20
-112.381
11
135.269
21
-112.27
0
LINE
8
BLACK
6
CONTINUOUS
10
135.269
20
-112.27
11
135.181
21
-112.139
0
LINE
8
BLACK
6
CONTINUOUS
10
135.181
20
-112.139
11
135.121
21
-111.993
0
LINE
8
BLACK
6
CONTINUOUS
10
135.121
20
-111.993
11
135.09
21
-111.839
0
LINE
8
BLACK
6
CONTINUOUS
10
135.09
20
-111.839
11
135.09
21
-111.681
0
LINE
8
BLACK
6
CONTINUOUS
10
135.09
20
-111.681
11
135.121
21
-111.527
0
LINE
8
BLACK
6
CONTINUOUS
10
135.121
20
-111.527
11
135.181
21
-111.381
0
LINE
8
BLACK
6
CONTINUOUS
10
135.181
20
-111.381
11
135.269
21
-111.25
0
LINE
8
BLACK
6
CONTINUOUS
10
135.269
20
-111.25
11
135.38
21
-111.139
0
LINE
8
BLACK
6
CONTINUOUS
10
135.38
20
-111.139
11
135.511
21
-111.051
0
LINE
8
BLACK
6
CONTINUOUS
10
135.511
20
-111.051
11
135.657
21
-110.991
0
LINE
8
BLACK
6
CONTINUOUS
10
135.657
20
-110.991
11
135.811
21
-110.96
0
LINE
8
BLACK
6
CONTINUOUS
10
135.811
20
-110.96
11
135.969
21
-110.96
0
LINE
8
BLACK
6
CONTINUOUS
10
135.969
20
-110.96
11
136.123
21
-110.991
0
LINE
8
BLACK
6
CONTINUOUS
10
141.203
20
-110.991
11
141.349
21
-111.051
0
LINE
8
BLACK
6
CONTINUOUS
10
141.349
20
-111.051
11
141.48
21
-111.139
0
LINE
8
BLACK
6
CONTINUOUS
10
141.48
20
-111.139
11
141.591
21
-111.25
0
LINE
8
BLACK
6
CONTINUOUS
10
141.591
20
-111.25
11
141.679
21
-111.381
0
LINE
8
BLACK
6
CONTINUOUS
10
141.679
20
-111.381
11
141.739
21
-111.527
0
LINE
8
BLACK
6
CONTINUOUS
10
141.739
20
-111.527
11
141.77
21
-111.681
0
LINE
8
BLACK
6
CONTINUOUS
10
141.77
20
-111.681
11
141.77
21
-111.839
0
LINE
8
BLACK
6
CONTINUOUS
10
141.77
20
-111.839
11
141.739
21
-111.993
0
LINE
8
BLACK
6
CONTINUOUS
10
141.739
20
-111.993
11
141.679
21
-112.139
0
LINE
8
BLACK
6
CONTINUOUS
10
141.679
20
-112.139
11
141.591
21
-112.27
0
LINE
8
BLACK
6
CONTINUOUS
10
141.591
20
-112.27
11
141.48
21
-112.381
0
LINE
8
BLACK
6
CONTINUOUS
10
141.48
20
-112.381
11
141.349
21
-112.469
0
LINE
8
BLACK
6
CONTINUOUS
10
141.349
20
-112.469
11
141.203
21
-112.529
0
LINE
8
BLACK
6
CONTINUOUS
10
141.203
20
-112.529
11
141.049
21
-112.56
0
LINE
8
BLACK
6
CONTINUOUS
10
141.049
20
-112.56
11
140.891
21
-112.56
0
LINE
8
BLACK
6
CONTINUOUS
10
140.891
20
-112.56
11
140.737
21
-112.529
0
LINE
8
BLACK
6
CONTINUOUS
10
140.737
20
-112.529
11
140.591
21
-112.469
0
LINE
8
BLACK
6
CONTINUOUS
10
140.591
20
-112.469
11
140.46
21
-112.381
0
LINE
8
BLACK
6
CONTINUOUS
10
140.46
20
-112.381
11
140.349
21
-112.27
0
LINE
8
BLACK
6
CONTINUOUS
10
140.349
20
-112.27
11
140.261
21
-112.139
0
LINE
8
BLACK
6
CONTINUOUS
10
140.261
20
-112.139
11
140.201
21
-111.993
0
LINE
8
BLACK
6
CONTINUOUS
10
140.201
20
-111.993
11
140.17
21
-111.839
0
LINE
8
BLACK
6
CONTINUOUS
10
140.17
20
-111.839
11
140.17
21
-111.681
0
LINE
8
BLACK
6
CONTINUOUS
10
140.17
20
-111.681
11
140.201
21
-111.527
0
LINE
8
BLACK
6
CONTINUOUS
10
140.201
20
-111.527
11
140.261
21
-111.381
0
LINE
8
BLACK
6
CONTINUOUS
10
140.261
20
-111.381
11
140.349
21
-111.25
0
LINE
8
BLACK
6
CONTINUOUS
10
140.349
20
-111.25
11
140.46
21
-111.139
0
LINE
8
BLACK
6
CONTINUOUS
10
140.46
20
-111.139
11
140.591
21
-111.051
0
LINE
8
BLACK
6
CONTINUOUS
10
140.591
20
-111.051
11
140.737
21
-110.991
0
LINE
8
BLACK
6
CONTINUOUS
10
140.737
20
-110.991
11
140.891
21
-110.96
0
LINE
8
BLACK
6
CONTINUOUS
10
140.891
20
-110.96
11
141.049
21
-110.96
0
LINE
8
BLACK
6
CONTINUOUS
10
141.049
20
-110.96
11
141.203
21
-110.991
0
LINE
8
BLACK
6
CONTINUOUS
10
143.743
20
-110.991
11
143.889
21
-111.051
0
LINE
8
BLACK
6
CONTINUOUS
10
143.889
20
-111.051
11
144.02
21
-111.139
0
LINE
8
BLACK
6
CONTINUOUS
10
144.02
20
-111.139
11
144.131
21
-111.25
0
LINE
8
BLACK
6
CONTINUOUS
10
144.131
20
-111.25
11
144.219
21
-111.381
0
LINE
8
BLACK
6
CONTINUOUS
10
144.219
20
-111.381
11
144.279
21
-111.527
0
LINE
8
BLACK
6
CONTINUOUS
10
144.279
20
-111.527
11
144.31
21
-111.681
0
LINE
8
BLACK
6
CONTINUOUS
10
144.31
20
-111.681
11
144.31
21
-111.839
0
LINE
8
BLACK
6
CONTINUOUS
10
144.31
20
-111.839
11
144.279
21
-111.993
0
LINE
8
BLACK
6
CONTINUOUS
10
144.279
20
-111.993
11
144.219
21
-112.139
0
LINE
8
BLACK
6
CONTINUOUS
10
144.219
20
-112.139
11
144.131
21
-112.27
0
LINE
8
BLACK
6
CONTINUOUS
10
144.131
20
-112.27
11
144.02
21
-112.381
0
LINE
8
BLACK
6
CONTINUOUS
10
144.02
20
-112.381
11
143.889
21
-112.469
0
LINE
8
BLACK
6
CONTINUOUS
10
143.889
20
-112.469
11
143.743
21
-112.529
0
LINE
8
BLACK
6
CONTINUOUS
10
143.743
20
-112.529
11
143.589
21
-112.56
0
LINE
8
BLACK
6
CONTINUOUS
10
143.589
20
-112.56
11
143.431
21
-112.56
0
LINE
8
BLACK
6
CONTINUOUS
10
143.431
20
-112.56
11
143.277
21
-112.529
0
LINE
8
BLACK
6
CONTINUOUS
10
143.277
20
-112.529
11
143.131
21
-112.469
0
LINE
8
BLACK
6
CONTINUOUS
10
143.131
20
-112.469
11
143
21
-112.381
0
LINE
8
BLACK
6
CONTINUOUS
10
143
20
-112.381
11
142.889
21
-112.27
0
LINE
8
BLACK
6
CONTINUOUS
10
142.889
20
-112.27
11
142.801
21
-112.139
0
LINE
8
BLACK
6
CONTINUOUS
10
142.801
20
-112.139
11
142.741
21
-111.993
0
LINE
8
BLACK
6
CONTINUOUS
10
142.741
20
-111.993
11
142.71
21
-111.839
0
LINE
8
BLACK
6
CONTINUOUS
10
142.71
20
-111.839
11
142.71
21
-111.681
0
LINE
8
BLACK
6
CONTINUOUS
10
142.71
20
-111.681
11
142.741
21
-111.527
0
LINE
8
BLACK
6
CONTINUOUS
10
142.741
20
-111.527
11
142.801
21
-111.381
0
LINE
8
BLACK
6
CONTINUOUS
10
142.801
20
-111.381
11
142.889
21
-111.25
0
LINE
8
BLACK
6
CONTINUOUS
10
142.889
20
-111.25
11
143
21
-111.139
0
LINE
8
BLACK
6
CONTINUOUS
10
143
20
-111.139
11
143.131
21
-111.051
0
LINE
8
BLACK
6
CONTINUOUS
10
143.131
20
-111.051
11
143.277
21
-110.991
0
LINE
8
BLACK
6
CONTINUOUS
10
143.277
20
-110.991
11
143.431
21
-110.96
0
LINE
8
BLACK
6
CONTINUOUS
10
143.431
20
-110.96
11
143.589
21
-110.96
0
LINE
8
BLACK
6
CONTINUOUS
10
143.589
20
-110.96
11
143.743
21
-110.991
0
LINE
8
BLACK
6
CONTINUOUS
10
133.583
20
-110.991
11
133.729
21
-111.051
0
LINE
8
BLACK
6
CONTINUOUS
10
133.729
20
-111.051
11
133.86
21
-111.139
0
LINE
8
BLACK
6
CONTINUOUS
10
133.86
20
-111.139
11
133.971
21
-111.25
0
LINE
8
BLACK
6
CONTINUOUS
10
133.971
20
-111.25
11
134.059
21
-111.381
0
LINE
8
BLACK
6
CONTINUOUS
10
134.059
20
-111.381
11
134.119
21
-111.527
0
LINE
8
BLACK
6
CONTINUOUS
10
134.119
20
-111.527
11
134.15
21
-111.681
0
LINE
8
BLACK
6
CONTINUOUS
10
134.15
20
-111.681
11
134.15
21
-111.839
0
LINE
8
BLACK
6
CONTINUOUS
10
134.15
20
-111.839
11
134.119
21
-111.993
0
LINE
8
BLACK
6
CONTINUOUS
10
134.119
20
-111.993
11
134.059
21
-112.139
0
LINE
8
BLACK
6
CONTINUOUS
10
134.059
20
-112.139
11
133.971
21
-112.27
0
LINE
8
BLACK
6
CONTINUOUS
10
133.971
20
-112.27
11
133.86
21
-112.381
0
LINE
8
BLACK
6
CONTINUOUS
10
133.86
20
-112.381
11
133.729
21
-112.469
0
LINE
8
BLACK
6
CONTINUOUS
10
133.729
20
-112.469
11
133.583
21
-112.529
0
LINE
8
BLACK
6
CONTINUOUS
10
133.583
20
-112.529
11
133.429
21
-112.56
0
LINE
8
BLACK
6
CONTINUOUS
10
133.429
20
-112.56
11
133.271
21
-112.56
0
LINE
8
BLACK
6
CONTINUOUS
10
133.271
20
-112.56
11
133.117
21
-112.529
0
LINE
8
BLACK
6
CONTINUOUS
10
133.117
20
-112.529
11
132.971
21
-112.469
0
LINE
8
BLACK
6
CONTINUOUS
10
132.971
20
-112.469
11
132.84
21
-112.381
0
LINE
8
BLACK
6
CONTINUOUS
10
132.84
20
-112.381
11
132.729
21
-112.27
0
LINE
8
BLACK
6
CONTINUOUS
10
132.729
20
-112.27
11
132.641
21
-112.139
0
LINE
8
BLACK
6
CONTINUOUS
10
132.641
20
-112.139
11
132.581
21
-111.993
0
LINE
8
BLACK
6
CONTINUOUS
10
132.581
20
-111.993
11
132.55
21
-111.839
0
LINE
8
BLACK
6
CONTINUOUS
10
132.55
20
-111.839
11
132.55
21
-111.681
0
LINE
8
BLACK
6
CONTINUOUS
10
132.55
20
-111.681
11
132.581
21
-111.527
0
LINE
8
BLACK
6
CONTINUOUS
10
132.581
20
-111.527
11
132.641
21
-111.381
0
LINE
8
BLACK
6
CONTINUOUS
10
132.641
20
-111.381
11
132.729
21
-111.25
0
LINE
8
BLACK
6
CONTINUOUS
10
132.729
20
-111.25
11
132.84
21
-111.139
0
LINE
8
BLACK
6
CONTINUOUS
10
132.84
20
-111.139
11
132.971
21
-111.051
0
LINE
8
BLACK
6
CONTINUOUS
10
132.971
20
-111.051
11
133.117
21
-110.991
0
LINE
8
BLACK
6
CONTINUOUS
10
133.117
20
-110.991
11
133.271
21
-110.96
0
LINE
8
BLACK
6
CONTINUOUS
10
133.271
20
-110.96
11
133.429
21
-110.96
0
LINE
8
BLACK
6
CONTINUOUS
10
133.429
20
-110.96
11
133.583
21
-110.991
0
LINE
8
BLACK
6
CONTINUOUS
10
148.823
20
-110.991
11
148.969
21
-111.051
0
LINE
8
BLACK
6
CONTINUOUS
10
148.969
20
-111.051
11
149.1
21
-111.139
0
LINE
8
BLACK
6
CONTINUOUS
10
149.1
20
-111.139
11
149.211
21
-111.25
0
LINE
8
BLACK
6
CONTINUOUS
10
149.211
20
-111.25
11
149.299
21
-111.381
0
LINE
8
BLACK
6
CONTINUOUS
10
149.299
20
-111.381
11
149.359
21
-111.527
0
LINE
8
BLACK
6
CONTINUOUS
10
149.359
20
-111.527
11
149.39
21
-111.681
0
LINE
8
BLACK
6
CONTINUOUS
10
149.39
20
-111.681
11
149.39
21
-111.839
0
LINE
8
BLACK
6
CONTINUOUS
10
149.39
20
-111.839
11
149.359
21
-111.993
0
LINE
8
BLACK
6
CONTINUOUS
10
149.359
20
-111.993
11
149.299
21
-112.139
0
LINE
8
BLACK
6
CONTINUOUS
10
149.299
20
-112.139
11
149.211
21
-112.27
0
LINE
8
BLACK
6
CONTINUOUS
10
149.211
20
-112.27
11
149.1
21
-112.381
0
LINE
8
BLACK
6
CONTINUOUS
10
149.1
20
-112.381
11
148.969
21
-112.469
0
LINE
8
BLACK
6
CONTINUOUS
10
148.969
20
-112.469
11
148.823
21
-112.529
0
LINE
8
BLACK
6
CONTINUOUS
10
148.823
20
-112.529
11
148.669
21
-112.56
0
LINE
8
BLACK
6
CONTINUOUS
10
148.669
20
-112.56
11
148.511
21
-112.56
0
LINE
8
BLACK
6
CONTINUOUS
10
148.511
20
-112.56
11
148.357
21
-112.529
0
LINE
8
BLACK
6
CONTINUOUS
10
148.357
20
-112.529
11
148.211
21
-112.469
0
LINE
8
BLACK
6
CONTINUOUS
10
148.211
20
-112.469
11
148.08
21
-112.381
0
LINE
8
BLACK
6
CONTINUOUS
10
148.08
20
-112.381
11
147.969
21
-112.27
0
LINE
8
BLACK
6
CONTINUOUS
10
147.969
20
-112.27
11
147.881
21
-112.139
0
LINE
8
BLACK
6
CONTINUOUS
10
147.881
20
-112.139
11
147.821
21
-111.993
0
LINE
8
BLACK
6
CONTINUOUS
10
147.821
20
-111.993
11
147.79
21
-111.839
0
LINE
8
BLACK
6
CONTINUOUS
10
147.79
20
-111.839
11
147.79
21
-111.681
0
LINE
8
BLACK
6
CONTINUOUS
10
147.79
20
-111.681
11
147.821
21
-111.527
0
LINE
8
BLACK
6
CONTINUOUS
10
147.821
20
-111.527
11
147.881
21
-111.381
0
LINE
8
BLACK
6
CONTINUOUS
10
147.881
20
-111.381
11
147.969
21
-111.25
0
LINE
8
BLACK
6
CONTINUOUS
10
147.969
20
-111.25
11
148.08
21
-111.139
0
LINE
8
BLACK
6
CONTINUOUS
10
148.08
20
-111.139
11
148.211
21
-111.051
0
LINE
8
BLACK
6
CONTINUOUS
10
148.211
20
-111.051
11
148.357
21
-110.991
0
LINE
8
BLACK
6
CONTINUOUS
10
148.357
20
-110.991
11
148.511
21
-110.96
0
LINE
8
BLACK
6
CONTINUOUS
10
148.511
20
-110.96
11
148.669
21
-110.96
0
LINE
8
BLACK
6
CONTINUOUS
10
148.669
20
-110.96
11
148.823
21
-110.991
0
LINE
8
BLACK
6
CONTINUOUS
10
151.363
20
-110.991
11
151.509
21
-111.051
0
LINE
8
BLACK
6
CONTINUOUS
10
151.509
20
-111.051
11
151.64
21
-111.139
0
LINE
8
BLACK
6
CONTINUOUS
10
151.64
20
-111.139
11
151.751
21
-111.25
0
LINE
8
BLACK
6
CONTINUOUS
10
151.751
20
-111.25
11
151.839
21
-111.381
0
LINE
8
BLACK
6
CONTINUOUS
10
151.839
20
-111.381
11
151.899
21
-111.527
0
LINE
8
BLACK
6
CONTINUOUS
10
151.899
20
-111.527
11
151.93
21
-111.681
0
LINE
8
BLACK
6
CONTINUOUS
10
151.93
20
-111.681
11
151.93
21
-111.839
0
LINE
8
BLACK
6
CONTINUOUS
10
151.93
20
-111.839
11
151.899
21
-111.993
0
LINE
8
BLACK
6
CONTINUOUS
10
151.899
20
-111.993
11
151.839
21
-112.139
0
LINE
8
BLACK
6
CONTINUOUS
10
151.839
20
-112.139
11
151.751
21
-112.27
0
LINE
8
BLACK
6
CONTINUOUS
10
151.751
20
-112.27
11
151.64
21
-112.381
0
LINE
8
BLACK
6
CONTINUOUS
10
151.64
20
-112.381
11
151.509
21
-112.469
0
LINE
8
BLACK
6
CONTINUOUS
10
151.509
20
-112.469
11
151.363
21
-112.529
0
LINE
8
BLACK
6
CONTINUOUS
10
151.363
20
-112.529
11
151.209
21
-112.56
0
LINE
8
BLACK
6
CONTINUOUS
10
151.209
20
-112.56
11
151.051
21
-112.56
0
LINE
8
BLACK
6
CONTINUOUS
10
151.051
20
-112.56
11
150.897
21
-112.529
0
LINE
8
BLACK
6
CONTINUOUS
10
150.897
20
-112.529
11
150.751
21
-112.469
0
LINE
8
BLACK
6
CONTINUOUS
10
150.751
20
-112.469
11
150.62
21
-112.381
0
LINE
8
BLACK
6
CONTINUOUS
10
150.62
20
-112.381
11
150.509
21
-112.27
0
LINE
8
BLACK
6
CONTINUOUS
10
150.509
20
-112.27
11
150.421
21
-112.139
0
LINE
8
BLACK
6
CONTINUOUS
10
150.421
20
-112.139
11
150.361
21
-111.993
0
LINE
8
BLACK
6
CONTINUOUS
10
150.361
20
-111.993
11
150.33
21
-111.839
0
LINE
8
BLACK
6
CONTINUOUS
10
150.33
20
-111.839
11
150.33
21
-111.681
0
LINE
8
BLACK
6
CONTINUOUS
10
150.33
20
-111.681
11
150.361
21
-111.527
0
LINE
8
BLACK
6
CONTINUOUS
10
150.361
20
-111.527
11
150.421
21
-111.381
0
LINE
8
BLACK
6
CONTINUOUS
10
150.421
20
-111.381
11
150.509
21
-111.25
0
LINE
8
BLACK
6
CONTINUOUS
10
150.509
20
-111.25
11
150.62
21
-111.139
0
LINE
8
BLACK
6
CONTINUOUS
10
150.62
20
-111.139
11
150.751
21
-111.051
0
LINE
8
BLACK
6
CONTINUOUS
10
150.751
20
-111.051
11
150.897
21
-110.991
0
LINE
8
BLACK
6
CONTINUOUS
10
150.897
20
-110.991
11
151.051
21
-110.96
0
LINE
8
BLACK
6
CONTINUOUS
10
151.051
20
-110.96
11
151.209
21
-110.96
0
LINE
8
BLACK
6
CONTINUOUS
10
151.209
20
-110.96
11
151.363
21
-110.991
0
LINE
8
BLACK
6
CONTINUOUS
10
131.043
20
-110.991
11
131.189
21
-111.051
0
LINE
8
BLACK
6
CONTINUOUS
10
131.189
20
-111.051
11
131.32
21
-111.139
0
LINE
8
BLACK
6
CONTINUOUS
10
131.32
20
-111.139
11
131.431
21
-111.25
0
LINE
8
BLACK
6
CONTINUOUS
10
131.431
20
-111.25
11
131.519
21
-111.381
0
LINE
8
BLACK
6
CONTINUOUS
10
131.519
20
-111.381
11
131.579
21
-111.527
0
LINE
8
BLACK
6
CONTINUOUS
10
131.579
20
-111.527
11
131.61
21
-111.681
0
LINE
8
BLACK
6
CONTINUOUS
10
131.61
20
-111.681
11
131.61
21
-111.839
0
LINE
8
BLACK
6
CONTINUOUS
10
131.61
20
-111.839
11
131.579
21
-111.993
0
LINE
8
BLACK
6
CONTINUOUS
10
131.579
20
-111.993
11
131.519
21
-112.139
0
LINE
8
BLACK
6
CONTINUOUS
10
131.519
20
-112.139
11
131.431
21
-112.27
0
LINE
8
BLACK
6
CONTINUOUS
10
131.431
20
-112.27
11
131.32
21
-112.381
0
LINE
8
BLACK
6
CONTINUOUS
10
131.32
20
-112.381
11
131.189
21
-112.469
0
LINE
8
BLACK
6
CONTINUOUS
10
131.189
20
-112.469
11
131.043
21
-112.529
0
LINE
8
BLACK
6
CONTINUOUS
10
131.043
20
-112.529
11
130.889
21
-112.56
0
LINE
8
BLACK
6
CONTINUOUS
10
130.889
20
-112.56
11
130.731
21
-112.56
0
LINE
8
BLACK
6
CONTINUOUS
10
130.731
20
-112.56
11
130.577
21
-112.529
0
LINE
8
BLACK
6
CONTINUOUS
10
130.577
20
-112.529
11
130.431
21
-112.469
0
LINE
8
BLACK
6
CONTINUOUS
10
130.431
20
-112.469
11
130.3
21
-112.381
0
LINE
8
BLACK
6
CONTINUOUS
10
130.3
20
-112.381
11
130.189
21
-112.27
0
LINE
8
BLACK
6
CONTINUOUS
10
130.189
20
-112.27
11
130.101
21
-112.139
0
LINE
8
BLACK
6
CONTINUOUS
10
130.101
20
-112.139
11
130.041
21
-111.993
0
LINE
8
BLACK
6
CONTINUOUS
10
130.041
20
-111.993
11
130.01
21
-111.839
0
LINE
8
BLACK
6
CONTINUOUS
10
130.01
20
-111.839
11
130.01
21
-111.681
0
LINE
8
BLACK
6
CONTINUOUS
10
130.01
20
-111.681
11
130.041
21
-111.527
0
LINE
8
BLACK
6
CONTINUOUS
10
130.041
20
-111.527
11
130.101
21
-111.381
0
LINE
8
BLACK
6
CONTINUOUS
10
130.101
20
-111.381
11
130.189
21
-111.25
0
LINE
8
BLACK
6
CONTINUOUS
10
130.189
20
-111.25
11
130.3
21
-111.139
0
LINE
8
BLACK
6
CONTINUOUS
10
130.3
20
-111.139
11
130.431
21
-111.051
0
LINE
8
BLACK
6
CONTINUOUS
10
130.431
20
-111.051
11
130.577
21
-110.991
0
LINE
8
BLACK
6
CONTINUOUS
10
130.577
20
-110.991
11
130.731
21
-110.96
0
LINE
8
BLACK
6
CONTINUOUS
10
130.731
20
-110.96
11
130.889
21
-110.96
0
LINE
8
BLACK
6
CONTINUOUS
10
130.889
20
-110.96
11
131.043
21
-110.991
0
LINE
8
BLACK
6
CONTINUOUS
10
153.903
20
-110.991
11
154.049
21
-111.051
0
LINE
8
BLACK
6
CONTINUOUS
10
154.049
20
-111.051
11
154.18
21
-111.139
0
LINE
8
BLACK
6
CONTINUOUS
10
154.18
20
-111.139
11
154.291
21
-111.25
0
LINE
8
BLACK
6
CONTINUOUS
10
154.291
20
-111.25
11
154.379
21
-111.381
0
LINE
8
BLACK
6
CONTINUOUS
10
154.379
20
-111.381
11
154.439
21
-111.527
0
LINE
8
BLACK
6
CONTINUOUS
10
154.439
20
-111.527
11
154.47
21
-111.681
0
LINE
8
BLACK
6
CONTINUOUS
10
154.47
20
-111.681
11
154.47
21
-111.839
0
LINE
8
BLACK
6
CONTINUOUS
10
154.47
20
-111.839
11
154.439
21
-111.993
0
LINE
8
BLACK
6
CONTINUOUS
10
154.439
20
-111.993
11
154.379
21
-112.139
0
LINE
8
BLACK
6
CONTINUOUS
10
154.379
20
-112.139
11
154.291
21
-112.27
0
LINE
8
BLACK
6
CONTINUOUS
10
154.291
20
-112.27
11
154.18
21
-112.381
0
LINE
8
BLACK
6
CONTINUOUS
10
154.18
20
-112.381
11
154.049
21
-112.469
0
LINE
8
BLACK
6
CONTINUOUS
10
154.049
20
-112.469
11
153.903
21
-112.529
0
LINE
8
BLACK
6
CONTINUOUS
10
153.903
20
-112.529
11
153.749
21
-112.56
0
LINE
8
BLACK
6
CONTINUOUS
10
153.749
20
-112.56
11
153.591
21
-112.56
0
LINE
8
BLACK
6
CONTINUOUS
10
153.591
20
-112.56
11
153.437
21
-112.529
0
LINE
8
BLACK
6
CONTINUOUS
10
153.437
20
-112.529
11
153.291
21
-112.469
0
LINE
8
BLACK
6
CONTINUOUS
10
153.291
20
-112.469
11
153.16
21
-112.381
0
LINE
8
BLACK
6
CONTINUOUS
10
153.16
20
-112.381
11
153.049
21
-112.27
0
LINE
8
BLACK
6
CONTINUOUS
10
153.049
20
-112.27
11
152.961
21
-112.139
0
LINE
8
BLACK
6
CONTINUOUS
10
152.961
20
-112.139
11
152.901
21
-111.993
0
LINE
8
BLACK
6
CONTINUOUS
10
152.901
20
-111.993
11
152.87
21
-111.839
0
LINE
8
BLACK
6
CONTINUOUS
10
152.87
20
-111.839
11
152.87
21
-111.681
0
LINE
8
BLACK
6
CONTINUOUS
10
152.87
20
-111.681
11
152.901
21
-111.527
0
LINE
8
BLACK
6
CONTINUOUS
10
152.901
20
-111.527
11
152.961
21
-111.381
0
LINE
8
BLACK
6
CONTINUOUS
10
152.961
20
-111.381
11
153.049
21
-111.25
0
LINE
8
BLACK
6
CONTINUOUS
10
153.049
20
-111.25
11
153.16
21
-111.139
0
LINE
8
BLACK
6
CONTINUOUS
10
153.16
20
-111.139
11
153.291
21
-111.051
0
LINE
8
BLACK
6
CONTINUOUS
10
153.291
20
-111.051
11
153.437
21
-110.991
0
LINE
8
BLACK
6
CONTINUOUS
10
153.437
20
-110.991
11
153.591
21
-110.96
0
LINE
8
BLACK
6
CONTINUOUS
10
153.591
20
-110.96
11
153.749
21
-110.96
0
LINE
8
BLACK
6
CONTINUOUS
10
153.749
20
-110.96
11
153.903
21
-110.991
0
LINE
8
BLACK
6
CONTINUOUS
10
156.443
20
-110.991
11
156.589
21
-111.051
0
LINE
8
BLACK
6
CONTINUOUS
10
156.589
20
-111.051
11
156.72
21
-111.139
0
LINE
8
BLACK
6
CONTINUOUS
10
156.72
20
-111.139
11
156.831
21
-111.25
0
LINE
8
BLACK
6
CONTINUOUS
10
156.831
20
-111.25
11
156.919
21
-111.381
0
LINE
8
BLACK
6
CONTINUOUS
10
156.919
20
-111.381
11
156.979
21
-111.527
0
LINE
8
BLACK
6
CONTINUOUS
10
156.979
20
-111.527
11
157.01
21
-111.681
0
LINE
8
BLACK
6
CONTINUOUS
10
157.01
20
-111.681
11
157.01
21
-111.839
0
LINE
8
BLACK
6
CONTINUOUS
10
157.01
20
-111.839
11
156.979
21
-111.993
0
LINE
8
BLACK
6
CONTINUOUS
10
156.979
20
-111.993
11
156.919
21
-112.139
0
LINE
8
BLACK
6
CONTINUOUS
10
156.919
20
-112.139
11
156.831
21
-112.27
0
LINE
8
BLACK
6
CONTINUOUS
10
156.831
20
-112.27
11
156.72
21
-112.381
0
LINE
8
BLACK
6
CONTINUOUS
10
156.72
20
-112.381
11
156.589
21
-112.469
0
LINE
8
BLACK
6
CONTINUOUS
10
156.589
20
-112.469
11
156.443
21
-112.529
0
LINE
8
BLACK
6
CONTINUOUS
10
156.443
20
-112.529
11
156.289
21
-112.56
0
LINE
8
BLACK
6
CONTINUOUS
10
156.289
20
-112.56
11
156.131
21
-112.56
0
LINE
8
BLACK
6
CONTINUOUS
10
156.131
20
-112.56
11
155.977
21
-112.529
0
LINE
8
BLACK
6
CONTINUOUS
10
155.977
20
-112.529
11
155.831
21
-112.469
0
LINE
8
BLACK
6
CONTINUOUS
10
155.831
20
-112.469
11
155.7
21
-112.381
0
LINE
8
BLACK
6
CONTINUOUS
10
155.7
20
-112.381
11
155.589
21
-112.27
0
LINE
8
BLACK
6
CONTINUOUS
10
155.589
20
-112.27
11
155.501
21
-112.139
0
LINE
8
BLACK
6
CONTINUOUS
10
155.501
20
-112.139
11
155.441
21
-111.993
0
LINE
8
BLACK
6
CONTINUOUS
10
155.441
20
-111.993
11
155.41
21
-111.839
0
LINE
8
BLACK
6
CONTINUOUS
10
155.41
20
-111.839
11
155.41
21
-111.681
0
LINE
8
BLACK
6
CONTINUOUS
10
155.41
20
-111.681
11
155.441
21
-111.527
0
LINE
8
BLACK
6
CONTINUOUS
10
155.441
20
-111.527
11
155.501
21
-111.381
0
LINE
8
BLACK
6
CONTINUOUS
10
155.501
20
-111.381
11
155.589
21
-111.25
0
LINE
8
BLACK
6
CONTINUOUS
10
155.589
20
-111.25
11
155.7
21
-111.139
0
LINE
8
BLACK
6
CONTINUOUS
10
155.7
20
-111.139
11
155.831
21
-111.051
0
LINE
8
BLACK
6
CONTINUOUS
10
155.831
20
-111.051
11
155.977
21
-110.991
0
LINE
8
BLACK
6
CONTINUOUS
10
155.977
20
-110.991
11
156.131
21
-110.96
0
LINE
8
BLACK
6
CONTINUOUS
10
156.131
20
-110.96
11
156.289
21
-110.96
0
LINE
8
BLACK
6
CONTINUOUS
10
156.289
20
-110.96
11
156.443
21
-110.991
0
LINE
8
BLACK
6
CONTINUOUS
10
128.503
20
-110.991
11
128.649
21
-111.051
0
LINE
8
BLACK
6
CONTINUOUS
10
128.649
20
-111.051
11
128.78
21
-111.139
0
LINE
8
BLACK
6
CONTINUOUS
10
128.78
20
-111.139
11
128.891
21
-111.25
0
LINE
8
BLACK
6
CONTINUOUS
10
128.891
20
-111.25
11
128.979
21
-111.381
0
LINE
8
BLACK
6
CONTINUOUS
10
128.979
20
-111.381
11
129.039
21
-111.527
0
LINE
8
BLACK
6
CONTINUOUS
10
129.039
20
-111.527
11
129.07
21
-111.681
0
LINE
8
BLACK
6
CONTINUOUS
10
129.07
20
-111.681
11
129.07
21
-111.839
0
LINE
8
BLACK
6
CONTINUOUS
10
129.07
20
-111.839
11
129.039
21
-111.993
0
LINE
8
BLACK
6
CONTINUOUS
10
129.039
20
-111.993
11
128.979
21
-112.139
0
LINE
8
BLACK
6
CONTINUOUS
10
128.979
20
-112.139
11
128.891
21
-112.27
0
LINE
8
BLACK
6
CONTINUOUS
10
128.891
20
-112.27
11
128.78
21
-112.381
0
LINE
8
BLACK
6
CONTINUOUS
10
128.78
20
-112.381
11
128.649
21
-112.469
0
LINE
8
BLACK
6
CONTINUOUS
10
128.649
20
-112.469
11
128.503
21
-112.529
0
LINE
8
BLACK
6
CONTINUOUS
10
128.503
20
-112.529
11
128.349
21
-112.56
0
LINE
8
BLACK
6
CONTINUOUS
10
128.349
20
-112.56
11
128.191
21
-112.56
0
LINE
8
BLACK
6
CONTINUOUS
10
128.191
20
-112.56
11
128.037
21
-112.529
0
LINE
8
BLACK
6
CONTINUOUS
10
128.037
20
-112.529
11
127.891
21
-112.469
0
LINE
8
BLACK
6
CONTINUOUS
10
127.891
20
-112.469
11
127.76
21
-112.381
0
LINE
8
BLACK
6
CONTINUOUS
10
127.76
20
-112.381
11
127.649
21
-112.27
0
LINE
8
BLACK
6
CONTINUOUS
10
127.649
20
-112.27
11
127.561
21
-112.139
0
LINE
8
BLACK
6
CONTINUOUS
10
127.561
20
-112.139
11
127.501
21
-111.993
0
LINE
8
BLACK
6
CONTINUOUS
10
127.501
20
-111.993
11
127.47
21
-111.839
0
LINE
8
BLACK
6
CONTINUOUS
10
127.47
20
-111.839
11
127.47
21
-111.681
0
LINE
8
BLACK
6
CONTINUOUS
10
127.47
20
-111.681
11
127.501
21
-111.527
0
LINE
8
BLACK
6
CONTINUOUS
10
127.501
20
-111.527
11
127.561
21
-111.381
0
LINE
8
BLACK
6
CONTINUOUS
10
127.561
20
-111.381
11
127.649
21
-111.25
0
LINE
8
BLACK
6
CONTINUOUS
10
127.649
20
-111.25
11
127.76
21
-111.139
0
LINE
8
BLACK
6
CONTINUOUS
10
127.76
20
-111.139
11
127.891
21
-111.051
0
LINE
8
BLACK
6
CONTINUOUS
10
127.891
20
-111.051
11
128.037
21
-110.991
0
LINE
8
BLACK
6
CONTINUOUS
10
128.037
20
-110.991
11
128.191
21
-110.96
0
LINE
8
BLACK
6
CONTINUOUS
10
128.191
20
-110.96
11
128.349
21
-110.96
0
LINE
8
BLACK
6
CONTINUOUS
10
128.349
20
-110.96
11
128.503
21
-110.991
0
LINE
8
BLACK
6
CONTINUOUS
10
158.983
20
-110.991
11
159.129
21
-111.051
0
LINE
8
BLACK
6
CONTINUOUS
10
159.129
20
-111.051
11
159.26
21
-111.139
0
LINE
8
BLACK
6
CONTINUOUS
10
159.26
20
-111.139
11
159.371
21
-111.25
0
LINE
8
BLACK
6
CONTINUOUS
10
159.371
20
-111.25
11
159.459
21
-111.381
0
LINE
8
BLACK
6
CONTINUOUS
10
159.459
20
-111.381
11
159.519
21
-111.527
0
LINE
8
BLACK
6
CONTINUOUS
10
159.519
20
-111.527
11
159.55
21
-111.681
0
LINE
8
BLACK
6
CONTINUOUS
10
159.55
20
-111.681
11
159.55
21
-111.839
0
LINE
8
BLACK
6
CONTINUOUS
10
159.55
20
-111.839
11
159.519
21
-111.993
0
LINE
8
BLACK
6
CONTINUOUS
10
159.519
20
-111.993
11
159.459
21
-112.139
0
LINE
8
BLACK
6
CONTINUOUS
10
159.459
20
-112.139
11
159.371
21
-112.27
0
LINE
8
BLACK
6
CONTINUOUS
10
159.371
20
-112.27
11
159.26
21
-112.381
0
LINE
8
BLACK
6
CONTINUOUS
10
159.26
20
-112.381
11
159.129
21
-112.469
0
LINE
8
BLACK
6
CONTINUOUS
10
159.129
20
-112.469
11
158.983
21
-112.529
0
LINE
8
BLACK
6
CONTINUOUS
10
158.983
20
-112.529
11
158.829
21
-112.56
0
LINE
8
BLACK
6
CONTINUOUS
10
158.829
20
-112.56
11
158.671
21
-112.56
0
LINE
8
BLACK
6
CONTINUOUS
10
158.671
20
-112.56
11
158.517
21
-112.529
0
LINE
8
BLACK
6
CONTINUOUS
10
158.517
20
-112.529
11
158.371
21
-112.469
0
LINE
8
BLACK
6
CONTINUOUS
10
158.371
20
-112.469
11
158.24
21
-112.381
0
LINE
8
BLACK
6
CONTINUOUS
10
158.24
20
-112.381
11
158.129
21
-112.27
0
LINE
8
BLACK
6
CONTINUOUS
10
158.129
20
-112.27
11
158.041
21
-112.139
0
LINE
8
BLACK
6
CONTINUOUS
10
158.041
20
-112.139
11
157.981
21
-111.993
0
LINE
8
BLACK
6
CONTINUOUS
10
157.981
20
-111.993
11
157.95
21
-111.839
0
LINE
8
BLACK
6
CONTINUOUS
10
157.95
20
-111.839
11
157.95
21
-111.681
0
LINE
8
BLACK
6
CONTINUOUS
10
157.95
20
-111.681
11
157.981
21
-111.527
0
LINE
8
BLACK
6
CONTINUOUS
10
157.981
20
-111.527
11
158.041
21
-111.381
0
LINE
8
BLACK
6
CONTINUOUS
10
158.041
20
-111.381
11
158.129
21
-111.25
0
LINE
8
BLACK
6
CONTINUOUS
10
158.129
20
-111.25
11
158.24
21
-111.139
0
LINE
8
BLACK
6
CONTINUOUS
10
158.24
20
-111.139
11
158.371
21
-111.051
0
LINE
8
BLACK
6
CONTINUOUS
10
158.371
20
-111.051
11
158.517
21
-110.991
0
LINE
8
BLACK
6
CONTINUOUS
10
158.517
20
-110.991
11
158.671
21
-110.96
0
LINE
8
BLACK
6
CONTINUOUS
10
158.671
20
-110.96
11
158.829
21
-110.96
0
LINE
8
BLACK
6
CONTINUOUS
10
158.829
20
-110.96
11
158.983
21
-110.991
0
LINE
8
BLACK
6
CONTINUOUS
10
161.523
20
-110.991
11
161.669
21
-111.051
0
LINE
8
BLACK
6
CONTINUOUS
10
161.669
20
-111.051
11
161.8
21
-111.139
0
LINE
8
BLACK
6
CONTINUOUS
10
161.8
20
-111.139
11
161.911
21
-111.25
0
LINE
8
BLACK
6
CONTINUOUS
10
161.911
20
-111.25
11
161.999
21
-111.381
0
LINE
8
BLACK
6
CONTINUOUS
10
161.999
20
-111.381
11
162.059
21
-111.527
0
LINE
8
BLACK
6
CONTINUOUS
10
162.059
20
-111.527
11
162.09
21
-111.681
0
LINE
8
BLACK
6
CONTINUOUS
10
162.09
20
-111.681
11
162.09
21
-111.839
0
LINE
8
BLACK
6
CONTINUOUS
10
162.09
20
-111.839
11
162.059
21
-111.993
0
LINE
8
BLACK
6
CONTINUOUS
10
162.059
20
-111.993
11
161.999
21
-112.139
0
LINE
8
BLACK
6
CONTINUOUS
10
161.999
20
-112.139
11
161.911
21
-112.27
0
LINE
8
BLACK
6
CONTINUOUS
10
161.911
20
-112.27
11
161.8
21
-112.381
0
LINE
8
BLACK
6
CONTINUOUS
10
161.8
20
-112.381
11
161.669
21
-112.469
0
LINE
8
BLACK
6
CONTINUOUS
10
161.669
20
-112.469
11
161.523
21
-112.529
0
LINE
8
BLACK
6
CONTINUOUS
10
161.523
20
-112.529
11
161.369
21
-112.56
0
LINE
8
BLACK
6
CONTINUOUS
10
161.369
20
-112.56
11
161.211
21
-112.56
0
LINE
8
BLACK
6
CONTINUOUS
10
161.211
20
-112.56
11
161.057
21
-112.529
0
LINE
8
BLACK
6
CONTINUOUS
10
161.057
20
-112.529
11
160.911
21
-112.469
0
LINE
8
BLACK
6
CONTINUOUS
10
160.911
20
-112.469
11
160.78
21
-112.381
0
LINE
8
BLACK
6
CONTINUOUS
10
160.78
20
-112.381
11
160.669
21
-112.27
0
LINE
8
BLACK
6
CONTINUOUS
10
160.669
20
-112.27
11
160.581
21
-112.139
0
LINE
8
BLACK
6
CONTINUOUS
10
160.581
20
-112.139
11
160.521
21
-111.993
0
LINE
8
BLACK
6
CONTINUOUS
10
160.521
20
-111.993
11
160.49
21
-111.839
0
LINE
8
BLACK
6
CONTINUOUS
10
160.49
20
-111.839
11
160.49
21
-111.681
0
LINE
8
BLACK
6
CONTINUOUS
10
160.49
20
-111.681
11
160.521
21
-111.527
0
LINE
8
BLACK
6
CONTINUOUS
10
160.521
20
-111.527
11
160.581
21
-111.381
0
LINE
8
BLACK
6
CONTINUOUS
10
160.581
20
-111.381
11
160.669
21
-111.25
0
LINE
8
BLACK
6
CONTINUOUS
10
160.669
20
-111.25
11
160.78
21
-111.139
0
LINE
8
BLACK
6
CONTINUOUS
10
160.78
20
-111.139
11
160.911
21
-111.051
0
LINE
8
BLACK
6
CONTINUOUS
10
160.911
20
-111.051
11
161.057
21
-110.991
0
LINE
8
BLACK
6
CONTINUOUS
10
161.057
20
-110.991
11
161.211
21
-110.96
0
LINE
8
BLACK
6
CONTINUOUS
10
161.211
20
-110.96
11
161.369
21
-110.96
0
LINE
8
BLACK
6
CONTINUOUS
10
161.369
20
-110.96
11
161.523
21
-110.991
0
LINE
8
BLACK
6
CONTINUOUS
10
126.53
20
-112.56
11
124.93
21
-112.56
0
LINE
8
BLACK
6
CONTINUOUS
10
124.93
20
-112.56
11
124.93
21
-110.96
0
LINE
8
BLACK
6
CONTINUOUS
10
124.93
20
-110.96
11
126.53
21
-110.96
0
LINE
8
BLACK
6
CONTINUOUS
10
126.53
20
-110.96
11
126.53
21
-112.56
0
LINE
8
BLACK
6
CONTINUOUS
10
155.29
20
-106.796
11
155.508
21
-106.887
0
LINE
8
BLACK
6
CONTINUOUS
10
155.508
20
-106.887
11
155.705
21
-107.018
0
LINE
8
BLACK
6
CONTINUOUS
10
155.705
20
-107.018
11
155.872
21
-107.185
0
LINE
8
BLACK
6
CONTINUOUS
10
155.872
20
-107.185
11
156.003
21
-107.382
0
LINE
8
BLACK
6
CONTINUOUS
10
156.003
20
-107.382
11
156.094
21
-107.6
0
LINE
8
BLACK
6
CONTINUOUS
10
156.094
20
-107.6
11
156.14
21
-107.832
0
LINE
8
BLACK
6
CONTINUOUS
10
156.14
20
-107.832
11
156.14
21
-108.068
0
LINE
8
BLACK
6
CONTINUOUS
10
156.14
20
-108.068
11
156.094
21
-108.3
0
LINE
8
BLACK
6
CONTINUOUS
10
156.094
20
-108.3
11
156.003
21
-108.518
0
LINE
8
BLACK
6
CONTINUOUS
10
156.003
20
-108.518
11
155.872
21
-108.715
0
LINE
8
BLACK
6
CONTINUOUS
10
155.872
20
-108.715
11
155.705
21
-108.882
0
LINE
8
BLACK
6
CONTINUOUS
10
155.705
20
-108.882
11
155.508
21
-109.013
0
LINE
8
BLACK
6
CONTINUOUS
10
155.508
20
-109.013
11
155.29
21
-109.104
0
LINE
8
BLACK
6
CONTINUOUS
10
155.29
20
-109.104
11
155.058
21
-109.15
0
LINE
8
BLACK
6
CONTINUOUS
10
155.058
20
-109.15
11
154.822
21
-109.15
0
LINE
8
BLACK
6
CONTINUOUS
10
154.822
20
-109.15
11
154.59
21
-109.104
0
LINE
8
BLACK
6
CONTINUOUS
10
154.59
20
-109.104
11
154.372
21
-109.013
0
LINE
8
BLACK
6
CONTINUOUS
10
154.372
20
-109.013
11
154.175
21
-108.882
0
LINE
8
BLACK
6
CONTINUOUS
10
154.175
20
-108.882
11
154.008
21
-108.715
0
LINE
8
BLACK
6
CONTINUOUS
10
154.008
20
-108.715
11
153.877
21
-108.518
0
LINE
8
BLACK
6
CONTINUOUS
10
153.877
20
-108.518
11
153.786
21
-108.3
0
LINE
8
BLACK
6
CONTINUOUS
10
153.786
20
-108.3
11
153.74
21
-108.068
0
LINE
8
BLACK
6
CONTINUOUS
10
153.74
20
-108.068
11
153.74
21
-107.832
0
LINE
8
BLACK
6
CONTINUOUS
10
153.74
20
-107.832
11
153.786
21
-107.6
0
LINE
8
BLACK
6
CONTINUOUS
10
153.786
20
-107.6
11
153.877
21
-107.382
0
LINE
8
BLACK
6
CONTINUOUS
10
153.877
20
-107.382
11
154.008
21
-107.185
0
LINE
8
BLACK
6
CONTINUOUS
10
154.008
20
-107.185
11
154.175
21
-107.018
0
LINE
8
BLACK
6
CONTINUOUS
10
154.175
20
-107.018
11
154.372
21
-106.887
0
LINE
8
BLACK
6
CONTINUOUS
10
154.372
20
-106.887
11
154.59
21
-106.796
0
LINE
8
BLACK
6
CONTINUOUS
10
154.59
20
-106.796
11
154.822
21
-106.75
0
LINE
8
BLACK
6
CONTINUOUS
10
154.822
20
-106.75
11
155.058
21
-106.75
0
LINE
8
BLACK
6
CONTINUOUS
10
155.058
20
-106.75
11
155.29
21
-106.796
0
LINE
8
BLACK
6
CONTINUOUS
10
148.757
20
-99.3423
11
148.917
21
-99.3909
0
LINE
8
BLACK
6
CONTINUOUS
10
148.917
20
-99.3909
11
149.065
21
-99.4698
0
LINE
8
BLACK
6
CONTINUOUS
10
149.065
20
-99.4698
11
149.194
21
-99.5761
0
LINE
8
BLACK
6
CONTINUOUS
10
149.194
20
-99.5761
11
149.3
21
-99.7055
0
LINE
8
BLACK
6
CONTINUOUS
10
149.3
20
-99.7055
11
149.379
21
-99.8531
0
LINE
8
BLACK
6
CONTINUOUS
10
149.379
20
-99.8531
11
149.428
21
-100.013
0
LINE
8
BLACK
6
CONTINUOUS
10
149.428
20
-100.013
11
149.44
21
-100.138
0
LINE
8
BLACK
6
CONTINUOUS
10
149.44
20
-100.138
11
149.44
21
-100.522
0
LINE
8
BLACK
6
CONTINUOUS
10
149.44
20
-100.522
11
149.428
21
-100.647
0
LINE
8
BLACK
6
CONTINUOUS
10
149.428
20
-100.647
11
149.379
21
-100.807
0
LINE
8
BLACK
6
CONTINUOUS
10
149.379
20
-100.807
11
149.3
21
-100.955
0
LINE
8
BLACK
6
CONTINUOUS
10
149.3
20
-100.955
11
149.194
21
-101.084
0
LINE
8
BLACK
6
CONTINUOUS
10
149.194
20
-101.084
11
149.065
21
-101.19
0
LINE
8
BLACK
6
CONTINUOUS
10
149.065
20
-101.19
11
148.917
21
-101.269
0
LINE
8
BLACK
6
CONTINUOUS
10
148.917
20
-101.269
11
148.757
21
-101.318
0
LINE
8
BLACK
6
CONTINUOUS
10
148.757
20
-101.318
11
148.59
21
-101.334
0
LINE
8
BLACK
6
CONTINUOUS
10
148.59
20
-101.334
11
148.423
21
-101.318
0
LINE
8
BLACK
6
CONTINUOUS
10
148.423
20
-101.318
11
148.263
21
-101.269
0
LINE
8
BLACK
6
CONTINUOUS
10
148.263
20
-101.269
11
148.115
21
-101.19
0
LINE
8
BLACK
6
CONTINUOUS
10
148.115
20
-101.19
11
147.986
21
-101.084
0
LINE
8
BLACK
6
CONTINUOUS
10
147.986
20
-101.084
11
147.88
21
-100.955
0
LINE
8
BLACK
6
CONTINUOUS
10
147.88
20
-100.955
11
147.801
21
-100.807
0
LINE
8
BLACK
6
CONTINUOUS
10
147.801
20
-100.807
11
147.752
21
-100.647
0
LINE
8
BLACK
6
CONTINUOUS
10
147.752
20
-100.647
11
147.74
21
-100.522
0
LINE
8
BLACK
6
CONTINUOUS
10
147.74
20
-100.522
11
147.74
21
-100.138
0
LINE
8
BLACK
6
CONTINUOUS
10
147.74
20
-100.138
11
147.752
21
-100.013
0
LINE
8
BLACK
6
CONTINUOUS
10
147.752
20
-100.013
11
147.801
21
-99.8531
0
LINE
8
BLACK
6
CONTINUOUS
10
147.801
20
-99.8531
11
147.88
21
-99.7055
0
LINE
8
BLACK
6
CONTINUOUS
10
147.88
20
-99.7055
11
147.986
21
-99.5761
0
LINE
8
BLACK
6
CONTINUOUS
10
147.986
20
-99.5761
11
148.115
21
-99.4698
0
LINE
8
BLACK
6
CONTINUOUS
10
148.115
20
-99.4698
11
148.263
21
-99.3909
0
LINE
8
BLACK
6
CONTINUOUS
10
148.263
20
-99.3909
11
148.423
21
-99.3423
0
LINE
8
BLACK
6
CONTINUOUS
10
148.423
20
-99.3423
11
148.59
21
-99.3259
0
LINE
8
BLACK
6
CONTINUOUS
10
148.59
20
-99.3259
11
148.757
21
-99.3423
0
LINE
8
BLACK
6
CONTINUOUS
10
146.739
20
-99.3348
11
146.786
21
-99.349
0
LINE
8
BLACK
6
CONTINUOUS
10
146.786
20
-99.349
11
146.829
21
-99.3721
0
LINE
8
BLACK
6
CONTINUOUS
10
146.829
20
-99.3721
11
146.867
21
-99.4032
0
LINE
8
BLACK
6
CONTINUOUS
10
146.867
20
-99.4032
11
146.898
21
-99.4411
0
LINE
8
BLACK
6
CONTINUOUS
10
146.898
20
-99.4411
11
146.921
21
-99.4843
0
LINE
8
BLACK
6
CONTINUOUS
10
146.921
20
-99.4843
11
146.935
21
-99.5312
0
LINE
8
BLACK
6
CONTINUOUS
10
146.935
20
-99.5312
11
146.94
21
-99.58
0
LINE
8
BLACK
6
CONTINUOUS
10
146.94
20
-99.58
11
146.94
21
-101.08
0
LINE
8
BLACK
6
CONTINUOUS
10
146.94
20
-101.08
11
146.935
21
-101.129
0
LINE
8
BLACK
6
CONTINUOUS
10
146.935
20
-101.129
11
146.921
21
-101.176
0
LINE
8
BLACK
6
CONTINUOUS
10
146.921
20
-101.176
11
146.898
21
-101.219
0
LINE
8
BLACK
6
CONTINUOUS
10
146.898
20
-101.219
11
146.867
21
-101.257
0
LINE
8
BLACK
6
CONTINUOUS
10
146.867
20
-101.257
11
146.829
21
-101.288
0
LINE
8
BLACK
6
CONTINUOUS
10
146.829
20
-101.288
11
146.786
21
-101.311
0
LINE
8
BLACK
6
CONTINUOUS
10
146.786
20
-101.311
11
146.739
21
-101.325
0
LINE
8
BLACK
6
CONTINUOUS
10
146.739
20
-101.325
11
146.69
21
-101.33
0
LINE
8
BLACK
6
CONTINUOUS
10
146.69
20
-101.33
11
145.49
21
-101.33
0
LINE
8
BLACK
6
CONTINUOUS
10
145.49
20
-101.33
11
145.441
21
-101.325
0
LINE
8
BLACK
6
CONTINUOUS
10
145.441
20
-101.325
11
145.394
21
-101.311
0
LINE
8
BLACK
6
CONTINUOUS
10
145.394
20
-101.311
11
145.351
21
-101.288
0
LINE
8
BLACK
6
CONTINUOUS
10
145.351
20
-101.288
11
145.313
21
-101.257
0
LINE
8
BLACK
6
CONTINUOUS
10
145.313
20
-101.257
11
145.282
21
-101.219
0
LINE
8
BLACK
6
CONTINUOUS
10
145.282
20
-101.219
11
145.259
21
-101.176
0
LINE
8
BLACK
6
CONTINUOUS
10
145.259
20
-101.176
11
145.245
21
-101.129
0
LINE
8
BLACK
6
CONTINUOUS
10
145.245
20
-101.129
11
145.24
21
-101.08
0
LINE
8
BLACK
6
CONTINUOUS
10
145.24
20
-101.08
11
145.24
21
-99.58
0
LINE
8
BLACK
6
CONTINUOUS
10
145.24
20
-99.58
11
145.245
21
-99.5312
0
LINE
8
BLACK
6
CONTINUOUS
10
145.245
20
-99.5312
11
145.259
21
-99.4843
0
LINE
8
BLACK
6
CONTINUOUS
10
145.259
20
-99.4843
11
145.282
21
-99.4411
0
LINE
8
BLACK
6
CONTINUOUS
10
145.282
20
-99.4411
11
145.313
21
-99.4032
0
LINE
8
BLACK
6
CONTINUOUS
10
145.313
20
-99.4032
11
145.351
21
-99.3721
0
LINE
8
BLACK
6
CONTINUOUS
10
145.351
20
-99.3721
11
145.394
21
-99.349
0
LINE
8
BLACK
6
CONTINUOUS
10
145.394
20
-99.349
11
145.441
21
-99.3348
0
LINE
8
BLACK
6
CONTINUOUS
10
145.441
20
-99.3348
11
145.49
21
-99.33
0
LINE
8
BLACK
6
CONTINUOUS
10
145.49
20
-99.33
11
146.69
21
-99.33
0
LINE
8
BLACK
6
CONTINUOUS
10
146.69
20
-99.33
11
146.739
21
-99.3348
0
LINE
8
BLACK
6
CONTINUOUS
10
155.29
20
-94.0961
11
155.508
21
-94.1866
0
LINE
8
BLACK
6
CONTINUOUS
10
155.508
20
-94.1866
11
155.705
21
-94.3179
0
LINE
8
BLACK
6
CONTINUOUS
10
155.705
20
-94.3179
11
155.872
21
-94.485
0
LINE
8
BLACK
6
CONTINUOUS
10
155.872
20
-94.485
11
156.003
21
-94.6816
0
LINE
8
BLACK
6
CONTINUOUS
10
156.003
20
-94.6816
11
156.094
21
-94.9
0
LINE
8
BLACK
6
CONTINUOUS
10
156.094
20
-94.9
11
156.14
21
-95.1318
0
LINE
8
BLACK
6
CONTINUOUS
10
156.14
20
-95.1318
11
156.14
21
-95.3682
0
LINE
8
BLACK
6
CONTINUOUS
10
156.14
20
-95.3682
11
156.094
21
-95.6
0
LINE
8
BLACK
6
CONTINUOUS
10
156.094
20
-95.6
11
156.003
21
-95.8184
0
LINE
8
BLACK
6
CONTINUOUS
10
156.003
20
-95.8184
11
155.872
21
-96.015
0
LINE
8
BLACK
6
CONTINUOUS
10
155.872
20
-96.015
11
155.705
21
-96.1821
0
LINE
8
BLACK
6
CONTINUOUS
10
155.705
20
-96.1821
11
155.508
21
-96.3134
0
LINE
8
BLACK
6
CONTINUOUS
10
155.508
20
-96.3134
11
155.29
21
-96.4039
0
LINE
8
BLACK
6
CONTINUOUS
10
155.29
20
-96.4039
11
155.058
21
-96.45
0
LINE
8
BLACK
6
CONTINUOUS
10
155.058
20
-96.45
11
154.822
21
-96.45
0
LINE
8
BLACK
6
CONTINUOUS
10
154.822
20
-96.45
11
154.59
21
-96.4039
0
LINE
8
BLACK
6
CONTINUOUS
10
154.59
20
-96.4039
11
154.372
21
-96.3134
0
LINE
8
BLACK
6
CONTINUOUS
10
154.372
20
-96.3134
11
154.175
21
-96.1821
0
LINE
8
BLACK
6
CONTINUOUS
10
154.175
20
-96.1821
11
154.008
21
-96.015
0
LINE
8
BLACK
6
CONTINUOUS
10
154.008
20
-96.015
11
153.877
21
-95.8184
0
LINE
8
BLACK
6
CONTINUOUS
10
153.877
20
-95.8184
11
153.786
21
-95.6
0
LINE
8
BLACK
6
CONTINUOUS
10
153.786
20
-95.6
11
153.74
21
-95.3682
0
LINE
8
BLACK
6
CONTINUOUS
10
153.74
20
-95.3682
11
153.74
21
-95.1318
0
LINE
8
BLACK
6
CONTINUOUS
10
153.74
20
-95.1318
11
153.786
21
-94.9
0
LINE
8
BLACK
6
CONTINUOUS
10
153.786
20
-94.9
11
153.877
21
-94.6816
0
LINE
8
BLACK
6
CONTINUOUS
10
153.877
20
-94.6816
11
154.008
21
-94.485
0
LINE
8
BLACK
6
CONTINUOUS
10
154.008
20
-94.485
11
154.175
21
-94.3179
0
LINE
8
BLACK
6
CONTINUOUS
10
154.175
20
-94.3179
11
154.372
21
-94.1866
0
LINE
8
BLACK
6
CONTINUOUS
10
154.372
20
-94.1866
11
154.59
21
-94.0961
0
LINE
8
BLACK
6
CONTINUOUS
10
154.59
20
-94.0961
11
154.822
21
-94.05
0
LINE
8
BLACK
6
CONTINUOUS
10
154.822
20
-94.05
11
155.058
21
-94.05
0
LINE
8
BLACK
6
CONTINUOUS
10
155.058
20
-94.05
11
155.29
21
-94.0961
0
LINE
8
BLACK
6
CONTINUOUS
10
164.06
20
-95.48
11
161.06
21
-95.48
0
LINE
8
BLACK
6
CONTINUOUS
10
161.06
20
-95.48
11
161.06
21
-92.48
0
LINE
8
BLACK
6
CONTINUOUS
10
161.06
20
-92.48
11
164.06
21
-92.48
0
LINE
8
BLACK
6
CONTINUOUS
10
164.06
20
-92.48
11
164.06
21
-95.48
0
LINE
8
BLACK
6
CONTINUOUS
10
139.43
20
-91.09
11
137.43
21
-91.09
0
LINE
8
BLACK
6
CONTINUOUS
10
137.43
20
-91.09
11
137.43
21
-89.09
0
LINE
8
BLACK
6
CONTINUOUS
10
137.43
20
-89.09
11
139.43
21
-89.09
0
LINE
8
BLACK
6
CONTINUOUS
10
139.43
20
-89.09
11
139.43
21
-91.09
0
LINE
8
BLACK
6
CONTINUOUS
10
162.998
20
-87.4576
11
163.271
21
-87.5707
0
LINE
8
BLACK
6
CONTINUOUS
10
163.271
20
-87.5707
11
163.516
21
-87.7349
0
LINE
8
BLACK
6
CONTINUOUS
10
163.516
20
-87.7349
11
163.725
21
-87.9438
0
LINE
8
BLACK
6
CONTINUOUS
10
163.725
20
-87.9438
11
163.889
21
-88.1895
0
LINE
8
BLACK
6
CONTINUOUS
10
163.889
20
-88.1895
11
164.002
21
-88.4625
0
LINE
8
BLACK
6
CONTINUOUS
10
164.002
20
-88.4625
11
164.06
21
-88.7523
0
LINE
8
BLACK
6
CONTINUOUS
10
164.06
20
-88.7523
11
164.06
21
-89.0477
0
LINE
8
BLACK
6
CONTINUOUS
10
164.06
20
-89.0477
11
164.002
21
-89.3375
0
LINE
8
BLACK
6
CONTINUOUS
10
164.002
20
-89.3375
11
163.889
21
-89.6105
0
LINE
8
BLACK
6
CONTINUOUS
10
163.889
20
-89.6105
11
163.725
21
-89.8562
0
LINE
8
BLACK
6
CONTINUOUS
10
163.725
20
-89.8562
11
163.516
21
-90.0651
0
LINE
8
BLACK
6
CONTINUOUS
10
163.516
20
-90.0651
11
163.271
21
-90.2293
0
LINE
8
BLACK
6
CONTINUOUS
10
163.271
20
-90.2293
11
162.998
21
-90.3424
0
LINE
8
BLACK
6
CONTINUOUS
10
162.998
20
-90.3424
11
162.708
21
-90.4
0
LINE
8
BLACK
6
CONTINUOUS
10
162.708
20
-90.4
11
162.412
21
-90.4
0
LINE
8
BLACK
6
CONTINUOUS
10
162.412
20
-90.4
11
162.122
21
-90.3424
0
LINE
8
BLACK
6
CONTINUOUS
10
162.122
20
-90.3424
11
161.849
21
-90.2293
0
LINE
8
BLACK
6
CONTINUOUS
10
161.849
20
-90.2293
11
161.604
21
-90.0651
0
LINE
8
BLACK
6
CONTINUOUS
10
161.604
20
-90.0651
11
161.395
21
-89.8562
0
LINE
8
BLACK
6
CONTINUOUS
10
161.395
20
-89.8562
11
161.231
21
-89.6105
0
LINE
8
BLACK
6
CONTINUOUS
10
161.231
20
-89.6105
11
161.118
21
-89.3375
0
LINE
8
BLACK
6
CONTINUOUS
10
161.118
20
-89.3375
11
161.06
21
-89.0477
0
LINE
8
BLACK
6
CONTINUOUS
10
161.06
20
-89.0477
11
161.06
21
-88.7523
0
LINE
8
BLACK
6
CONTINUOUS
10
161.06
20
-88.7523
11
161.118
21
-88.4625
0
LINE
8
BLACK
6
CONTINUOUS
10
161.118
20
-88.4625
11
161.231
21
-88.1895
0
LINE
8
BLACK
6
CONTINUOUS
10
161.231
20
-88.1895
11
161.395
21
-87.9438
0
LINE
8
BLACK
6
CONTINUOUS
10
161.395
20
-87.9438
11
161.604
21
-87.7349
0
LINE
8
BLACK
6
CONTINUOUS
10
161.604
20
-87.7349
11
161.849
21
-87.5707
0
LINE
8
BLACK
6
CONTINUOUS
10
161.849
20
-87.5707
11
162.122
21
-87.4576
0
LINE
8
BLACK
6
CONTINUOUS
10
162.122
20
-87.4576
11
162.412
21
-87.4
0
LINE
8
BLACK
6
CONTINUOUS
10
162.412
20
-87.4
11
162.708
21
-87.4
0
LINE
8
BLACK
6
CONTINUOUS
10
162.708
20
-87.4
11
162.998
21
-87.4576
0
LINE
8
BLACK
6
CONTINUOUS
10
138.722
20
-84.1284
11
138.904
21
-84.2038
0
LINE
8
BLACK
6
CONTINUOUS
10
138.904
20
-84.2038
11
139.067
21
-84.3132
0
LINE
8
BLACK
6
CONTINUOUS
10
139.067
20
-84.3132
11
139.207
21
-84.4525
0
LINE
8
BLACK
6
CONTINUOUS
10
139.207
20
-84.4525
11
139.316
21
-84.6163
0
LINE
8
BLACK
6
CONTINUOUS
10
139.316
20
-84.6163
11
139.392
21
-84.7983
0
LINE
8
BLACK
6
CONTINUOUS
10
139.392
20
-84.7983
11
139.43
21
-84.9915
0
LINE
8
BLACK
6
CONTINUOUS
10
139.43
20
-84.9915
11
139.43
21
-85.1885
0
LINE
8
BLACK
6
CONTINUOUS
10
139.43
20
-85.1885
11
139.392
21
-85.3817
0
LINE
8
BLACK
6
CONTINUOUS
10
139.392
20
-85.3817
11
139.316
21
-85.5637
0
LINE
8
BLACK
6
CONTINUOUS
10
139.316
20
-85.5637
11
139.207
21
-85.7275
0
LINE
8
BLACK
6
CONTINUOUS
10
139.207
20
-85.7275
11
139.067
21
-85.8668
0
LINE
8
BLACK
6
CONTINUOUS
10
139.067
20
-85.8668
11
138.904
21
-85.9762
0
LINE
8
BLACK
6
CONTINUOUS
10
138.904
20
-85.9762
11
138.722
21
-86.0516
0
LINE
8
BLACK
6
CONTINUOUS
10
138.722
20
-86.0516
11
138.528
21
-86.09
0
LINE
8
BLACK
6
CONTINUOUS
10
138.528
20
-86.09
11
138.332
21
-86.09
0
LINE
8
BLACK
6
CONTINUOUS
10
138.332
20
-86.09
11
138.138
21
-86.0516
0
LINE
8
BLACK
6
CONTINUOUS
10
138.138
20
-86.0516
11
137.956
21
-85.9762
0
LINE
8
BLACK
6
CONTINUOUS
10
137.956
20
-85.9762
11
137.793
21
-85.8668
0
LINE
8
BLACK
6
CONTINUOUS
10
137.793
20
-85.8668
11
137.653
21
-85.7275
0
LINE
8
BLACK
6
CONTINUOUS
10
137.653
20
-85.7275
11
137.544
21
-85.5637
0
LINE
8
BLACK
6
CONTINUOUS
10
137.544
20
-85.5637
11
137.468
21
-85.3817
0
LINE
8
BLACK
6
CONTINUOUS
10
137.468
20
-85.3817
11
137.43
21
-85.1885
0
LINE
8
BLACK
6
CONTINUOUS
10
137.43
20
-85.1885
11
137.43
21
-84.9915
0
LINE
8
BLACK
6
CONTINUOUS
10
137.43
20
-84.9915
11
137.468
21
-84.7983
0
LINE
8
BLACK
6
CONTINUOUS
10
137.468
20
-84.7983
11
137.544
21
-84.6163
0
LINE
8
BLACK
6
CONTINUOUS
10
137.544
20
-84.6163
11
137.653
21
-84.4525
0
LINE
8
BLACK
6
CONTINUOUS
10
137.653
20
-84.4525
11
137.793
21
-84.3132
0
LINE
8
BLACK
6
CONTINUOUS
10
137.793
20
-84.3132
11
137.956
21
-84.2038
0
LINE
8
BLACK
6
CONTINUOUS
10
137.956
20
-84.2038
11
138.138
21
-84.1284
0
LINE
8
BLACK
6
CONTINUOUS
10
138.138
20
-84.1284
11
138.332
21
-84.09
0
LINE
8
BLACK
6
CONTINUOUS
10
138.332
20
-84.09
11
138.528
21
-84.09
0
LINE
8
BLACK
6
CONTINUOUS
10
138.528
20
-84.09
11
138.722
21
-84.1284
0
LINE
8
BLACK
6
CONTINUOUS
10
151.98
20
-78.32
11
150.28
21
-78.32
0
LINE
8
BLACK
6
CONTINUOUS
10
150.28
20
-78.32
11
150.28
21
-76.62
0
LINE
8
BLACK
6
CONTINUOUS
10
150.28
20
-76.62
11
151.98
21
-76.62
0
LINE
8
BLACK
6
CONTINUOUS
10
151.98
20
-76.62
11
151.98
21
-78.32
0
LINE
8
BLACK
6
CONTINUOUS
10
139.28
20
-78.32
11
137.58
21
-78.32
0
LINE
8
BLACK
6
CONTINUOUS
10
137.58
20
-78.32
11
137.58
21
-76.62
0
LINE
8
BLACK
6
CONTINUOUS
10
137.58
20
-76.62
11
139.28
21
-76.62
0
LINE
8
BLACK
6
CONTINUOUS
10
139.28
20
-76.62
11
139.28
21
-78.32
0
LINE
8
BLACK
6
CONTINUOUS
10
157.06
20
-78.32
11
155.36
21
-78.32
0
LINE
8
BLACK
6
CONTINUOUS
10
155.36
20
-78.32
11
155.36
21
-76.62
0
LINE
8
BLACK
6
CONTINUOUS
10
155.36
20
-76.62
11
157.06
21
-76.62
0
LINE
8
BLACK
6
CONTINUOUS
10
157.06
20
-76.62
11
157.06
21
-78.32
0
LINE
8
BLACK
6
CONTINUOUS
10
144.36
20
-78.32
11
142.66
21
-78.32
0
LINE
8
BLACK
6
CONTINUOUS
10
142.66
20
-78.32
11
142.66
21
-76.62
0
LINE
8
BLACK
6
CONTINUOUS
10
142.66
20
-76.62
11
144.36
21
-76.62
0
LINE
8
BLACK
6
CONTINUOUS
10
144.36
20
-76.62
11
144.36
21
-78.32
0
LINE
8
BLACK
6
CONTINUOUS
10
151.378
20
-74.1127
11
151.533
21
-74.1767
0
LINE
8
BLACK
6
CONTINUOUS
10
151.533
20
-74.1767
11
151.672
21
-74.2698
0
LINE
8
BLACK
6
CONTINUOUS
10
151.672
20
-74.2698
11
151.79
21
-74.3882
0
LINE
8
BLACK
6
CONTINUOUS
10
151.79
20
-74.3882
11
151.883
21
-74.5274
0
LINE
8
BLACK
6
CONTINUOUS
10
151.883
20
-74.5274
11
151.947
21
-74.6821
0
LINE
8
BLACK
6
CONTINUOUS
10
151.947
20
-74.6821
11
151.98
21
-74.8463
0
LINE
8
BLACK
6
CONTINUOUS
10
151.98
20
-74.8463
11
151.98
21
-75.0137
0
LINE
8
BLACK
6
CONTINUOUS
10
151.98
20
-75.0137
11
151.947
21
-75.1779
0
LINE
8
BLACK
6
CONTINUOUS
10
151.947
20
-75.1779
11
151.883
21
-75.3326
0
LINE
8
BLACK
6
CONTINUOUS
10
151.883
20
-75.3326
11
151.79
21
-75.4718
0
LINE
8
BLACK
6
CONTINUOUS
10
151.79
20
-75.4718
11
151.672
21
-75.5902
0
LINE
8
BLACK
6
CONTINUOUS
10
151.672
20
-75.5902
11
151.533
21
-75.6833
0
LINE
8
BLACK
6
CONTINUOUS
10
151.533
20
-75.6833
11
151.378
21
-75.7473
0
LINE
8
BLACK
6
CONTINUOUS
10
151.378
20
-75.7473
11
151.214
21
-75.78
0
LINE
8
BLACK
6
CONTINUOUS
10
151.214
20
-75.78
11
151.046
21
-75.78
0
LINE
8
BLACK
6
CONTINUOUS
10
151.046
20
-75.78
11
150.882
21
-75.7473
0
LINE
8
BLACK
6
CONTINUOUS
10
150.882
20
-75.7473
11
150.727
21
-75.6833
0
LINE
8
BLACK
6
CONTINUOUS
10
150.727
20
-75.6833
11
150.588
21
-75.5902
0
LINE
8
BLACK
6
CONTINUOUS
10
150.588
20
-75.5902
11
150.47
21
-75.4718
0
LINE
8
BLACK
6
CONTINUOUS
10
150.47
20
-75.4718
11
150.377
21
-75.3326
0
LINE
8
BLACK
6
CONTINUOUS
10
150.377
20
-75.3326
11
150.313
21
-75.1779
0
LINE
8
BLACK
6
CONTINUOUS
10
150.313
20
-75.1779
11
150.28
21
-75.0137
0
LINE
8
BLACK
6
CONTINUOUS
10
150.28
20
-75.0137
11
150.28
21
-74.8463
0
LINE
8
BLACK
6
CONTINUOUS
10
150.28
20
-74.8463
11
150.313
21
-74.6821
0
LINE
8
BLACK
6
CONTINUOUS
10
150.313
20
-74.6821
11
150.377
21
-74.5274
0
LINE
8
BLACK
6
CONTINUOUS
10
150.377
20
-74.5274
11
150.47
21
-74.3882
0
LINE
8
BLACK
6
CONTINUOUS
10
150.47
20
-74.3882
11
150.588
21
-74.2698
0
LINE
8
BLACK
6
CONTINUOUS
10
150.588
20
-74.2698
11
150.727
21
-74.1767
0
LINE
8
BLACK
6
CONTINUOUS
10
150.727
20
-74.1767
11
150.882
21
-74.1127
0
LINE
8
BLACK
6
CONTINUOUS
10
150.882
20
-74.1127
11
151.046
21
-74.08
0
LINE
8
BLACK
6
CONTINUOUS
10
151.046
20
-74.08
11
151.214
21
-74.08
0
LINE
8
BLACK
6
CONTINUOUS
10
151.214
20
-74.08
11
151.378
21
-74.1127
0
LINE
8
BLACK
6
CONTINUOUS
10
138.678
20
-74.1127
11
138.833
21
-74.1767
0
LINE
8
BLACK
6
CONTINUOUS
10
138.833
20
-74.1767
11
138.972
21
-74.2698
0
LINE
8
BLACK
6
CONTINUOUS
10
138.972
20
-74.2698
11
139.09
21
-74.3882
0
LINE
8
BLACK
6
CONTINUOUS
10
139.09
20
-74.3882
11
139.183
21
-74.5274
0
LINE
8
BLACK
6
CONTINUOUS
10
139.183
20
-74.5274
11
139.247
21
-74.6821
0
LINE
8
BLACK
6
CONTINUOUS
10
139.247
20
-74.6821
11
139.28
21
-74.8463
0
LINE
8
BLACK
6
CONTINUOUS
10
139.28
20
-74.8463
11
139.28
21
-75.0137
0
LINE
8
BLACK
6
CONTINUOUS
10
139.28
20
-75.0137
11
139.247
21
-75.1779
0
LINE
8
BLACK
6
CONTINUOUS
10
139.247
20
-75.1779
11
139.183
21
-75.3326
0
LINE
8
BLACK
6
CONTINUOUS
10
139.183
20
-75.3326
11
139.09
21
-75.4718
0
LINE
8
BLACK
6
CONTINUOUS
10
139.09
20
-75.4718
11
138.972
21
-75.5902
0
LINE
8
BLACK
6
CONTINUOUS
10
138.972
20
-75.5902
11
138.833
21
-75.6833
0
LINE
8
BLACK
6
CONTINUOUS
10
138.833
20
-75.6833
11
138.678
21
-75.7473
0
LINE
8
BLACK
6
CONTINUOUS
10
138.678
20
-75.7473
11
138.514
21
-75.78
0
LINE
8
BLACK
6
CONTINUOUS
10
138.514
20
-75.78
11
138.346
21
-75.78
0
LINE
8
BLACK
6
CONTINUOUS
10
138.346
20
-75.78
11
138.182
21
-75.7473
0
LINE
8
BLACK
6
CONTINUOUS
10
138.182
20
-75.7473
11
138.027
21
-75.6833
0
LINE
8
BLACK
6
CONTINUOUS
10
138.027
20
-75.6833
11
137.888
21
-75.5902
0
LINE
8
BLACK
6
CONTINUOUS
10
137.888
20
-75.5902
11
137.77
21
-75.4718
0
LINE
8
BLACK
6
CONTINUOUS
10
137.77
20
-75.4718
11
137.677
21
-75.3326
0
LINE
8
BLACK
6
CONTINUOUS
10
137.677
20
-75.3326
11
137.613
21
-75.1779
0
LINE
8
BLACK
6
CONTINUOUS
10
137.613
20
-75.1779
11
137.58
21
-75.0137
0
LINE
8
BLACK
6
CONTINUOUS
10
137.58
20
-75.0137
11
137.58
21
-74.8463
0
LINE
8
BLACK
6
CONTINUOUS
10
137.58
20
-74.8463
11
137.613
21
-74.6821
0
LINE
8
BLACK
6
CONTINUOUS
10
137.613
20
-74.6821
11
137.677
21
-74.5274
0
LINE
8
BLACK
6
CONTINUOUS
10
137.677
20
-74.5274
11
137.77
21
-74.3882
0
LINE
8
BLACK
6
CONTINUOUS
10
137.77
20
-74.3882
11
137.888
21
-74.2698
0
LINE
8
BLACK
6
CONTINUOUS
10
137.888
20
-74.2698
11
138.027
21
-74.1767
0
LINE
8
BLACK
6
CONTINUOUS
10
138.027
20
-74.1767
11
138.182
21
-74.1127
0
LINE
8
BLACK
6
CONTINUOUS
10
138.182
20
-74.1127
11
138.346
21
-74.08
0
LINE
8
BLACK
6
CONTINUOUS
10
138.346
20
-74.08
11
138.514
21
-74.08
0
LINE
8
BLACK
6
CONTINUOUS
10
138.514
20
-74.08
11
138.678
21
-74.1127
0
LINE
8
BLACK
6
CONTINUOUS
10
143.758
20
-74.1127
11
143.913
21
-74.1767
0
LINE
8
BLACK
6
CONTINUOUS
10
143.913
20
-74.1767
11
144.052
21
-74.2698
0
LINE
8
BLACK
6
CONTINUOUS
10
144.052
20
-74.2698
11
144.17
21
-74.3882
0
LINE
8
BLACK
6
CONTINUOUS
10
144.17
20
-74.3882
11
144.263
21
-74.5274
0
LINE
8
BLACK
6
CONTINUOUS
10
144.263
20
-74.5274
11
144.327
21
-74.6821
0
LINE
8
BLACK
6
CONTINUOUS
10
144.327
20
-74.6821
11
144.36
21
-74.8463
0
LINE
8
BLACK
6
CONTINUOUS
10
144.36
20
-74.8463
11
144.36
21
-75.0137
0
LINE
8
BLACK
6
CONTINUOUS
10
144.36
20
-75.0137
11
144.327
21
-75.1779
0
LINE
8
BLACK
6
CONTINUOUS
10
144.327
20
-75.1779
11
144.263
21
-75.3326
0
LINE
8
BLACK
6
CONTINUOUS
10
144.263
20
-75.3326
11
144.17
21
-75.4718
0
LINE
8
BLACK
6
CONTINUOUS
10
144.17
20
-75.4718
11
144.052
21
-75.5902
0
LINE
8
BLACK
6
CONTINUOUS
10
144.052
20
-75.5902
11
143.913
21
-75.6833
0
LINE
8
BLACK
6
CONTINUOUS
10
143.913
20
-75.6833
11
143.758
21
-75.7473
0
LINE
8
BLACK
6
CONTINUOUS
10
143.758
20
-75.7473
11
143.594
21
-75.78
0
LINE
8
BLACK
6
CONTINUOUS
10
143.594
20
-75.78
11
143.426
21
-75.78
0
LINE
8
BLACK
6
CONTINUOUS
10
143.426
20
-75.78
11
143.262
21
-75.7473
0
LINE
8
BLACK
6
CONTINUOUS
10
143.262
20
-75.7473
11
143.107
21
-75.6833
0
LINE
8
BLACK
6
CONTINUOUS
10
143.107
20
-75.6833
11
142.968
21
-75.5902
0
LINE
8
BLACK
6
CONTINUOUS
10
142.968
20
-75.5902
11
142.85
21
-75.4718
0
LINE
8
BLACK
6
CONTINUOUS
10
142.85
20
-75.4718
11
142.757
21
-75.3326
0
LINE
8
BLACK
6
CONTINUOUS
10
142.757
20
-75.3326
11
142.693
21
-75.1779
0
LINE
8
BLACK
6
CONTINUOUS
10
142.693
20
-75.1779
11
142.66
21
-75.0137
0
LINE
8
BLACK
6
CONTINUOUS
10
142.66
20
-75.0137
11
142.66
21
-74.8463
0
LINE
8
BLACK
6
CONTINUOUS
10
142.66
20
-74.8463
11
142.693
21
-74.6821
0
LINE
8
BLACK
6
CONTINUOUS
10
142.693
20
-74.6821
11
142.757
21
-74.5274
0
LINE
8
BLACK
6
CONTINUOUS
10
142.757
20
-74.5274
11
142.85
21
-74.3882
0
LINE
8
BLACK
6
CONTINUOUS
10
142.85
20
-74.3882
11
142.968
21
-74.2698
0
LINE
8
BLACK
6
CONTINUOUS
10
142.968
20
-74.2698
11
143.107
21
-74.1767
0
LINE
8
BLACK
6
CONTINUOUS
10
143.107
20
-74.1767
11
143.262
21
-74.1127
0
LINE
8
BLACK
6
CONTINUOUS
10
143.262
20
-74.1127
11
143.426
21
-74.08
0
LINE
8
BLACK
6
CONTINUOUS
10
143.426
20
-74.08
11
143.594
21
-74.08
0
LINE
8
BLACK
6
CONTINUOUS
10
143.594
20
-74.08
11
143.758
21
-74.1127
0
LINE
8
BLACK
6
CONTINUOUS
10
156.458
20
-74.1127
11
156.613
21
-74.1767
0
LINE
8
BLACK
6
CONTINUOUS
10
156.613
20
-74.1767
11
156.752
21
-74.2698
0
LINE
8
BLACK
6
CONTINUOUS
10
156.752
20
-74.2698
11
156.87
21
-74.3882
0
LINE
8
BLACK
6
CONTINUOUS
10
156.87
20
-74.3882
11
156.963
21
-74.5274
0
LINE
8
BLACK
6
CONTINUOUS
10
156.963
20
-74.5274
11
157.027
21
-74.6821
0
LINE
8
BLACK
6
CONTINUOUS
10
157.027
20
-74.6821
11
157.06
21
-74.8463
0
LINE
8
BLACK
6
CONTINUOUS
10
157.06
20
-74.8463
11
157.06
21
-75.0137
0
LINE
8
BLACK
6
CONTINUOUS
10
157.06
20
-75.0137
11
157.027
21
-75.1779
0
LINE
8
BLACK
6
CONTINUOUS
10
157.027
20
-75.1779
11
156.963
21
-75.3326
0
LINE
8
BLACK
6
CONTINUOUS
10
156.963
20
-75.3326
11
156.87
21
-75.4718
0
LINE
8
BLACK
6
CONTINUOUS
10
156.87
20
-75.4718
11
156.752
21
-75.5902
0
LINE
8
BLACK
6
CONTINUOUS
10
156.752
20
-75.5902
11
156.613
21
-75.6833
0
LINE
8
BLACK
6
CONTINUOUS
10
156.613
20
-75.6833
11
156.458
21
-75.7473
0
LINE
8
BLACK
6
CONTINUOUS
10
156.458
20
-75.7473
11
156.294
21
-75.78
0
LINE
8
BLACK
6
CONTINUOUS
10
156.294
20
-75.78
11
156.126
21
-75.78
0
LINE
8
BLACK
6
CONTINUOUS
10
156.126
20
-75.78
11
155.962
21
-75.7473
0
LINE
8
BLACK
6
CONTINUOUS
10
155.962
20
-75.7473
11
155.807
21
-75.6833
0
LINE
8
BLACK
6
CONTINUOUS
10
155.807
20
-75.6833
11
155.668
21
-75.5902
0
LINE
8
BLACK
6
CONTINUOUS
10
155.668
20
-75.5902
11
155.55
21
-75.4718
0
LINE
8
BLACK
6
CONTINUOUS
10
155.55
20
-75.4718
11
155.457
21
-75.3326
0
LINE
8
BLACK
6
CONTINUOUS
10
155.457
20
-75.3326
11
155.393
21
-75.1779
0
LINE
8
BLACK
6
CONTINUOUS
10
155.393
20
-75.1779
11
155.36
21
-75.0137
0
LINE
8
BLACK
6
CONTINUOUS
10
155.36
20
-75.0137
11
155.36
21
-74.8463
0
LINE
8
BLACK
6
CONTINUOUS
10
155.36
20
-74.8463
11
155.393
21
-74.6821
0
LINE
8
BLACK
6
CONTINUOUS
10
155.393
20
-74.6821
11
155.457
21
-74.5274
0
LINE
8
BLACK
6
CONTINUOUS
10
155.457
20
-74.5274
11
155.55
21
-74.3882
0
LINE
8
BLACK
6
CONTINUOUS
10
155.55
20
-74.3882
11
155.668
21
-74.2698
0
LINE
8
BLACK
6
CONTINUOUS
10
155.668
20
-74.2698
11
155.807
21
-74.1767
0
LINE
8
BLACK
6
CONTINUOUS
10
155.807
20
-74.1767
11
155.962
21
-74.1127
0
LINE
8
BLACK
6
CONTINUOUS
10
155.962
20
-74.1127
11
156.126
21
-74.08
0
LINE
8
BLACK
6
CONTINUOUS
10
156.126
20
-74.08
11
156.294
21
-74.08
0
LINE
8
BLACK
6
CONTINUOUS
10
156.294
20
-74.08
11
156.458
21
-74.1127
0
LINE
8
BLACK
6
CONTINUOUS
10
151.378
20
-71.5727
11
151.533
21
-71.6367
0
LINE
8
BLACK
6
CONTINUOUS
10
151.533
20
-71.6367
11
151.672
21
-71.7298
0
LINE
8
BLACK
6
CONTINUOUS
10
151.672
20
-71.7298
11
151.79
21
-71.8482
0
LINE
8
BLACK
6
CONTINUOUS
10
151.79
20
-71.8482
11
151.883
21
-71.9874
0
LINE
8
BLACK
6
CONTINUOUS
10
151.883
20
-71.9874
11
151.947
21
-72.1421
0
LINE
8
BLACK
6
CONTINUOUS
10
151.947
20
-72.1421
11
151.98
21
-72.3063
0
LINE
8
BLACK
6
CONTINUOUS
10
151.98
20
-72.3063
11
151.98
21
-72.4737
0
LINE
8
BLACK
6
CONTINUOUS
10
151.98
20
-72.4737
11
151.947
21
-72.6379
0
LINE
8
BLACK
6
CONTINUOUS
10
151.947
20
-72.6379
11
151.883
21
-72.7926
0
LINE
8
BLACK
6
CONTINUOUS
10
151.883
20
-72.7926
11
151.79
21
-72.9318
0
LINE
8
BLACK
6
CONTINUOUS
10
151.79
20
-72.9318
11
151.672
21
-73.0502
0
LINE
8
BLACK
6
CONTINUOUS
10
151.672
20
-73.0502
11
151.533
21
-73.1433
0
LINE
8
BLACK
6
CONTINUOUS
10
151.533
20
-73.1433
11
151.378
21
-73.2073
0
LINE
8
BLACK
6
CONTINUOUS
10
151.378
20
-73.2073
11
151.214
21
-73.24
0
LINE
8
BLACK
6
CONTINUOUS
10
151.214
20
-73.24
11
151.046
21
-73.24
0
LINE
8
BLACK
6
CONTINUOUS
10
151.046
20
-73.24
11
150.882
21
-73.2073
0
LINE
8
BLACK
6
CONTINUOUS
10
150.882
20
-73.2073
11
150.727
21
-73.1433
0
LINE
8
BLACK
6
CONTINUOUS
10
150.727
20
-73.1433
11
150.588
21
-73.0502
0
LINE
8
BLACK
6
CONTINUOUS
10
150.588
20
-73.0502
11
150.47
21
-72.9318
0
LINE
8
BLACK
6
CONTINUOUS
10
150.47
20
-72.9318
11
150.377
21
-72.7926
0
LINE
8
BLACK
6
CONTINUOUS
10
150.377
20
-72.7926
11
150.313
21
-72.6379
0
LINE
8
BLACK
6
CONTINUOUS
10
150.313
20
-72.6379
11
150.28
21
-72.4737
0
LINE
8
BLACK
6
CONTINUOUS
10
150.28
20
-72.4737
11
150.28
21
-72.3063
0
LINE
8
BLACK
6
CONTINUOUS
10
150.28
20
-72.3063
11
150.313
21
-72.1421
0
LINE
8
BLACK
6
CONTINUOUS
10
150.313
20
-72.1421
11
150.377
21
-71.9874
0
LINE
8
BLACK
6
CONTINUOUS
10
150.377
20
-71.9874
11
150.47
21
-71.8482
0
LINE
8
BLACK
6
CONTINUOUS
10
150.47
20
-71.8482
11
150.588
21
-71.7298
0
LINE
8
BLACK
6
CONTINUOUS
10
150.588
20
-71.7298
11
150.727
21
-71.6367
0
LINE
8
BLACK
6
CONTINUOUS
10
150.727
20
-71.6367
11
150.882
21
-71.5727
0
LINE
8
BLACK
6
CONTINUOUS
10
150.882
20
-71.5727
11
151.046
21
-71.54
0
LINE
8
BLACK
6
CONTINUOUS
10
151.046
20
-71.54
11
151.214
21
-71.54
0
LINE
8
BLACK
6
CONTINUOUS
10
151.214
20
-71.54
11
151.378
21
-71.5727
0
LINE
8
BLACK
6
CONTINUOUS
10
156.458
20
-71.5727
11
156.613
21
-71.6367
0
LINE
8
BLACK
6
CONTINUOUS
10
156.613
20
-71.6367
11
156.752
21
-71.7298
0
LINE
8
BLACK
6
CONTINUOUS
10
156.752
20
-71.7298
11
156.87
21
-71.8482
0
LINE
8
BLACK
6
CONTINUOUS
10
156.87
20
-71.8482
11
156.963
21
-71.9874
0
LINE
8
BLACK
6
CONTINUOUS
10
156.963
20
-71.9874
11
157.027
21
-72.1421
0
LINE
8
BLACK
6
CONTINUOUS
10
157.027
20
-72.1421
11
157.06
21
-72.3063
0
LINE
8
BLACK
6
CONTINUOUS
10
157.06
20
-72.3063
11
157.06
21
-72.4737
0
LINE
8
BLACK
6
CONTINUOUS
10
157.06
20
-72.4737
11
157.027
21
-72.6379
0
LINE
8
BLACK
6
CONTINUOUS
10
157.027
20
-72.6379
11
156.963
21
-72.7926
0
LINE
8
BLACK
6
CONTINUOUS
10
156.963
20
-72.7926
11
156.87
21
-72.9318
0
LINE
8
BLACK
6
CONTINUOUS
10
156.87
20
-72.9318
11
156.752
21
-73.0502
0
LINE
8
BLACK
6
CONTINUOUS
10
156.752
20
-73.0502
11
156.613
21
-73.1433
0
LINE
8
BLACK
6
CONTINUOUS
10
156.613
20
-73.1433
11
156.458
21
-73.2073
0
LINE
8
BLACK
6
CONTINUOUS
10
156.458
20
-73.2073
11
156.294
21
-73.24
0
LINE
8
BLACK
6
CONTINUOUS
10
156.294
20
-73.24
11
156.126
21
-73.24
0
LINE
8
BLACK
6
CONTINUOUS
10
156.126
20
-73.24
11
155.962
21
-73.2073
0
LINE
8
BLACK
6
CONTINUOUS
10
155.962
20
-73.2073
11
155.807
21
-73.1433
0
LINE
8
BLACK
6
CONTINUOUS
10
155.807
20
-73.1433
11
155.668
21
-73.0502
0
LINE
8
BLACK
6
CONTINUOUS
10
155.668
20
-73.0502
11
155.55
21
-72.9318
0
LINE
8
BLACK
6
CONTINUOUS
10
155.55
20
-72.9318
11
155.457
21
-72.7926
0
LINE
8
BLACK
6
CONTINUOUS
10
155.457
20
-72.7926
11
155.393
21
-72.6379
0
LINE
8
BLACK
6
CONTINUOUS
10
155.393
20
-72.6379
11
155.36
21
-72.4737
0
LINE
8
BLACK
6
CONTINUOUS
10
155.36
20
-72.4737
11
155.36
21
-72.3063
0
LINE
8
BLACK
6
CONTINUOUS
10
155.36
20
-72.3063
11
155.393
21
-72.1421
0
LINE
8
BLACK
6
CONTINUOUS
10
155.393
20
-72.1421
11
155.457
21
-71.9874
0
LINE
8
BLACK
6
CONTINUOUS
10
155.457
20
-71.9874
11
155.55
21
-71.8482
0
LINE
8
BLACK
6
CONTINUOUS
10
155.55
20
-71.8482
11
155.668
21
-71.7298
0
LINE
8
BLACK
6
CONTINUOUS
10
155.668
20
-71.7298
11
155.807
21
-71.6367
0
LINE
8
BLACK
6
CONTINUOUS
10
155.807
20
-71.6367
11
155.962
21
-71.5727
0
LINE
8
BLACK
6
CONTINUOUS
10
155.962
20
-71.5727
11
156.126
21
-71.54
0
LINE
8
BLACK
6
CONTINUOUS
10
156.126
20
-71.54
11
156.294
21
-71.54
0
LINE
8
BLACK
6
CONTINUOUS
10
156.294
20
-71.54
11
156.458
21
-71.5727
0
LINE
8
BLACK
6
CONTINUOUS
10
143.758
20
-71.5727
11
143.913
21
-71.6367
0
LINE
8
BLACK
6
CONTINUOUS
10
143.913
20
-71.6367
11
144.052
21
-71.7298
0
LINE
8
BLACK
6
CONTINUOUS
10
144.052
20
-71.7298
11
144.17
21
-71.8482
0
LINE
8
BLACK
6
CONTINUOUS
10
144.17
20
-71.8482
11
144.263
21
-71.9874
0
LINE
8
BLACK
6
CONTINUOUS
10
144.263
20
-71.9874
11
144.327
21
-72.1421
0
LINE
8
BLACK
6
CONTINUOUS
10
144.327
20
-72.1421
11
144.36
21
-72.3063
0
LINE
8
BLACK
6
CONTINUOUS
10
144.36
20
-72.3063
11
144.36
21
-72.4737
0
LINE
8
BLACK
6
CONTINUOUS
10
144.36
20
-72.4737
11
144.327
21
-72.6379
0
LINE
8
BLACK
6
CONTINUOUS
10
144.327
20
-72.6379
11
144.263
21
-72.7926
0
LINE
8
BLACK
6
CONTINUOUS
10
144.263
20
-72.7926
11
144.17
21
-72.9318
0
LINE
8
BLACK
6
CONTINUOUS
10
144.17
20
-72.9318
11
144.052
21
-73.0502
0
LINE
8
BLACK
6
CONTINUOUS
10
144.052
20
-73.0502
11
143.913
21
-73.1433
0
LINE
8
BLACK
6
CONTINUOUS
10
143.913
20
-73.1433
11
143.758
21
-73.2073
0
LINE
8
BLACK
6
CONTINUOUS
10
143.758
20
-73.2073
11
143.594
21
-73.24
0
LINE
8
BLACK
6
CONTINUOUS
10
143.594
20
-73.24
11
143.426
21
-73.24
0
LINE
8
BLACK
6
CONTINUOUS
10
143.426
20
-73.24
11
143.262
21
-73.2073
0
LINE
8
BLACK
6
CONTINUOUS
10
143.262
20
-73.2073
11
143.107
21
-73.1433
0
LINE
8
BLACK
6
CONTINUOUS
10
143.107
20
-73.1433
11
142.968
21
-73.0502
0
LINE
8
BLACK
6
CONTINUOUS
10
142.968
20
-73.0502
11
142.85
21
-72.9318
0
LINE
8
BLACK
6
CONTINUOUS
10
142.85
20
-72.9318
11
142.757
21
-72.7926
0
LINE
8
BLACK
6
CONTINUOUS
10
142.757
20
-72.7926
11
142.693
21
-72.6379
0
LINE
8
BLACK
6
CONTINUOUS
10
142.693
20
-72.6379
11
142.66
21
-72.4737
0
LINE
8
BLACK
6
CONTINUOUS
10
142.66
20
-72.4737
11
142.66
21
-72.3063
0
LINE
8
BLACK
6
CONTINUOUS
10
142.66
20
-72.3063
11
142.693
21
-72.1421
0
LINE
8
BLACK
6
CONTINUOUS
10
142.693
20
-72.1421
11
142.757
21
-71.9874
0
LINE
8
BLACK
6
CONTINUOUS
10
142.757
20
-71.9874
11
142.85
21
-71.8482
0
LINE
8
BLACK
6
CONTINUOUS
10
142.85
20
-71.8482
11
142.968
21
-71.7298
0
LINE
8
BLACK
6
CONTINUOUS
10
142.968
20
-71.7298
11
143.107
21
-71.6367
0
LINE
8
BLACK
6
CONTINUOUS
10
143.107
20
-71.6367
11
143.262
21
-71.5727
0
LINE
8
BLACK
6
CONTINUOUS
10
143.262
20
-71.5727
11
143.426
21
-71.54
0
LINE
8
BLACK
6
CONTINUOUS
10
143.426
20
-71.54
11
143.594
21
-71.54
0
LINE
8
BLACK
6
CONTINUOUS
10
143.594
20
-71.54
11
143.758
21
-71.5727
0
LINE
8
BLACK
6
CONTINUOUS
10
138.678
20
-71.5727
11
138.833
21
-71.6367
0
LINE
8
BLACK
6
CONTINUOUS
10
138.833
20
-71.6367
11
138.972
21
-71.7298
0
LINE
8
BLACK
6
CONTINUOUS
10
138.972
20
-71.7298
11
139.09
21
-71.8482
0
LINE
8
BLACK
6
CONTINUOUS
10
139.09
20
-71.8482
11
139.183
21
-71.9874
0
LINE
8
BLACK
6
CONTINUOUS
10
139.183
20
-71.9874
11
139.247
21
-72.1421
0
LINE
8
BLACK
6
CONTINUOUS
10
139.247
20
-72.1421
11
139.28
21
-72.3063
0
LINE
8
BLACK
6
CONTINUOUS
10
139.28
20
-72.3063
11
139.28
21
-72.4737
0
LINE
8
BLACK
6
CONTINUOUS
10
139.28
20
-72.4737
11
139.247
21
-72.6379
0
LINE
8
BLACK
6
CONTINUOUS
10
139.247
20
-72.6379
11
139.183
21
-72.7926
0
LINE
8
BLACK
6
CONTINUOUS
10
139.183
20
-72.7926
11
139.09
21
-72.9318
0
LINE
8
BLACK
6
CONTINUOUS
10
139.09
20
-72.9318
11
138.972
21
-73.0502
0
LINE
8
BLACK
6
CONTINUOUS
10
138.972
20
-73.0502
11
138.833
21
-73.1433
0
LINE
8
BLACK
6
CONTINUOUS
10
138.833
20
-73.1433
11
138.678
21
-73.2073
0
LINE
8
BLACK
6
CONTINUOUS
10
138.678
20
-73.2073
11
138.514
21
-73.24
0
LINE
8
BLACK
6
CONTINUOUS
10
138.514
20
-73.24
11
138.346
21
-73.24
0
LINE
8
BLACK
6
CONTINUOUS
10
138.346
20
-73.24
11
138.182
21
-73.2073
0
LINE
8
BLACK
6
CONTINUOUS
10
138.182
20
-73.2073
11
138.027
21
-73.1433
0
LINE
8
BLACK
6
CONTINUOUS
10
138.027
20
-73.1433
11
137.888
21
-73.0502
0
LINE
8
BLACK
6
CONTINUOUS
10
137.888
20
-73.0502
11
137.77
21
-72.9318
0
LINE
8
BLACK
6
CONTINUOUS
10
137.77
20
-72.9318
11
137.677
21
-72.7926
0
LINE
8
BLACK
6
CONTINUOUS
10
137.677
20
-72.7926
11
137.613
21
-72.6379
0
LINE
8
BLACK
6
CONTINUOUS
10
137.613
20
-72.6379
11
137.58
21
-72.4737
0
LINE
8
BLACK
6
CONTINUOUS
10
137.58
20
-72.4737
11
137.58
21
-72.3063
0
LINE
8
BLACK
6
CONTINUOUS
10
137.58
20
-72.3063
11
137.613
21
-72.1421
0
LINE
8
BLACK
6
CONTINUOUS
10
137.613
20
-72.1421
11
137.677
21
-71.9874
0
LINE
8
BLACK
6
CONTINUOUS
10
137.677
20
-71.9874
11
137.77
21
-71.8482
0
LINE
8
BLACK
6
CONTINUOUS
10
137.77
20
-71.8482
11
137.888
21
-71.7298
0
LINE
8
BLACK
6
CONTINUOUS
10
137.888
20
-71.7298
11
138.027
21
-71.6367
0
LINE
8
BLACK
6
CONTINUOUS
10
138.027
20
-71.6367
11
138.182
21
-71.5727
0
LINE
8
BLACK
6
CONTINUOUS
10
138.182
20
-71.5727
11
138.346
21
-71.54
0
LINE
8
BLACK
6
CONTINUOUS
10
138.346
20
-71.54
11
138.514
21
-71.54
0
LINE
8
BLACK
6
CONTINUOUS
10
138.514
20
-71.54
11
138.678
21
-71.5727
0
LINE
8
BLACK
6
CONTINUOUS
10
151.378
20
-69.0327
11
151.533
21
-69.0967
0
LINE
8
BLACK
6
CONTINUOUS
10
151.533
20
-69.0967
11
151.672
21
-69.1898
0
LINE
8
BLACK
6
CONTINUOUS
10
151.672
20
-69.1898
11
151.79
21
-69.3082
0
LINE
8
BLACK
6
CONTINUOUS
10
151.79
20
-69.3082
11
151.883
21
-69.4474
0
LINE
8
BLACK
6
CONTINUOUS
10
151.883
20
-69.4474
11
151.947
21
-69.6021
0
LINE
8
BLACK
6
CONTINUOUS
10
151.947
20
-69.6021
11
151.98
21
-69.7663
0
LINE
8
BLACK
6
CONTINUOUS
10
151.98
20
-69.7663
11
151.98
21
-69.9337
0
LINE
8
BLACK
6
CONTINUOUS
10
151.98
20
-69.9337
11
151.947
21
-70.0979
0
LINE
8
BLACK
6
CONTINUOUS
10
151.947
20
-70.0979
11
151.883
21
-70.2526
0
LINE
8
BLACK
6
CONTINUOUS
10
151.883
20
-70.2526
11
151.79
21
-70.3918
0
LINE
8
BLACK
6
CONTINUOUS
10
151.79
20
-70.3918
11
151.672
21
-70.5102
0
LINE
8
BLACK
6
CONTINUOUS
10
151.672
20
-70.5102
11
151.533
21
-70.6033
0
LINE
8
BLACK
6
CONTINUOUS
10
151.533
20
-70.6033
11
151.378
21
-70.6673
0
LINE
8
BLACK
6
CONTINUOUS
10
151.378
20
-70.6673
11
151.214
21
-70.7
0
LINE
8
BLACK
6
CONTINUOUS
10
151.214
20
-70.7
11
151.046
21
-70.7
0
LINE
8
BLACK
6
CONTINUOUS
10
151.046
20
-70.7
11
150.882
21
-70.6673
0
LINE
8
BLACK
6
CONTINUOUS
10
150.882
20
-70.6673
11
150.727
21
-70.6033
0
LINE
8
BLACK
6
CONTINUOUS
10
150.727
20
-70.6033
11
150.588
21
-70.5102
0
LINE
8
BLACK
6
CONTINUOUS
10
150.588
20
-70.5102
11
150.47
21
-70.3918
0
LINE
8
BLACK
6
CONTINUOUS
10
150.47
20
-70.3918
11
150.377
21
-70.2526
0
LINE
8
BLACK
6
CONTINUOUS
10
150.377
20
-70.2526
11
150.313
21
-70.0979
0
LINE
8
BLACK
6
CONTINUOUS
10
150.313
20
-70.0979
11
150.28
21
-69.9337
0
LINE
8
BLACK
6
CONTINUOUS
10
150.28
20
-69.9337
11
150.28
21
-69.7663
0
LINE
8
BLACK
6
CONTINUOUS
10
150.28
20
-69.7663
11
150.313
21
-69.6021
0
LINE
8
BLACK
6
CONTINUOUS
10
150.313
20
-69.6021
11
150.377
21
-69.4474
0
LINE
8
BLACK
6
CONTINUOUS
10
150.377
20
-69.4474
11
150.47
21
-69.3082
0
LINE
8
BLACK
6
CONTINUOUS
10
150.47
20
-69.3082
11
150.588
21
-69.1898
0
LINE
8
BLACK
6
CONTINUOUS
10
150.588
20
-69.1898
11
150.727
21
-69.0967
0
LINE
8
BLACK
6
CONTINUOUS
10
150.727
20
-69.0967
11
150.882
21
-69.0327
0
LINE
8
BLACK
6
CONTINUOUS
10
150.882
20
-69.0327
11
151.046
21
-69
0
LINE
8
BLACK
6
CONTINUOUS
10
151.046
20
-69
11
151.214
21
-69
0
LINE
8
BLACK
6
CONTINUOUS
10
151.214
20
-69
11
151.378
21
-69.0327
0
LINE
8
BLACK
6
CONTINUOUS
10
143.758
20
-69.0327
11
143.913
21
-69.0967
0
LINE
8
BLACK
6
CONTINUOUS
10
143.913
20
-69.0967
11
144.052
21
-69.1898
0
LINE
8
BLACK
6
CONTINUOUS
10
144.052
20
-69.1898
11
144.17
21
-69.3082
0
LINE
8
BLACK
6
CONTINUOUS
10
144.17
20
-69.3082
11
144.263
21
-69.4474
0
LINE
8
BLACK
6
CONTINUOUS
10
144.263
20
-69.4474
11
144.327
21
-69.6021
0
LINE
8
BLACK
6
CONTINUOUS
10
144.327
20
-69.6021
11
144.36
21
-69.7663
0
LINE
8
BLACK
6
CONTINUOUS
10
144.36
20
-69.7663
11
144.36
21
-69.9337
0
LINE
8
BLACK
6
CONTINUOUS
10
144.36
20
-69.9337
11
144.327
21
-70.0979
0
LINE
8
BLACK
6
CONTINUOUS
10
144.327
20
-70.0979
11
144.263
21
-70.2526
0
LINE
8
BLACK
6
CONTINUOUS
10
144.263
20
-70.2526
11
144.17
21
-70.3918
0
LINE
8
BLACK
6
CONTINUOUS
10
144.17
20
-70.3918
11
144.052
21
-70.5102
0
LINE
8
BLACK
6
CONTINUOUS
10
144.052
20
-70.5102
11
143.913
21
-70.6033
0
LINE
8
BLACK
6
CONTINUOUS
10
143.913
20
-70.6033
11
143.758
21
-70.6673
0
LINE
8
BLACK
6
CONTINUOUS
10
143.758
20
-70.6673
11
143.594
21
-70.7
0
LINE
8
BLACK
6
CONTINUOUS
10
143.594
20
-70.7
11
143.426
21
-70.7
0
LINE
8
BLACK
6
CONTINUOUS
10
143.426
20
-70.7
11
143.262
21
-70.6673
0
LINE
8
BLACK
6
CONTINUOUS
10
143.262
20
-70.6673
11
143.107
21
-70.6033
0
LINE
8
BLACK
6
CONTINUOUS
10
143.107
20
-70.6033
11
142.968
21
-70.5102
0
LINE
8
BLACK
6
CONTINUOUS
10
142.968
20
-70.5102
11
142.85
21
-70.3918
0
LINE
8
BLACK
6
CONTINUOUS
10
142.85
20
-70.3918
11
142.757
21
-70.2526
0
LINE
8
BLACK
6
CONTINUOUS
10
142.757
20
-70.2526
11
142.693
21
-70.0979
0
LINE
8
BLACK
6
CONTINUOUS
10
142.693
20
-70.0979
11
142.66
21
-69.9337
0
LINE
8
BLACK
6
CONTINUOUS
10
142.66
20
-69.9337
11
142.66
21
-69.7663
0
LINE
8
BLACK
6
CONTINUOUS
10
142.66
20
-69.7663
11
142.693
21
-69.6021
0
LINE
8
BLACK
6
CONTINUOUS
10
142.693
20
-69.6021
11
142.757
21
-69.4474
0
LINE
8
BLACK
6
CONTINUOUS
10
142.757
20
-69.4474
11
142.85
21
-69.3082
0
LINE
8
BLACK
6
CONTINUOUS
10
142.85
20
-69.3082
11
142.968
21
-69.1898
0
LINE
8
BLACK
6
CONTINUOUS
10
142.968
20
-69.1898
11
143.107
21
-69.0967
0
LINE
8
BLACK
6
CONTINUOUS
10
143.107
20
-69.0967
11
143.262
21
-69.0327
0
LINE
8
BLACK
6
CONTINUOUS
10
143.262
20
-69.0327
11
143.426
21
-69
0
LINE
8
BLACK
6
CONTINUOUS
10
143.426
20
-69
11
143.594
21
-69
0
LINE
8
BLACK
6
CONTINUOUS
10
143.594
20
-69
11
143.758
21
-69.0327
0
LINE
8
BLACK
6
CONTINUOUS
10
138.678
20
-69.0327
11
138.833
21
-69.0967
0
LINE
8
BLACK
6
CONTINUOUS
10
138.833
20
-69.0967
11
138.972
21
-69.1898
0
LINE
8
BLACK
6
CONTINUOUS
10
138.972
20
-69.1898
11
139.09
21
-69.3082
0
LINE
8
BLACK
6
CONTINUOUS
10
139.09
20
-69.3082
11
139.183
21
-69.4474
0
LINE
8
BLACK
6
CONTINUOUS
10
139.183
20
-69.4474
11
139.247
21
-69.6021
0
LINE
8
BLACK
6
CONTINUOUS
10
139.247
20
-69.6021
11
139.28
21
-69.7663
0
LINE
8
BLACK
6
CONTINUOUS
10
139.28
20
-69.7663
11
139.28
21
-69.9337
0
LINE
8
BLACK
6
CONTINUOUS
10
139.28
20
-69.9337
11
139.247
21
-70.0979
0
LINE
8
BLACK
6
CONTINUOUS
10
139.247
20
-70.0979
11
139.183
21
-70.2526
0
LINE
8
BLACK
6
CONTINUOUS
10
139.183
20
-70.2526
11
139.09
21
-70.3918
0
LINE
8
BLACK
6
CONTINUOUS
10
139.09
20
-70.3918
11
138.972
21
-70.5102
0
LINE
8
BLACK
6
CONTINUOUS
10
138.972
20
-70.5102
11
138.833
21
-70.6033
0
LINE
8
BLACK
6
CONTINUOUS
10
138.833
20
-70.6033
11
138.678
21
-70.6673
0
LINE
8
BLACK
6
CONTINUOUS
10
138.678
20
-70.6673
11
138.514
21
-70.7
0
LINE
8
BLACK
6
CONTINUOUS
10
138.514
20
-70.7
11
138.346
21
-70.7
0
LINE
8
BLACK
6
CONTINUOUS
10
138.346
20
-70.7
11
138.182
21
-70.6673
0
LINE
8
BLACK
6
CONTINUOUS
10
138.182
20
-70.6673
11
138.027
21
-70.6033
0
LINE
8
BLACK
6
CONTINUOUS
10
138.027
20
-70.6033
11
137.888
21
-70.5102
0
LINE
8
BLACK
6
CONTINUOUS
10
137.888
20
-70.5102
11
137.77
21
-70.3918
0
LINE
8
BLACK
6
CONTINUOUS
10
137.77
20
-70.3918
11
137.677
21
-70.2526
0
LINE
8
BLACK
6
CONTINUOUS
10
137.677
20
-70.2526
11
137.613
21
-70.0979
0
LINE
8
BLACK
6
CONTINUOUS
10
137.613
20
-70.0979
11
137.58
21
-69.9337
0
LINE
8
BLACK
6
CONTINUOUS
10
137.58
20
-69.9337
11
137.58
21
-69.7663
0
LINE
8
BLACK
6
CONTINUOUS
10
137.58
20
-69.7663
11
137.613
21
-69.6021
0
LINE
8
BLACK
6
CONTINUOUS
10
137.613
20
-69.6021
11
137.677
21
-69.4474
0
LINE
8
BLACK
6
CONTINUOUS
10
137.677
20
-69.4474
11
137.77
21
-69.3082
0
LINE
8
BLACK
6
CONTINUOUS
10
137.77
20
-69.3082
11
137.888
21
-69.1898
0
LINE
8
BLACK
6
CONTINUOUS
10
137.888
20
-69.1898
11
138.027
21
-69.0967
0
LINE
8
BLACK
6
CONTINUOUS
10
138.027
20
-69.0967
11
138.182
21
-69.0327
0
LINE
8
BLACK
6
CONTINUOUS
10
138.182
20
-69.0327
11
138.346
21
-69
0
LINE
8
BLACK
6
CONTINUOUS
10
138.346
20
-69
11
138.514
21
-69
0
LINE
8
BLACK
6
CONTINUOUS
10
138.514
20
-69
11
138.678
21
-69.0327
0
LINE
8
BLACK
6
CONTINUOUS
10
156.458
20
-69.0327
11
156.613
21
-69.0967
0
LINE
8
BLACK
6
CONTINUOUS
10
156.613
20
-69.0967
11
156.752
21
-69.1898
0
LINE
8
BLACK
6
CONTINUOUS
10
156.752
20
-69.1898
11
156.87
21
-69.3082
0
LINE
8
BLACK
6
CONTINUOUS
10
156.87
20
-69.3082
11
156.963
21
-69.4474
0
LINE
8
BLACK
6
CONTINUOUS
10
156.963
20
-69.4474
11
157.027
21
-69.6021
0
LINE
8
BLACK
6
CONTINUOUS
10
157.027
20
-69.6021
11
157.06
21
-69.7663
0
LINE
8
BLACK
6
CONTINUOUS
10
157.06
20
-69.7663
11
157.06
21
-69.9337
0
LINE
8
BLACK
6
CONTINUOUS
10
157.06
20
-69.9337
11
157.027
21
-70.0979
0
LINE
8
BLACK
6
CONTINUOUS
10
157.027
20
-70.0979
11
156.963
21
-70.2526
0
LINE
8
BLACK
6
CONTINUOUS
10
156.963
20
-70.2526
11
156.87
21
-70.3918
0
LINE
8
BLACK
6
CONTINUOUS
10
156.87
20
-70.3918
11
156.752
21
-70.5102
0
LINE
8
BLACK
6
CONTINUOUS
10
156.752
20
-70.5102
11
156.613
21
-70.6033
0
LINE
8
BLACK
6
CONTINUOUS
10
156.613
20
-70.6033
11
156.458
21
-70.6673
0
LINE
8
BLACK
6
CONTINUOUS
10
156.458
20
-70.6673
11
156.294
21
-70.7
0
LINE
8
BLACK
6
CONTINUOUS
10
156.294
20
-70.7
11
156.126
21
-70.7
0
LINE
8
BLACK
6
CONTINUOUS
10
156.126
20
-70.7
11
155.962
21
-70.6673
0
LINE
8
BLACK
6
CONTINUOUS
10
155.962
20
-70.6673
11
155.807
21
-70.6033
0
LINE
8
BLACK
6
CONTINUOUS
10
155.807
20
-70.6033
11
155.668
21
-70.5102
0
LINE
8
BLACK
6
CONTINUOUS
10
155.668
20
-70.5102
11
155.55
21
-70.3918
0
LINE
8
BLACK
6
CONTINUOUS
10
155.55
20
-70.3918
11
155.457
21
-70.2526
0
LINE
8
BLACK
6
CONTINUOUS
10
155.457
20
-70.2526
11
155.393
21
-70.0979
0
LINE
8
BLACK
6
CONTINUOUS
10
155.393
20
-70.0979
11
155.36
21
-69.9337
0
LINE
8
BLACK
6
CONTINUOUS
10
155.36
20
-69.9337
11
155.36
21
-69.7663
0
LINE
8
BLACK
6
CONTINUOUS
10
155.36
20
-69.7663
11
155.393
21
-69.6021
0
LINE
8
BLACK
6
CONTINUOUS
10
155.393
20
-69.6021
11
155.457
21
-69.4474
0
LINE
8
BLACK
6
CONTINUOUS
10
155.457
20
-69.4474
11
155.55
21
-69.3082
0
LINE
8
BLACK
6
CONTINUOUS
10
155.55
20
-69.3082
11
155.668
21
-69.1898
0
LINE
8
BLACK
6
CONTINUOUS
10
155.668
20
-69.1898
11
155.807
21
-69.0967
0
LINE
8
BLACK
6
CONTINUOUS
10
155.807
20
-69.0967
11
155.962
21
-69.0327
0
LINE
8
BLACK
6
CONTINUOUS
10
155.962
20
-69.0327
11
156.126
21
-69
0
LINE
8
BLACK
6
CONTINUOUS
10
156.126
20
-69
11
156.294
21
-69
0
LINE
8
BLACK
6
CONTINUOUS
10
156.294
20
-69
11
156.458
21
-69.0327
0
LINE
8
BLACK
6
CONTINUOUS
10
141.897
20
-65.7134
11
142.079
21
-65.7888
0
LINE
8
BLACK
6
CONTINUOUS
10
142.079
20
-65.7888
11
142.242
21
-65.8982
0
LINE
8
BLACK
6
CONTINUOUS
10
142.242
20
-65.8982
11
142.382
21
-66.0375
0
LINE
8
BLACK
6
CONTINUOUS
10
142.382
20
-66.0375
11
142.474
21
-66.175
0
LINE
8
BLACK
6
CONTINUOUS
10
142.474
20
-66.175
11
152.801
21
-66.175
0
LINE
8
BLACK
6
CONTINUOUS
10
152.801
20
-66.175
11
152.893
21
-66.0375
0
LINE
8
BLACK
6
CONTINUOUS
10
152.893
20
-66.0375
11
153.033
21
-65.8982
0
LINE
8
BLACK
6
CONTINUOUS
10
153.033
20
-65.8982
11
153.196
21
-65.7888
0
LINE
8
BLACK
6
CONTINUOUS
10
153.196
20
-65.7888
11
153.378
21
-65.7134
0
LINE
8
BLACK
6
CONTINUOUS
10
153.378
20
-65.7134
11
153.572
21
-65.675
0
LINE
8
BLACK
6
CONTINUOUS
10
153.572
20
-65.675
11
153.768
21
-65.675
0
LINE
8
BLACK
6
CONTINUOUS
10
153.768
20
-65.675
11
153.962
21
-65.7134
0
LINE
8
BLACK
6
CONTINUOUS
10
153.962
20
-65.7134
11
154.144
21
-65.7888
0
LINE
8
BLACK
6
CONTINUOUS
10
154.144
20
-65.7888
11
154.307
21
-65.8982
0
LINE
8
BLACK
6
CONTINUOUS
10
154.307
20
-65.8982
11
154.447
21
-66.0375
0
LINE
8
BLACK
6
CONTINUOUS
10
154.447
20
-66.0375
11
154.556
21
-66.2013
0
LINE
8
BLACK
6
CONTINUOUS
10
154.556
20
-66.2013
11
154.632
21
-66.3833
0
LINE
8
BLACK
6
CONTINUOUS
10
154.632
20
-66.3833
11
154.67
21
-66.5765
0
LINE
8
BLACK
6
CONTINUOUS
10
154.67
20
-66.5765
11
154.67
21
-66.7735
0
LINE
8
BLACK
6
CONTINUOUS
10
154.67
20
-66.7735
11
154.632
21
-66.9667
0
LINE
8
BLACK
6
CONTINUOUS
10
154.632
20
-66.9667
11
154.556
21
-67.1487
0
LINE
8
BLACK
6
CONTINUOUS
10
154.556
20
-67.1487
11
154.447
21
-67.3125
0
LINE
8
BLACK
6
CONTINUOUS
10
154.447
20
-67.3125
11
154.307
21
-67.4518
0
LINE
8
BLACK
6
CONTINUOUS
10
154.307
20
-67.4518
11
154.144
21
-67.5612
0
LINE
8
BLACK
6
CONTINUOUS
10
154.144
20
-67.5612
11
153.962
21
-67.6366
0
LINE
8
BLACK
6
CONTINUOUS
10
153.962
20
-67.6366
11
153.768
21
-67.675
0
LINE
8
BLACK
6
CONTINUOUS
10
153.768
20
-67.675
11
153.572
21
-67.675
0
LINE
8
BLACK
6
CONTINUOUS
10
153.572
20
-67.675
11
153.378
21
-67.6366
0
LINE
8
BLACK
6
CONTINUOUS
10
153.378
20
-67.6366
11
153.196
21
-67.5612
0
LINE
8
BLACK
6
CONTINUOUS
10
153.196
20
-67.5612
11
153.033
21
-67.4518
0
LINE
8
BLACK
6
CONTINUOUS
10
153.033
20
-67.4518
11
152.893
21
-67.3125
0
LINE
8
BLACK
6
CONTINUOUS
10
152.893
20
-67.3125
11
152.801
21
-67.175
0
LINE
8
BLACK
6
CONTINUOUS
10
152.801
20
-67.175
11
142.474
21
-67.175
0
LINE
8
BLACK
6
CONTINUOUS
10
142.474
20
-67.175
11
142.382
21
-67.3125
0
LINE
8
BLACK
6
CONTINUOUS
10
142.382
20
-67.3125
11
142.242
21
-67.4518
0
LINE
8
BLACK
6
CONTINUOUS
10
142.242
20
-67.4518
11
142.079
21
-67.5612
0
LINE
8
BLACK
6
CONTINUOUS
10
142.079
20
-67.5612
11
141.897
21
-67.6366
0
LINE
8
BLACK
6
CONTINUOUS
10
141.897
20
-67.6366
11
141.703
21
-67.675
0
LINE
8
BLACK
6
CONTINUOUS
10
141.703
20
-67.675
11
141.507
21
-67.675
0
LINE
8
BLACK
6
CONTINUOUS
10
141.507
20
-67.675
11
141.313
21
-67.6366
0
LINE
8
BLACK
6
CONTINUOUS
10
141.313
20
-67.6366
11
141.131
21
-67.5612
0
LINE
8
BLACK
6
CONTINUOUS
10
141.131
20
-67.5612
11
140.968
21
-67.4518
0
LINE
8
BLACK
6
CONTINUOUS
10
140.968
20
-67.4518
11
140.828
21
-67.3125
0
LINE
8
BLACK
6
CONTINUOUS
10
140.828
20
-67.3125
11
140.719
21
-67.1487
0
LINE
8
BLACK
6
CONTINUOUS
10
140.719
20
-67.1487
11
140.643
21
-66.9667
0
LINE
8
BLACK
6
CONTINUOUS
10
140.643
20
-66.9667
11
140.605
21
-66.7735
0
LINE
8
BLACK
6
CONTINUOUS
10
140.605
20
-66.7735
11
140.605
21
-66.5765
0
LINE
8
BLACK
6
CONTINUOUS
10
140.605
20
-66.5765
11
140.643
21
-66.3833
0
LINE
8
BLACK
6
CONTINUOUS
10
140.643
20
-66.3833
11
140.719
21
-66.2013
0
LINE
8
BLACK
6
CONTINUOUS
10
140.719
20
-66.2013
11
140.828
21
-66.0375
0
LINE
8
BLACK
6
CONTINUOUS
10
140.828
20
-66.0375
11
140.968
21
-65.8982
0
LINE
8
BLACK
6
CONTINUOUS
10
140.968
20
-65.8982
11
141.131
21
-65.7888
0
LINE
8
BLACK
6
CONTINUOUS
10
141.131
20
-65.7888
11
141.313
21
-65.7134
0
LINE
8
BLACK
6
CONTINUOUS
10
141.313
20
-65.7134
11
141.507
21
-65.675
0
LINE
8
BLACK
6
CONTINUOUS
10
141.507
20
-65.675
11
141.703
21
-65.675
0
LINE
8
BLACK
6
CONTINUOUS
10
141.703
20
-65.675
11
141.897
21
-65.7134
0
LINE
8
BLACK
6
CONTINUOUS
10
151.363
20
-62.7307
11
151.509
21
-62.791
0
LINE
8
BLACK
6
CONTINUOUS
10
151.509
20
-62.791
11
151.64
21
-62.8786
0
LINE
8
BLACK
6
CONTINUOUS
10
151.64
20
-62.8786
11
151.751
21
-62.99
0
LINE
8
BLACK
6
CONTINUOUS
10
151.751
20
-62.99
11
151.839
21
-63.1211
0
LINE
8
BLACK
6
CONTINUOUS
10
151.839
20
-63.1211
11
151.899
21
-63.2666
0
LINE
8
BLACK
6
CONTINUOUS
10
151.899
20
-63.2666
11
151.93
21
-63.4212
0
LINE
8
BLACK
6
CONTINUOUS
10
151.93
20
-63.4212
11
151.93
21
-63.5788
0
LINE
8
BLACK
6
CONTINUOUS
10
151.93
20
-63.5788
11
151.899
21
-63.7334
0
LINE
8
BLACK
6
CONTINUOUS
10
151.899
20
-63.7334
11
151.839
21
-63.8789
0
LINE
8
BLACK
6
CONTINUOUS
10
151.839
20
-63.8789
11
151.751
21
-64.01
0
LINE
8
BLACK
6
CONTINUOUS
10
151.751
20
-64.01
11
151.64
21
-64.1214
0
LINE
8
BLACK
6
CONTINUOUS
10
151.64
20
-64.1214
11
151.509
21
-64.209
0
LINE
8
BLACK
6
CONTINUOUS
10
151.509
20
-64.209
11
151.363
21
-64.2693
0
LINE
8
BLACK
6
CONTINUOUS
10
151.363
20
-64.2693
11
151.209
21
-64.3
0
LINE
8
BLACK
6
CONTINUOUS
10
151.209
20
-64.3
11
151.051
21
-64.3
0
LINE
8
BLACK
6
CONTINUOUS
10
151.051
20
-64.3
11
150.897
21
-64.2693
0
LINE
8
BLACK
6
CONTINUOUS
10
150.897
20
-64.2693
11
150.751
21
-64.209
0
LINE
8
BLACK
6
CONTINUOUS
10
150.751
20
-64.209
11
150.62
21
-64.1214
0
LINE
8
BLACK
6
CONTINUOUS
10
150.62
20
-64.1214
11
150.509
21
-64.01
0
LINE
8
BLACK
6
CONTINUOUS
10
150.509
20
-64.01
11
150.421
21
-63.8789
0
LINE
8
BLACK
6
CONTINUOUS
10
150.421
20
-63.8789
11
150.361
21
-63.7334
0
LINE
8
BLACK
6
CONTINUOUS
10
150.361
20
-63.7334
11
150.33
21
-63.5788
0
LINE
8
BLACK
6
CONTINUOUS
10
150.33
20
-63.5788
11
150.33
21
-63.4212
0
LINE
8
BLACK
6
CONTINUOUS
10
150.33
20
-63.4212
11
150.361
21
-63.2666
0
LINE
8
BLACK
6
CONTINUOUS
10
150.361
20
-63.2666
11
150.421
21
-63.1211
0
LINE
8
BLACK
6
CONTINUOUS
10
150.421
20
-63.1211
11
150.509
21
-62.99
0
LINE
8
BLACK
6
CONTINUOUS
10
150.509
20
-62.99
11
150.62
21
-62.8786
0
LINE
8
BLACK
6
CONTINUOUS
10
150.62
20
-62.8786
11
150.751
21
-62.791
0
LINE
8
BLACK
6
CONTINUOUS
10
150.751
20
-62.791
11
150.897
21
-62.7307
0
LINE
8
BLACK
6
CONTINUOUS
10
150.897
20
-62.7307
11
151.051
21
-62.7
0
LINE
8
BLACK
6
CONTINUOUS
10
151.051
20
-62.7
11
151.209
21
-62.7
0
LINE
8
BLACK
6
CONTINUOUS
10
151.209
20
-62.7
11
151.363
21
-62.7307
0
LINE
8
BLACK
6
CONTINUOUS
10
153.903
20
-62.7307
11
154.049
21
-62.791
0
LINE
8
BLACK
6
CONTINUOUS
10
154.049
20
-62.791
11
154.18
21
-62.8786
0
LINE
8
BLACK
6
CONTINUOUS
10
154.18
20
-62.8786
11
154.291
21
-62.99
0
LINE
8
BLACK
6
CONTINUOUS
10
154.291
20
-62.99
11
154.379
21
-63.1211
0
LINE
8
BLACK
6
CONTINUOUS
10
154.379
20
-63.1211
11
154.439
21
-63.2666
0
LINE
8
BLACK
6
CONTINUOUS
10
154.439
20
-63.2666
11
154.47
21
-63.4212
0
LINE
8
BLACK
6
CONTINUOUS
10
154.47
20
-63.4212
11
154.47
21
-63.5788
0
LINE
8
BLACK
6
CONTINUOUS
10
154.47
20
-63.5788
11
154.439
21
-63.7334
0
LINE
8
BLACK
6
CONTINUOUS
10
154.439
20
-63.7334
11
154.379
21
-63.8789
0
LINE
8
BLACK
6
CONTINUOUS
10
154.379
20
-63.8789
11
154.291
21
-64.01
0
LINE
8
BLACK
6
CONTINUOUS
10
154.291
20
-64.01
11
154.18
21
-64.1214
0
LINE
8
BLACK
6
CONTINUOUS
10
154.18
20
-64.1214
11
154.049
21
-64.209
0
LINE
8
BLACK
6
CONTINUOUS
10
154.049
20
-64.209
11
153.903
21
-64.2693
0
LINE
8
BLACK
6
CONTINUOUS
10
153.903
20
-64.2693
11
153.749
21
-64.3
0
LINE
8
BLACK
6
CONTINUOUS
10
153.749
20
-64.3
11
153.591
21
-64.3
0
LINE
8
BLACK
6
CONTINUOUS
10
153.591
20
-64.3
11
153.437
21
-64.2693
0
LINE
8
BLACK
6
CONTINUOUS
10
153.437
20
-64.2693
11
153.291
21
-64.209
0
LINE
8
BLACK
6
CONTINUOUS
10
153.291
20
-64.209
11
153.16
21
-64.1214
0
LINE
8
BLACK
6
CONTINUOUS
10
153.16
20
-64.1214
11
153.049
21
-64.01
0
LINE
8
BLACK
6
CONTINUOUS
10
153.049
20
-64.01
11
152.961
21
-63.8789
0
LINE
8
BLACK
6
CONTINUOUS
10
152.961
20
-63.8789
11
152.901
21
-63.7334
0
LINE
8
BLACK
6
CONTINUOUS
10
152.901
20
-63.7334
11
152.87
21
-63.5788
0
LINE
8
BLACK
6
CONTINUOUS
10
152.87
20
-63.5788
11
152.87
21
-63.4212
0
LINE
8
BLACK
6
CONTINUOUS
10
152.87
20
-63.4212
11
152.901
21
-63.2666
0
LINE
8
BLACK
6
CONTINUOUS
10
152.901
20
-63.2666
11
152.961
21
-63.1211
0
LINE
8
BLACK
6
CONTINUOUS
10
152.961
20
-63.1211
11
153.049
21
-62.99
0
LINE
8
BLACK
6
CONTINUOUS
10
153.049
20
-62.99
11
153.16
21
-62.8786
0
LINE
8
BLACK
6
CONTINUOUS
10
153.16
20
-62.8786
11
153.291
21
-62.791
0
LINE
8
BLACK
6
CONTINUOUS
10
153.291
20
-62.791
11
153.437
21
-62.7307
0
LINE
8
BLACK
6
CONTINUOUS
10
153.437
20
-62.7307
11
153.591
21
-62.7
0
LINE
8
BLACK
6
CONTINUOUS
10
153.591
20
-62.7
11
153.749
21
-62.7
0
LINE
8
BLACK
6
CONTINUOUS
10
153.749
20
-62.7
11
153.903
21
-62.7307
0
LINE
8
BLACK
6
CONTINUOUS
10
156.443
20
-62.7307
11
156.589
21
-62.791
0
LINE
8
BLACK
6
CONTINUOUS
10
156.589
20
-62.791
11
156.72
21
-62.8786
0
LINE
8
BLACK
6
CONTINUOUS
10
156.72
20
-62.8786
11
156.831
21
-62.99
0
LINE
8
BLACK
6
CONTINUOUS
10
156.831
20
-62.99
11
156.919
21
-63.1211
0
LINE
8
BLACK
6
CONTINUOUS
10
156.919
20
-63.1211
11
156.979
21
-63.2666
0
LINE
8
BLACK
6
CONTINUOUS
10
156.979
20
-63.2666
11
157.01
21
-63.4212
0
LINE
8
BLACK
6
CONTINUOUS
10
157.01
20
-63.4212
11
157.01
21
-63.5788
0
LINE
8
BLACK
6
CONTINUOUS
10
157.01
20
-63.5788
11
156.979
21
-63.7334
0
LINE
8
BLACK
6
CONTINUOUS
10
156.979
20
-63.7334
11
156.919
21
-63.8789
0
LINE
8
BLACK
6
CONTINUOUS
10
156.919
20
-63.8789
11
156.831
21
-64.01
0
LINE
8
BLACK
6
CONTINUOUS
10
156.831
20
-64.01
11
156.72
21
-64.1214
0
LINE
8
BLACK
6
CONTINUOUS
10
156.72
20
-64.1214
11
156.589
21
-64.209
0
LINE
8
BLACK
6
CONTINUOUS
10
156.589
20
-64.209
11
156.443
21
-64.2693
0
LINE
8
BLACK
6
CONTINUOUS
10
156.443
20
-64.2693
11
156.289
21
-64.3
0
LINE
8
BLACK
6
CONTINUOUS
10
156.289
20
-64.3
11
156.131
21
-64.3
0
LINE
8
BLACK
6
CONTINUOUS
10
156.131
20
-64.3
11
155.977
21
-64.2693
0
LINE
8
BLACK
6
CONTINUOUS
10
155.977
20
-64.2693
11
155.831
21
-64.209
0
LINE
8
BLACK
6
CONTINUOUS
10
155.831
20
-64.209
11
155.7
21
-64.1214
0
LINE
8
BLACK
6
CONTINUOUS
10
155.7
20
-64.1214
11
155.589
21
-64.01
0
LINE
8
BLACK
6
CONTINUOUS
10
155.589
20
-64.01
11
155.501
21
-63.8789
0
LINE
8
BLACK
6
CONTINUOUS
10
155.501
20
-63.8789
11
155.441
21
-63.7334
0
LINE
8
BLACK
6
CONTINUOUS
10
155.441
20
-63.7334
11
155.41
21
-63.5788
0
LINE
8
BLACK
6
CONTINUOUS
10
155.41
20
-63.5788
11
155.41
21
-63.4212
0
LINE
8
BLACK
6
CONTINUOUS
10
155.41
20
-63.4212
11
155.441
21
-63.2666
0
LINE
8
BLACK
6
CONTINUOUS
10
155.441
20
-63.2666
11
155.501
21
-63.1211
0
LINE
8
BLACK
6
CONTINUOUS
10
155.501
20
-63.1211
11
155.589
21
-62.99
0
LINE
8
BLACK
6
CONTINUOUS
10
155.589
20
-62.99
11
155.7
21
-62.8786
0
LINE
8
BLACK
6
CONTINUOUS
10
155.7
20
-62.8786
11
155.831
21
-62.791
0
LINE
8
BLACK
6
CONTINUOUS
10
155.831
20
-62.791
11
155.977
21
-62.7307
0
LINE
8
BLACK
6
CONTINUOUS
10
155.977
20
-62.7307
11
156.131
21
-62.7
0
LINE
8
BLACK
6
CONTINUOUS
10
156.131
20
-62.7
11
156.289
21
-62.7
0
LINE
8
BLACK
6
CONTINUOUS
10
156.289
20
-62.7
11
156.443
21
-62.7307
0
LINE
8
BLACK
6
CONTINUOUS
10
119.363
20
-62.7307
11
119.509
21
-62.791
0
LINE
8
BLACK
6
CONTINUOUS
10
119.509
20
-62.791
11
119.64
21
-62.8786
0
LINE
8
BLACK
6
CONTINUOUS
10
119.64
20
-62.8786
11
119.751
21
-62.99
0
LINE
8
BLACK
6
CONTINUOUS
10
119.751
20
-62.99
11
119.839
21
-63.1211
0
LINE
8
BLACK
6
CONTINUOUS
10
119.839
20
-63.1211
11
119.899
21
-63.2666
0
LINE
8
BLACK
6
CONTINUOUS
10
119.899
20
-63.2666
11
119.93
21
-63.4212
0
LINE
8
BLACK
6
CONTINUOUS
10
119.93
20
-63.4212
11
119.93
21
-63.5788
0
LINE
8
BLACK
6
CONTINUOUS
10
119.93
20
-63.5788
11
119.899
21
-63.7334
0
LINE
8
BLACK
6
CONTINUOUS
10
119.899
20
-63.7334
11
119.839
21
-63.8789
0
LINE
8
BLACK
6
CONTINUOUS
10
119.839
20
-63.8789
11
119.751
21
-64.01
0
LINE
8
BLACK
6
CONTINUOUS
10
119.751
20
-64.01
11
119.64
21
-64.1214
0
LINE
8
BLACK
6
CONTINUOUS
10
119.64
20
-64.1214
11
119.509
21
-64.209
0
LINE
8
BLACK
6
CONTINUOUS
10
119.509
20
-64.209
11
119.363
21
-64.2693
0
LINE
8
BLACK
6
CONTINUOUS
10
119.363
20
-64.2693
11
119.209
21
-64.3
0
LINE
8
BLACK
6
CONTINUOUS
10
119.209
20
-64.3
11
119.051
21
-64.3
0
LINE
8
BLACK
6
CONTINUOUS
10
119.051
20
-64.3
11
118.897
21
-64.2693
0
LINE
8
BLACK
6
CONTINUOUS
10
118.897
20
-64.2693
11
118.751
21
-64.209
0
LINE
8
BLACK
6
CONTINUOUS
10
118.751
20
-64.209
11
118.62
21
-64.1214
0
LINE
8
BLACK
6
CONTINUOUS
10
118.62
20
-64.1214
11
118.509
21
-64.01
0
LINE
8
BLACK
6
CONTINUOUS
10
118.509
20
-64.01
11
118.421
21
-63.8789
0
LINE
8
BLACK
6
CONTINUOUS
10
118.421
20
-63.8789
11
118.361
21
-63.7334
0
LINE
8
BLACK
6
CONTINUOUS
10
118.361
20
-63.7334
11
118.33
21
-63.5788
0
LINE
8
BLACK
6
CONTINUOUS
10
118.33
20
-63.5788
11
118.33
21
-63.4212
0
LINE
8
BLACK
6
CONTINUOUS
10
118.33
20
-63.4212
11
118.361
21
-63.2666
0
LINE
8
BLACK
6
CONTINUOUS
10
118.361
20
-63.2666
11
118.421
21
-63.1211
0
LINE
8
BLACK
6
CONTINUOUS
10
118.421
20
-63.1211
11
118.509
21
-62.99
0
LINE
8
BLACK
6
CONTINUOUS
10
118.509
20
-62.99
11
118.62
21
-62.8786
0
LINE
8
BLACK
6
CONTINUOUS
10
118.62
20
-62.8786
11
118.751
21
-62.791
0
LINE
8
BLACK
6
CONTINUOUS
10
118.751
20
-62.791
11
118.897
21
-62.7307
0
LINE
8
BLACK
6
CONTINUOUS
10
118.897
20
-62.7307
11
119.051
21
-62.7
0
LINE
8
BLACK
6
CONTINUOUS
10
119.051
20
-62.7
11
119.209
21
-62.7
0
LINE
8
BLACK
6
CONTINUOUS
10
119.209
20
-62.7
11
119.363
21
-62.7307
0
LINE
8
BLACK
6
CONTINUOUS
10
148.823
20
-62.7307
11
148.969
21
-62.791
0
LINE
8
BLACK
6
CONTINUOUS
10
148.969
20
-62.791
11
149.1
21
-62.8786
0
LINE
8
BLACK
6
CONTINUOUS
10
149.1
20
-62.8786
11
149.211
21
-62.99
0
LINE
8
BLACK
6
CONTINUOUS
10
149.211
20
-62.99
11
149.299
21
-63.1211
0
LINE
8
BLACK
6
CONTINUOUS
10
149.299
20
-63.1211
11
149.359
21
-63.2666
0
LINE
8
BLACK
6
CONTINUOUS
10
149.359
20
-63.2666
11
149.39
21
-63.4212
0
LINE
8
BLACK
6
CONTINUOUS
10
149.39
20
-63.4212
11
149.39
21
-63.5788
0
LINE
8
BLACK
6
CONTINUOUS
10
149.39
20
-63.5788
11
149.359
21
-63.7334
0
LINE
8
BLACK
6
CONTINUOUS
10
149.359
20
-63.7334
11
149.299
21
-63.8789
0
LINE
8
BLACK
6
CONTINUOUS
10
149.299
20
-63.8789
11
149.211
21
-64.01
0
LINE
8
BLACK
6
CONTINUOUS
10
149.211
20
-64.01
11
149.1
21
-64.1214
0
LINE
8
BLACK
6
CONTINUOUS
10
149.1
20
-64.1214
11
148.969
21
-64.209
0
LINE
8
BLACK
6
CONTINUOUS
10
148.969
20
-64.209
11
148.823
21
-64.2693
0
LINE
8
BLACK
6
CONTINUOUS
10
148.823
20
-64.2693
11
148.669
21
-64.3
0
LINE
8
BLACK
6
CONTINUOUS
10
148.669
20
-64.3
11
148.511
21
-64.3
0
LINE
8
BLACK
6
CONTINUOUS
10
148.511
20
-64.3
11
148.357
21
-64.2693
0
LINE
8
BLACK
6
CONTINUOUS
10
148.357
20
-64.2693
11
148.211
21
-64.209
0
LINE
8
BLACK
6
CONTINUOUS
10
148.211
20
-64.209
11
148.08
21
-64.1214
0
LINE
8
BLACK
6
CONTINUOUS
10
148.08
20
-64.1214
11
147.969
21
-64.01
0
LINE
8
BLACK
6
CONTINUOUS
10
147.969
20
-64.01
11
147.881
21
-63.8789
0
LINE
8
BLACK
6
CONTINUOUS
10
147.881
20
-63.8789
11
147.821
21
-63.7334
0
LINE
8
BLACK
6
CONTINUOUS
10
147.821
20
-63.7334
11
147.79
21
-63.5788
0
LINE
8
BLACK
6
CONTINUOUS
10
147.79
20
-63.5788
11
147.79
21
-63.4212
0
LINE
8
BLACK
6
CONTINUOUS
10
147.79
20
-63.4212
11
147.821
21
-63.2666
0
LINE
8
BLACK
6
CONTINUOUS
10
147.821
20
-63.2666
11
147.881
21
-63.1211
0
LINE
8
BLACK
6
CONTINUOUS
10
147.881
20
-63.1211
11
147.969
21
-62.99
0
LINE
8
BLACK
6
CONTINUOUS
10
147.969
20
-62.99
11
148.08
21
-62.8786
0
LINE
8
BLACK
6
CONTINUOUS
10
148.08
20
-62.8786
11
148.211
21
-62.791
0
LINE
8
BLACK
6
CONTINUOUS
10
148.211
20
-62.791
11
148.357
21
-62.7307
0
LINE
8
BLACK
6
CONTINUOUS
10
148.357
20
-62.7307
11
148.511
21
-62.7
0
LINE
8
BLACK
6
CONTINUOUS
10
148.511
20
-62.7
11
148.669
21
-62.7
0
LINE
8
BLACK
6
CONTINUOUS
10
148.669
20
-62.7
11
148.823
21
-62.7307
0
LINE
8
BLACK
6
CONTINUOUS
10
116.823
20
-62.7307
11
116.969
21
-62.791
0
LINE
8
BLACK
6
CONTINUOUS
10
116.969
20
-62.791
11
117.1
21
-62.8786
0
LINE
8
BLACK
6
CONTINUOUS
10
117.1
20
-62.8786
11
117.211
21
-62.99
0
LINE
8
BLACK
6
CONTINUOUS
10
117.211
20
-62.99
11
117.299
21
-63.1211
0
LINE
8
BLACK
6
CONTINUOUS
10
117.299
20
-63.1211
11
117.359
21
-63.2666
0
LINE
8
BLACK
6
CONTINUOUS
10
117.359
20
-63.2666
11
117.39
21
-63.4212
0
LINE
8
BLACK
6
CONTINUOUS
10
117.39
20
-63.4212
11
117.39
21
-63.5788
0
LINE
8
BLACK
6
CONTINUOUS
10
117.39
20
-63.5788
11
117.359
21
-63.7334
0
LINE
8
BLACK
6
CONTINUOUS
10
117.359
20
-63.7334
11
117.299
21
-63.8789
0
LINE
8
BLACK
6
CONTINUOUS
10
117.299
20
-63.8789
11
117.211
21
-64.01
0
LINE
8
BLACK
6
CONTINUOUS
10
117.211
20
-64.01
11
117.1
21
-64.1214
0
LINE
8
BLACK
6
CONTINUOUS
10
117.1
20
-64.1214
11
116.969
21
-64.209
0
LINE
8
BLACK
6
CONTINUOUS
10
116.969
20
-64.209
11
116.823
21
-64.2693
0
LINE
8
BLACK
6
CONTINUOUS
10
116.823
20
-64.2693
11
116.669
21
-64.3
0
LINE
8
BLACK
6
CONTINUOUS
10
116.669
20
-64.3
11
116.511
21
-64.3
0
LINE
8
BLACK
6
CONTINUOUS
10
116.511
20
-64.3
11
116.357
21
-64.2693
0
LINE
8
BLACK
6
CONTINUOUS
10
116.357
20
-64.2693
11
116.211
21
-64.209
0
LINE
8
BLACK
6
CONTINUOUS
10
116.211
20
-64.209
11
116.08
21
-64.1214
0
LINE
8
BLACK
6
CONTINUOUS
10
116.08
20
-64.1214
11
115.969
21
-64.01
0
LINE
8
BLACK
6
CONTINUOUS
10
115.969
20
-64.01
11
115.881
21
-63.8789
0
LINE
8
BLACK
6
CONTINUOUS
10
115.881
20
-63.8789
11
115.821
21
-63.7334
0
LINE
8
BLACK
6
CONTINUOUS
10
115.821
20
-63.7334
11
115.79
21
-63.5788
0
LINE
8
BLACK
6
CONTINUOUS
10
115.79
20
-63.5788
11
115.79
21
-63.4212
0
LINE
8
BLACK
6
CONTINUOUS
10
115.79
20
-63.4212
11
115.821
21
-63.2666
0
LINE
8
BLACK
6
CONTINUOUS
10
115.821
20
-63.2666
11
115.881
21
-63.1211
0
LINE
8
BLACK
6
CONTINUOUS
10
115.881
20
-63.1211
11
115.969
21
-62.99
0
LINE
8
BLACK
6
CONTINUOUS
10
115.969
20
-62.99
11
116.08
21
-62.8786
0
LINE
8
BLACK
6
CONTINUOUS
10
116.08
20
-62.8786
11
116.211
21
-62.791
0
LINE
8
BLACK
6
CONTINUOUS
10
116.211
20
-62.791
11
116.357
21
-62.7307
0
LINE
8
BLACK
6
CONTINUOUS
10
116.357
20
-62.7307
11
116.511
21
-62.7
0
LINE
8
BLACK
6
CONTINUOUS
10
116.511
20
-62.7
11
116.669
21
-62.7
0
LINE
8
BLACK
6
CONTINUOUS
10
116.669
20
-62.7
11
116.823
21
-62.7307
0
LINE
8
BLACK
6
CONTINUOUS
10
146.283
20
-62.7307
11
146.429
21
-62.791
0
LINE
8
BLACK
6
CONTINUOUS
10
146.429
20
-62.791
11
146.56
21
-62.8786
0
LINE
8
BLACK
6
CONTINUOUS
10
146.56
20
-62.8786
11
146.671
21
-62.99
0
LINE
8
BLACK
6
CONTINUOUS
10
146.671
20
-62.99
11
146.759
21
-63.1211
0
LINE
8
BLACK
6
CONTINUOUS
10
146.759
20
-63.1211
11
146.819
21
-63.2666
0
LINE
8
BLACK
6
CONTINUOUS
10
146.819
20
-63.2666
11
146.85
21
-63.4212
0
LINE
8
BLACK
6
CONTINUOUS
10
146.85
20
-63.4212
11
146.85
21
-63.5788
0
LINE
8
BLACK
6
CONTINUOUS
10
146.85
20
-63.5788
11
146.819
21
-63.7334
0
LINE
8
BLACK
6
CONTINUOUS
10
146.819
20
-63.7334
11
146.759
21
-63.8789
0
LINE
8
BLACK
6
CONTINUOUS
10
146.759
20
-63.8789
11
146.671
21
-64.01
0
LINE
8
BLACK
6
CONTINUOUS
10
146.671
20
-64.01
11
146.56
21
-64.1214
0
LINE
8
BLACK
6
CONTINUOUS
10
146.56
20
-64.1214
11
146.429
21
-64.209
0
LINE
8
BLACK
6
CONTINUOUS
10
146.429
20
-64.209
11
146.283
21
-64.2693
0
LINE
8
BLACK
6
CONTINUOUS
10
146.283
20
-64.2693
11
146.129
21
-64.3
0
LINE
8
BLACK
6
CONTINUOUS
10
146.129
20
-64.3
11
145.971
21
-64.3
0
LINE
8
BLACK
6
CONTINUOUS
10
145.971
20
-64.3
11
145.817
21
-64.2693
0
LINE
8
BLACK
6
CONTINUOUS
10
145.817
20
-64.2693
11
145.671
21
-64.209
0
LINE
8
BLACK
6
CONTINUOUS
10
145.671
20
-64.209
11
145.54
21
-64.1214
0
LINE
8
BLACK
6
CONTINUOUS
10
145.54
20
-64.1214
11
145.429
21
-64.01
0
LINE
8
BLACK
6
CONTINUOUS
10
145.429
20
-64.01
11
145.341
21
-63.8789
0
LINE
8
BLACK
6
CONTINUOUS
10
145.341
20
-63.8789
11
145.281
21
-63.7334
0
LINE
8
BLACK
6
CONTINUOUS
10
145.281
20
-63.7334
11
145.25
21
-63.5788
0
LINE
8
BLACK
6
CONTINUOUS
10
145.25
20
-63.5788
11
145.25
21
-63.4212
0
LINE
8
BLACK
6
CONTINUOUS
10
145.25
20
-63.4212
11
145.281
21
-63.2666
0
LINE
8
BLACK
6
CONTINUOUS
10
145.281
20
-63.2666
11
145.341
21
-63.1211
0
LINE
8
BLACK
6
CONTINUOUS
10
145.341
20
-63.1211
11
145.429
21
-62.99
0
LINE
8
BLACK
6
CONTINUOUS
10
145.429
20
-62.99
11
145.54
21
-62.8786
0
LINE
8
BLACK
6
CONTINUOUS
10
145.54
20
-62.8786
11
145.671
21
-62.791
0
LINE
8
BLACK
6
CONTINUOUS
10
145.671
20
-62.791
11
145.817
21
-62.7307
0
LINE
8
BLACK
6
CONTINUOUS
10
145.817
20
-62.7307
11
145.971
21
-62.7
0
LINE
8
BLACK
6
CONTINUOUS
10
145.971
20
-62.7
11
146.129
21
-62.7
0
LINE
8
BLACK
6
CONTINUOUS
10
146.129
20
-62.7
11
146.283
21
-62.7307
0
LINE
8
BLACK
6
CONTINUOUS
10
143.743
20
-62.7307
11
143.889
21
-62.791
0
LINE
8
BLACK
6
CONTINUOUS
10
143.889
20
-62.791
11
144.02
21
-62.8786
0
LINE
8
BLACK
6
CONTINUOUS
10
144.02
20
-62.8786
11
144.131
21
-62.99
0
LINE
8
BLACK
6
CONTINUOUS
10
144.131
20
-62.99
11
144.219
21
-63.1211
0
LINE
8
BLACK
6
CONTINUOUS
10
144.219
20
-63.1211
11
144.279
21
-63.2666
0
LINE
8
BLACK
6
CONTINUOUS
10
144.279
20
-63.2666
11
144.31
21
-63.4212
0
LINE
8
BLACK
6
CONTINUOUS
10
144.31
20
-63.4212
11
144.31
21
-63.5788
0
LINE
8
BLACK
6
CONTINUOUS
10
144.31
20
-63.5788
11
144.279
21
-63.7334
0
LINE
8
BLACK
6
CONTINUOUS
10
144.279
20
-63.7334
11
144.219
21
-63.8789
0
LINE
8
BLACK
6
CONTINUOUS
10
144.219
20
-63.8789
11
144.131
21
-64.01
0
LINE
8
BLACK
6
CONTINUOUS
10
144.131
20
-64.01
11
144.02
21
-64.1214
0
LINE
8
BLACK
6
CONTINUOUS
10
144.02
20
-64.1214
11
143.889
21
-64.209
0
LINE
8
BLACK
6
CONTINUOUS
10
143.889
20
-64.209
11
143.743
21
-64.2693
0
LINE
8
BLACK
6
CONTINUOUS
10
143.743
20
-64.2693
11
143.589
21
-64.3
0
LINE
8
BLACK
6
CONTINUOUS
10
143.589
20
-64.3
11
143.431
21
-64.3
0
LINE
8
BLACK
6
CONTINUOUS
10
143.431
20
-64.3
11
143.277
21
-64.2693
0
LINE
8
BLACK
6
CONTINUOUS
10
143.277
20
-64.2693
11
143.131
21
-64.209
0
LINE
8
BLACK
6
CONTINUOUS
10
143.131
20
-64.209
11
143
21
-64.1214
0
LINE
8
BLACK
6
CONTINUOUS
10
143
20
-64.1214
11
142.889
21
-64.01
0
LINE
8
BLACK
6
CONTINUOUS
10
142.889
20
-64.01
11
142.801
21
-63.8789
0
LINE
8
BLACK
6
CONTINUOUS
10
142.801
20
-63.8789
11
142.741
21
-63.7334
0
LINE
8
BLACK
6
CONTINUOUS
10
142.741
20
-63.7334
11
142.71
21
-63.5788
0
LINE
8
BLACK
6
CONTINUOUS
10
142.71
20
-63.5788
11
142.71
21
-63.4212
0
LINE
8
BLACK
6
CONTINUOUS
10
142.71
20
-63.4212
11
142.741
21
-63.2666
0
LINE
8
BLACK
6
CONTINUOUS
10
142.741
20
-63.2666
11
142.801
21
-63.1211
0
LINE
8
BLACK
6
CONTINUOUS
10
142.801
20
-63.1211
11
142.889
21
-62.99
0
LINE
8
BLACK
6
CONTINUOUS
10
142.889
20
-62.99
11
143
21
-62.8786
0
LINE
8
BLACK
6
CONTINUOUS
10
143
20
-62.8786
11
143.131
21
-62.791
0
LINE
8
BLACK
6
CONTINUOUS
10
143.131
20
-62.791
11
143.277
21
-62.7307
0
LINE
8
BLACK
6
CONTINUOUS
10
143.277
20
-62.7307
11
143.431
21
-62.7
0
LINE
8
BLACK
6
CONTINUOUS
10
143.431
20
-62.7
11
143.589
21
-62.7
0
LINE
8
BLACK
6
CONTINUOUS
10
143.589
20
-62.7
11
143.743
21
-62.7307
0
LINE
8
BLACK
6
CONTINUOUS
10
139.683
20
-62.7307
11
139.829
21
-62.791
0
LINE
8
BLACK
6
CONTINUOUS
10
139.829
20
-62.791
11
139.96
21
-62.8786
0
LINE
8
BLACK
6
CONTINUOUS
10
139.96
20
-62.8786
11
140.071
21
-62.99
0
LINE
8
BLACK
6
CONTINUOUS
10
140.071
20
-62.99
11
140.159
21
-63.1211
0
LINE
8
BLACK
6
CONTINUOUS
10
140.159
20
-63.1211
11
140.219
21
-63.2666
0
LINE
8
BLACK
6
CONTINUOUS
10
140.219
20
-63.2666
11
140.25
21
-63.4212
0
LINE
8
BLACK
6
CONTINUOUS
10
140.25
20
-63.4212
11
140.25
21
-63.5788
0
LINE
8
BLACK
6
CONTINUOUS
10
140.25
20
-63.5788
11
140.219
21
-63.7334
0
LINE
8
BLACK
6
CONTINUOUS
10
140.219
20
-63.7334
11
140.159
21
-63.8789
0
LINE
8
BLACK
6
CONTINUOUS
10
140.159
20
-63.8789
11
140.071
21
-64.01
0
LINE
8
BLACK
6
CONTINUOUS
10
140.071
20
-64.01
11
139.96
21
-64.1214
0
LINE
8
BLACK
6
CONTINUOUS
10
139.96
20
-64.1214
11
139.829
21
-64.209
0
LINE
8
BLACK
6
CONTINUOUS
10
139.829
20
-64.209
11
139.683
21
-64.2693
0
LINE
8
BLACK
6
CONTINUOUS
10
139.683
20
-64.2693
11
139.529
21
-64.3
0
LINE
8
BLACK
6
CONTINUOUS
10
139.529
20
-64.3
11
139.371
21
-64.3
0
LINE
8
BLACK
6
CONTINUOUS
10
139.371
20
-64.3
11
139.217
21
-64.2693
0
LINE
8
BLACK
6
CONTINUOUS
10
139.217
20
-64.2693
11
139.071
21
-64.209
0
LINE
8
BLACK
6
CONTINUOUS
10
139.071
20
-64.209
11
138.94
21
-64.1214
0
LINE
8
BLACK
6
CONTINUOUS
10
138.94
20
-64.1214
11
138.829
21
-64.01
0
LINE
8
BLACK
6
CONTINUOUS
10
138.829
20
-64.01
11
138.741
21
-63.8789
0
LINE
8
BLACK
6
CONTINUOUS
10
138.741
20
-63.8789
11
138.681
21
-63.7334
0
LINE
8
BLACK
6
CONTINUOUS
10
138.681
20
-63.7334
11
138.65
21
-63.5788
0
LINE
8
BLACK
6
CONTINUOUS
10
138.65
20
-63.5788
11
138.65
21
-63.4212
0
LINE
8
BLACK
6
CONTINUOUS
10
138.65
20
-63.4212
11
138.681
21
-63.2666
0
LINE
8
BLACK
6
CONTINUOUS
10
138.681
20
-63.2666
11
138.741
21
-63.1211
0
LINE
8
BLACK
6
CONTINUOUS
10
138.741
20
-63.1211
11
138.829
21
-62.99
0
LINE
8
BLACK
6
CONTINUOUS
10
138.829
20
-62.99
11
138.94
21
-62.8786
0
LINE
8
BLACK
6
CONTINUOUS
10
138.94
20
-62.8786
11
139.071
21
-62.791
0
LINE
8
BLACK
6
CONTINUOUS
10
139.071
20
-62.791
11
139.217
21
-62.7307
0
LINE
8
BLACK
6
CONTINUOUS
10
139.217
20
-62.7307
11
139.371
21
-62.7
0
LINE
8
BLACK
6
CONTINUOUS
10
139.371
20
-62.7
11
139.529
21
-62.7
0
LINE
8
BLACK
6
CONTINUOUS
10
139.529
20
-62.7
11
139.683
21
-62.7307
0
LINE
8
BLACK
6
CONTINUOUS
10
137.143
20
-62.7307
11
137.289
21
-62.791
0
LINE
8
BLACK
6
CONTINUOUS
10
137.289
20
-62.791
11
137.42
21
-62.8786
0
LINE
8
BLACK
6
CONTINUOUS
10
137.42
20
-62.8786
11
137.531
21
-62.99
0
LINE
8
BLACK
6
CONTINUOUS
10
137.531
20
-62.99
11
137.619
21
-63.1211
0
LINE
8
BLACK
6
CONTINUOUS
10
137.619
20
-63.1211
11
137.679
21
-63.2666
0
LINE
8
BLACK
6
CONTINUOUS
10
137.679
20
-63.2666
11
137.71
21
-63.4212
0
LINE
8
BLACK
6
CONTINUOUS
10
137.71
20
-63.4212
11
137.71
21
-63.5788
0
LINE
8
BLACK
6
CONTINUOUS
10
137.71
20
-63.5788
11
137.679
21
-63.7334
0
LINE
8
BLACK
6
CONTINUOUS
10
137.679
20
-63.7334
11
137.619
21
-63.8789
0
LINE
8
BLACK
6
CONTINUOUS
10
137.619
20
-63.8789
11
137.531
21
-64.01
0
LINE
8
BLACK
6
CONTINUOUS
10
137.531
20
-64.01
11
137.42
21
-64.1214
0
LINE
8
BLACK
6
CONTINUOUS
10
137.42
20
-64.1214
11
137.289
21
-64.209
0
LINE
8
BLACK
6
CONTINUOUS
10
137.289
20
-64.209
11
137.143
21
-64.2693
0
LINE
8
BLACK
6
CONTINUOUS
10
137.143
20
-64.2693
11
136.989
21
-64.3
0
LINE
8
BLACK
6
CONTINUOUS
10
136.989
20
-64.3
11
136.831
21
-64.3
0
LINE
8
BLACK
6
CONTINUOUS
10
136.831
20
-64.3
11
136.677
21
-64.2693
0
LINE
8
BLACK
6
CONTINUOUS
10
136.677
20
-64.2693
11
136.531
21
-64.209
0
LINE
8
BLACK
6
CONTINUOUS
10
136.531
20
-64.209
11
136.4
21
-64.1214
0
LINE
8
BLACK
6
CONTINUOUS
10
136.4
20
-64.1214
11
136.289
21
-64.01
0
LINE
8
BLACK
6
CONTINUOUS
10
136.289
20
-64.01
11
136.201
21
-63.8789
0
LINE
8
BLACK
6
CONTINUOUS
10
136.201
20
-63.8789
11
136.141
21
-63.7334
0
LINE
8
BLACK
6
CONTINUOUS
10
136.141
20
-63.7334
11
136.11
21
-63.5788
0
LINE
8
BLACK
6
CONTINUOUS
10
136.11
20
-63.5788
11
136.11
21
-63.4212
0
LINE
8
BLACK
6
CONTINUOUS
10
136.11
20
-63.4212
11
136.141
21
-63.2666
0
LINE
8
BLACK
6
CONTINUOUS
10
136.141
20
-63.2666
11
136.201
21
-63.1211
0
LINE
8
BLACK
6
CONTINUOUS
10
136.201
20
-63.1211
11
136.289
21
-62.99
0
LINE
8
BLACK
6
CONTINUOUS
10
136.289
20
-62.99
11
136.4
21
-62.8786
0
LINE
8
BLACK
6
CONTINUOUS
10
136.4
20
-62.8786
11
136.531
21
-62.791
0
LINE
8
BLACK
6
CONTINUOUS
10
136.531
20
-62.791
11
136.677
21
-62.7307
0
LINE
8
BLACK
6
CONTINUOUS
10
136.677
20
-62.7307
11
136.831
21
-62.7
0
LINE
8
BLACK
6
CONTINUOUS
10
136.831
20
-62.7
11
136.989
21
-62.7
0
LINE
8
BLACK
6
CONTINUOUS
10
136.989
20
-62.7
11
137.143
21
-62.7307
0
LINE
8
BLACK
6
CONTINUOUS
10
134.603
20
-62.7307
11
134.749
21
-62.791
0
LINE
8
BLACK
6
CONTINUOUS
10
134.749
20
-62.791
11
134.88
21
-62.8786
0
LINE
8
BLACK
6
CONTINUOUS
10
134.88
20
-62.8786
11
134.991
21
-62.99
0
LINE
8
BLACK
6
CONTINUOUS
10
134.991
20
-62.99
11
135.079
21
-63.1211
0
LINE
8
BLACK
6
CONTINUOUS
10
135.079
20
-63.1211
11
135.139
21
-63.2666
0
LINE
8
BLACK
6
CONTINUOUS
10
135.139
20
-63.2666
11
135.17
21
-63.4212
0
LINE
8
BLACK
6
CONTINUOUS
10
135.17
20
-63.4212
11
135.17
21
-63.5788
0
LINE
8
BLACK
6
CONTINUOUS
10
135.17
20
-63.5788
11
135.139
21
-63.7334
0
LINE
8
BLACK
6
CONTINUOUS
10
135.139
20
-63.7334
11
135.079
21
-63.8789
0
LINE
8
BLACK
6
CONTINUOUS
10
135.079
20
-63.8789
11
134.991
21
-64.01
0
LINE
8
BLACK
6
CONTINUOUS
10
134.991
20
-64.01
11
134.88
21
-64.1214
0
LINE
8
BLACK
6
CONTINUOUS
10
134.88
20
-64.1214
11
134.749
21
-64.209
0
LINE
8
BLACK
6
CONTINUOUS
10
134.749
20
-64.209
11
134.603
21
-64.2693
0
LINE
8
BLACK
6
CONTINUOUS
10
134.603
20
-64.2693
11
134.449
21
-64.3
0
LINE
8
BLACK
6
CONTINUOUS
10
134.449
20
-64.3
11
134.291
21
-64.3
0
LINE
8
BLACK
6
CONTINUOUS
10
134.291
20
-64.3
11
134.137
21
-64.2693
0
LINE
8
BLACK
6
CONTINUOUS
10
134.137
20
-64.2693
11
133.991
21
-64.209
0
LINE
8
BLACK
6
CONTINUOUS
10
133.991
20
-64.209
11
133.86
21
-64.1214
0
LINE
8
BLACK
6
CONTINUOUS
10
133.86
20
-64.1214
11
133.749
21
-64.01
0
LINE
8
BLACK
6
CONTINUOUS
10
133.749
20
-64.01
11
133.661
21
-63.8789
0
LINE
8
BLACK
6
CONTINUOUS
10
133.661
20
-63.8789
11
133.601
21
-63.7334
0
LINE
8
BLACK
6
CONTINUOUS
10
133.601
20
-63.7334
11
133.57
21
-63.5788
0
LINE
8
BLACK
6
CONTINUOUS
10
133.57
20
-63.5788
11
133.57
21
-63.4212
0
LINE
8
BLACK
6
CONTINUOUS
10
133.57
20
-63.4212
11
133.601
21
-63.2666
0
LINE
8
BLACK
6
CONTINUOUS
10
133.601
20
-63.2666
11
133.661
21
-63.1211
0
LINE
8
BLACK
6
CONTINUOUS
10
133.661
20
-63.1211
11
133.749
21
-62.99
0
LINE
8
BLACK
6
CONTINUOUS
10
133.749
20
-62.99
11
133.86
21
-62.8786
0
LINE
8
BLACK
6
CONTINUOUS
10
133.86
20
-62.8786
11
133.991
21
-62.791
0
LINE
8
BLACK
6
CONTINUOUS
10
133.991
20
-62.791
11
134.137
21
-62.7307
0
LINE
8
BLACK
6
CONTINUOUS
10
134.137
20
-62.7307
11
134.291
21
-62.7
0
LINE
8
BLACK
6
CONTINUOUS
10
134.291
20
-62.7
11
134.449
21
-62.7
0
LINE
8
BLACK
6
CONTINUOUS
10
134.449
20
-62.7
11
134.603
21
-62.7307
0
LINE
8
BLACK
6
CONTINUOUS
10
132.063
20
-62.7307
11
132.209
21
-62.791
0
LINE
8
BLACK
6
CONTINUOUS
10
132.209
20
-62.791
11
132.34
21
-62.8786
0
LINE
8
BLACK
6
CONTINUOUS
10
132.34
20
-62.8786
11
132.451
21
-62.99
0
LINE
8
BLACK
6
CONTINUOUS
10
132.451
20
-62.99
11
132.539
21
-63.1211
0
LINE
8
BLACK
6
CONTINUOUS
10
132.539
20
-63.1211
11
132.599
21
-63.2666
0
LINE
8
BLACK
6
CONTINUOUS
10
132.599
20
-63.2666
11
132.63
21
-63.4212
0
LINE
8
BLACK
6
CONTINUOUS
10
132.63
20
-63.4212
11
132.63
21
-63.5788
0
LINE
8
BLACK
6
CONTINUOUS
10
132.63
20
-63.5788
11
132.599
21
-63.7334
0
LINE
8
BLACK
6
CONTINUOUS
10
132.599
20
-63.7334
11
132.539
21
-63.8789
0
LINE
8
BLACK
6
CONTINUOUS
10
132.539
20
-63.8789
11
132.451
21
-64.01
0
LINE
8
BLACK
6
CONTINUOUS
10
132.451
20
-64.01
11
132.34
21
-64.1214
0
LINE
8
BLACK
6
CONTINUOUS
10
132.34
20
-64.1214
11
132.209
21
-64.209
0
LINE
8
BLACK
6
CONTINUOUS
10
132.209
20
-64.209
11
132.063
21
-64.2693
0
LINE
8
BLACK
6
CONTINUOUS
10
132.063
20
-64.2693
11
131.909
21
-64.3
0
LINE
8
BLACK
6
CONTINUOUS
10
131.909
20
-64.3
11
131.751
21
-64.3
0
LINE
8
BLACK
6
CONTINUOUS
10
131.751
20
-64.3
11
131.597
21
-64.2693
0
LINE
8
BLACK
6
CONTINUOUS
10
131.597
20
-64.2693
11
131.451
21
-64.209
0
LINE
8
BLACK
6
CONTINUOUS
10
131.451
20
-64.209
11
131.32
21
-64.1214
0
LINE
8
BLACK
6
CONTINUOUS
10
131.32
20
-64.1214
11
131.209
21
-64.01
0
LINE
8
BLACK
6
CONTINUOUS
10
131.209
20
-64.01
11
131.121
21
-63.8789
0
LINE
8
BLACK
6
CONTINUOUS
10
131.121
20
-63.8789
11
131.061
21
-63.7334
0
LINE
8
BLACK
6
CONTINUOUS
10
131.061
20
-63.7334
11
131.03
21
-63.5788
0
LINE
8
BLACK
6
CONTINUOUS
10
131.03
20
-63.5788
11
131.03
21
-63.4212
0
LINE
8
BLACK
6
CONTINUOUS
10
131.03
20
-63.4212
11
131.061
21
-63.2666
0
LINE
8
BLACK
6
CONTINUOUS
10
131.061
20
-63.2666
11
131.121
21
-63.1211
0
LINE
8
BLACK
6
CONTINUOUS
10
131.121
20
-63.1211
11
131.209
21
-62.99
0
LINE
8
BLACK
6
CONTINUOUS
10
131.209
20
-62.99
11
131.32
21
-62.8786
0
LINE
8
BLACK
6
CONTINUOUS
10
131.32
20
-62.8786
11
131.451
21
-62.791
0
LINE
8
BLACK
6
CONTINUOUS
10
131.451
20
-62.791
11
131.597
21
-62.7307
0
LINE
8
BLACK
6
CONTINUOUS
10
131.597
20
-62.7307
11
131.751
21
-62.7
0
LINE
8
BLACK
6
CONTINUOUS
10
131.751
20
-62.7
11
131.909
21
-62.7
0
LINE
8
BLACK
6
CONTINUOUS
10
131.909
20
-62.7
11
132.063
21
-62.7307
0
LINE
8
BLACK
6
CONTINUOUS
10
129.523
20
-62.7307
11
129.669
21
-62.791
0
LINE
8
BLACK
6
CONTINUOUS
10
129.669
20
-62.791
11
129.8
21
-62.8786
0
LINE
8
BLACK
6
CONTINUOUS
10
129.8
20
-62.8786
11
129.911
21
-62.99
0
LINE
8
BLACK
6
CONTINUOUS
10
129.911
20
-62.99
11
129.999
21
-63.1211
0
LINE
8
BLACK
6
CONTINUOUS
10
129.999
20
-63.1211
11
130.059
21
-63.2666
0
LINE
8
BLACK
6
CONTINUOUS
10
130.059
20
-63.2666
11
130.09
21
-63.4212
0
LINE
8
BLACK
6
CONTINUOUS
10
130.09
20
-63.4212
11
130.09
21
-63.5788
0
LINE
8
BLACK
6
CONTINUOUS
10
130.09
20
-63.5788
11
130.059
21
-63.7334
0
LINE
8
BLACK
6
CONTINUOUS
10
130.059
20
-63.7334
11
129.999
21
-63.8789
0
LINE
8
BLACK
6
CONTINUOUS
10
129.999
20
-63.8789
11
129.911
21
-64.01
0
LINE
8
BLACK
6
CONTINUOUS
10
129.911
20
-64.01
11
129.8
21
-64.1214
0
LINE
8
BLACK
6
CONTINUOUS
10
129.8
20
-64.1214
11
129.669
21
-64.209
0
LINE
8
BLACK
6
CONTINUOUS
10
129.669
20
-64.209
11
129.523
21
-64.2693
0
LINE
8
BLACK
6
CONTINUOUS
10
129.523
20
-64.2693
11
129.369
21
-64.3
0
LINE
8
BLACK
6
CONTINUOUS
10
129.369
20
-64.3
11
129.211
21
-64.3
0
LINE
8
BLACK
6
CONTINUOUS
10
129.211
20
-64.3
11
129.057
21
-64.2693
0
LINE
8
BLACK
6
CONTINUOUS
10
129.057
20
-64.2693
11
128.911
21
-64.209
0
LINE
8
BLACK
6
CONTINUOUS
10
128.911
20
-64.209
11
128.78
21
-64.1214
0
LINE
8
BLACK
6
CONTINUOUS
10
128.78
20
-64.1214
11
128.669
21
-64.01
0
LINE
8
BLACK
6
CONTINUOUS
10
128.669
20
-64.01
11
128.581
21
-63.8789
0
LINE
8
BLACK
6
CONTINUOUS
10
128.581
20
-63.8789
11
128.521
21
-63.7334
0
LINE
8
BLACK
6
CONTINUOUS
10
128.521
20
-63.7334
11
128.49
21
-63.5788
0
LINE
8
BLACK
6
CONTINUOUS
10
128.49
20
-63.5788
11
128.49
21
-63.4212
0
LINE
8
BLACK
6
CONTINUOUS
10
128.49
20
-63.4212
11
128.521
21
-63.2666
0
LINE
8
BLACK
6
CONTINUOUS
10
128.521
20
-63.2666
11
128.581
21
-63.1211
0
LINE
8
BLACK
6
CONTINUOUS
10
128.581
20
-63.1211
11
128.669
21
-62.99
0
LINE
8
BLACK
6
CONTINUOUS
10
128.669
20
-62.99
11
128.78
21
-62.8786
0
LINE
8
BLACK
6
CONTINUOUS
10
128.78
20
-62.8786
11
128.911
21
-62.791
0
LINE
8
BLACK
6
CONTINUOUS
10
128.911
20
-62.791
11
129.057
21
-62.7307
0
LINE
8
BLACK
6
CONTINUOUS
10
129.057
20
-62.7307
11
129.211
21
-62.7
0
LINE
8
BLACK
6
CONTINUOUS
10
129.211
20
-62.7
11
129.369
21
-62.7
0
LINE
8
BLACK
6
CONTINUOUS
10
129.369
20
-62.7
11
129.523
21
-62.7307
0
LINE
8
BLACK
6
CONTINUOUS
10
126.983
20
-62.7307
11
127.129
21
-62.791
0
LINE
8
BLACK
6
CONTINUOUS
10
127.129
20
-62.791
11
127.26
21
-62.8786
0
LINE
8
BLACK
6
CONTINUOUS
10
127.26
20
-62.8786
11
127.371
21
-62.99
0
LINE
8
BLACK
6
CONTINUOUS
10
127.371
20
-62.99
11
127.459
21
-63.1211
0
LINE
8
BLACK
6
CONTINUOUS
10
127.459
20
-63.1211
11
127.519
21
-63.2666
0
LINE
8
BLACK
6
CONTINUOUS
10
127.519
20
-63.2666
11
127.55
21
-63.4212
0
LINE
8
BLACK
6
CONTINUOUS
10
127.55
20
-63.4212
11
127.55
21
-63.5788
0
LINE
8
BLACK
6
CONTINUOUS
10
127.55
20
-63.5788
11
127.519
21
-63.7334
0
LINE
8
BLACK
6
CONTINUOUS
10
127.519
20
-63.7334
11
127.459
21
-63.8789
0
LINE
8
BLACK
6
CONTINUOUS
10
127.459
20
-63.8789
11
127.371
21
-64.01
0
LINE
8
BLACK
6
CONTINUOUS
10
127.371
20
-64.01
11
127.26
21
-64.1214
0
LINE
8
BLACK
6
CONTINUOUS
10
127.26
20
-64.1214
11
127.129
21
-64.209
0
LINE
8
BLACK
6
CONTINUOUS
10
127.129
20
-64.209
11
126.983
21
-64.2693
0
LINE
8
BLACK
6
CONTINUOUS
10
126.983
20
-64.2693
11
126.829
21
-64.3
0
LINE
8
BLACK
6
CONTINUOUS
10
126.829
20
-64.3
11
126.671
21
-64.3
0
LINE
8
BLACK
6
CONTINUOUS
10
126.671
20
-64.3
11
126.517
21
-64.2693
0
LINE
8
BLACK
6
CONTINUOUS
10
126.517
20
-64.2693
11
126.371
21
-64.209
0
LINE
8
BLACK
6
CONTINUOUS
10
126.371
20
-64.209
11
126.24
21
-64.1214
0
LINE
8
BLACK
6
CONTINUOUS
10
126.24
20
-64.1214
11
126.129
21
-64.01
0
LINE
8
BLACK
6
CONTINUOUS
10
126.129
20
-64.01
11
126.041
21
-63.8789
0
LINE
8
BLACK
6
CONTINUOUS
10
126.041
20
-63.8789
11
125.981
21
-63.7334
0
LINE
8
BLACK
6
CONTINUOUS
10
125.981
20
-63.7334
11
125.95
21
-63.5788
0
LINE
8
BLACK
6
CONTINUOUS
10
125.95
20
-63.5788
11
125.95
21
-63.4212
0
LINE
8
BLACK
6
CONTINUOUS
10
125.95
20
-63.4212
11
125.981
21
-63.2666
0
LINE
8
BLACK
6
CONTINUOUS
10
125.981
20
-63.2666
11
126.041
21
-63.1211
0
LINE
8
BLACK
6
CONTINUOUS
10
126.041
20
-63.1211
11
126.129
21
-62.99
0
LINE
8
BLACK
6
CONTINUOUS
10
126.129
20
-62.99
11
126.24
21
-62.8786
0
LINE
8
BLACK
6
CONTINUOUS
10
126.24
20
-62.8786
11
126.371
21
-62.791
0
LINE
8
BLACK
6
CONTINUOUS
10
126.371
20
-62.791
11
126.517
21
-62.7307
0
LINE
8
BLACK
6
CONTINUOUS
10
126.517
20
-62.7307
11
126.671
21
-62.7
0
LINE
8
BLACK
6
CONTINUOUS
10
126.671
20
-62.7
11
126.829
21
-62.7
0
LINE
8
BLACK
6
CONTINUOUS
10
126.829
20
-62.7
11
126.983
21
-62.7307
0
LINE
8
BLACK
6
CONTINUOUS
10
124.443
20
-62.7307
11
124.589
21
-62.791
0
LINE
8
BLACK
6
CONTINUOUS
10
124.589
20
-62.791
11
124.72
21
-62.8786
0
LINE
8
BLACK
6
CONTINUOUS
10
124.72
20
-62.8786
11
124.831
21
-62.99
0
LINE
8
BLACK
6
CONTINUOUS
10
124.831
20
-62.99
11
124.919
21
-63.1211
0
LINE
8
BLACK
6
CONTINUOUS
10
124.919
20
-63.1211
11
124.979
21
-63.2666
0
LINE
8
BLACK
6
CONTINUOUS
10
124.979
20
-63.2666
11
125.01
21
-63.4212
0
LINE
8
BLACK
6
CONTINUOUS
10
125.01
20
-63.4212
11
125.01
21
-63.5788
0
LINE
8
BLACK
6
CONTINUOUS
10
125.01
20
-63.5788
11
124.979
21
-63.7334
0
LINE
8
BLACK
6
CONTINUOUS
10
124.979
20
-63.7334
11
124.919
21
-63.8789
0
LINE
8
BLACK
6
CONTINUOUS
10
124.919
20
-63.8789
11
124.831
21
-64.01
0
LINE
8
BLACK
6
CONTINUOUS
10
124.831
20
-64.01
11
124.72
21
-64.1214
0
LINE
8
BLACK
6
CONTINUOUS
10
124.72
20
-64.1214
11
124.589
21
-64.209
0
LINE
8
BLACK
6
CONTINUOUS
10
124.589
20
-64.209
11
124.443
21
-64.2693
0
LINE
8
BLACK
6
CONTINUOUS
10
124.443
20
-64.2693
11
124.289
21
-64.3
0
LINE
8
BLACK
6
CONTINUOUS
10
124.289
20
-64.3
11
124.131
21
-64.3
0
LINE
8
BLACK
6
CONTINUOUS
10
124.131
20
-64.3
11
123.977
21
-64.2693
0
LINE
8
BLACK
6
CONTINUOUS
10
123.977
20
-64.2693
11
123.831
21
-64.209
0
LINE
8
BLACK
6
CONTINUOUS
10
123.831
20
-64.209
11
123.7
21
-64.1214
0
LINE
8
BLACK
6
CONTINUOUS
10
123.7
20
-64.1214
11
123.589
21
-64.01
0
LINE
8
BLACK
6
CONTINUOUS
10
123.589
20
-64.01
11
123.501
21
-63.8789
0
LINE
8
BLACK
6
CONTINUOUS
10
123.501
20
-63.8789
11
123.441
21
-63.7334
0
LINE
8
BLACK
6
CONTINUOUS
10
123.441
20
-63.7334
11
123.41
21
-63.5788
0
LINE
8
BLACK
6
CONTINUOUS
10
123.41
20
-63.5788
11
123.41
21
-63.4212
0
LINE
8
BLACK
6
CONTINUOUS
10
123.41
20
-63.4212
11
123.441
21
-63.2666
0
LINE
8
BLACK
6
CONTINUOUS
10
123.441
20
-63.2666
11
123.501
21
-63.1211
0
LINE
8
BLACK
6
CONTINUOUS
10
123.501
20
-63.1211
11
123.589
21
-62.99
0
LINE
8
BLACK
6
CONTINUOUS
10
123.589
20
-62.99
11
123.7
21
-62.8786
0
LINE
8
BLACK
6
CONTINUOUS
10
123.7
20
-62.8786
11
123.831
21
-62.791
0
LINE
8
BLACK
6
CONTINUOUS
10
123.831
20
-62.791
11
123.977
21
-62.7307
0
LINE
8
BLACK
6
CONTINUOUS
10
123.977
20
-62.7307
11
124.131
21
-62.7
0
LINE
8
BLACK
6
CONTINUOUS
10
124.131
20
-62.7
11
124.289
21
-62.7
0
LINE
8
BLACK
6
CONTINUOUS
10
124.289
20
-62.7
11
124.443
21
-62.7307
0
LINE
8
BLACK
6
CONTINUOUS
10
121.903
20
-62.7307
11
122.049
21
-62.791
0
LINE
8
BLACK
6
CONTINUOUS
10
122.049
20
-62.791
11
122.18
21
-62.8786
0
LINE
8
BLACK
6
CONTINUOUS
10
122.18
20
-62.8786
11
122.291
21
-62.99
0
LINE
8
BLACK
6
CONTINUOUS
10
122.291
20
-62.99
11
122.379
21
-63.1211
0
LINE
8
BLACK
6
CONTINUOUS
10
122.379
20
-63.1211
11
122.439
21
-63.2666
0
LINE
8
BLACK
6
CONTINUOUS
10
122.439
20
-63.2666
11
122.47
21
-63.4212
0
LINE
8
BLACK
6
CONTINUOUS
10
122.47
20
-63.4212
11
122.47
21
-63.5788
0
LINE
8
BLACK
6
CONTINUOUS
10
122.47
20
-63.5788
11
122.439
21
-63.7334
0
LINE
8
BLACK
6
CONTINUOUS
10
122.439
20
-63.7334
11
122.379
21
-63.8789
0
LINE
8
BLACK
6
CONTINUOUS
10
122.379
20
-63.8789
11
122.291
21
-64.01
0
LINE
8
BLACK
6
CONTINUOUS
10
122.291
20
-64.01
11
122.18
21
-64.1214
0
LINE
8
BLACK
6
CONTINUOUS
10
122.18
20
-64.1214
11
122.049
21
-64.209
0
LINE
8
BLACK
6
CONTINUOUS
10
122.049
20
-64.209
11
121.903
21
-64.2693
0
LINE
8
BLACK
6
CONTINUOUS
10
121.903
20
-64.2693
11
121.749
21
-64.3
0
LINE
8
BLACK
6
CONTINUOUS
10
121.749
20
-64.3
11
121.591
21
-64.3
0
LINE
8
BLACK
6
CONTINUOUS
10
121.591
20
-64.3
11
121.437
21
-64.2693
0
LINE
8
BLACK
6
CONTINUOUS
10
121.437
20
-64.2693
11
121.291
21
-64.209
0
LINE
8
BLACK
6
CONTINUOUS
10
121.291
20
-64.209
11
121.16
21
-64.1214
0
LINE
8
BLACK
6
CONTINUOUS
10
121.16
20
-64.1214
11
121.049
21
-64.01
0
LINE
8
BLACK
6
CONTINUOUS
10
121.049
20
-64.01
11
120.961
21
-63.8789
0
LINE
8
BLACK
6
CONTINUOUS
10
120.961
20
-63.8789
11
120.901
21
-63.7334
0
LINE
8
BLACK
6
CONTINUOUS
10
120.901
20
-63.7334
11
120.87
21
-63.5788
0
LINE
8
BLACK
6
CONTINUOUS
10
120.87
20
-63.5788
11
120.87
21
-63.4212
0
LINE
8
BLACK
6
CONTINUOUS
10
120.87
20
-63.4212
11
120.901
21
-63.2666
0
LINE
8
BLACK
6
CONTINUOUS
10
120.901
20
-63.2666
11
120.961
21
-63.1211
0
LINE
8
BLACK
6
CONTINUOUS
10
120.961
20
-63.1211
11
121.049
21
-62.99
0
LINE
8
BLACK
6
CONTINUOUS
10
121.049
20
-62.99
11
121.16
21
-62.8786
0
LINE
8
BLACK
6
CONTINUOUS
10
121.16
20
-62.8786
11
121.291
21
-62.791
0
LINE
8
BLACK
6
CONTINUOUS
10
121.291
20
-62.791
11
121.437
21
-62.7307
0
LINE
8
BLACK
6
CONTINUOUS
10
121.437
20
-62.7307
11
121.591
21
-62.7
0
LINE
8
BLACK
6
CONTINUOUS
10
121.591
20
-62.7
11
121.749
21
-62.7
0
LINE
8
BLACK
6
CONTINUOUS
10
121.749
20
-62.7
11
121.903
21
-62.7307
0
LINE
8
BLACK
6
CONTINUOUS
10
161.523
20
-62.7307
11
161.669
21
-62.791
0
LINE
8
BLACK
6
CONTINUOUS
10
161.669
20
-62.791
11
161.8
21
-62.8786
0
LINE
8
BLACK
6
CONTINUOUS
10
161.8
20
-62.8786
11
161.911
21
-62.99
0
LINE
8
BLACK
6
CONTINUOUS
10
161.911
20
-62.99
11
161.999
21
-63.1211
0
LINE
8
BLACK
6
CONTINUOUS
10
161.999
20
-63.1211
11
162.059
21
-63.2666
0
LINE
8
BLACK
6
CONTINUOUS
10
162.059
20
-63.2666
11
162.09
21
-63.4212
0
LINE
8
BLACK
6
CONTINUOUS
10
162.09
20
-63.4212
11
162.09
21
-63.5788
0
LINE
8
BLACK
6
CONTINUOUS
10
162.09
20
-63.5788
11
162.059
21
-63.7334
0
LINE
8
BLACK
6
CONTINUOUS
10
162.059
20
-63.7334
11
161.999
21
-63.8789
0
LINE
8
BLACK
6
CONTINUOUS
10
161.999
20
-63.8789
11
161.911
21
-64.01
0
LINE
8
BLACK
6
CONTINUOUS
10
161.911
20
-64.01
11
161.8
21
-64.1214
0
LINE
8
BLACK
6
CONTINUOUS
10
161.8
20
-64.1214
11
161.669
21
-64.209
0
LINE
8
BLACK
6
CONTINUOUS
10
161.669
20
-64.209
11
161.523
21
-64.2693
0
LINE
8
BLACK
6
CONTINUOUS
10
161.523
20
-64.2693
11
161.369
21
-64.3
0
LINE
8
BLACK
6
CONTINUOUS
10
161.369
20
-64.3
11
161.211
21
-64.3
0
LINE
8
BLACK
6
CONTINUOUS
10
161.211
20
-64.3
11
161.057
21
-64.2693
0
LINE
8
BLACK
6
CONTINUOUS
10
161.057
20
-64.2693
11
160.911
21
-64.209
0
LINE
8
BLACK
6
CONTINUOUS
10
160.911
20
-64.209
11
160.78
21
-64.1214
0
LINE
8
BLACK
6
CONTINUOUS
10
160.78
20
-64.1214
11
160.669
21
-64.01
0
LINE
8
BLACK
6
CONTINUOUS
10
160.669
20
-64.01
11
160.581
21
-63.8789
0
LINE
8
BLACK
6
CONTINUOUS
10
160.581
20
-63.8789
11
160.521
21
-63.7334
0
LINE
8
BLACK
6
CONTINUOUS
10
160.521
20
-63.7334
11
160.49
21
-63.5788
0
LINE
8
BLACK
6
CONTINUOUS
10
160.49
20
-63.5788
11
160.49
21
-63.4212
0
LINE
8
BLACK
6
CONTINUOUS
10
160.49
20
-63.4212
11
160.521
21
-63.2666
0
LINE
8
BLACK
6
CONTINUOUS
10
160.521
20
-63.2666
11
160.581
21
-63.1211
0
LINE
8
BLACK
6
CONTINUOUS
10
160.581
20
-63.1211
11
160.669
21
-62.99
0
LINE
8
BLACK
6
CONTINUOUS
10
160.669
20
-62.99
11
160.78
21
-62.8786
0
LINE
8
BLACK
6
CONTINUOUS
10
160.78
20
-62.8786
11
160.911
21
-62.791
0
LINE
8
BLACK
6
CONTINUOUS
10
160.911
20
-62.791
11
161.057
21
-62.7307
0
LINE
8
BLACK
6
CONTINUOUS
10
161.057
20
-62.7307
11
161.211
21
-62.7
0
LINE
8
BLACK
6
CONTINUOUS
10
161.211
20
-62.7
11
161.369
21
-62.7
0
LINE
8
BLACK
6
CONTINUOUS
10
161.369
20
-62.7
11
161.523
21
-62.7307
0
LINE
8
BLACK
6
CONTINUOUS
10
158.983
20
-62.7307
11
159.129
21
-62.791
0
LINE
8
BLACK
6
CONTINUOUS
10
159.129
20
-62.791
11
159.26
21
-62.8786
0
LINE
8
BLACK
6
CONTINUOUS
10
159.26
20
-62.8786
11
159.371
21
-62.99
0
LINE
8
BLACK
6
CONTINUOUS
10
159.371
20
-62.99
11
159.459
21
-63.1211
0
LINE
8
BLACK
6
CONTINUOUS
10
159.459
20
-63.1211
11
159.519
21
-63.2666
0
LINE
8
BLACK
6
CONTINUOUS
10
159.519
20
-63.2666
11
159.55
21
-63.4212
0
LINE
8
BLACK
6
CONTINUOUS
10
159.55
20
-63.4212
11
159.55
21
-63.5788
0
LINE
8
BLACK
6
CONTINUOUS
10
159.55
20
-63.5788
11
159.519
21
-63.7334
0
LINE
8
BLACK
6
CONTINUOUS
10
159.519
20
-63.7334
11
159.459
21
-63.8789
0
LINE
8
BLACK
6
CONTINUOUS
10
159.459
20
-63.8789
11
159.371
21
-64.01
0
LINE
8
BLACK
6
CONTINUOUS
10
159.371
20
-64.01
11
159.26
21
-64.1214
0
LINE
8
BLACK
6
CONTINUOUS
10
159.26
20
-64.1214
11
159.129
21
-64.209
0
LINE
8
BLACK
6
CONTINUOUS
10
159.129
20
-64.209
11
158.983
21
-64.2693
0
LINE
8
BLACK
6
CONTINUOUS
10
158.983
20
-64.2693
11
158.829
21
-64.3
0
LINE
8
BLACK
6
CONTINUOUS
10
158.829
20
-64.3
11
158.671
21
-64.3
0
LINE
8
BLACK
6
CONTINUOUS
10
158.671
20
-64.3
11
158.517
21
-64.2693
0
LINE
8
BLACK
6
CONTINUOUS
10
158.517
20
-64.2693
11
158.371
21
-64.209
0
LINE
8
BLACK
6
CONTINUOUS
10
158.371
20
-64.209
11
158.24
21
-64.1214
0
LINE
8
BLACK
6
CONTINUOUS
10
158.24
20
-64.1214
11
158.129
21
-64.01
0
LINE
8
BLACK
6
CONTINUOUS
10
158.129
20
-64.01
11
158.041
21
-63.8789
0
LINE
8
BLACK
6
CONTINUOUS
10
158.041
20
-63.8789
11
157.981
21
-63.7334
0
LINE
8
BLACK
6
CONTINUOUS
10
157.981
20
-63.7334
11
157.95
21
-63.5788
0
LINE
8
BLACK
6
CONTINUOUS
10
157.95
20
-63.5788
11
157.95
21
-63.4212
0
LINE
8
BLACK
6
CONTINUOUS
10
157.95
20
-63.4212
11
157.981
21
-63.2666
0
LINE
8
BLACK
6
CONTINUOUS
10
157.981
20
-63.2666
11
158.041
21
-63.1211
0
LINE
8
BLACK
6
CONTINUOUS
10
158.041
20
-63.1211
11
158.129
21
-62.99
0
LINE
8
BLACK
6
CONTINUOUS
10
158.129
20
-62.99
11
158.24
21
-62.8786
0
LINE
8
BLACK
6
CONTINUOUS
10
158.24
20
-62.8786
11
158.371
21
-62.791
0
LINE
8
BLACK
6
CONTINUOUS
10
158.371
20
-62.791
11
158.517
21
-62.7307
0
LINE
8
BLACK
6
CONTINUOUS
10
158.517
20
-62.7307
11
158.671
21
-62.7
0
LINE
8
BLACK
6
CONTINUOUS
10
158.671
20
-62.7
11
158.829
21
-62.7
0
LINE
8
BLACK
6
CONTINUOUS
10
158.829
20
-62.7
11
158.983
21
-62.7307
0
CIRCLE
8
BLACK
10
154.94
20
-95.25
40
0.175
0
CIRCLE
8
BLACK
10
154.94
20
-107.95
40
0.175
0
CIRCLE
8
BLACK
10
162.56
20
-88.9
40
0.175
0
CIRCLE
8
BLACK
10
162.56
20
-93.98
40
0.175
0
CIRCLE
8
BLACK
10
138.43
20
-69.85
40
0.175
0
CIRCLE
8
BLACK
10
138.43
20
-72.39
40
0.175
0
CIRCLE
8
BLACK
10
138.43
20
-74.93
40
0.175
0
CIRCLE
8
BLACK
10
138.43
20
-77.47
40
0.175
0
CIRCLE
8
BLACK
10
143.51
20
-69.85
40
0.175
0
CIRCLE
8
BLACK
10
143.51
20
-72.39
40
0.175
0
CIRCLE
8
BLACK
10
143.51
20
-74.93
40
0.175
0
CIRCLE
8
BLACK
10
143.51
20
-77.47
40
0.175
0
CIRCLE
8
BLACK
10
151.13
20
-69.85
40
0.175
0
CIRCLE
8
BLACK
10
151.13
20
-72.39
40
0.175
0
CIRCLE
8
BLACK
10
151.13
20
-74.93
40
0.175
0
CIRCLE
8
BLACK
10
151.13
20
-77.47
40
0.175
0
CIRCLE
8
BLACK
10
156.21
20
-69.85
40
0.175
0
CIRCLE
8
BLACK
10
156.21
20
-72.39
40
0.175
0
CIRCLE
8
BLACK
10
156.21
20
-74.93
40
0.175
0
CIRCLE
8
BLACK
10
156.21
20
-77.47
40
0.175
0
CIRCLE
8
BLACK
10
148.59
20
-100.33
40
0.175
0
CIRCLE
8
BLACK
10
146.09
20
-100.33
40
0.175
0
CIRCLE
8
BLACK
10
138.43
20
-85.09
40
0.175
0
CIRCLE
8
BLACK
10
138.43
20
-90.09
40
0.175
0
CIRCLE
8
BLACK
10
158.75
20
-63.5
40
0.175
0
CIRCLE
8
BLACK
10
161.29
20
-63.5
40
0.175
0
CIRCLE
8
BLACK
10
121.67
20
-63.5
40
0.175
0
CIRCLE
8
BLACK
10
161.29
20
-111.76
40
0.175
0
CIRCLE
8
BLACK
10
124.21
20
-63.5
40
0.175
0
CIRCLE
8
BLACK
10
158.75
20
-111.76
40
0.175
0
CIRCLE
8
BLACK
10
126.75
20
-63.5
40
0.175
0
CIRCLE
8
BLACK
10
156.21
20
-111.76
40
0.175
0
CIRCLE
8
BLACK
10
129.29
20
-63.5
40
0.175
0
CIRCLE
8
BLACK
10
153.67
20
-111.76
40
0.175
0
CIRCLE
8
BLACK
10
131.83
20
-63.5
40
0.175
0
CIRCLE
8
BLACK
10
151.13
20
-111.76
40
0.175
0
CIRCLE
8
BLACK
10
134.37
20
-63.5
40
0.175
0
CIRCLE
8
BLACK
10
148.59
20
-111.76
40
0.175
0
CIRCLE
8
BLACK
10
136.91
20
-63.5
40
0.175
0
CIRCLE
8
BLACK
10
143.51
20
-111.76
40
0.175
0
CIRCLE
8
BLACK
10
139.45
20
-63.5
40
0.175
0
CIRCLE
8
BLACK
10
140.97
20
-111.76
40
0.175
0
CIRCLE
8
BLACK
10
143.51
20
-63.5
40
0.175
0
CIRCLE
8
BLACK
10
138.43
20
-111.76
40
0.175
0
CIRCLE
8
BLACK
10
146.05
20
-63.5
40
0.175
0
CIRCLE
8
BLACK
10
135.89
20
-111.76
40
0.175
0
CIRCLE
8
BLACK
10
148.59
20
-63.5
40
0.175
0
CIRCLE
8
BLACK
10
133.35
20
-111.76
40
0.175
0
CIRCLE
8
BLACK
10
151.13
20
-63.5
40
0.175
0
CIRCLE
8
BLACK
10
130.81
20
-111.76
40
0.175
0
CIRCLE
8
BLACK
10
153.67
20
-63.5
40
0.175
0
CIRCLE
8
BLACK
10
128.27
20
-111.76
40
0.175
0
CIRCLE
8
BLACK
10
156.21
20
-63.5
40
0.175
0
CIRCLE
8
BLACK
10
125.73
20
-111.76
40
0.175
0
CIRCLE
8
BLACK
10
119.13
20
-63.5
40
0.175
0
CIRCLE
8
BLACK
10
116.59
20
-63.5
40
0.175
0
CIRCLE
8
BLACK
10
153.67
20
-66.675
40
0.5
0
CIRCLE
8
BLACK
10
141.605
20
-66.675
40
0.5
  0
ENDSEC
  0
EOF
